<?xml version="1.0" encoding="utf-8"?>
<!-- Generator: Adobe Illustrator 26.3.1, SVG Export Plug-In . SVG Version: 6.00 Build 0)  -->
<svg version="1.1" xmlns="http://www.w3.org/2000/svg" xmlns:xlink="http://www.w3.org/1999/xlink" x="0px" y="0px"
	 viewBox="0 0 1280 581" style="enable-background:new 0 0 1280 581;" xml:space="preserve">
<style type="text/css">
	.st0{fill:#C7EEF9;}
	.st1{fill:#FACC22;}
	.st2{fill:none;}
	.st3{fill:#562D20;}
	.st4{fill:#493A0B;}
	.st5{display:none;}
	.st6{display:inline;}
	.st7{fill:#C7C9C9;}
	.st8{fill:#E2EDEB;}
	.st9{fill:#F0FCFA;}
	.st10{display:inline;fill:#F7DAB0;}
	.st11{fill:#CCF7B0;}
	.st12{fill:#ADD891;}
	.st13{fill:#AEDD90;}
	.st14{fill:#A6D18B;}
	.st15{fill:#A5D388;}
	.st16{fill:#98BF7F;}
	.st17{fill:#D5F4C1;}
	.st18{fill:#DDF9CA;}
	.st19{fill:#EBFCDE;}
	.st20{fill:#C8FFA4;}
	.st21{fill:#C3F2A5;}
	.st22{fill:#91C470;}
	.st23{fill:#69AA3F;}
	.st24{fill:#A0D37F;}
	.st25{fill:#C2F2A2;}
	.st26{fill:#7EA863;}
	.st27{fill:#94BC7A;}
	.st28{fill:#8CB770;}
	.st29{fill:#789B62;}
	.st30{fill:#C5F4A6;}
	.st31{fill:#5E9937;}
	.st32{fill:#D6F4C3;}
</style>
<g id="레이어_1">
	<g id="레이어_1_00000127751885673692631210000006475447103954573190_">
		<g>
			<path class="st0" d="M19.9,559.9c0,5,4,9,9,9h1231c5,0,9-4,9-9v-534c0-5-4-9-9-9H28.9c-5,0-9,4-9,9V559.9z"/>
		</g>
		<g>
			<path class="st1" d="M304.4,167.9c0,8.7-9.4,16.2-11.3,24.3c-1.9,8.4,3.2,19.2-0.5,26.8c-3.7,7.7-15.5,10.3-20.8,16.9
				c-5.3,6.6-5.5,18.6-12.2,23.9c-6.6,5.2-18.3,2.6-26,6.2c-7.6,3.6-12.9,14.4-21.3,16.3c-8.1,1.8-17.5-5.6-26.2-5.6
				s-18.1,7.4-26.2,5.6c-8.4-1.9-13.7-12.7-21.3-16.3c-7.7-3.7-19.4-1-26-6.2c-6.7-5.3-6.8-17.3-12.2-23.9
				c-5.3-6.6-17-9.2-20.8-16.9c-3.7-7.6,1.4-18.4-0.5-26.8c-1.9-8.1-11.3-15.6-11.3-24.3s9.4-16.2,11.3-24.3
				c1.9-8.4-3.2-19.2,0.5-26.8c3.7-7.7,15.5-10.3,20.8-16.9s5.5-18.6,12.2-23.9c6.6-5.2,18.3-2.6,26-6.2
				c7.6-3.6,12.9-14.4,21.3-16.3c8.1-1.8,17.5,5.6,26.2,5.6s18.1-7.4,26.2-5.6c8.4,1.9,13.7,12.7,21.3,16.3c7.7,3.7,19.4,1,26,6.2
				c6.7,5.3,6.8,17.3,12.2,23.9c5.3,6.6,17,9.2,20.8,16.9c3.7,7.6-1.4,18.4,0.5,26.8C295,151.7,304.4,159.2,304.4,167.9z"/>
		</g>
		<g>
			<rect x="83.1" y="127.5" class="st2" width="203.1" height="81.2"/>
			<path class="st3" d="M136.7,166.2l7.1,16.9c0.9,2.2,2.1,3.3,3.6,3.3h1.3h14.1c3.1,0,4.6,1.1,4.6,3.2c0,1.5-0.5,2.8-1.6,3.6
				c-1.1,0.9-2.6,1.3-4.6,1.3h-15.5c-4.3,0-7.2-2-8.9-6.1l-9.7-23.5l-4.5,11.1c-2.2,5.3-3.7,8.9-4.6,10.8c-0.9,1.9-2,3.6-3.2,5.2
				c-4.3,5.8-9.7,8.7-16.2,8.7c-4.7,0-8.6-1.5-11.5-4.4c-2.9-3-4.4-6.9-4.4-11.7c0-6.3,2.3-11.8,6.9-16.5c2.5-2.5,5.6-4.6,9.4-6.1
				c3.8-1.6,7.5-2.3,11.2-2.3c1.8,0,3.2,0.4,4.3,1.2s1.6,1.8,1.6,3.1c0,1.4-0.6,2.5-1.8,3.3c-0.7,0.5-2,0.8-3.9,1
				c-4.5,0.4-8.1,1.4-10.8,3.1c-2.3,1.4-4.1,3.2-5.4,5.4s-2,4.5-2,6.9c0,2.5,0.6,4.5,1.9,6s3,2.2,5.3,2.2c2.7,0,5.1-1.2,7.1-3.5
				s4.2-6.4,6.6-12.3l11.7-28.7h-3.5c-3.1,0-4.6-1.1-4.6-3.2c0-1.5,0.5-2.7,1.6-3.6c1.1-0.8,2.6-1.3,4.6-1.3h11.2
				c2.9,0,5.1,0.2,6.4,0.5s2.7,1,3.9,2.1c2.6,2.2,3.9,5.2,3.9,9.2c0,3.6-1.1,6.8-3.2,9.6C142.9,163.4,140.1,165.3,136.7,166.2z
				 M129.1,159.9l1-0.1c2.6-0.2,4.5-0.7,5.7-1.5c2.4-1.6,3.6-3.7,3.6-6.4c0-3.1-1.5-4.6-4.4-4.6h-0.7L129.1,159.9z"/>
			<path class="st3" d="M157.9,175.3c0,1.7,1.3,2.5,3.8,2.5h10c2.8,0,4.2,1,4.2,3c0,1.4-0.5,2.4-1.5,3.2s-2.4,1.1-4.2,1.1h-9.5
				c-3.5,0-6.2-0.9-8.1-2.6c-1.9-1.8-2.8-4.3-2.8-7.7c0-4.3,1.5-8.1,4.4-11.2c2.9-3.1,6.4-4.7,10.5-4.7c2.9,0,5.3,0.8,7.1,2.3
				s2.7,3.6,2.7,6.1c0,3-1.2,5.3-3.7,6.7c-1.4,0.8-3.4,1.2-6.1,1.2L157.9,175.3L157.9,175.3z M159.5,169.2h3.7
				c2.4,0,3.6-0.5,3.5-1.6c-0.1-1.2-0.8-1.8-2.3-1.8C162.3,165.8,160.7,167,159.5,169.2z"/>
			<path class="st3" d="M196.6,185.2h-9.8c-2.8,0-5.1-1-6.9-3s-2.6-4.5-2.6-7.7c0-4.2,1.4-7.8,4.3-10.9c2.9-3.1,6.3-4.6,10.2-4.6
				c2.6,0,4.8,0.7,6.5,2.2s2.5,3.4,2.5,5.8c0,1.7-0.4,3-1.2,4.1s-1.9,1.6-3.2,1.6c-2.1,0-3.1-1-3.1-2.9c0-0.3,0-0.5,0-0.7
				s0-0.5,0-0.7c0-1.6-0.8-2.4-2.3-2.4s-2.8,0.8-4,2.3s-1.8,3.3-1.8,5.2c0,1.6,0.5,2.7,1.5,3.4s2.6,1,5,1h6.4c2.9,0,4.3,1,4.3,3
				c0,1.3-0.5,2.4-1.5,3.2C199.7,184.8,198.3,185.2,196.6,185.2z"/>
			<path class="st3" d="M212.9,177.9h3.8c2.8,0,4.2,1,4.2,3c0,1.4-0.5,2.4-1.5,3.2s-2.4,1.1-4.2,1.1h-5.3c-2,0-3.5-0.4-4.7-1.2
				s-1.7-1.9-1.7-3.3c0-0.7,0.2-1.7,0.7-2.8l5.6-13.7l0.4-0.9c1-2.5,2.7-3.8,5-3.8c0.9,0,1.8,0.3,2.4,0.9c0.7,0.6,1,1.4,1,2.3
				c0,0.7-0.3,1.8-0.9,3.3L212.9,177.9z M217.3,148.7c1.3,0,2.4,0.5,3.3,1.4c0.9,0.9,1.4,2,1.4,3.3s-0.5,2.4-1.4,3.3
				c-0.9,0.9-2,1.4-3.3,1.4s-2.4-0.5-3.3-1.4c-0.9-0.9-1.4-2-1.4-3.3s0.5-2.4,1.4-3.3C214.9,149.2,216,148.7,217.3,148.7z"/>
			<path class="st3" d="M240.8,159.4h4.6c2.9,0,4.3,1,4.3,3c0,1.4-0.5,2.4-1.5,3.2s-2.4,1.1-4.2,1.1h-6.2L222.7,204
				c-1.3,3.1-3,4.6-5.3,4.6c-1,0-1.8-0.3-2.5-0.9s-1-1.4-1-2.3c0-0.7,0.3-1.7,0.9-3.2l14.5-35.5H227c-2.9,0-4.3-1-4.3-2.9
				c0-1.4,0.5-2.5,1.5-3.3s2.4-1.2,4.2-1.2h3.8l4.3-10.5c1.4-3.5,3.2-6,5.2-7.5s4.7-2.2,8.1-2.2h3.8c2.9,0,4.3,1,4.3,3
				c0,1.4-0.5,2.5-1.5,3.3c-1,0.8-2.4,1.2-4.2,1.2h-1c-1.9,0-3.4,0.4-4.5,1.1c-1.1,0.8-2,2.1-2.7,3.9L240.8,159.4z"/>
			<path class="st3" d="M254.7,177.9h3.8c2.8,0,4.2,1,4.2,3c0,1.4-0.5,2.4-1.5,3.2s-2.4,1.1-4.2,1.1h-5.4c-2,0-3.5-0.4-4.7-1.2
				s-1.7-1.9-1.7-3.3c0-0.7,0.2-1.7,0.7-2.8l5.6-13.7l0.4-0.9c1-2.5,2.7-3.8,5-3.8c0.9,0,1.8,0.3,2.4,0.9c0.7,0.6,1,1.4,1,2.3
				c0,0.7-0.3,1.8-0.9,3.3L254.7,177.9z M259.2,148.7c1.3,0,2.4,0.5,3.3,1.4s1.4,2,1.4,3.3s-0.5,2.4-1.4,3.3c-0.9,0.9-2,1.4-3.3,1.4
				c-1.3,0-2.4-0.5-3.3-1.4c-0.9-0.9-1.4-2-1.4-3.3s0.5-2.4,1.4-3.3C256.8,149.2,257.9,148.7,259.2,148.7z"/>
			<path class="st3" d="M280.9,159.4h1c2.9,0,4.3,1,4.3,3c0,1.4-0.5,2.4-1.5,3.2s-2.4,1.1-4.2,1.1H278l-4.5,11.1h3.8
				c2.9,0,4.3,1,4.3,3c0,1.4-0.5,2.4-1.5,3.2s-2.4,1.1-4.2,1.1h-6c-1.7,0-3.1-0.4-4.1-1.2s-1.5-1.9-1.5-3.2c0-0.8,0.2-1.8,0.6-2.8
				l0.6-1.5l4-9.8H269c-2.5,0-3.8-1-3.8-2.9c0-1.4,0.5-2.5,1.5-3.3s2.4-1.2,4.2-1.2h1.5l1.8-4.4l0.4-0.9c1.1-2.5,2.7-3.7,5-3.7
				c0.9,0,1.7,0.3,2.4,0.9c0.7,0.6,1,1.4,1,2.2c0,0.9-0.3,1.9-0.9,3.2L280.9,159.4z"/>
		</g>
		<path class="st4" d="M225.1,176.1"/>
	</g>
	<g id="레이어_2_00000114059447994822625900000010037698009425503105_" class="st5">
		<g class="st6">
			<path class="st7" d="M818,452c-185.8-67.7-257.5-88.6-272-87c-1.1,0.1-10.4,1.3-23,1c-14.9-0.4-25.7-2.8-27-3
				c-14.1-2.7-82.3,14.4-266,76c-2-105.3-4-210.7-6-316c49.8-0.8,86.7-10.9,111-20c34.5-12.8,113.6-49.4,149-52c13.2-0.9,27-1,27-1
				s15.2-0.1,30,1c35.2,2.5,121.7,40.5,140,48c30.1,12.3,75,24.1,138,19C818.7,229.3,818.3,340.7,818,452z"/>
		</g>
		<g class="st6">
			<path class="st8" d="M790.1,462c-171.5-48-235.4-70.2-248-79.4c-1.8-1.3-10.2-8-22.1-8.6c-12.1-0.6-21.4,5.5-23.4,6.8
				c-13.3,8.1-75.5,27.4-242.5,69.4c-1.8-96.1-3.6-192.3-5.5-288.4c54.5-4,92-19.2,116.4-32.7c32.3-17.9,57.9-31.6,109-59
				c6.4-3.4,18.4-9.7,35-11c25.2-1.9,44.8,9,54,14c3.5,1.9,42.3,18.3,120,51c24.9,10.5,61.2,23.6,108,33.2
				C790.7,258.8,790.4,360.4,790.1,462z"/>
		</g>
		<g class="st6">
			<path class="st9" d="M767.2,462c-49.2,6-84-2.6-107.2-12c-13.5-5.5-86.2-37.1-118-58c-2.8-1.8-10.3-6.9-21-8
				c-13.1-1.3-23.6,4.1-27.1,5.9C466.5,404,436.4,413,410,429c-24.3,14.7-63.9,28.4-130.1,22.3c-1.6-91.4-3.3-182.9-4.9-274.3
				c14.7-0.3,35.7-1.8,60-8c23.6-6,40.7-13.8,54-20c29.6-13.8,48.1-27,76-40c12.7-5.9,23.8-10.2,26-11c7.1-2.7,13.1-4.7,17-6
				c5-0.7,11.1-1,18.1-0.3c13.9,1.5,24.6,6.5,30.9,10.3c13,7.6,22.9,12.9,23,13c13.9,9.5,65.2,28.5,195,66
				C772.4,274.7,769.8,368.3,767.2,462z"/>
		</g>
		<g class="st6">
			<path class="st8" d="M516,110c-2,0.1,5.1,256,7,256c0.9,0,0.8-59.7,0-103C521.6,186.8,517.1,110,516,110z"/>
		</g>
	</g>
	<g id="레이어_3" class="st5">
		<path class="st10" d="M229.5,45.5c-15.6,0.1-27.7-2-36-4c-15.4-3.7-19.4-7.4-29-6c-6.7,1-13.9,5.7-28,15c-17,11.3-17.3,13.8-24,15
			c-12.3,2.3-18-5.1-26-1c-5.3,2.7-6.2,7.5-11,20c-11.3,29.2-16.5,28.2-18,42c-1.4,13,3.5,11,4,32c0.5,19.5-3.7,25.4,1,37
			c4.3,10.6,12.2,16.7,14,18c9.3,6.9,14.3,4.3,26,10c11.8,5.7,12.6,11.3,24,20c13,10,25.9,13.5,35,16c29.6,8.1,73.3,3.9,101-24
			c16.9-17.1,27.3-42.4,21-49c-5.3-5.5-24.4,0.4-36,7c-9.4,5.3-10.9,9.4-18,10c-9.1,0.8-11.2-5.4-25-8c-12.1-2.2-15,1.7-21-2
			c-6.1-3.8-7.9-10.8-11-23c-1.8-7.1-3.9-15.2-3-26c0.8-9.7,1.9-23.8,11-30c8-5.5,13.4,1.3,37,2c22.4,0.7,25.3-5.1,44-2
			c12.8,2.2,17.5,5.9,21,3c6.5-5.5-1.1-26.6-10-40C260.3,59.1,242.2,50,229.5,45.5z"/>
	</g>
	<g id="레이어_4">
	</g>
</g>
<g id="레이어_2">
	<path class="st11" d="M1035.6,111.5c2.1-5.2,12.3-28.7,34-34c8.7-2.2,19.8-1.8,20.9,1.7c1.5,4.7-17,7.9-21.8,20.1
		c-6.8,17.2,21.2,33.4,46.3,82.9c18.6,36.8,15.9,52.8,11.3,62c-2.5,5-5,6.9-12.2,14c-30.5,29.9-43.9,53.6-46.5,52
		c-2.9-1.8,23.9-26,22-57.2c-2.4-40.5-50.1-48.9-58.2-101.3C1029.9,141,1029.5,126.5,1035.6,111.5z"/>
	<path class="st12" d="M1024.3,146.7c-0.9,6.1-1.3,16,7.9,48c11.9,41.6,17.3,40.9,16.6,55c-1.5,27.4-22.3,37.8-15.7,52.4
		c4.7,10.4,20,15.5,31.4,13.1c20.6-4.4,28.9-32.8,29.9-49.7c1.1-19.3-6.6-33.9-15.3-49.8c-20.8-38.2-41.2-42.1-44.3-68
		c-2.5-20.8,8.5-37,6.4-37.8C1039.1,109,1027.3,125.6,1024.3,146.7z"/>
	<path class="st11" d="M1031.5,118.2c-1.5-0.5-3.7,5.5-12.7,14.2c-4,3.8-5.2,4.2-7.4,6.3c-10.1,9.5-7.3,21.4-13.1,34.8
		c-2.6,6-7.7,13.8-18.5,21.3c0,0-1.1,2.4-1.9,5.1c-5.1,17.2,2.6,41.8,6.1,59.4c6.3,31.4-0.5,40.6,9.1,47.2
		c9.7,6.6,24.9,4.3,34.5-1.9c10.1-6.4,13.4-16.3,19.6-34.6c3.3-9.7,5.3-15.9,4.4-24.2c-0.3-2.8-0.8-4.3-8.2-23.5
		c-2.9-7.5-5.5-15.1-8.7-22.5c-2.2-5.3-4.4-10.5-6.3-18.3c-0.6-2.4-1.1-5.1-1.5-8.5C1023.6,143.7,1034.7,119.2,1031.5,118.2z"/>
	<path class="st13" d="M1018.8,132.5c-1.9-1.3-8.9,8.5-27.6,25.3c-5,4.5-9.5,9.1-19.7,16.7c-10.7,8.1-15.6,9.9-22.2,18.2
		c-19.1,23.7,2.7,51.9-14,65.5c-7.3,5.9-11.8,1.8-25.3,6.1c-24.2,7.8-47,33.1-48.9,58.5c-1.7,22.4,13.4,38.6,35.8,62
		c43.7,45.5,110,82.3,133.5,63.7c7.7-6,8.9-15.9,19.2-18.3c15.5-3.7,31.6,14.2,31.9,13.8c0.1-0.2-1-6.4-70.3-60.3
		c-63.8-49.6-94-68.7-89.9-88.8c1.8-9.1,9.5-14.8,13.1-17.5c26.5-19.6,69.4,2.3,73.3-6.7c0.8-1.8-0.9-2.7-10-18.1
		c-7.6-12.8-10.5-19.2-11.3-20.9c-3.8-8.3-6.2-13.6-6.9-21.2c-0.5-5.1-1.1-12,3-17.4c3.3-4.3,6.6-3.5,11.7-6.8
		c6.8-4.4,7.7-10.3,15.3-29.2C1016.7,138.7,1020.1,133.4,1018.8,132.5z"/>
	<path class="st14" d="M1649.2,259.9"/>
	<path class="st15" d="M993.2,273.5c0.3-4.3,0.8-4.7,0.6-5.5c-1.5-5.6-30.6-8.1-53.9,5.6c-8.2,4.8-12.5,9.8-14.1,11.8
		c-7.4,9.2-9.6,19-9.7,21.6c-1.1,29.1,51.7,33.4,103.8,84c36.8,35.8,43.6,65.6,64.6,63.5c15-1.5,29.9-18.5,31.4-35.8
		c1.5-17.1-10.4-31.3-14-34.9c-7.4-7.6-9.2-5.2-33.5-19.4c-9.1-5.3-8.3-5.6-25.8-16.4c-10.1-6.3-18.7-11.3-21.8-13.1
		c-29.7-17.1-61.7-17.1-64.6-31.4c-1.6-8,6.3-18.8,14.6-21.8c9-3.2,20,2.2,22.1-1.8C993.4,279,992.8,278.4,993.2,273.5z"/>
	<path class="st16" d="M950.1,302.6c0.7-3.7,5.9-10.3,11.1-14.7c2.5-2.1,8.7-7.3,16.7-8.2c9.5-1,17.1,4.7,21.9,8
		c18,12.3,23.3,9,46.3,20.9c38.8,20.2,98.3,51.2,96.1,87.5c-2,33.2-55.2,57.7-58.6,53.9c-2.6-2.9,27.7-19.8,26.2-41.9
		C1106.2,356,945.6,326.8,950.1,302.6z"/>
	<path class="st11" d="M1022.5,294.8c0-0.2,0.1-0.4,0.2-0.5c0.9-1.9,4.9-6.7,62.6,7.1c18.3,4.4,26.6,6.9,36.2,12.7
		c9.8,5.8,18.5,11,19.4,19.2c1.3,12-15.4,19.5-12.3,30.8c1.1,3.8,3,3.3,6.7,8.9c8.7,13.2,7.1,29.9,5.7,30.1c-1,0.2-1.7-8.9-7.3-21.3
		c-5.7-12.9-13.5-22.2-19.6-28.4c0,0,0,0,0,0c0,0-1.2-1-22.7-16.6C1061.9,315.2,1020.9,302.8,1022.5,294.8z"/>
	<path class="st11" d="M1010,452.6c-0.5,9.5,43,9.6,97.7,32.8c28.7,12.2,46.4,24.7,61.5,16.3c8.7-4.8,12.3-14.3,14.8-20.9
		c5.5-14.3,6.8-36.5-4.4-45.4c-4.8-3.8-7.5-1.7-20.9-7.9c-11.3-5.2-11.1-7.5-15.7-8.7c-19.2-5.2-33.2,32-55.9,30.5
		c-19.4-1.3-27.4-30-41.9-26.2c-5.5,1.4-5.3,5.9-18.3,16.6C1014.8,449.6,1010.1,449.5,1010,452.6z"/>
	<path class="st17" d="M900.8,388.6c-3.9,4.2,34.9,62.6,93,80.7c39.8,12.4,75.1,11.3,75.1,11.3c11.5-0.3,15.5-1.5,25.4-0.2
		c19.4,2.5,50.4,13.3,59.3,36c6.1,15.5-3.5,29.8,1,31.9c4.8,2.3,20.8-11.5,21.7-26.7c1.3-22.9-32.8-41.2-43.6-47.1
		c-47.6-25.9-77.2-8.5-131.8-24.4C935.1,431,904.5,384.5,900.8,388.6z"/>
	<path class="st11" d="M905.6,396.9c-15-18.7-16.3-23.2-20.1-23.3c-9.5-0.2-24.8,27.2-20,50.4c6.4,31.1,47.3,46.5,73.3,55.9
		c91.9,33.2,156.8,1.5,190.3,43.7c10.8,13.6,15.1,30.9,20.9,29.7c7-1.5,12.8-29,1.7-48c-12.3-21.2-42.1-25.9-76.8-31.4
		c-19.9-3.2-19.4-0.6-43.2-4.1c-31.7-4.6-47.6-6.9-65.9-17c-25.7-14.1-44.2-36.5-48.3-41.4C913.6,406.5,909.5,401.8,905.6,396.9z"/>
	<path class="st14" d="M888.4,377.1c-1.6-2-11.7,3.1-18.3,7.6c-9.3,6.3-14.7,13.6-19.5,20.1c-6.9,9.4-10.9,14.9-13.1,22.7
		c-4.1,14.7,1.1,27.9,3.5,34c19.2,49,138.9,97,157.1,72.4c4-5.4-0.3-9.7,4.4-15.7c11.1-14.4,40.6,3,84.7-4.4
		c19.8-3.3,38.4-10.9,37.8-13.9c-0.3-2-9.1-1.6-29.1-2.1c-5-0.1-20.4-0.9-51.2-2.5c-27.2-1.4-40.8-2.1-55.2-4.2
		c-24.7-3.5-47.6-9.5-69.5-18.6c-25-10.3-32.7-17.9-36.1-21.6c-4.3-4.7-18.9-20.7-16.6-39.3C869.8,391.7,890.8,380,888.4,377.1z"/>
	<path class="st18" d="M1005.5,515.7c6.6-4.2,13.5-4,26.6-3.6c15.9,0.5,18.9,3.5,34,3.5c10.8,0.1,19-1.4,20.9-1.8
		c20.7-3.9,21.4-11,37.8-13.9c1.6-0.3,14.4,1,39.8,3.5c13.6,1.3,20.4,2.1,23.6,7c2.3,3.6,1.9,8.6,1.1,18.5
		c-1.1,12.7-3.2,13.8-2,18.1c3.5,11.9,23.3,13.5,22.7,17.5c-0.5,3.6-16.6,4.1-25.3,4.4c-6.9,0.2-15,0.2-30.7-1
		c-15-1.1-17.1-1.8-25.6-2.3c-18-1.2-31.3,0.1-38,0.7c-78.3,6.9-145.2-9.2-145.3-9.2h0c-19.4-3.8-69.4-13.7-84.2-45.8
		c-4.9-10.6-6.1-23.9-2.9-25.5c2-1,5.1,2.5,10.2,6.6c3.9,3.2,11.3,7.3,26,15.4c33.4,18.4,58.7,29.3,81.4,32.8
		c5.1,0.8,10.6,1.3,15.4-1.7C1000.2,533.4,996.4,521.6,1005.5,515.7z"/>
	<path class="st14" d="M855.9,490.9c1.7,0.6,1.4,4.5,1.7,7.2c2.1,21.9,44.8,37.7,47.9,38.8c60.3,21.7,223,28.8,223,28.6
		c0-0.1-63.7,1-114.5,3.3c-11.6,0.5-50.7,2.4-89-3.3c-5.4-0.8-13.4-2.5-29.5-5.9c-29.1-6.1-35.9-8.6-42.5-14.4
		c-3.1-2.8-11.2-9.8-12.8-21.1C837.7,506.6,852,489.6,855.9,490.9z"/>
	<path class="st19" d="M1086.3,81.8c-0.2-0.6-37.9,2.7-44.1,20.9c-1.1,3.1-0.8,5.7-3.7,16.4c-1.9,7-3,9.7-3.6,15
		c0,0-0.8,6.4-0.1,13.3c1.6,16.4,16.6,30.2,41.4,62.8c4.9,6.5,8.9,11.9,9.7,11.5c0.9-0.5-2.6-8.8-7.4-16.1
		c-3.6-5.4-6.9-8.9-8.7-10.9c-11.9-12.8-24.4-26.2-28.4-42.3c-1.6-6.4-1.7-13.1-1.7-13.1c-0.1-2.3-0.1-7.4,1.3-14.8
		c0.5-2.6,2.8-14.9,7.4-22.7C1059.1,83.7,1086.4,82.5,1086.3,81.8z"/>
	<path class="st20" d="M1082.4,86.3c1.6,2.5-13.5,10.1-14,22.6c-0.4,9.1,7.2,15.9,12.8,21.3c28.5,28,43.9,62.5,46.8,85
		c0.9,6.8,1.6,15.3-2.2,24.7c-2.6,6.4-5,7.4-20.3,27c-6.5,8.2-7.9,10.4-9.1,10c-4.4-1.6,11.3-31.6,0.1-60.8
		c-4.4-11.6-12.4-21.3-13.7-22.9c-10.5-12.6-17.1-13-23.6-23.6c-5-8.1-5.7-15.4-7-29.7c-1.7-18.3-3-32.2,5.7-42.8
		C1066.4,86.7,1080.9,84,1082.4,86.3z"/>
	<path class="st21" d="M998.3,273c0-1,8.2-3.9,16.4-1.3c9.8,3.2,15.1,13.1,14.4,13.7c-0.6,0.6-4.9-5.5-14.4-9.2
		C1005.5,272.6,998.4,273.9,998.3,273z"/>
	<path class="st11" d="M913.7,303.5c-0.9-0.5-4.1,2.4-10.5,8.1c-4,3.6-5.9,5.4-6.4,6.4c-2.9,6.5,4.2,15.5,6.4,18.3
		c18.5,23.6,60.2,29.3,62.5,23.9c0.4-0.8-0.3-1.9-1.7-4.1c-2.9-4.4-6.3-6-13.4-10.2c-10.7-6.3-9.1-6.2-14-8.4
		c-4.3-2-6.6-2.5-9.9-5.2c-2.2-1.8-3.5-3.5-6.1-7c-3.9-5.2-5.9-7.8-6.7-11.1C912.6,308.3,915.2,304.3,913.7,303.5z"/>
	<path class="st22" d="M938.5,270.3c-0.1-3.3-14-7.9-26.8-5.2c-9.5,2-15.5,7.5-23.3,14.8c-13.1,12.3-21,19.8-23.9,31.7
		c-5,20.9,9.2,40.3,17.7,52.1c7.8,10.7,15.4,17.1,27.1,26.5c14,11.3,85.2,68.1,96.3,57.3c1.5-1.5,2.5-4.8,7-7.9
		c4.1-2.8,5.5-1.5,9.3-4.1c5.4-3.6,4.4-7.6,9.9-11.1c4.1-2.6,6-1.3,7-2.9c4.5-7.7-36.7-39.8-40.1-42.5c-6.5-5-7.4-5-11.3-8.7
		c-6.5-6.1-9.5-11-13.7-10.5c-2.1,0.3-2.9,1.8-4.7,3.2c-9.3,7.7-28.4,0.1-35.2-2.6c-2.9-1.2-10-4.2-18-10.2
		c-8.4-6.3-22.8-17-21.2-28.5c0.6-4.8,3.9-8.5,7.6-12.8c3.8-4.4,6.3-5.4,12.5-12.2c2.8-3,4.7-5.5,5.5-6.5
		c6.8-8.6,6.8-11.5,11.8-15.4C936.1,271.7,938.5,271.7,938.5,270.3z"/>
	<path class="st23" d="M897.5,343.1c13,27,124.5,65.6,115.8,70.1c-0.4,1.3-3.6,2.1-7.8,2.1c-5,0-9-0.6-14.3-2.1
		c-2.1-0.6-3-0.9-7.9-2.3c-2.6-0.7-4.7-1.3-5.2-1.5c-7.2-1.9-14.5,0.3-20.1,0.1c-7-0.2-11.8-3.9-18.8-9.2
		c-43.9-33-52.5-34.2-62.4-51.9c-3.1-5.6-7.5-14.9-10-27.9c1.8-7.5,5.2-17.2,11.8-27.1c2.8-4.2,9.3-13.9,20.4-21.1
		c1.7-1.1,6.1-3.8,12.2-5.8c5.9-2,9.5-1.9,11.6-1.7c2.3,0.2,4.2,0.7,5.5,1.2c2.6-1.1,6.5-2.4,11.3-2.6c8-0.4,15.8,2.1,15.7,3.5
		c-0.1,1.9-14.3-1.7-25.3,6.5c-5.4,4-3.6,6.1-10.5,14.4c-10.1,12.2-16.7,11.1-24,22.7c-2.3,3.7-5,8-5.2,14
		C889.9,333.7,895.4,340.7,897.5,343.1z"/>
	<path class="st24" d="M965.8,418.3c2.7-6.1,45.9,13,53.7,1.3c3.5-5.3-2.2-13.9,0.4-15.3c3.3-1.7,14.3,10.7,12.2,14
		c-0.8,1.2-2.8,0.3-6,1.8c-2.9,1.5-3.8,3.7-5.8,6.4c-2.6,3.5-5.8,5.8-12.2,10.5c-5.4,3.9-8.2,5.9-10.5,6.1
		c-3.7,0.4-6.9-1.3-15.3-8.3C970.7,425.1,964.9,420.3,965.8,418.3z"/>
	<path class="st23" d="M1012.1,140c1.5,1.3-6.4,20.5-20.9,31.2c-4.5,5.5-8.6,9.3-11.6,11.8c-1.9,1.6-5,4-8.5,7.9
		c-3.3,3.7-4.4,5.9-4.8,8.3c-0.2,1,0,2.7,0.4,6.1c0.4,3.1,0.7,4.9,1.3,9.2c0.5,3.2,0.6,4.1,0.9,6.1c0,0,1.1,7.6,2.6,14.8
		c3.2,15.5,9.8,22,7.4,24.4c-2.7,2.7-9.8-6.2-25.3-7.9c-2.9-0.3-6.7-0.5-8.3-3.1c-1.5-2.6,0.1-5.8,1.1-8.8c1.4-4.5,2.1-11.2-1.5-21
		c-5.9-23.8,7.5-33,30.1-45.3C1000.1,157.5,1010.5,138.7,1012.1,140z"/>
	<path class="st19" d="M944.4,271.2c-3.2,1-17.3,5.5-24.3,19.2c-0.9,1.7-6.4,13-2.8,24.9c5.2,16.7,25.4,24,32.6,26.8
		c68.4,26.6,130.7,103.6,143.4,91.8c2.5-2.3,1.4-6.5,6.8-12.5c4.3-4.7,10.4-8.2,9.7-12.7c0-0.1,0-0.2-0.1-0.4
		c-1.6-7.3-8.7-11.5-12.2-13.5c-24.2-13.6-87.4-38.6-106-46.7c-9.5-4.1-64.7-28-61.5-46.7c1.7-9.9,19.7-18.4,30.9-21.4
		c3.3-0.9,7.9-2,14-1.8c19.6,0.9,30.1,15.8,32,14.1c2.4-2.3-11.5-28.7-28-28.7c-3.6,0-4.1,1.3-16.6,4.2
		C950.2,270.5,949.6,269.5,944.4,271.2z"/>
	<path class="st23" d="M859,395.4c0.8,0.5-0.2,2.7-1,8c-0.6,4.9-1.1,11.7,0.4,19.6c0,0,2.2,11.1,9.2,22.5
		c14.3,23.1,48.9,45.6,92,51.7c29.1,4.1,57.4,0.1,57.6,2.6c0.2,2-17.8,2-29.7,15.7c-4.6,5.3-4.7,8.6-7,11.3
		c-6,7.2-120.7-11.9-140.5-70.3c-1.6-4.6-5.6-16.5-2.3-30.6C842.2,407.9,856.8,394.1,859,395.4z"/>
	<path class="st14" d="M886.4,386.4c-12.9,3.4-19.3,24-15.7,27c2.3,1.9,7.1-4.5,16.6-5.2c11.1-0.9,19.6,6.7,25.3,10.9
		c3.5,2.6,5.8,3.8,52.8,18.3c47.3,14.6,71,21.9,75.1,22.7c18,3.6,75.1,13.4,88.6,19.6c10.9,5.1,20.1,12.2,20.1,12.2c0,0,0,0,0,0
		c9.5,7.3,11.1,11.1,15.7,11.3c9.7,0.5,22.7-15.6,20.9-27.9c-1.4-9.6-12-18.1-52.3-30.5c-55.1-17.1-137.9-33.1-179.8-36.1
		c-8.3-0.6-18-0.9-28.8-6.7c-6.3-3.4-9.3-6.8-19.2-11.3C897.3,386.9,892,384.9,886.4,386.4z"/>
	<path class="st23" d="M922.8,264.8"/>
	<path class="st25" d="M1029.8,127.2c-1-0.5-6.8,7-12.2,16.9c-12.8,23.2-8.4,30.9-19.5,42.2c-4.6,4.7-8.8,6.8-10.5,12.8
		c-1.3,4.7-0.3,8.9,1.7,16.9c2.9,11.3,4.4,17,7.3,18c8.3,2.9,30.4-18.9,30.5-41.9c0.1-12.2-6.1-13.6-6.7-28.2
		C1019.7,143.3,1031.3,128,1029.8,127.2z"/>
	<path class="st26" d="M978.6,282c-4.1,0.4-7.9,3.4-15.4,9.3c-7.4,5.8-11.1,8.7-11,11.9c0.2,5.9,12.1,9.9,20.6,12.8
		c0,0,12.8,4.5,65.2,27.9c19,8.5,29.4,13.2,42.5,22.4c18,12.8,14.8,15.7,32.9,27.6c3.2,2.1,6.1,3.9,7.6,7.6
		c5.3,13.5-17.5,31.9-16,33.5c1.4,1.5,26-9.9,30-30.8c3.9-20.6-14.2-39.2-24.4-49.7c-12.3-12.6-26.3-20.2-32.9-23.9
		c-13.6-7.5-12.8-4.9-27.1-12.8c-14.6-8.1-16.8-11.6-30.3-17.7c-11.1-5-11.1-3.3-19.5-7.9C988.3,285.5,985.3,281.3,978.6,282z"/>
	<path class="st27" d="M1034.6,145.2c3-0.8,9,32.7,28.2,53.9c1.9,2.1,7,7.4,11.7,15.9c4.7,8.5,6.8,16.3,7.9,20.1
		c2.1,8,2.7,14.4,3.1,18.3c0.4,5.1,1,11.5,0,19.6c-0.9,7.4-2.6,21.6-9.5,23.5c-3.1,0.8-4.1-1.7-10.2-3.4
		c-11.9-3.4-21.2,2.7-22.8-0.2c-1.3-2.3,3.8-6.3,8.8-13.8c0,0,0,0,0,0c0,0,0,0,0,0c0,0,0,0,0,0c9.3-7,9.4-20.4,9.6-24.4
		c0.7-15.5-9.6-30.1-16.6-45.4C1030.2,177.3,1031.7,145.9,1034.6,145.2z"/>
	<path class="st25" d="M1030,203.6c-0.4,0.1,1.4,5.1,2.6,13.1c0.8,4.9,2.3,15.1,0.4,27.5c-1.5,10.3-2.3,15.4-5.2,20.1
		c-1.5,2.4-3.7,5.1-3.1,8.3c0.4,2.2,1.8,2.6,5.7,7c4.5,5,5.2,7.2,6.5,7c1.9-0.3,2.2-5,3.1-10c2.6-14.8,7-15.7,7.4-24.4
		c0.2-4.2-0.8-5-7.4-22.3C1033.6,213,1030.5,203.4,1030,203.6z"/>
	<path class="st28" d="M869.4,412.8c0.2,0.9,5.3-1.9,15.2-2.7c9.9-0.8,15.8,1.1,15.9,0.1c0.1-1-6.2-4.8-13.5-4.9
		C877.3,405.1,869.2,411.6,869.4,412.8z"/>
	<path class="st28" d="M929.6,408.2c0.3-1.1,21.7,4.1,64.6,10.9c12.6,2,20.9,3.2,34,6.1c12.2,2.7,15.9,4.1,28.4,7
		c17.8,4.1,20.2,3.4,35.3,6.5c25.8,5.3,20.9,7.6,50.6,14.8c9.1,2.2,29.7,6.9,34.5,16.1c1.8,3.5,2.2,7.4,2.2,7.4
		c0.6,5.7-1.4,11.4-2.6,11.3c-1.6-0.1,0.4-9.6-4.8-16.1c-4.8-6.1-13.4-6.6-17.9-7c-23.9-2.2-19.9-9.8-63.7-19.2
		c-18.2-3.9-21.7-3.2-38.8-7.9c-13.9-3.8-12.6-4.6-25.3-7.9c-14.4-3.8-17.7-3.2-45.8-8.7c-13.8-2.7-19.8-4.2-22.2-4.8
		C946.2,414,929.4,409.2,929.6,408.2z"/>
	<path class="st29" d="M968,184.4c1,0.9-6.5,6.3-8.3,17c-0.6,4-0.4,7.3,3.5,22.3c4.5,17.4,7.6,26,5.7,27.1c-1.3,0.7-3-2.8-9.6-6.1
		c-5.1-2.6-6.7-1.9-8.3-3.9c-2.6-3.3,0.4-7.5,0.9-14.4c0.9-12.1-4-14.4-2.6-22.3C951.4,191.2,966.7,183.2,968,184.4z"/>
	<path class="st30" d="M1073.7,96.6c-1.7-1.2-10.3,5.5-14.1,14.9c-3.3,8.4-1.9,16.5,0,23.6c4.7,17.7,13.5,32.5,24.4,47.1
		c18.6,24.9,27.5,27.4,28.4,41c0.7,11.3-4.4,24.7-1.2,26c0.6,0.3,1.4,0,3-1.1c5.2-3.6,9.5-9.3,11.3-14.4c4.8-13-2.7-31-6.1-38.4
		c-7.6-16.7-17.1-28.8-31-46.3c-12.7-16-20.2-23.5-19.5-35.1C1069.6,104.5,1075.3,97.7,1073.7,96.6z"/>
	<path class="st31" d="M907.3,276.7c5.1-3.1,7.6-4.6,7.9-4.9c2-1.6,3.1-2.8,4.7-2.6c1.8,0.2,3,1.9,3.6,2.7c0.5,0.7,1.5,2.1,1.5,3.8
		c0,2-1.4,3.3-3.8,5.5l-6.4,6.1c-10.2,7.8-15.8,12.1-19.8,17.5c-0.9,1.1-8.6,11.7-7.6,25c0.5,6.3,2.7,10.9,2.3,11.1
		c-0.6,0.2-5.8-8.1-7.6-18.6c-0.6-3.7-3.3-21.8,6.7-32.9c4.2-4.6,9.9-8.1,9.9-8.1C901.9,279.5,902.6,279.6,907.3,276.7z"/>
	<path class="st32" d="M975,464.5c-33.4-10.3-50.5-15.7-68.1-26.2c-15.1-9-28.4-19.5-31.4-16.6c-2.8,2.7,4.3,15.5,10.5,23.6
		c9,11.7,29.9,31.6,123.5,42.8c30.7,3.7,67.7,6.2,68.1,3.5C1077.9,488.7,1037.9,484,975,464.5z"/>
</g>
</svg>
