<?xml version="1.0" encoding="utf-8"?>
<!-- Generator: Adobe Illustrator 26.3.1, SVG Export Plug-In . SVG Version: 6.00 Build 0)  -->
<svg version="1.1" id="레이어_1" xmlns="http://www.w3.org/2000/svg" xmlns:xlink="http://www.w3.org/1999/xlink" x="0px"
	 y="0px" viewBox="0 0 1280 581" style="enable-background:new 0 0 1280 581;" xml:space="preserve">
<style type="text/css">
	.st0{fill:#9CECFF;}
	.st1{display:none;}
	.st2{display:inline;fill:#FACC22;}
	.st3{display:inline;fill:none;}
	.st4{display:inline;fill:#562D20;}
	.st5{fill:#493A0B;}
	.st6{display:inline;}
	.st7{fill:#C7C9C9;}
	.st8{fill:#E2EDEB;}
	.st9{fill:#F0FCFA;}
	.st10{display:inline;fill:#F7DAB0;}
	.st11{fill:#CCF7B0;}
	.st12{fill:#ADD891;}
	.st13{fill:#C6E5B3;}
	.st14{fill:#A6D18B;}
	.st15{fill:#A5D388;}
	.st16{fill:#98BF7F;}
	.st17{fill:#D5F4C1;}
	.st18{fill:#DDF9CA;}
	.st19{fill:#EBFCDE;}
	.st20{fill:#C8FFA4;}
	.st21{fill:#C3F2A5;}
	.st22{fill:#91C470;}
	.st23{fill:#69AA3F;}
	.st24{fill:#A0D37F;}
	.st25{fill:#C2F2A2;}
	.st26{fill:#7EA863;}
	.st27{fill:#A4D186;}
	.st28{fill:#8CB770;}
	.st29{fill:#84AD6A;}
	.st30{fill:#C5F4A6;}
	.st31{fill:#5E9937;}
	.st32{fill:#D6F4C3;}
	.st33{fill:#EDD7A4;}
	.st34{fill:#EACF9B;}
	.st35{fill:#E0C796;}
	.st36{fill:#D8BC8B;}
	.st37{fill:#D3B37F;}
	.st38{fill:#D1A575;}
	.st39{fill:#EFDBB4;}
	.st40{fill:#E8C785;}
	.st41{fill:#BC8F58;}
	.st42{fill:#4DDFF7;}
	.st43{fill:#EFD7AF;}
	.st44{fill:#F2DEC2;}
	.st45{fill:#CEA16F;}
	.st46{fill:#C2F4A2;}
	.st47{fill:#B0EA8B;}
	.st48{fill:#719367;}
	.st49{fill:#F9C5CB;}
	.st50{fill:#C6E2F7;}
	.st51{fill:#FBFF4D;}
	.st52{fill:#50FFA7;}
	.st53{fill:#FC8DA3;}
	.st54{fill:#8FF9EE;}
	.st55{fill:#DBF78F;}
	.st56{fill:#9090F4;}
	.st57{fill:#F291DD;}
	.st58{fill:#F9D075;}
	.st59{fill:#BEFCE5;}
</style>
<g id="레이어_1_00000136406521053156741770000005832822277187311778_">
	<g id="레이어_1_00000127751885673692631210000006475447103954573190_">
		<g>
			<g>
				<rect x="1.9" y="-1.1" class="st0" width="1276.6" height="580.1"/>
			</g>
		</g>
		<g class="st1">
			<path class="st2" d="M304.4,167.9c0,8.7-9.4,16.2-11.3,24.3c-1.9,8.4,3.2,19.2-0.5,26.8c-3.7,7.7-15.5,10.3-20.8,16.9
				c-5.3,6.6-5.5,18.6-12.2,23.9c-6.6,5.2-18.3,2.6-26,6.2c-7.6,3.6-12.9,14.4-21.3,16.3c-8.1,1.8-17.5-5.6-26.2-5.6
				s-18.1,7.4-26.2,5.6c-8.4-1.9-13.7-12.7-21.3-16.3c-7.7-3.7-19.4-1-26-6.2c-6.7-5.3-6.8-17.3-12.2-23.9
				c-5.3-6.6-17-9.2-20.8-16.9c-3.7-7.6,1.4-18.4-0.5-26.8c-1.9-8.1-11.3-15.6-11.3-24.3s9.4-16.2,11.3-24.3
				c1.9-8.4-3.2-19.2,0.5-26.8c3.7-7.7,15.5-10.3,20.8-16.9s5.5-18.6,12.2-23.9c6.6-5.2,18.3-2.6,26-6.2
				c7.6-3.6,12.9-14.4,21.3-16.3c8.1-1.8,17.5,5.6,26.2,5.6s18.1-7.4,26.2-5.6c8.4,1.9,13.7,12.7,21.3,16.3c7.7,3.7,19.4,1,26,6.2
				c6.7,5.3,6.8,17.3,12.2,23.9c5.3,6.6,17,9.2,20.8,16.9c3.7,7.6-1.4,18.4,0.5,26.8C295,151.7,304.4,159.2,304.4,167.9z"/>
		</g>
		<g class="st1">
			<rect x="83.1" y="127.5" class="st3" width="203.1" height="81.2"/>
			<path class="st4" d="M136.7,166.2l7.1,16.9c0.9,2.2,2.1,3.3,3.6,3.3h1.3h14.1c3.1,0,4.6,1.1,4.6,3.2c0,1.5-0.5,2.8-1.6,3.6
				c-1.1,0.9-2.6,1.3-4.6,1.3h-15.5c-4.3,0-7.2-2-8.9-6.1l-9.7-23.5l-4.5,11.1c-2.2,5.3-3.7,8.9-4.6,10.8c-0.9,1.9-2,3.6-3.2,5.2
				c-4.3,5.8-9.7,8.7-16.2,8.7c-4.7,0-8.6-1.5-11.5-4.4c-2.9-3-4.4-6.9-4.4-11.7c0-6.3,2.3-11.8,6.9-16.5c2.5-2.5,5.6-4.6,9.4-6.1
				c3.8-1.6,7.5-2.3,11.2-2.3c1.8,0,3.2,0.4,4.3,1.2s1.6,1.8,1.6,3.1c0,1.4-0.6,2.5-1.8,3.3c-0.7,0.5-2,0.8-3.9,1
				c-4.5,0.4-8.1,1.4-10.8,3.1c-2.3,1.4-4.1,3.2-5.4,5.4s-2,4.5-2,6.9c0,2.5,0.6,4.5,1.9,6s3,2.2,5.3,2.2c2.7,0,5.1-1.2,7.1-3.5
				s4.2-6.4,6.6-12.3l11.7-28.7h-3.5c-3.1,0-4.6-1.1-4.6-3.2c0-1.5,0.5-2.7,1.6-3.6c1.1-0.8,2.6-1.3,4.6-1.3h11.2
				c2.9,0,5.1,0.2,6.4,0.5s2.7,1,3.9,2.1c2.6,2.2,3.9,5.2,3.9,9.2c0,3.6-1.1,6.8-3.2,9.6C142.9,163.4,140.1,165.3,136.7,166.2z
				 M129.1,159.9l1-0.1c2.6-0.2,4.5-0.7,5.7-1.5c2.4-1.6,3.6-3.7,3.6-6.4c0-3.1-1.5-4.6-4.4-4.6h-0.7L129.1,159.9z"/>
			<path class="st4" d="M157.9,175.3c0,1.7,1.3,2.5,3.8,2.5h10c2.8,0,4.2,1,4.2,3c0,1.4-0.5,2.4-1.5,3.2s-2.4,1.1-4.2,1.1h-9.5
				c-3.5,0-6.2-0.9-8.1-2.6c-1.9-1.8-2.8-4.3-2.8-7.7c0-4.3,1.5-8.1,4.4-11.2c2.9-3.1,6.4-4.7,10.5-4.7c2.9,0,5.3,0.8,7.1,2.3
				s2.7,3.6,2.7,6.1c0,3-1.2,5.3-3.7,6.7c-1.4,0.8-3.4,1.2-6.1,1.2L157.9,175.3L157.9,175.3z M159.5,169.2h3.7
				c2.4,0,3.6-0.5,3.5-1.6c-0.1-1.2-0.8-1.8-2.3-1.8C162.3,165.8,160.7,167,159.5,169.2z"/>
			<path class="st4" d="M196.6,185.2h-9.8c-2.8,0-5.1-1-6.9-3s-2.6-4.5-2.6-7.7c0-4.2,1.4-7.8,4.3-10.9c2.9-3.1,6.3-4.6,10.2-4.6
				c2.6,0,4.8,0.7,6.5,2.2s2.5,3.4,2.5,5.8c0,1.7-0.4,3-1.2,4.1s-1.9,1.6-3.2,1.6c-2.1,0-3.1-1-3.1-2.9c0-0.3,0-0.5,0-0.7
				s0-0.5,0-0.7c0-1.6-0.8-2.4-2.3-2.4s-2.8,0.8-4,2.3s-1.8,3.3-1.8,5.2c0,1.6,0.5,2.7,1.5,3.4s2.6,1,5,1h6.4c2.9,0,4.3,1,4.3,3
				c0,1.3-0.5,2.4-1.5,3.2C199.7,184.8,198.3,185.2,196.6,185.2z"/>
			<path class="st4" d="M212.9,177.9h3.8c2.8,0,4.2,1,4.2,3c0,1.4-0.5,2.4-1.5,3.2s-2.4,1.1-4.2,1.1h-5.3c-2,0-3.5-0.4-4.7-1.2
				s-1.7-1.9-1.7-3.3c0-0.7,0.2-1.7,0.7-2.8l5.6-13.7l0.4-0.9c1-2.5,2.7-3.8,5-3.8c0.9,0,1.8,0.3,2.4,0.9c0.7,0.6,1,1.4,1,2.3
				c0,0.7-0.3,1.8-0.9,3.3L212.9,177.9z M217.3,148.7c1.3,0,2.4,0.5,3.3,1.4c0.9,0.9,1.4,2,1.4,3.3s-0.5,2.4-1.4,3.3
				c-0.9,0.9-2,1.4-3.3,1.4s-2.4-0.5-3.3-1.4c-0.9-0.9-1.4-2-1.4-3.3s0.5-2.4,1.4-3.3C214.9,149.2,216,148.7,217.3,148.7z"/>
			<path class="st4" d="M240.8,159.4h4.6c2.9,0,4.3,1,4.3,3c0,1.4-0.5,2.4-1.5,3.2s-2.4,1.1-4.2,1.1h-6.2L222.7,204
				c-1.3,3.1-3,4.6-5.3,4.6c-1,0-1.8-0.3-2.5-0.9s-1-1.4-1-2.3c0-0.7,0.3-1.7,0.9-3.2l14.5-35.5H227c-2.9,0-4.3-1-4.3-2.9
				c0-1.4,0.5-2.5,1.5-3.3s2.4-1.2,4.2-1.2h3.8l4.3-10.5c1.4-3.5,3.2-6,5.2-7.5s4.7-2.2,8.1-2.2h3.8c2.9,0,4.3,1,4.3,3
				c0,1.4-0.5,2.5-1.5,3.3s-2.4,1.2-4.2,1.2h-1c-1.9,0-3.4,0.4-4.5,1.1c-1.1,0.8-2,2.1-2.7,3.9L240.8,159.4z"/>
			<path class="st4" d="M254.7,177.9h3.8c2.8,0,4.2,1,4.2,3c0,1.4-0.5,2.4-1.5,3.2s-2.4,1.1-4.2,1.1h-5.4c-2,0-3.5-0.4-4.7-1.2
				s-1.7-1.9-1.7-3.3c0-0.7,0.2-1.7,0.7-2.8l5.6-13.7l0.4-0.9c1-2.5,2.7-3.8,5-3.8c0.9,0,1.8,0.3,2.4,0.9c0.7,0.6,1,1.4,1,2.3
				c0,0.7-0.3,1.8-0.9,3.3L254.7,177.9z M259.2,148.7c1.3,0,2.4,0.5,3.3,1.4s1.4,2,1.4,3.3s-0.5,2.4-1.4,3.3c-0.9,0.9-2,1.4-3.3,1.4
				s-2.4-0.5-3.3-1.4c-0.9-0.9-1.4-2-1.4-3.3s0.5-2.4,1.4-3.3C256.8,149.2,257.9,148.7,259.2,148.7z"/>
			<path class="st4" d="M280.9,159.4h1c2.9,0,4.3,1,4.3,3c0,1.4-0.5,2.4-1.5,3.2s-2.4,1.1-4.2,1.1H278l-4.5,11.1h3.8
				c2.9,0,4.3,1,4.3,3c0,1.4-0.5,2.4-1.5,3.2s-2.4,1.1-4.2,1.1h-6c-1.7,0-3.1-0.4-4.1-1.2s-1.5-1.9-1.5-3.2c0-0.8,0.2-1.8,0.6-2.8
				l0.6-1.5l4-9.8H269c-2.5,0-3.8-1-3.8-2.9c0-1.4,0.5-2.5,1.5-3.3s2.4-1.2,4.2-1.2h1.5l1.8-4.4l0.4-0.9c1.1-2.5,2.7-3.7,5-3.7
				c0.9,0,1.7,0.3,2.4,0.9c0.7,0.6,1,1.4,1,2.2c0,0.9-0.3,1.9-0.9,3.2L280.9,159.4z"/>
		</g>
		<path class="st5" d="M225.1,176.1"/>
	</g>
	<g id="레이어_2_00000114059447994822625900000010037698009425503105_" class="st1">
		<g class="st6">
			<path class="st7" d="M818,452c-185.8-67.7-257.5-88.6-272-87c-1.1,0.1-10.4,1.3-23,1c-14.9-0.4-25.7-2.8-27-3
				c-14.1-2.7-82.3,14.4-266,76c-2-105.3-4-210.7-6-316c49.8-0.8,86.7-10.9,111-20c34.5-12.8,113.6-49.4,149-52c13.2-0.9,27-1,27-1
				s15.2-0.1,30,1c35.2,2.5,121.7,40.5,140,48c30.1,12.3,75,24.1,138,19C818.7,229.3,818.3,340.7,818,452z"/>
		</g>
		<g class="st6">
			<path class="st8" d="M790.1,462c-171.5-48-235.4-70.2-248-79.4c-1.8-1.3-10.2-8-22.1-8.6c-12.1-0.6-21.4,5.5-23.4,6.8
				c-13.3,8.1-75.5,27.4-242.5,69.4c-1.8-96.1-3.6-192.3-5.5-288.4c54.5-4,92-19.2,116.4-32.7c32.3-17.9,57.9-31.6,109-59
				c6.4-3.4,18.4-9.7,35-11c25.2-1.9,44.8,9,54,14c3.5,1.9,42.3,18.3,120,51c24.9,10.5,61.2,23.6,108,33.2
				C790.7,258.8,790.4,360.4,790.1,462z"/>
		</g>
		<g class="st6">
			<path class="st9" d="M767.2,462c-49.2,6-84-2.6-107.2-12c-13.5-5.5-86.2-37.1-118-58c-2.8-1.8-10.3-6.9-21-8
				c-13.1-1.3-23.6,4.1-27.1,5.9C466.5,404,436.4,413,410,429c-24.3,14.7-63.9,28.4-130.1,22.3c-1.6-91.4-3.3-182.9-4.9-274.3
				c14.7-0.3,35.7-1.8,60-8c23.6-6,40.7-13.8,54-20c29.6-13.8,48.1-27,76-40c12.7-5.9,23.8-10.2,26-11c7.1-2.7,13.1-4.7,17-6
				c5-0.7,11.1-1,18.1-0.3c13.9,1.5,24.6,6.5,30.9,10.3c13,7.6,22.9,12.9,23,13c13.9,9.5,65.2,28.5,195,66
				C772.4,274.7,769.8,368.3,767.2,462z"/>
		</g>
		<g class="st6">
			<path class="st8" d="M516,110c-2,0.1,5.1,256,7,256c0.9,0,0.8-59.7,0-103C521.6,186.8,517.1,110,516,110z"/>
		</g>
	</g>
	<g id="레이어_3" class="st1">
		<path class="st10" d="M229.5,45.5c-15.6,0.1-27.7-2-36-4c-15.4-3.7-19.4-7.4-29-6c-6.7,1-13.9,5.7-28,15c-17,11.3-17.3,13.8-24,15
			c-12.3,2.3-18-5.1-26-1c-5.3,2.7-6.2,7.5-11,20c-11.3,29.2-16.5,28.2-18,42c-1.4,13,3.5,11,4,32c0.5,19.5-3.7,25.4,1,37
			c4.3,10.6,12.2,16.7,14,18c9.3,6.9,14.3,4.3,26,10c11.8,5.7,12.6,11.3,24,20c13,10,25.9,13.5,35,16c29.6,8.1,73.3,3.9,101-24
			c16.9-17.1,27.3-42.4,21-49c-5.3-5.5-24.4,0.4-36,7c-9.4,5.3-10.9,9.4-18,10c-9.1,0.8-11.2-5.4-25-8c-12.1-2.2-15,1.7-21-2
			c-6.1-3.8-7.9-10.8-11-23c-1.8-7.1-3.9-15.2-3-26c0.8-9.7,1.9-23.8,11-30c8-5.5,13.4,1.3,37,2c22.4,0.7,25.3-5.1,44-2
			c12.8,2.2,17.5,5.9,21,3c6.5-5.5-1.1-26.6-10-40C260.3,59.1,242.2,50,229.5,45.5z"/>
	</g>
	<g id="레이어_4" class="st1">
	</g>
</g>
<g id="레이어_2_00000063608380506686591960000002402681155064560799_">
	<path class="st11" d="M1094.2,95.2c1.6-3.5,9-19.3,24.9-22.9c6.4-1.5,14.5-1.2,15.3,1.2c1.1,3.2-12.5,5.3-16,13.5
		c-5,11.6,15.5,22.5,33.9,55.9c13.6,24.8,11.6,35.6,8.3,41.7c-1.8,3.4-3.7,4.7-8.9,9.4c-22.4,20.2-32.2,36.1-34,35
		c-2.1-1.2,17.5-17.5,16.1-38.6c-1.7-27.3-36.6-32.9-42.6-68.3C1089.9,115,1089.7,105.3,1094.2,95.2z"/>
	<path class="st12" d="M1085.9,118.9c-0.6,4.1-1,10.8,5.7,32.3c8.7,28.1,12.7,27.6,12.1,37c-1.1,18.4-16.3,25.5-11.5,35.3
		c3.4,7,14.7,10.5,23,8.8c15.1-3,21.1-22.1,21.9-33.5c0.8-13-4.8-22.8-11.2-33.6c-15.3-25.7-30.2-28.3-32.4-45.8
		c-1.8-14,6.2-24.9,4.7-25.5C1096.7,93.5,1088.1,104.7,1085.9,118.9z"/>
	<path class="st11" d="M1091.1,99.7c-1.1-0.3-2.7,3.7-9.3,9.6c-2.9,2.6-3.8,2.8-5.4,4.3c-7.4,6.4-5.3,14.4-9.6,23.4
		c-1.9,4-5.6,9.3-13.5,14.3c0,0-0.8,1.6-1.4,3.4c-3.7,11.6,1.9,28.1,4.5,40c4.6,21.2-0.3,27.4,6.7,31.8c7.1,4.5,18.2,2.9,25.3-1.3
		c7.4-4.3,9.8-11,14.3-23.3c2.4-6.5,3.9-10.7,3.2-16.3c-0.2-1.9-0.6-2.9-6-15.8c-2.1-5.1-4.1-10.2-6.3-15.2
		c-1.6-3.5-3.2-7.1-4.6-12.3c-0.4-1.6-0.8-3.4-1.1-5.7C1085.4,116.9,1093.5,100.4,1091.1,99.7z"/>
	<path class="st13" d="M1081.8,109.3c-1.4-0.9-6.6,5.7-20.2,17.1c-3.7,3-7,6.1-14.4,11.3c-7.9,5.5-11.4,6.7-16.3,12.2
		c-14,16,2,34.9-10.2,44.1c-5.3,4-8.7,1.2-18.5,4.1c-17.7,5.2-34.4,22.3-35.8,39.4c-1.2,15.1,9.8,26,26.2,41.7
		c31.9,30.7,80.5,55.4,97.7,42.9c5.6-4.1,6.5-10.7,14.1-12.3c11.3-2.5,23.1,9.6,23.4,9.3c0.1-0.1-0.7-4.3-51.5-40.6
		c-46.7-33.4-68.8-46.3-65.8-59.8c1.3-6.1,7-10,9.6-11.8c19.4-13.2,50.8,1.6,53.7-4.5c0.6-1.2-0.7-1.8-7.3-12.2
		c-5.5-8.6-7.7-12.9-8.3-14.1c-2.8-5.6-4.5-9.2-5-14.3c-0.3-3.4-0.8-8.1,2.2-11.7c2.4-2.9,4.8-2.3,8.6-4.6c5-3,5.7-6.9,11.2-19.7
		C1080.3,113.5,1082.8,109.9,1081.8,109.3z"/>
	<path class="st14" d="M1649.2,259.9"/>
	<path class="st15" d="M1063.1,204.4c0.2-2.9,0.6-3.2,0.4-3.7c-1.1-3.8-22.4-5.4-39.4,3.8c-6,3.3-9.1,6.6-10.3,8
		c-5.4,6.2-7,12.8-7.1,14.5c-0.8,19.6,37.9,22.5,76,56.6c26.9,24.1,31.9,44.2,47.3,42.8c11-1,21.9-12.5,23-24.1
		c1.1-11.5-7.6-21.1-10.2-23.5c-5.4-5.1-6.7-3.5-24.6-13.1c-6.7-3.6-6.1-3.8-18.9-11c-7.4-4.2-13.7-7.6-16-8.8
		c-21.7-11.5-45.2-11.5-47.3-21.2c-1.2-5.4,4.6-12.7,10.7-14.7c6.6-2.2,14.6,1.5,16.1-1.2C1063.2,208,1062.8,207.6,1063.1,204.4z"/>
	<path class="st16" d="M1031.6,224c0.5-2.5,4.3-7,8.2-9.9c1.9-1.4,6.4-4.9,12.2-5.5c7-0.7,12.5,3.2,16,5.4
		c13.2,8.3,17.1,6.1,33.9,14.1c28.4,13.6,72,34.5,70.3,58.9c-1.5,22.4-40.4,38.9-42.9,36.3c-1.9-2,20.3-13.3,19.2-28.2
		C1145.8,259.9,1028.3,240.2,1031.6,224z"/>
	<path class="st11" d="M1084.6,218.7c0-0.1,0.1-0.2,0.1-0.4c0.6-1.3,3.6-4.5,45.8,4.8c13.4,2.9,19.5,4.7,26.5,8.5
		c7.1,3.9,13.5,7.4,14.2,12.9c1,8.1-11.3,13.1-9,20.7c0.8,2.5,2.2,2.2,4.9,6c6.3,8.9,5.2,20.1,4.1,20.3c-0.8,0.1-1.2-6-5.3-14.4
		c-4.2-8.7-9.9-15-14.4-19.1l0,0c0,0-0.9-0.7-16.6-11.2C1113.4,232.4,1083.4,224.1,1084.6,218.7z"/>
	<path class="st11" d="M1075.4,325c-0.4,6.4,31.5,6.4,71.5,22.1c21,8.2,34,16.6,45,11c6.4-3.2,9-9.6,10.9-14.1
		c4-9.6,5-24.6-3.2-30.6c-3.5-2.6-5.5-1.1-15.3-5.3c-8.3-3.5-8.2-5-11.5-5.9c-14-3.5-24.3,21.6-40.9,20.6
		c-14.2-0.9-20.1-20.2-30.7-17.6c-4,1-3.9,3.9-13.4,11.2C1078.9,323,1075.5,322.9,1075.4,325z"/>
	<path class="st17" d="M995.4,281.9c-2.9,2.8,25.5,42.2,68.1,54.4c29.2,8.3,54.9,7.6,54.9,7.6c8.4-0.2,11.3-1,18.6-0.1
		c14.2,1.7,36.9,8.9,43.4,24.2c4.5,10.5-2.6,20.1,0.7,21.5c3.5,1.5,15.2-7.8,15.9-18c1-15.5-24-27.8-31.9-31.8
		c-34.9-17.5-56.5-5.7-96.5-16.5C1020.6,310.5,998.2,279.1,995.4,281.9z"/>
	<path class="st11" d="M999,287.5c-11-12.6-11.9-15.6-14.7-15.7c-6.9-0.2-18.2,18.3-14.7,33.9c4.7,21,34.6,31.3,53.7,37.6
		c67.3,22.4,114.8,1,139.3,29.5c7.9,9.2,11.1,20.8,15.3,20c5.1-1,9.3-19.5,1.3-32.3c-9-14.3-30.8-17.5-56.2-21.2
		c-14.6-2.1-14.2-0.4-31.6-2.8c-23.2-3.1-34.8-4.6-48.3-11.4c-18.8-9.5-32.4-24.6-35.3-27.9C1004.8,294,1001.9,290.8,999,287.5z"/>
	<path class="st14" d="M995.4,281.9c-0.4-3.2-12.7-6.5-22.4-2.7c-5.2,2-8.2,5.9-14.3,13.5c-5,6.3-8,10-9.6,15.3
		c-3,9.9,0.8,18.8,2.6,22.9c14.1,33,101.7,65.4,115,48.8c2.9-3.6-0.2-6.5,3.2-10.6c4.6-5.5,40.8-2.8,62-2.9
		c14.1-0.1,32-1.7,32.2-4.2c0.1-2.5-17.2-5.4-25.8-6.6c-14.5-2-22.8-1-37.5-1.7c-19.9-0.9-29.9-1.4-40.4-2.8
		c-18.1-2.4-34.8-6.4-50.9-12.5c-18.3-6.9-23.9-12-26.4-14.5s-16.3-15.8-12.1-26.5C975.2,286.4,996,286.1,995.4,281.9z"/>
	<path class="st18" d="M1072.1,367.5c4.8-2.8,9.9-2.7,19.5-2.4c11.6,0.3,13.9,2.3,24.9,2.4c7.9,0,13.9-1,15.3-1.2
		c15.1-2.6,15.7-7.4,27.7-9.4c4.5-0.8,4.5-0.3,29.2,2.3c11.2,1.2,15.3,1.4,17.2,4.7c1.8,3.2,1.2,8.8,0.8,12.5
		c-0.3,3-0.6,4.5-0.7,5.4c-0.7,3.8-1.4,4.7-0.7,6.8c2.6,8,17,9.1,16.6,11.8c-0.4,2.4-12.1,2.8-18.5,3c-5,0.2-11,0.1-22.4-0.7
		c-11-0.7-12.5-1.2-18.8-1.6c-13.2-0.8-22.9,0.1-27.8,0.5c-57.3,4.7-106.3-6.2-106.4-6.2c-14.2-2.6-50.8-9.3-61.6-30.9
		c-3.6-7.1-4.5-16.1-2.1-17.2c1.8-0.8,4.9,2.2,7.4,4.5c3.5,3.1,11.9,7.8,28.5,17.1c15.2,8.5,27.5,15.3,44.1,16.8
		c11.6,1,15.7-1.4,17.4-2.6C1068,378.5,1065.3,371.5,1072.1,367.5z"/>
	<path class="st14" d="M962.6,350.8c1.2,0.4,1,3,1.2,4.8c1.4,13.9,29.3,24.2,34.4,26c0,0,0.4,0.1,0.7,0.2
		c28.7,9.8,178.9,20.5,178.9,20.8c0,0.1-17.5,1.3-46.2,0.8c-14.2-0.3-29.5-0.9-53.1-0.1c-4,0.1-3,0.1-6.1,0.2
		c-12.3,0.4-35.9,0.7-59.1-2.4c-3.9-0.5-9.8-1.7-21.6-4c-21.3-4.1-26.3-5.8-31.1-9.7c-2.3-1.9-8.2-6.6-9.4-14.2
		C949.3,361.4,959.8,350,962.6,350.8z"/>
	<path class="st19" d="M1131.2,75.2c-0.1-0.4-27.7,1.8-32.3,14.1c-0.8,2.1-0.6,3.8-2.7,11.1c-1.4,4.7-2.2,6.6-2.7,10.1
		c0,0-0.6,4.3-0.1,9c1.2,11.1,12.1,20.4,30.3,42.3c3.6,4.4,6.5,8,7.1,7.7c0.7-0.4-1.9-5.9-5.4-10.9c-2.6-3.7-5-6-6.4-7.3
		c-8.7-8.6-17.9-17.7-20.8-28.5c-1.1-4.3-1.3-8.8-1.3-8.8c0-1.5-0.1-5,1-10c0.4-1.8,2-10,5.4-15.3
		C1111.3,76.4,1131.3,75.6,1131.2,75.2z"/>
	<path class="st20" d="M1128.4,78.2c1.2,1.7-9.9,6.8-10.3,15.2c-0.3,6.1,5.3,10.7,9.4,14.4c20.8,18.9,32.1,42.1,34.3,57.3
		c0.6,4.6,1.1,10.3-1.6,16.6c-1.9,4.3-3.6,5-14.8,18.2c-4.7,5.6-5.8,7-6.7,6.7c-3.2-1.1,8.3-21.3,0.1-41
		c-3.2-7.8-9.1-14.3-10.1-15.4c-7.7-8.5-12.5-8.8-17.2-15.9c-3.7-5.5-4.1-10.4-5.1-20c-1.2-12.3-2.2-21.7,4.2-28.8
		C1116.7,78.5,1127.3,76.7,1128.4,78.2z"/>
	<path class="st21" d="M1066.9,204c0-0.7,6-2.6,12-0.9c7.2,2.1,11,8.8,10.5,9.3c-0.4,0.4-3.6-3.7-10.5-6.2
		C1072.1,203.8,1066.9,204.6,1066.9,204z"/>
	<path class="st11" d="M1005,224.6c-0.7-0.3-3,1.6-7.7,5.5c-2.9,2.4-4.4,3.6-4.7,4.3c-2.1,4.4,3.1,10.4,4.7,12.3
		c13.5,15.9,44.1,19.7,45.8,16.1c0.3-0.6-0.3-1.3-1.3-2.7c-2.1-3-4.6-4.1-9.8-6.9c-7.9-4.2-6.7-4.2-10.2-5.7
		c-3.2-1.3-4.8-1.7-7.2-3.5c-1.6-1.2-2.6-2.4-4.5-4.7c-2.9-3.5-4.3-5.3-4.9-7.4C1004.1,227.8,1006.1,225.1,1005,224.6z"/>
	<path class="st22" d="M1023.1,202.2c-0.1-2.2-10.2-5.4-19.6-3.5c-7,1.4-11.3,5-17,10C976.9,217,971.1,222,969,230
		c-3.7,14.1,6.7,27.1,13,35.1c5.7,7.2,11.3,11.5,19.8,17.8c10.3,7.6,62.4,45.9,70.5,38.6c1.1-1,1.8-3.2,5.1-5.3c3-1.9,4.1-1,6.8-2.7
		c3.9-2.5,3.2-5.1,7.2-7.4c3-1.8,4.4-0.9,5.1-2c3.3-5.2-26.9-26.8-29.4-28.6c-4.8-3.4-5.4-3.4-8.3-5.9c-4.8-4.1-7-7.4-10-7.1
		c-1.5,0.2-2.1,1.2-3.4,2.2c-6.8,5.2-20.8,0.1-25.8-1.8c-2.1-0.8-7.3-2.8-13.2-6.9c-6.1-4.2-16.7-11.4-15.5-19.2
		c0.5-3.2,2.8-5.7,5.5-8.6c2.8-3,4.6-3.6,9.2-8.2c2-2,3.5-3.7,4-4.3c4.9-5.8,5-7.7,8.6-10.4C1021.3,203.1,1023.1,203.1,1023.1,202.2
		z"/>
	<path class="st23" d="M993,251.2c9.5,18.2,91.1,44.2,84.7,47.2c-0.3,0.9-2.6,1.4-5.7,1.4c-3.6,0-6.6-0.4-10.5-1.4
		c-1.5-0.4-2.2-0.6-5.7-1.6c-1.9-0.5-3.5-0.9-3.8-1c-5.3-1.3-10.6,0.2-14.7,0.1c-5.1-0.1-8.6-2.6-13.7-6.2
		c-32.1-22.3-38.4-23-45.7-35c-2.3-3.8-5.5-10-7.3-18.8c1.3-5.1,3.8-11.6,8.6-18.2c2-2.8,6.8-9.3,14.9-14.2c1.3-0.8,4.5-2.6,8.9-3.9
		c4.4-1.3,6.9-1.3,8.5-1.2c1.7,0.1,3.1,0.5,4,0.8c1.9-0.7,4.8-1.6,8.3-1.8c5.8-0.3,11.6,1.4,11.5,2.4c-0.1,1.3-10.5-1.2-18.5,4.4
		c-4,2.7-2.7,4.1-7.7,9.7c-7.4,8.2-12.2,7.5-17.6,15.3c-1.7,2.5-3.6,5.4-3.8,9.4C987.5,244.9,991.5,249.6,993,251.2z"/>
	<path class="st24" d="M1043.1,301.9c2-4.1,33.6,8.7,39.3,0.9c2.6-3.5-1.6-9.4,0.3-10.3c2.4-1.1,10.4,7.2,8.9,9.4
		c-0.6,0.8-2.1,0.2-4.4,1.2c-2.1,1-2.8,2.5-4.3,4.3c-1.9,2.4-4.2,3.9-8.9,7.1c-4,2.6-6,4-7.7,4.1c-2.7,0.2-5-0.9-11.2-5.6
		C1046.7,306.5,1042.4,303.2,1043.1,301.9z"/>
	<path class="st23" d="M1076.9,114.4c1.1,0.8-4.7,13.8-15.3,21c-3.3,3.7-6.3,6.2-8.5,7.9c-1.4,1.1-3.6,2.7-6.2,5.4
		c-2.4,2.5-3.2,4-3.5,5.6c-0.1,0.7,0,1.8,0.3,4.1c0.3,2.1,0.5,3.3,1,6.2c0.4,2.2,0.4,2.8,0.6,4.1c0,0,0.8,5.1,1.9,10
		c2.4,10.5,7.2,14.8,5.4,16.5c-2,1.8-7.1-4.2-18.5-5.3c-2.1-0.2-4.9-0.3-6.1-2.1c-1.1-1.7,0.1-3.9,0.8-5.9c1-3,1.5-7.6-1.1-14.1
		c-4.4-16,5.5-22.2,22-30.5C1068.1,126.2,1075.8,113.5,1076.9,114.4z"/>
	<path class="st19" d="M1027.4,202.8c-2.3,0.7-12.6,3.7-17.8,13c-0.6,1.2-4.7,8.8-2,16.8c3.8,11.2,18.6,16.2,23.9,18
		c50.1,18,95.7,69.8,104.9,61.8c1.8-1.6,1-4.4,5-8.4c3.1-3.2,7.6-5.5,7.1-8.6c0-0.1,0-0.1-0.1-0.2c-1.2-4.9-6.4-7.8-8.9-9.1
		c-17.7-9.2-64-26-77.6-31.5c-7-2.8-47.3-18.9-45-31.5c1.2-6.7,14.4-12.4,22.6-14.4c2.4-0.6,5.8-1.4,10.2-1.2
		c14.3,0.6,22,10.7,23.4,9.5c1.7-1.5-8.4-19.3-20.5-19.3c-2.7,0-3,0.9-12.2,2.8C1031.6,202.3,1031.2,201.7,1027.4,202.8z"/>
	<path class="st23" d="M967.7,289.5c-0.2-0.2-2.1,0.6-3.5,2.4c-3.4,4.4-0.4,11.6,0.3,13.2c0,0,1.6,7.5,6.8,15.2
		c10.5,15.6,35.8,30.7,67.3,34.8c21.3,2.8,42,0.1,42.2,1.8c0.1,1.5-12.1,1.6-21.7,10.6c-5.6,5.2-4.4,7.9-8,10.3
		c-7.6,5.1-54.1-19.9-59.4-22.9c-25.4-14.3-34.2-19.8-37.5-30.9c-0.7-2.4-3.1-10.2,0-18.3C957.9,295.8,968.1,290.1,967.7,289.5z"/>
	<path class="st14" d="M984.9,280.4c-9.4,2.3-14.1,16.2-11.5,18.2c1.7,1.3,5.2-3,12.1-3.5c8.1-0.6,14.4,4.5,18.5,7.4
		c2.6,1.8,4.2,2.6,38.6,12.3c34.6,9.8,52,14.7,54.9,15.3c13.2,2.4,55,9,64.8,13.2c8,3.4,14.7,8.2,14.7,8.2l0,0
		c7,4.9,8.1,7.5,11.5,7.6c7.1,0.3,16.6-10.5,15.3-18.8c-1-6.5-8.8-12.2-38.3-20.6c-40.4-11.5-101-22.3-131.6-24.3
		c-6.1-0.4-13.2-0.6-21-4.5c-4.6-2.3-6.8-4.6-14.1-7.6C992.9,280.8,989.1,279.4,984.9,280.4z"/>
	<path class="st23" d="M1011.6,198.5"/>
	<path class="st25" d="M1089.9,105.8c-0.8-0.4-5,4.7-8.9,11.4c-9.4,15.6-6.2,20.8-14.3,28.4c-3.4,3.2-6.4,4.6-7.7,8.6
		c-1,3.2-0.2,6,1.3,11.4c2.1,7.6,3.2,11.5,5.3,12.2c6.1,2,22.3-12.7,22.4-28.2c0-8.2-4.5-9.2-4.9-19
		C1082.5,116.6,1091,106.3,1089.9,105.8z"/>
	<path class="st26" d="M1052.4,210.1c-6.4-1.8-11.9-1.4-12.9-1.4c-10,0.8-20,6.4-19.3,9.2c0.6,2.6,9.8,1.6,21.5,2.7
		c14,1.3,29,7.7,58.2,20.4c11.7,5.1,26.9,12,40.2,22c4.3,3.3,11,8.8,14.4,17.6c0.8,2.1,2.1,5.6,2,9.9c-0.2,13.2-12.6,21.7-11.7,22.5
		c1,1,19-6.7,21.9-20.8c2.8-13.9-10.4-26.4-17.9-33.5c-9-8.5-19.2-13.6-24.1-16.1c-10-5-9.4-3.3-19.8-8.6
		c-10.7-5.5-12.3-7.8-22.1-12c-8.1-3.4-8.1-2.2-14.3-5.3C1065.3,215.2,1058.1,211.7,1052.4,210.1z"/>
	<path class="st27" d="M1093.4,117.9c2.2-0.5,6.6,22,20.7,36.3c1.4,1.4,5.1,5,8.5,10.7c3.5,5.8,5,11,5.7,13.5
		c1.6,5.4,2,9.7,2.2,12.3c0.3,3.4,0.7,7.8,0,13.2c-0.7,5-1.9,14.6-6.9,15.8c-2.3,0.6-3-1.1-7.4-2.3c-8.7-2.3-15.5,1.8-16.7-0.1
		c-0.9-1.6,2.8-4.2,6.5-9.3l0,0l0,0l0,0c6.8-4.7,6.9-13.8,7-16.5c0.5-10.4-7-20.3-12.1-30.6C1090.2,139.5,1091.3,118.4,1093.4,117.9
		z"/>
	<path class="st25" d="M1090,157.2c-0.3,0.1,1,3.4,1.9,8.8c0.6,3.3,1.7,10.1,0.3,18.5c-1.1,6.9-1.7,10.4-3.8,13.5
		c-1.1,1.6-2.7,3.4-2.2,5.6c0.3,1.4,1.3,1.8,4.2,4.7c3.3,3.4,3.8,4.9,4.8,4.7c1.4-0.2,1.6-3.4,2.2-6.8c1.9-10,5.1-10.6,5.4-16.5
		c0.2-2.8-0.6-3.3-5.4-15C1092.7,163.6,1090.4,157.1,1090,157.2z"/>
	<path class="st28" d="M972.5,298.2c0.1,0.6,3.9-1.3,11.1-1.8c7.3-0.5,11.6,0.7,11.6,0c0.1-0.7-4.5-3.3-9.9-3.3
		C978.3,293,972.3,297.4,972.5,298.2z"/>
	<path class="st28" d="M1016.6,295.1c0.2-0.7,15.9,2.8,47.3,7.3c9.2,1.3,15.3,2.1,24.9,4.1c9,1.8,11.6,2.8,20.8,4.7
		c13,2.7,14.8,2.3,25.9,4.4c18.9,3.6,15.3,5.1,37,10c6.7,1.5,21.7,4.6,25.2,10.9c1.3,2.3,1.6,5,1.6,5c0.4,3.9-1,7.7-1.9,7.6
		c-1.1-0.1,0.3-6.4-3.5-10.9c-3.5-4.1-9.8-4.4-13.1-4.7c-17.5-1.5-14.6-6.6-46.6-12.9c-13.3-2.6-15.9-2.2-28.4-5.3
		c-10.2-2.6-9.3-3.1-18.5-5.3c-10.6-2.5-12.9-2.1-33.5-5.9c-10.1-1.8-14.5-2.8-16.2-3.2C1028.7,299,1016.4,295.8,1016.6,295.1z"/>
	<path class="st29" d="M1044.7,144.3c0.7,0.6-4.8,4.3-6.1,11.5c-0.5,2.7-0.3,4.9,2.6,15c3.3,11.7,5.6,17.5,4.2,18.2
		c-0.9,0.4-2.2-1.9-7-4.1c-3.7-1.7-4.9-1.3-6.1-2.6c-1.9-2.2,0.3-5,0.6-9.7c0.6-8.1-2.9-9.7-1.9-15
		C1032.5,148.9,1043.7,143.5,1044.7,144.3z"/>
	<path class="st30" d="M1122,85.1c-1.3-0.8-7.5,3.7-10.3,10c-2.4,5.6-1.4,11.1,0,15.9c3.5,11.9,9.9,21.9,17.9,31.8
		c13.6,16.7,20.1,18.5,20.8,27.6c0.5,7.6-3.2,16.7-0.9,17.5c0.5,0.2,1,0,2.2-0.8c3.8-2.4,6.9-6.3,8.3-9.7c3.5-8.7-2-20.9-4.5-25.9
		c-5.6-11.2-12.6-19.4-22.7-31.2c-9.3-10.8-14.8-15.8-14.2-23.6C1119,90.5,1123.2,85.9,1122,85.1z"/>
	<path class="st31" d="M995.1,210.2c3.7-2.1,5.6-3.1,5.8-3.3c1.5-1.1,2.3-1.9,3.5-1.7c1.3,0.1,2.2,1.3,2.6,1.9
		c0.4,0.5,1.1,1.4,1.1,2.6c0,1.3-1,2.2-2.8,3.7l-4.7,4.1c-7.5,5.3-11.5,8.1-14.5,11.8c-0.6,0.8-6.3,7.9-5.5,16.9
		c0.4,4.3,2,7.3,1.7,7.4c-0.4,0.1-4.2-5.5-5.5-12.5c-0.5-2.5-2.4-14.7,4.9-22.1c3.1-3.1,7.2-5.5,7.2-5.5
		C991.1,212,991.6,212.1,995.1,210.2z"/>
	<path class="st32" d="M1049.8,333c-24.5-7-37-10.6-49.8-17.6c-11.1-6.1-20.8-13.1-23-11.2c-2.1,1.8,3.2,10.5,7.7,15.9
		c6.6,7.9,21.9,21.3,90.4,28.8c22.4,2.5,49.6,4.2,49.8,2.4C1125.1,349.3,1095.9,346.2,1049.8,333z"/>
	<path class="st33" d="M939.9,382.3c9.1,1.1,16.9,2.3,23,3.2c8.9,1.4,23.2,3.7,40.7,7.3c2.7,0.6,4.7,1,5.8,1.2
		c43.5,9,155.1,12.9,199.6,5.7c3.7-0.6,18.7-3.2,21.3,2.1c1.5,3-1.3,8-3.2,10.4c-3.1,4.1-7.1,5.6-8.6,6.3
		c-14.4,7.5,2.2,45.8-14.9,62.4c-4.9,4.9-20.4,16.2-27.7,21.2c-1.8,2.2-3.7,5.4-3,8.6c0.7,3,3.3,3.8,3.7,5.4
		c1.1,4.3-13.1,14.4-35.5,21.5c-8,2.5-43.4,13-98.6,1.7c-40.2-8.2-63.3-22.3-62.3-27.1c0.2-1.1,1.7-2,2.6-4.9
		c1.1-3.5,0.5-6.8-0.1-8.8c-20.3-8.8-28.9-20-33-28.1c-6.3-12.3-4.5-21.9-8.2-69.2C940.9,393.3,940.3,386.7,939.9,382.3z"/>
	<path class="st34" d="M941.5,401.3c7,3,15.6,6.1,25.6,8.3c7.2,1.6,13.8,2.5,19.7,3c39.7,1.6,61.6,3.7,74.4,5.3
		c5,0.7,15.2,2.1,29.1,2.7c6.1,0.3,8.6,0.2,23.1,0.5c18,0.4,16.2,0.6,23.1,0.6c23.9,0.2,28.8-1.8,48.4-1.8c1.5,0,7.6,0,15.6-0.9
		c6.5-0.7,10-1.6,10.9-1.9c6.7-1.7,11.6-3,15.1-7.2c2.5-3,3.4-6.3,3.7-8.3c-0.8-1-2-2.4-3.8-3.4c-4.7-2.5-10.1-0.7-14.8,0.7
		c-6.4,1.9-13.2,2.2-19.6,3.9c-14.9,3.9-28.5,3.8-55.9,3.4c-5.5-0.1-13.1-0.3-22.3-0.9c-5.9-0.1-14.3-0.3-24.4-0.7
		c0,0-15-0.6-28-1.4c-41-2.5-110.9-18.6-110.8-18.9c0,0,0.9,0.2,0.9,0.1c0,0-12.6-4.8-16.9-0.4c-2.9,3-0.8,9.2-0.6,9.6
		C936,399,940.7,401,941.5,401.3z"/>
	<path class="st35" d="M950.2,407.8c2.6-1.6,10.5,0.8,26.5,5.5c3.2,1,3.5,1.2,5.1,1.6c6.6,1.6,14.2,1.5,50.7,5.3
		c4.4,0.5,18.4,2,46.3,5.2c29,3.3,32,3.6,39,3.5c13.7-0.3,16.5-2,21.2,0.6c13.3,7.2,18.6,36.1,6.7,53.2
		c-10.8,15.5-32.3,16.6-48,17.5c-9.3,0.5-12.3-0.6-42.9-4.7c-29.1-3.9-32.5-3.7-36.8-4.4c0,0-1.9-0.3-3.9-0.7
		c-52.2-11-61.3-27.7-61.3-27.7c-1.5-2.8-2.3-8.4-3.9-19.6C946.3,424.9,944.4,411.4,950.2,407.8z"/>
	<path class="st35" d="M986.5,495.5c0.4-1.2,30.2,13.4,77.1,17.5c50,4.3,86.1-6.3,86.4-4.7c0.3,1.6-31.4,13.4-71.3,12.5
		C1025.9,519.7,986,497,986.5,495.5z"/>
	<path class="st35" d="M942,388.2c1.2-1.2,5,0.9,6.5,1.7c3.3,1.7,15.5,4.5,39.9,10c15.8,3.6,31.5,5.2,63.1,8.5
		c12.5,1.3,21.5,2.1,30.8,2.8c29.7,2.5,44.9,3.7,63.7,3.5c5.8-0.1,15.7-0.2,28.6-1.3c20.3-1.7,30.5-2.6,36-3.9
		c5.1-1.3,11.2-3.1,12.2-1.3c0.8,1.4-1.6,4.5-3.9,6.3c-3.1,2.4-6.5,2.7-7.4,2.8c-11.8,1.3-8.8,4.6-31.7,6.1
		c-41.2,2.7-100.5-4.4-100.5-4.4c-7.5-0.9-10.8-1.4-20.1-2.4c-25.1-2.8-29.5-2.3-46.9-4.7c-13.1-1.8-22.5-3.6-29.5-5
		c-28.1-5.6-22.7-6.9-29.7-7.4c-0.9-0.1-4-0.2-6.8-2.3C942.7,394.5,940.8,389.4,942,388.2z"/>
	<path class="st36" d="M960.6,411.7c4-1.6,8.2,0.7,10,1.6c3.4,1.7,22.4,3.8,60.2,8c57.8,6.4,86.8,9.6,94.5,7.9
		c2.6-0.6,8.9-2.2,13.7,1.1c8.2,5.6,7.2,22.1,4.4,32.1c-0.7,2.6-3.1,11.1-9.2,17.5c-8.3,8.8-21.1,11.2-81.6,4.8
		c-30.8-3.3-44.6-5.7-60.7-10.9c-29-9.4-34.6-17.9-36.9-22.3C947.7,436.8,951.6,415.2,960.6,411.7z"/>
	<path class="st37" d="M970.3,420.2c3.9-3,9.4-1.5,18.1,0.4c12.8,2.8,26,3.5,38.8,5.9c24.3,4.6,44.3,5.5,52.8,5.9
		c15.1,0.6,30.2,4,45.2,2.2c4.8-0.6,9.4-1.5,12.7,1.3c7,6,4.1,26.2-5.5,36.9c-4.8,5.4-15.1,12.6-78.5,4.1
		c-72.5-9.7-81.3-22.1-84.4-28.6C965.1,439.2,964.1,425,970.3,420.2z"/>
	<path class="st38" d="M984.2,408c21.1,5.4,25.3,4.2,52.1,7.2c36.9,4.1,55.4,6.2,61.6,5.5c0.1,0,0.5,0,1.1-0.1
		c3.4-0.1,6.3,0.3,8.2,0.7c1.3,0.3,2.3,0.6,2.6,0.7c6.2,1.8,15.9,0,26.8-0.1c5.4-0.1,4.6,0.3,13.5,0.3c9.5,0,13.3-0.4,13.3-0.2
		c0.1,0.7-33.6,4.5-47.6,3.5c-0.6,0-4.9-0.4-10.9-0.7c-2.7-0.2-5.8-0.4-9.3-0.5c-7.3-0.4-13.4-0.6-22.9-1.4
		c-2.2-0.2-4.4-0.3-6.7-0.5c-10.9-0.9-17.5-1.4-29.7-3c0,0-57.8-6.4-78.3-12.8c-1-0.3-3.9-1.3-7.3-2.9c-1.9-0.9-4.8-2.2-4.7-2.6
		c0.2-0.6,8.1,2,17.2,4C972.1,406.9,978.5,406.5,984.2,408z"/>
	<path class="st39" d="M1177.7,433.3c1.7-1.3,5.1-1.7,11.8-2.6c7.6-1,11.3-1.5,13.1-0.7c7.9,3.8,9.6,26.6-0.7,42.5
		c-8,12.3-23.4,20.9-28.8,17c-4-2.8,1.2-9.7,1.3-32.1C1174.5,444.6,1172.8,437,1177.7,433.3z"/>
	<path class="st40" d="M994.4,496.6c-3.9,0.2-7.7,2.3-7.6,3.5c0.2,1.3,4.5,0.4,11.8,3.1c4.4,1.6,6,3.1,10.6,4.4
		c7.6,2.2,5.8,2.4,14.1,4.9c3.3,0.7,24.4,5.2,39.2,7.2c4.2,0.6,7.9,0.9,12,1c5.2,0.2,9.5,0,13.1-0.3c15.7-1.2,48.8-5.9,48.7-6.7
		c-0.1-0.8-30.9,6.2-69.6,2.8c-4.7-0.4-14.3-1.4-26.2-3.9c-18.9-4-28.3-6.1-33.8-10.5C1004.3,500.1,1000.1,496.3,994.4,496.6z"/>
	<path class="st35" d="M1091.9,536.2c11.1-0.3,19.4-1.4,25.9-2.3c19.4-2.7,29.1-4,38.7-9c9-4.7,14.4-10.2,15.3-9.2
		c1,1-3.5,8.3-9.7,13.4c-5.7,4.7-11,6-33,9.2c-20.9,3.1-36.7,5-49.8,5c-3.3,0-7.9,0-14-0.5c-3.8-0.3-5.5-0.7-11.3-1.3
		c-6.7-0.8-10.9-1.2-14.1-1.5c-19.4-1.9-29.1-2.9-36.3-6.4c-11.9-6-19.5-17-18.3-18.4c0.8-1,5.7,2.7,15.3,7.2
		c3.8,1.8,18.1,8.3,36.3,11.6c7.6,1.3,18.3,2.6,31.4,1.7C1074.9,536.2,1082.8,536.5,1091.9,536.2z"/>
	<path class="st19" d="M1070.8,383.5c5-0.4,8.8,0.4,10.8,1.2c0.5,0.2,10.3,1.3,30,3.5c13.7,1.5,28.6,1.1,58.2,0
		c25.4-0.9,40.2-2.2,41.4,2.1c0.6,2.1-2.1,6.1-5.2,7.9c-2.2,1.3-4.4,1.3-5.2,1.3c-5.7,0-23.5-1-47.5-2.9c-7.5,0-15.1-0.1-22.8-0.3
		c-15.2-0.4-38-1.3-68.3-3.3c0,0-1.9-0.1-3.9-0.4c-2.5-0.4-3.7-0.8-3.9-1.5C1053.8,389.3,1061.7,384.2,1070.8,383.5z"/>
</g>
<g id="레이어_3_00000163062259011069327390000010242728001503979683_">
</g>
<path class="st11" d="M1161.5,356.9c5.8-1.7,7.7,1,20.5,2.9c15,2.2,21.1-0.3,24,4.1c1.6,2.4,1.3,5.8,0.8,12.5
	c-0.3,4.2-0.5,7-1.5,8.9c-3.8,7.3-20.8,5.4-31.1,4.6c-37.6-3-59.7,2.1-60.2-1.5c-0.4-3.2,18.1-2.6,32.9-18
	C1152.9,364.1,1154.6,358.9,1161.5,356.9z"/>
<path class="st33" d="M1151.5,581c-48.6,0-97.2,0-145.7,0c-2-16.9-4.1-33.8-6.1-50.7c18.3,5.9,44.9,12.4,77.5,13
	c33.1,0.6,60.4-5.1,79-10.6C1154.6,548.8,1153.1,564.9,1151.5,581z"/>
<path class="st35" d="M974.9,423.7c-1,0.8-0.6,2.3-0.4,6.5c0,1.4-0.3,6-0.9,15.3c-0.2,2.7-0.1,5.4-0.4,8.1c-0.3,2.7-0.7,4.2,0,6.1
	c0.8,2.3,2.9,4.3,3.9,3.9c0.9-0.3,0.7-2.3,0.9-7c0.1-2.5,0.4-9.7,1.3-9.8c0.7-0.1,1.7,4.2,3.1,10.5c1.6,7,1.6,8.3,3.1,10.3
	c2.8,3.7,8,5.3,8.9,4.1c0.8-0.9-1.6-3.5-5.1-10.6c-2.5-5-5-10.1-3.4-11.6c1.6-1.6,5.5,2.7,9.2,1.3c5.6-2.2,7.7-16.8,2.2-21.6
	c-2.4-2.1-4.1-0.4-12-2.8C979.2,424.5,976.5,422.4,974.9,423.7z"/>
<path class="st35" d="M1003.9,432c2.4-1.3,3.8,1.1,10.9,1.3c5.4,0.1,8.6-1.2,9.6,0.4c0.7,1,0.3,3.1-0.9,4.1
	c-3.8,3.6-15-4.1-17.2-1.1c-0.3,0.4-0.4,1.5-0.7,3.7c-0.2,2.1-0.3,3.1,0,3.7c0.5,0.9,1.7,1.4,7.2,1.5c5.8,0.1,9-0.3,9.5,0.9
	c0.1,0.3,0,0.6-0.3,1.3c-1.5,3.7-0.5,5.3-1.5,6.3c-0.9,0.8-2.1,0.4-7.6-0.9c-6.3-1.5-7.9-1.7-8.6-0.8c-0.6,0.7-0.1,1.5,0.1,4.3
	c0.2,4.4-1.1,5.1-0.4,6.5c0,0,1.9,4.3,15.2,3.5l0,0c0,0-0.9,4-0.9,4l0,0c0,0,0,2.8-1,3.8c-1.1,1.1-3.3,0.2-7-0.9
	c-7.3-2.1-7.4-1.2-8.7-2.2c-3.3-2.6-1.6-7.7-0.7-22.7C1001.6,437.6,1001.1,433.5,1003.9,432z"/>
<path class="st35" d="M1042.7,435.9c-3.7-2-9-2.5-13.1,0c-6.2,3.8-6.3,12.4-6.3,19c0,4.3-0.1,18.9,8.8,23.4c0.4,0.2,5,2.4,9.5,0.6
	c6.9-2.8,9.4-13.1,7.2-15.1c-1.1-0.9-3.5-0.3-5,0.9c-2.5,1.9-1.5,4.6-3.5,6.1c-2.2,1.6-6.3,0.7-8.7-1.3c-3.9-3.1-3.6-8.9-3.3-14.4
	c0.3-5.8,0.7-13.2,5.5-15.3c2.8-1.2,6.8-0.3,9,2.1c2.8,3,2.2,7.4,2.1,7.8c-0.5,3.1-2.4,4.2-1.7,5.5c0.8,1.5,4.7,2.1,6.5,0.4
	C1053,452.6,1050.9,440.3,1042.7,435.9z"/>
<path class="st35" d="M1055.4,438.1c0.6-0.3,1,0,3.4,0.3c2.8,0.4,3.3,0.2,4,0.8c1.1,0.9,1.1,2.6,1.1,3.5c-0.1,7.2-0.2,10.8-0.4,12.9
	c-0.4,3.5,0.1,2.7-0.5,18.1c-0.1,2-0.3,5.6-2.2,6.5c-0.2,0.1-0.5,0.2-3.3,0.1c-2.5-0.1-3.7-0.2-4.1-0.4c-1.8-1.1-1.4-4.7-1.2-7.2
	c0.9-9.7,1.4-14.5,1.4-17.5c0.1-4.2,0.7-8.4,0.7-12.5C1054.1,441.4,1054,438.9,1055.4,438.1z"/>
<path class="st35" d="M1071,441.1c3.6,0.3,2.5-0.2,7.2,0.1c4.7,0.3,3.9,0.6,6.3,0.6c2-0.1,3.9-0.3,4.3,0.4c0.1,0.2,0,0.2-0.3,1.6
	c-0.4,1.6-0.3,1.6-0.4,1.7c-0.6,0.9-2.4,0.5-4.8,0.2c-0.9-0.1-3.2-0.3-7.7-0.7c-3.3-0.3-4.2-0.2-4.7,0.4c-0.5,0.7-0.1,1.4,0,3.5
	c0.2,3.4-0.7,3.9-0.2,4.9c1.7,3.4,14.8-0.1,15.5,2.2c0.1,0.3-0.1,0.4-0.3,2.3c-0.2,1.7,0,1.8-0.1,2.1c-1,2.1-11.7-3.3-14.8-0.1
	c-0.7,0.7-0.2,0.9-0.4,10.3c-0.2,7.5-0.4,5.9-0.3,7.1c0.2,1.7,0.5,3.2-0.3,3.8c-0.4,0.3-1.2,0.2-2.9,0c-1.8-0.2-2.1-0.4-2.3-0.7
	c-0.3-0.4-0.2-0.8,0-2.1c0.1-0.8,0.1-1.7,0.2-2.5c0.4-2.9-0.2-10.2,0.4-17.7c0.3-3.9,1.2-10.8,1.1-13c0-0.7,0-1.2,0-2.2
	c0-1.1,0.1-1.7,0.2-2C1067.1,440.6,1068.8,440.9,1071,441.1z"/>
<path class="st35" d="M1090.5,441.6c-0.3,0.5,0.4,0.9,0.2,2.3c-0.1,1-0.7,2.1-0.7,2.1l0,0c0,0-0.4,1.7-0.8,3.6c0,0-0.1,0.6-0.2,1
	c-0.5,2.8-0.7,6.3-0.9,9.2c-0.2,2.2-0.2,1.5-0.5,4.8c-0.4,4.2-0.6,8.7-0.8,10.9c-0.1,2.4-0.1,2.7-0.3,3.6c-0.4,2.3-0.9,3-0.5,3.6
	c0.5,0.7,1.4,0.3,4.2,0.7c2.7,0.3,3.4,0.9,4.2,0.3c0.5-0.4,0.6-1,0.9-2.9c0.4-2.7,0.5-4.1,0.5-4.5c0.1-2.5,0.5-3.2,1.7-12.2
	c1.1-7.7,1-9.1,1.7-15.6c0.1-1,0.1-2,0.2-3.1c0.1-1.4,0.1-1.7,0-2c-0.3-0.7-1.1-1-4.1-1.5C1091.4,441.1,1090.8,441.3,1090.5,441.6z"
	/>
<path class="st35" d="M1102.7,444.7c0.6-0.6,1.9-0.2,2.6,0c0.4,0.1,3.4,0.2,9.5,0.3c0.7,0,3.7,0.1,7.3-0.2
	c6.7-0.4,10.5-1.4,11.1-0.1c0.3,0.6-0.4,1.1-0.4,3.3c0,1,0.2,1.5-0.2,2c-0.4,0.4-1,0.4-2.2,0.3c-2.2-0.1-1.2,0.2-4.8,0.2
	c-2.1,0-2.6-0.1-3,0.3c-0.7,0.6-0.6,1.6-0.6,2.7c0,2-0.6,4-0.7,6c-0.7,9.5-1.4,9.5-1.3,13.7c0.1,2-0.5,4.1-0.4,6.1
	c0,0.7,0.1,1.7-0.5,2.3c-0.2,0.2-0.6,0.4-2.5,0.5c-1.1,0.1-1.7,0-2.8,0c-2.8,0-3.2,0.2-3.6-0.2c-0.4-0.4-0.6-1-0.2-3.6
	c0.3-2,0.4-3,0.8-4.3c0.6-2.1,0.9-6.4,2-14.8c0.7-6,0.5-7.5-0.4-8.1c-0.9-0.6-1.6,0-6.1,0c-2.1,0-3.1-0.2-3.5-0.9
	c-0.3-0.4-0.1-0.7,0-2.4C1102.6,445.7,1102.3,445.1,1102.7,444.7z"/>
<path class="st37" d="M981,429.6c-1.1,0.6-1.2,2.3-1.5,5.9c-0.3,4-0.5,5.9,0.6,7.3c0.4,0.5,0.9,1,6.6,2.3c5.2,1.2,5.8,1,6.1,0.9
	c3.3-1.6,3.9-9.8,0.7-12.4c-1.3-1.1-2-0.3-5.7-1.5C983.5,430.6,982.3,428.9,981,429.6z"/>
<path class="st36" d="M981.8,434c-0.2,0-0.4,2.3-0.6,3.6c-0.2,2-0.3,3.1-0.1,3.5c0.7,1.7,3,2.3,6.5,3.2c3,0.7,4.5,1.1,5.5,0.3
	c1.7-1.4,1.5-4.9,0.6-5.2c-0.6-0.3-1.2,1.2-3.1,2.2c-2.2,1.1-5.5,1-7.3-0.6C981,438.7,982.1,434,981.8,434z"/>
<path class="st41" d="M1173.2,423.7c0.3-0.3,0.9-0.1,1.1,0c3,0.9,2.6,18.8-0.1,39.4c-0.4,2.8-0.5,4.2-0.7,5.1
	c-1.7,9.6-7,26.1-14.7,35.4c-0.9,1.1-3.3,3.8-3.2,7.2c0.1,2.6,1.6,4.9,1.5,4.9c-0.1,0.1-1.5-1.8-2-3.6c-1.4-5.2,5.6-9.5,8.6-16.1
	c1.1-2.5,4.1-9.4,7-19.9c7.3-26.4,5.9-45.4,3.7-49.1C1174.1,426.6,1172.6,424.4,1173.2,423.7z"/>
<path class="st41" d="M1175.2,404.1c0,0,0.9,1.7,1.2,4.3c0.4,3.6-0.7,6.4-1.2,7.7c-1.1,3-2.6,4.7-2.4,4.8c0.2,0.1,1.8-1.3,2.8-3.3
	c0.5-0.9,1.2-2.5,1.3-5C1177.2,407.9,1175.2,404.1,1175.2,404.1z"/>
<path class="st35" d="M1027.5,540.7c-0.7,1.2,0.9,2.7,9.2,13.1c5.5,6.9,6.4,8.3,8.5,8.5c0.9,0.1,3.1,0.1,11.8-8.5
	c6.2-6.2,9.3-9.3,8.5-10.9c-1.1-2.5-7.9,0.4-20.2-0.4C1034.2,541.6,1028.6,538.7,1027.5,540.7z"/>
<path class="st35" d="M1018.3,544.6c-1.6,0.3-0.8,3.6-3.9,7.9c-2.4,3.3-4.1,3.1-4.6,5.2c-0.5,2.4,1.6,3.3,5.2,9.8
	c2.4,4.3,2.8,6.3,4.6,6.5c1.5,0.2,2.5-1,4.6-2.6c6.5-5.1,11.2-4,11.8-6.5c0.5-2.4-3.7-3.6-9.2-9.8
	C1021.6,549.1,1020.3,544.2,1018.3,544.6z"/>
<path class="st35" d="M1072,544.6c2.2-0.1,7.5-0.3,14.4-0.7c11.3-0.5,14.7-0.7,15.7,1.2c1.5,2.7-2.4,7.3-4,9.2
	c-1.5,1.8-6.9,8.4-12.4,7.2c-2.4-0.5-4.3-3-7.9-7.9C1075.2,550.1,1073.2,546.9,1072,544.6z"/>
<path class="st35" d="M1068.1,555.7c-1.4,0-2,1.3-3.9,3.3c-4.9,4.9-9.7,4.5-9.8,6.5c-0.1,1.5,2.6,1.8,7.9,5.9c4,3.1,4,4.1,5.9,4.6
	c5,1.3,12.2-4.1,11.8-7.9c-0.2-2.2-2.7-1.9-6.5-6.5C1070.4,558.2,1069.9,555.8,1068.1,555.7z"/>
<path class="st14" d="M1134,389.3"/>
<path class="st35" d="M1042.5,568.8c-1.7,0.1-2,1.4-5.9,5.2c-4.9,4.8-7.6,6-7.2,6.9c0.5,1.2,4.6-0.2,11.8-0.4
	c9.5-0.3,15.2,1.9,15.7,0.4c0.3-0.8-1.4-1.6-5.9-5.6C1045.4,570.4,1044.6,568.7,1042.5,568.8z"/>
<circle class="st42" cx="978.2" cy="349.7" r="6.7"/>
<path class="st35" d="M1108.6,551.1c-3,0.2-3.1,4.3-8.5,9.2c-4.2,3.7-7.4,4.2-7.2,5.9c0.2,1.7,3.7,1.2,9.2,4.6
	c3.7,2.3,4.8,4.2,7.3,4.1c1.6-0.1,2.5-1.1,4.5-2.7c7-5.8,10.3-5.6,10.5-7.9c0.1-1.8-1.8-2.2-8.5-7.9
	C1110.8,552.2,1110.3,551,1108.6,551.1z"/>
<path class="st36" d="M1094.8,442.4c-0.4,0.6-0.2,2.5-0.2,3.1c0.1,0.9,0,5-0.1,13.1c-0.1,4.5-0.3,5.4-0.7,13.3
	c-0.1,1.2-0.1,2.2-0.3,3.5c-0.1,0.6-0.1,1-0.4,2.8c-0.1,0.5-0.2,1.2-0.2,2.2c-0.1,1-0.1,1.5,0,1.7c0.3,0.9,1.5,1,2.3,0.1
	c1-1.3,1-4.3,1.1-6.4c0.1-5.2,0.6-16.2,1.6-24.1c0.3-2.3,0.9-6.7,0-8c-0.2-0.2-0.6-0.5-1.4-0.9
	C1095.1,442.1,1094.9,442.2,1094.8,442.4z"/>
<path class="st43" d="M997.4,508.3c-1.2,1.4-0.1,4.1,0.3,4.9c2.9,7,10.6,7.5,42.6,15.7c3.2,0.8,11.7,3,20.2-0.3
	c1.1-0.4,5.1-2,4.9-3.5c-0.2-1.9-6.4-2.6-13.1-3.6c-7.5-1.1-21-3.1-32.8-6.9C1007.1,510.7,999.5,505.7,997.4,508.3z"/>
<path class="st44" d="M1202.7,437.9c-3.8-3.5-14.2-1-18.6,5.2c-2.3,3.2-1.9,6-2,15.1c-0.3,19-2.3,24.2-0.3,25
	c3.3,1.3,11.3-11.2,15.7-20.4C1201.1,455.4,1207.4,442.3,1202.7,437.9z"/>
<path class="st41" d="M951.7,375.8c-1.4-0.4-2.2,1.2-5.4,3.2c-3.9,2.4-6.5,2.7-6.4,3.3c0.1,0.8,4.3,0,10.6,1.1
	c4.7,0.8,7.6,2.2,8,1.5c0.3-0.5-1.6-1.4-3.6-4.3C952.8,377.7,953,376.2,951.7,375.8z"/>
<path class="st41" d="M1211.2,390.3L1211.2,390.3c0,0-1.8,4.5-0.4,6.5c0.7,1.1,2,1,7,1.3c6.9,0.5,8.4,0.9,8.7,0.2
	c0.4-1.1-2.7-3.6-5.2-5C1216.7,390.9,1211.2,390.3,1211.2,390.3z"/>
<path class="st41" d="M1027.6,434.2c-1.2,1.1-1.8,2.7-1.6,2.8c0.2,0.2,1.4-1.9,3.9-2.9c1.2-0.5,2.2-0.6,4-0.7
	c3.6-0.2,5.9,0.4,5.9,0.4C1039.8,433.7,1031.4,430.6,1027.6,434.2z"/>
<path class="st41" d="M1036.3,441c0.1-0.3,2.9-0.5,4.9,1.1c1.6,1.3,2,3.2,2.2,3.8c0.9,4.2-2,8.1-2.1,8.1c-0.1,0,1.4-2.1,1.3-5.2
	c0-0.8-0.1-3.3-1.7-5.2C1039,441.3,1036.2,441.3,1036.3,441z"/>
<path class="st37" d="M1045.4,465.6c0.1-0.4,1.7-0.6,2.4,0c1.9,1.6-2.6,9.2-2.6,9.2c0,0,3.4-5.8,1.5-8
	C1046.2,466.2,1045.3,465.9,1045.4,465.6z"/>
<path class="st41" d="M1030.5,463.1c-0.2,0.1,0.1,3.4,2.6,5.2c2,1.5,4.6,1.2,4.7,1c0.1-0.2-2.7-0.3-4.9-2.5
	C1031,465.1,1030.7,463,1030.5,463.1z"/>
<path class="st37" d="M1044.9,452c-0.2,0-1.5,1.8-0.7,3.1c0.9,1.5,3.6,0.7,3.6,0.6c0-0.1-2,0.1-2.8-1
	C1044.3,453.6,1045.1,452.1,1044.9,452z"/>
<path class="st41" d="M1058.2,436.2c-1.5-0.2-3.3-0.2-3.3,0c0,0.4,6.9,1.7,7,1.3C1062,437.3,1060.1,436.4,1058.2,436.2z"/>
<path class="st37" d="M1057.6,441c0.2-0.5,1.6-0.5,2.6,0c3.1,1.6,2.2,9.1,1.7,9.2c-0.3,0,0.1-3.8-2.5-6.9
	C1058.5,442.2,1057.4,441.4,1057.6,441z"/>
<path class="st45" d="M1012.9,430.3c-2.9-0.6-6.3-0.9-6.3-0.7c-0.1,0.4,12.1,2.8,12.2,2.4C1018.8,431.8,1015.6,430.8,1012.9,430.3z"
	/>
<path class="st45" d="M1008.9,437.7c-1,0.6-1.6,1.9-1.3,2.2c0.2,0.3,0.9-0.2,2.5-0.7c2.2-0.6,3.4-0.4,3.4-0.6
	C1013.6,438.1,1010.8,436.6,1008.9,437.7z"/>
<path class="st45" d="M1006.5,454.9c-1.3,1.2-1.1,3.7-0.4,3.9c0.3,0.1,0.6-0.5,2.2-1.7c1.7-1.4,2.5-1.6,2.4-2
	C1010.6,454.5,1008,453.7,1006.5,454.9z"/>
<path class="st46" d="M1172.2,363.4c0.7-0.8,2.9-2.9,14.4-1.7c10.5,1,16.1,1.6,18.3,5.7c1.1,1.9,1,4.6,0.9,10
	c-0.1,4-0.1,6.1-0.9,7.4c-2.6,4.8-12.1,4.2-20,4c-24.4-0.8-37.6,1.9-38-0.5c-0.5-3.1,21.1-5.7,23.6-17.4
	C1171.1,367.9,1170.2,365.6,1172.2,363.4z"/>
<path class="st47" d="M1180.2,370.3c0.6-0.3,1.6-0.9,7.9-1.3c9.4-0.6,10.5,0.4,10.9,0.9c0.4,0.5,0.7,1.1,0.9,6.5
	c0.1,5.2,0.2,7.8-0.4,8.7c-1.3,1.9-5.6,1.9-14,1.7c-10.1-0.2-15.2-0.3-15.7-1.7c-0.4-1.3,1.2-2,5.2-7.9
	C1178,372.7,1178.2,371.5,1180.2,370.3z"/>
<path class="st47" d="M1120.1,235.1c0.6-1.2,20.3,6.8,31.7,8.1c2.7,0.3,4.5,0.5,7,0c4.4-1,6.1-3.4,8.7-2.6c1.7,0.5,3.3,2.1,3.7,3.8
	c1,4.4-5.2,10.9-11.7,12c-4.5,0.8-7.7-1.5-16.7-7.1C1127.5,239.9,1119.7,235.9,1120.1,235.1z"/>
<path class="st34" d="M1033.7,543.5c0.6-1.3,4.7,0.2,12.2,0.6c9.3,0.4,14.1-1.4,14.8,0.3c0.5,1-1.6,3.1-5.8,7.3
	c-6.9,6.8-8.4,6.8-9,6.7c-2.1-0.3-2.2-2.3-6.4-7.6C1035.6,545.9,1033.2,544.6,1033.7,543.5z"/>
<path class="st34" d="M1012.8,559.2c0.2-1.3,1-1.3,3.2-4.4c1.9-2.6,2-3.7,2.9-3.8c1.2-0.1,2,1.6,4.1,4.4c4.1,5.2,7.2,6.2,6.7,8.1
	c-0.1,0.5-1.5,1.3-4.1,2.9c-3.9,2.3-4.5,2.4-4.9,2.3c-1.6-0.1-2.6-1.3-4.7-3.8C1013.8,562.4,1012.5,561,1012.8,559.2z"/>
<path class="st41" d="M1135.9,537.8c-0.2,0.5,0.3,0.9,0.7,1.8c0.8,2-0.2,3.1,0.1,6.3c0.1,1.1,0.2,1,0.4,2.3c0.4,2.8,0,4.7-0.3,7.9
	c-0.1,0.8-0.4,3.4-0.4,6.3c-0.1,4.6,0.4,4.4,0.3,9.2c-0.1,4.6-0.2,6.9-0.4,7.7c-0.1,0.3-0.5,1.6-0.1,1.9c0.2,0.2,0.7-0.1,1-0.3
	c1-0.7,1-2.4,1-3.1c-0.1-4.9-0.1-7.3-0.4-11.6c-0.1-0.9-0.6-7.3,0.4-12.7c0.1-0.8,0.6-2.9,0.7-5.8c0.1-1.6,0-3,0-3.2
	c-0.1-3-0.4-3-0.3-4.8c0.1-1.4,0.3-2-0.1-2.4C1137.9,536.6,1136.2,537,1135.9,537.8z"/>
<path class="st40" d="M1160.6,427.7c1.3-2.6,7.3-3.8,9.9-1.5c3.7,3.3-2.5,11.2,0,22.4c0.2,0.9,0.7,3,0.6,5.8c-0.2,4.4-2,8.8-2.9,8.7
	c-1.7-0.2,3.2-14.2-3.8-26.8C1162.2,432.5,1159.5,430,1160.6,427.7z"/>
<path class="st48" d="M954.5,384.3c-0.1,0.6,55.8,11,122.8,17.2c0,0,54.4,4.5,103.7,1.2c6.2-0.4,8.4-1.5,15.6-1.4
	c1.9,0,5.9,0.1,10.8-1.5c0.7-0.2,4.6-1.5,4.5-2.1c-0.2-1.5-22,1.7-40.3,3.3c-30.5,2.7-53.9,1.3-89.9-0.9
	c-18.7-1.1-29.8-1.8-45.4-4.1c-5.8-0.9-6.5-1.1-36.1-5.8c-7.8-1.3-14.6-2.3-23.6-3.5C970.3,385.9,954.6,383.9,954.5,384.3z"/>
<path class="st36" d="M973.1,424.4c0.3,0,0.5,2.3,0.5,4c0.1,3.3-0.4,6.6-0.7,6.5c-0.3,0-0.5-3-0.4-5.1
	C972.5,427.3,972.8,424.4,973.1,424.4z"/>
<ellipse class="st49" cx="1010.1" cy="198" rx="8.1" ry="7.3"/>
<circle class="st50" cx="1191.5" cy="307.7" r="7.9"/>
<circle class="st51" cx="1018.2" cy="323.2" r="7.7"/>
<circle class="st52" cx="1143.5" cy="234.2" r="6.3"/>
<circle class="st53" cx="1129.8" cy="121.7" r="7.4"/>
<circle class="st54" cx="1077.6" cy="169.1" r="6.9"/>
<circle class="st55" cx="1099.6" cy="219" r="5.9"/>
<circle class="st56" cx="1120.8" cy="302.7" r="7"/>
<ellipse class="st57" cx="1078.4" cy="383.4" rx="9.1" ry="7.8"/>
<circle class="st58" cx="1191.9" cy="352.8" r="7.1"/>
<circle class="st58" cx="954.5" cy="292.4" r="8.3"/>
<path class="st38" d="M934.7,384.2c0,0-3,5-1.2,9.7c1.2,3.2,3.9,4.6,5.5,5.7c6.8,5.1,4.4,17.1,4.7,35.3c0.3,15.6,0.4,23.4,4.5,32.4
	c1.4,3.1,6.4,14.2,15.9,20.4c9,5.9,13.5,8.9,15.1,9.3c0.7,0.2,2.7,0.6,3.8,2.3c1.1,1.8,0.7,4.2,0.4,6c-0.1,0.8-0.3,2.1-1,3.5
	c-0.8,1.8-1.5,2.1-1.6,3.4c-0.2,1.5,0.4,2.7,0.7,3.2c0.8,1.3,1.6,1.4,3.8,3.1c1.4,1.1,2.4,2,3.3,2.9c1.9,1.8,2.2,2.5,3.5,3.8
	c4.1,4.3,7.2,3.6,8.4,6.8c0.6,1.7,0.4,3.1,0.2,4.1c-0.7,4.3,0.2,6.6,2.4,22.1c1.9,13.5,2.7,22.9,2.7,22.8c0,0-2.1-20.7-4-31.4
	c-1.1-6.3-1.8-7.4-1.6-10.9c0.1-1.5,0.2-3.2-0.5-5.2c-0.7-1.7-1.8-2.4-4.1-4.4c-6.4-5.2-5.2-5.5-9.5-8.5c-1.1-0.8-2.8-1.8-4.4-3.8
	c-1-1.2-1.8-2.2-2-3.7c-0.2-2,1-2.7,1.9-5.2c0.1-0.3,1.9-5.6-0.4-8.6c-1.1-1.5-2.6-1.6-4.9-2.4c-3-1-5.3-2.7-9.9-6.2
	c-7.4-5.5-11.9-11.3-13.7-13.7c-1.7-2.3-4.2-5.8-6.3-10.5c-3-6.7-3.6-12.8-3.9-20.9c-1-26.4,3.2-39.1-3.8-44.5
	c-1.7-1.3-3.9-2-5.2-4.7C930.7,391,934.7,384.2,934.7,384.2z"/>
<path class="st59" d="M1101.3,82.7c4.8-4,11.5-7.8,15.7-9.6c1.3-0.5,2-0.8,2-0.8c0-0.1-5.2,1.5-10.4,4.6c-10,6-11.2,12.5-20.5,25.5
	c-13.5,18.8-28.4,29.5-35.8,32.5c-0.5,0.2-2.5,1-5.1,2.3c-3,1.5-8,4.1-12.9,8.7c-3.2,3-4.8,4.5-5.9,6.9c-2.5,5.5,0.5,8.7,1,20.5
	c0.4,8.2-0.1,10.9-1.4,13.7c-2.7,5.7-8.2,9.7-9.9,8.8c-0.7-0.4-0.4-1.5-1.5-3c-1.4-1.9-3.7-2.5-4.2-2.6c-4.2-1.1-9.1,1.4-9.7,4.1
	c-0.1,0.6-0.1,1.2-0.6,2.1c-0.7,1.1-1.9,1.6-2.4,1.8c-2.5,1-4.9,2.3-7.4,3.5c-2.3,1-3.7,2.1-6,3.7c-4.4,3.2-7.2,6.4-9.1,8.6
	c-2.4,2.8-4.6,5.3-6.6,9.2c-1.3,2.6-4.2,8.1-4.2,15.3c0,8,3.6,14,5.3,16.7c5.5,8.8,13.8,13.9,12.7,15.5c-0.4,0.6-1.3,0-3.3,1.1
	c-1.3,0.7-2.2,1.6-3.2,2.7c-1.2,1.3-1.5,2-2.1,2.7c-1.9,2.2-3.5,1.8-6.5,3.6c-4.5,2.7-5.4,6.3-7.4,5.8c-0.7-0.2-0.5-0.6-1.6-1.5
	c-2.1-1.8-5.3-2.6-8.1-1.8c-0.4,0.1-1.2,0.4-2.2,1.1c-1.8,1.3-3.6,3.7-3.6,6.8c0,3,1.6,6.1,4,7c1.1,0.4,2.3,0.3,2.6,1
	c0.3,0.8-0.5,1.8-1.1,2.5c0,0-2.1,2.8-3.5,8.4c-0.6,2.4-0.4,4.2-0.1,6.8c0.6,5.2,1.5,13.2,7.1,19.7c4,4.6,8.4,6.2,7.9,9.2
	c-0.3,1.6-1.9,3.5-2.2,3.8c-1.3,1.5-2.4,1.9-3.5,2.7c-2.3,1.7-3.2,4.1-4.3,7c-2.6,7,0,9.6-2.9,15.1c-1.6,3.1-3.7,4.8-3.9,4.7
	c-0.7-0.5,21.2-23,15.3-34.4c-2.8-5.5-9.6-5.4-12.9-12.9c-0.9-2.1-1.1-4.5-1.4-9.3c-0.9-13.8,2.2-15.7,0.3-24.3
	c-0.9-3.9-2-5.5-1.3-8.5c0.9-3.6,4.1-7.5,8-8c3.4-0.5,4.3,2,8.1,1.7c0.7,0,2.4-0.2,8.1-4.3c6.1-4.3,9.2-6.5,9.3-9.3
	c0.1-2.5-1.9-4.5-3.2-5.8c-6.4-6.6-10.1-15.4-11.3-20.5c-3.4-14.5,6.8-27.4,9.6-30.9c5.2-6.6,5.2-2.6,22.8-17.2
	c4.5-3.7,8.2-7.1,13-6.5c5.2,0.6,6.9,5.4,10,4.5c5-1.4,5.5-15,5.6-18.1c0.1-2.1,0-3.8-0.2-7.2c-0.5-10.6-1.9-14.7,0.6-19
	c0.8-1.4,1.8-2.4,3.2-3.5c12.1-10.4,24-10.9,35.8-20.8c1.8-1.5,6.2-5.5,11.2-10.4c2.4-2.4,4.2-4.3,4.9-5.1
	C1093.2,96.8,1091.9,90.7,1101.3,82.7z"/>
</svg>
