<?xml version="1.0" encoding="utf-8"?>
<!-- Generator: Adobe Illustrator 26.3.1, SVG Export Plug-In . SVG Version: 6.00 Build 0)  -->
<svg version="1.1" id="레이어_1" xmlns="http://www.w3.org/2000/svg" xmlns:xlink="http://www.w3.org/1999/xlink" x="0px"
	 y="0px" viewBox="0 0 400 490" style="enable-background:new 0 0 400 490;" xml:space="preserve">
<style type="text/css">
	.st0{display:none;}
	.st1{display:inline;fill:#FACC22;}
	.st2{fill:#FFDA00;}
</style>
<g class="st0">
	<path class="st1" d="M386.6,61.1c0,3.5-4.1,6.5-4.9,9.8c-0.8,3.4,1.4,7.7-0.2,10.8c-1.6,3.1-6.7,4.1-9,6.8
		c-2.3,2.6-2.4,7.5-5.3,9.6s-7.9,1-11.3,2.5c-3.3,1.4-5.6,5.8-9.2,6.5c-3.5,0.7-7.6-2.2-11.3-2.2s-7.8,3-11.3,2.2
		c-3.6-0.8-5.9-5.1-9.2-6.5c-3.3-1.5-8.4-0.4-11.3-2.5s-2.9-6.9-5.3-9.6c-2.3-2.6-7.4-3.7-9-6.8c-1.6-3.1,0.6-7.4-0.2-10.8
		c-0.8-3.3-4.9-6.3-4.9-9.8c0-3.5,4.1-6.5,4.9-9.8c0.8-3.4-1.4-7.7,0.2-10.8s6.7-4.1,9-6.8c2.3-2.6,2.4-7.5,5.3-9.6s7.9-1,11.3-2.5
		c3.3-1.4,5.6-5.8,9.2-6.5c3.5-0.7,7.6,2.2,11.3,2.2s7.8-3,11.3-2.2c3.6,0.8,5.9,5.1,9.2,6.5c3.3,1.5,8.4,0.4,11.3,2.5
		s2.9,6.9,5.3,9.6c2.3,2.6,7.4,3.7,9,6.8s-0.6,7.4,0.2,10.8C382.6,54.6,386.6,57.6,386.6,61.1z"/>
</g>
<g>
	<path class="st2" d="M329.3,30.8c0-0.5-0.3-0.7-1-0.7c-0.9,0-1.6,0.5-2.1,1.3h1.6C328.8,31.4,329.5,31.2,329.3,30.8z"/>
	<path class="st2" d="M317.5,24.5c0-1.2-0.6-1.8-1.9-1.8h-0.3l-2.3,5h0.4c1.1-0.1,1.9-0.3,2.5-0.6C317,26.5,317.5,25.6,317.5,24.5z"
		/>
	<path class="st2" d="M387,3H12c-5,0-9,4-9,9v467c0,5,4,9,9,9h375c5,0,9-4,9-9V12C396,7,392,3,387,3z M349.8,23.8
		c0.4-0.4,0.8-0.6,1.4-0.6c0.6,0,1,0.2,1.4,0.6c0.4,0.4,0.6,0.8,0.6,1.3s-0.2,1-0.6,1.3c-0.4,0.4-0.9,0.6-1.4,0.6s-1-0.2-1.4-0.6
		c-0.4-0.4-0.6-0.8-0.6-1.3S349.5,24.1,349.8,23.8z M4,40.3h10.6c1.5-5.4,5.8-9.3,10.9-9.3C31.9,31,37,37,37,44.5S31.9,58,25.5,58
		c-5.1,0-9.4-3.9-10.9-9.3H4V40.3z M3.9,85.1h10.6c1.5-5.4,5.8-9.3,10.9-9.3c6.4,0,11.5,6,11.5,13.5c0,7.5-5.1,13.5-11.5,13.5
		c-5.1,0-9.4-3.9-10.9-9.3H3.9V85.1z M3.9,130.1h10.6c1.5-5.4,5.8-9.3,10.9-9.3c6.4,0,11.5,6,11.5,13.5c0,7.5-5.1,13.5-11.5,13.5
		c-5.1,0-9.4-3.9-10.9-9.3H3.9V130.1z M4.5,265.2h10.6c1.5-5.4,5.8-9.3,10.9-9.3c6.4,0,11.5,6,11.5,13.5c0,7.5-5.1,13.5-11.5,13.5
		c-5.1,0-9.4-3.9-10.9-9.3H4.5V265.2z M26,462.5c-5.1,0-9.4-3.9-10.9-9.3H4.5v-8.4h10.6c1.5-5.4,5.8-9.3,10.9-9.3
		c6.4,0,11.5,6,11.5,13.5C37.5,456.5,32.4,462.5,26,462.5z M27,417.9c-5.1,0-9.4-3.9-10.9-9.3H5.5v-8.4h10.6
		c1.5-5.4,5.8-9.3,10.9-9.3c6.4,0,11.5,6,11.5,13.5C38.5,411.9,33.4,417.9,27,417.9z M27,372.9c-5.1,0-9.4-3.9-10.9-9.3H5.5v-8.4
		h10.6c1.5-5.4,5.8-9.3,10.9-9.3c6.4,0,11.5,6,11.5,13.5C38.5,366.9,33.4,372.9,27,372.9z M27,327.6c-5.1,0-9.4-3.9-10.9-9.3H5.5
		v-8.4h10.6c1.5-5.4,5.8-9.3,10.9-9.3c6.4,0,11.5,6,11.5,13.5C38.5,321.6,33.4,327.6,27,327.6z M27,237.5c-5.1,0-9.4-3.9-10.9-9.3
		H5.5v-8.4h10.6c1.5-5.4,5.8-9.3,10.9-9.3c6.4,0,11.5,6,11.5,13.5C38.5,231.5,33.4,237.5,27,237.5z M27,192.5
		c-5.1,0-9.4-3.9-10.9-9.3H5.5v-8.4h10.6c1.5-5.4,5.8-9.3,10.9-9.3c6.4,0,11.5,6,11.5,13.5C38.5,186.5,33.4,192.5,27,192.5z M329,41
		c-0.5,0.4-1.1,0.5-2,0.5h-6.7c-1.9,0-3.1-0.8-3.9-2.4l-4.2-9.4l-1.9,4.5c-1,2.1-1.6,3.6-2,4.3c-0.4,0.7-0.9,1.4-1.4,2.1
		c-1.9,2.3-4.2,3.5-7,3.5c-2,0-3.7-0.6-5-1.8c-1.3-1.2-1.9-2.8-1.9-4.7c0-2.5,1-4.7,3-6.6c1.1-1,2.4-1.8,4.1-2.4
		c1.6-0.6,3.2-0.9,4.8-0.9c0.8,0,1.4,0.2,1.9,0.5s0.7,0.7,0.7,1.2c0,0.6-0.3,1-0.8,1.3c-0.3,0.2-0.9,0.3-1.7,0.4
		c-1.9,0.2-3.5,0.6-4.7,1.2c-1,0.6-1.8,1.3-2.3,2.2c-0.6,0.9-0.9,1.8-0.9,2.8s0.3,1.8,0.8,2.4c0.6,0.6,1.3,0.9,2.3,0.9
		c1.2,0,2.2-0.5,3.1-1.4c0.9-0.9,1.8-2.6,2.9-4.9l5.1-11.5h-1.5c-1.3,0-2-0.4-2-1.3c0-0.6,0.2-1.1,0.7-1.4c0.5-0.3,1.1-0.5,2-0.5
		h4.8c1.3,0,2.2,0.1,2.8,0.2c0.6,0.1,1.2,0.4,1.7,0.8c1.1,0.9,1.7,2.1,1.7,3.7c0,1.4-0.5,2.7-1.4,3.9c-1.1,0.9-2.3,1.7-3.8,2
		l3.1,6.8c0.4,0.9,0.9,1.3,1.6,1.3h0.6h6.1c1.3,0,2,0.4,2,1.3C329.8,40.2,329.5,40.7,329,41z M332.6,37.4c-0.4,0.3-1,0.4-1.8,0.4
		h-4.1c-1.5,0-2.7-0.4-3.5-1c-0.8-0.7-1.2-1.7-1.2-3.1c0-1.7,0.6-3.3,1.9-4.5s2.8-1.9,4.5-1.9c1.3,0,2.3,0.3,3.1,0.9
		c0.8,0.6,1.2,1.4,1.2,2.4c0,1.2-0.5,2.1-1.6,2.7c-0.6,0.3-1.5,0.5-2.6,0.5l-3,0.1c0,0.7,0.6,1,1.6,1h4.3c1.2,0,1.8,0.4,1.8,1.2
		C333.2,36.7,333,37.1,332.6,37.4z M344.3,37.3c-0.7,0.4-1.3,0.6-2.1,0.6H338c-1.2,0-2.2-0.4-3-1.2s-1.1-1.8-1.1-3.1
		c0-1.7,0.6-3.1,1.9-4.4c1.3-1.2,2.7-1.8,4.4-1.8c1.1,0,2.1,0.3,2.8,0.9c0.7,0.6,1.1,1.4,1.1,2.3c0,0.7-0.2,1.2-0.5,1.6
		c-0.3,0.4-0.8,0.6-1.4,0.6c-0.9,0-1.3-0.4-1.3-1.2c0-0.1,0-0.2,0-0.3c0-0.1,0-0.2,0-0.3c0-0.6-0.3-1-1-1s-1.2,0.3-1.7,0.9
		c-0.5,0.6-0.8,1.3-0.8,2.1c0,0.6,0.2,1.1,0.6,1.4c0.4,0.3,1.1,0.4,2.2,0.4h2.8c1.3,0,1.9,0.4,1.9,1.2
		C344.9,36.5,344.7,37,344.3,37.3z M346,37.3c-0.5-0.3-0.7-0.8-0.7-1.3c0-0.3,0.1-0.7,0.3-1.1l2.4-5.5l0.2-0.4
		c0.4-1,1.2-1.5,2.2-1.5c0.4,0,0.8,0.1,1,0.4c0.3,0.2,0.4,0.6,0.4,0.9s-0.1,0.7-0.4,1.3l-2.1,4.8h1.6c1.2,0,1.8,0.4,1.8,1.2
		c0,0.6-0.2,1-0.6,1.3c-0.4,0.3-1,0.4-1.8,0.4H348C347.2,37.8,346.5,37.6,346,37.3z M360.2,30.4l-6.5,15c-0.6,1.2-1.3,1.8-2.3,1.8
		c-0.4,0-0.8-0.1-1.1-0.4c-0.3-0.2-0.4-0.6-0.4-0.9c0-0.3,0.1-0.7,0.4-1.3l6.3-14.3h-1c-1.3,0-1.9-0.4-1.9-1.2c0-0.6,0.2-1,0.6-1.3
		c0.4-0.3,1-0.5,1.8-0.5h1.6l1.9-4.2c0.6-1.4,1.4-2.4,2.3-3c0.9-0.6,2-0.9,3.5-0.9h1.6c1.3,0,1.9,0.4,1.9,1.2c0,0.6-0.2,1-0.6,1.3
		c-0.4,0.3-1,0.5-1.8,0.5h-0.4c-0.8,0-1.5,0.2-1.9,0.4c-0.5,0.3-0.9,0.8-1.2,1.6l-1.6,3.3h2c1.3,0,1.9,0.4,1.9,1.2
		c0,0.6-0.2,1-0.6,1.3c-0.4,0.3-1,0.4-1.8,0.4H360.2z M370.2,37.4c-0.4,0.3-1,0.4-1.8,0.4h-2.3c-0.9,0-1.5-0.2-2-0.5
		s-0.7-0.8-0.7-1.3c0-0.3,0.1-0.7,0.3-1.1l2.4-5.5l0.2-0.4c0.4-1,1.2-1.5,2.2-1.5c0.4,0,0.8,0.1,1,0.4c0.3,0.2,0.4,0.6,0.4,0.9
		s-0.1,0.7-0.4,1.3l-2.1,4.8h1.6c1.2,0,1.8,0.4,1.8,1.2C370.8,36.7,370.6,37.1,370.2,37.4z M370.8,26.4c-0.4,0.3-0.9,0.6-1.4,0.6
		s-1-0.2-1.4-0.6c-0.4-0.4-0.6-0.8-0.6-1.3s0.2-1,0.6-1.3c0.4-0.3,0.8-0.6,1.4-0.6c0.6,0,1,0.2,1.4,0.6c0.4,0.4,0.6,0.8,0.6,1.3
		S371.2,26.1,370.8,26.4z M380.5,30c-0.4,0.3-1,0.4-1.8,0.4h-1.1l-1.9,4.5h1.6c1.3,0,1.9,0.4,1.9,1.2c0,0.6-0.2,1-0.6,1.3
		c-0.4,0.3-1,0.4-1.8,0.4h-2.6c-0.7,0-1.3-0.2-1.8-0.5c-0.4-0.3-0.6-0.8-0.6-1.3c0-0.3,0.1-0.7,0.3-1.1l0.3-0.6l1.7-3.9h-0.2
		c-1.1,0-1.6-0.4-1.6-1.2c0-0.6,0.2-1,0.6-1.3c0.4-0.3,1-0.5,1.8-0.5h0.6l0.8-1.8l0.2-0.4c0.5-1,1.2-1.5,2.2-1.5
		c0.4,0,0.7,0.1,1,0.4c0.3,0.2,0.4,0.6,0.4,0.9c0,0.4-0.1,0.8-0.4,1.3l-0.7,1.2h0.4c1.3,0,1.9,0.4,1.9,1.2
		C381.1,29.3,380.9,29.7,380.5,30z"/>
</g>
</svg>
