<?xml version="1.0" encoding="utf-8"?>
<!-- Generator: Adobe Illustrator 26.3.1, SVG Export Plug-In . SVG Version: 6.00 Build 0)  -->
<svg version="1.1" id="레이어_1" xmlns="http://www.w3.org/2000/svg" xmlns:xlink="http://www.w3.org/1999/xlink" x="0px"
	 y="0px" viewBox="0 0 360 178" style="enable-background:new 0 0 360 178;" xml:space="preserve">
<style type="text/css">
	.st0{fill:#FACC22;}
	.st1{fill:#FFFFFF;}
</style>
<g>
	<path class="st0" d="M13.4,162.1c0,5,4,9,9,9h315.2c5,0,9-4,9-9V21c0-5-4-9-9-9H22.4c-5,0-9,4-9,9V162.1z"/>
</g>
<g>
	<path class="st1" d="M21.9,116.3c0,5,4,9,9,9h299.5c5,0,9-4,9-9V26.7c0-5-4-9-9-9H30.9c-5,0-9,4-9,9V116.3z"/>
</g>
</svg>
