<?xml version="1.0" encoding="utf-8"?>
<!-- Generator: Adobe Illustrator 26.3.1, SVG Export Plug-In . SVG Version: 6.00 Build 0)  -->
<svg version="1.1" id="레이어_1" xmlns="http://www.w3.org/2000/svg" xmlns:xlink="http://www.w3.org/1999/xlink" x="0px"
	 y="0px" viewBox="0 0 256 256" style="enable-background:new 0 0 256 256;" xml:space="preserve">
<style type="text/css">
	.st0{fill:#E8E3DD;}
	.st1{fill:#CDD0D1;}
	.st2{fill:#C6C3C1;}
	.st3{fill:none;}
	.st4{fill:#7BB1FF;}
	.st5{display:none;}
	.st6{display:inline;fill:none;}
	.st7{display:inline;fill:#54350D;}
	.st8{fill:#FCF877;}
	.st9{fill:#DAF4CE;}
	.st10{fill:#FCA129;}
	.st11{fill:#FCAE7A;}
	.st12{fill:#86E286;}
	.st13{fill:#F9A5A5;}
	.st14{fill:#98C7ED;}
	.st15{stroke:#000000;stroke-miterlimit:10;}
</style>
<g>
	<path class="st0" d="M26.2,237.2c0,5,4,9,9,9h186.9c5,0,9-4,9-9V14.9c0-5-4-9-9-9H35.2c-5,0-9,4-9,9V237.2z"/>
</g>
<rect x="36.2" y="13.9" class="st1" width="184.9" height="170.7"/>
<rect x="35.5" y="192.4" class="st2" width="184.9" height="3.2"/>
<g>
	<rect x="44" y="200" class="st3" width="141.7" height="32.5"/>
</g>
<path class="st4" d="M37.3,16c5.1,0,10.1,0,15.2,0c55.4,0,110.8,0,166.2,0c0,55.5,0,110.9,0,166.4H37.3V16z"/>
<g class="st5">
	<rect x="52.8" y="68.8" class="st6" width="178.3" height="138.8"/>
	<path class="st7" d="M82,79.1l17.8,46c1.3,4,3.4,5.3,7.2,5.3v1.8H88.7v-1.8c4.8,0,6.9-0.6,6.9-2.8c0-0.6-0.1-1.3-0.4-2.2l-4.7-12.1
		H68.8L65,123.7c-0.4,1.4-0.7,2.4-0.7,3.3c0,2.6,2.1,3.3,6.8,3.3v1.8H55.4v-1.8c4,0,5.4-0.9,7.6-7.5l15-42.1L82,79.1z M79.4,84
		l-9.9,27.2h20.2L79.4,84z"/>
	<path class="st7" d="M112.4,132.2v-1.8c5.5,0,6.8-1.7,6.8-4.6V86.7c0-3.4-1.4-4.5-6.8-4.5v-1.8h18.9v1.8c-6.2,0-7.5,1.1-7.5,4.5
		v39.1c0,3,1.3,4.6,5.3,4.6h7.4c6.9,0,13-4.4,16.9-11.4l1.4,0.7l-5.3,12.5L112.4,132.2L112.4,132.2z"/>
	<path class="st7" d="M160.3,132.2v-1.8c5.5,0,6.8-1.7,6.8-4.6V86.7c0-3.4-1.4-4.5-6.8-4.5v-1.8h18.9v1.8c-6.2,0-7.5,1.1-7.5,4.5
		v39.1c0,3,1.3,4.6,5.3,4.6h7.4c6.9,0,13-4.4,16.9-11.4l1.4,0.7l-5.3,12.5L160.3,132.2L160.3,132.2z"/>
</g>
<rect x="37.3" y="35.5" class="st8" width="181.4" height="58.5"/>
<rect x="37.2" y="55" class="st9" width="181.4" height="58.5"/>
<rect x="37.2" y="72.9" class="st10" width="181.4" height="58.5"/>
<rect x="37.2" y="77.3" class="st11" width="181.4" height="74.4"/>
<rect x="37.2" y="81.9" class="st12" width="181.4" height="20.3"/>
<rect x="37.2" y="105" class="st13" width="181.4" height="48.4"/>
<rect x="37.2" y="167.9" class="st14" width="181.4" height="14.5"/>
<g>
	<rect x="55.6" y="22.1" class="st3" width="169.2" height="166.1"/>
	<path class="st15" d="M94.1,38.6c0,0.5-0.2,1-0.7,1.4c-0.5,0.4-1.1,0.6-1.8,0.6c-1.3,0-3.1,0.3-5.2,0.9c-2.1,0.6-3.6,1-4.5,1.2
		c0.1,0.5,0.2,1,0.3,1.4c0.1,0.4,0.4,1,0.7,1.7c0.4,0.7,0.5,1.2,0.5,1.6c0,0.4-0.3,1-0.9,1.7c-1.1,1.2-1.9,2.2-2.5,3
		c1.4,1.3,2.6,2.7,3.5,4.1c1.5,2.2,2.8,4.9,4,8.2c0.1,0.7,0.2,1.2,0.2,1.7c0,1.5-0.4,2.2-1.3,2.2c-0.7,0-1.3-0.5-1.8-1.6
		c-0.8-2.4-1.7-4.6-2.7-6.6c-1-2-2.2-4.1-3.4-6.2c-1.8,2.2-3.6,3.9-5.4,5.3c-1.8,1.4-4.1,2.6-6.8,3.6c-0.3,0.1-0.7,0.1-1.2,0.1
		c-0.9,0-1.4-0.2-1.4-0.6c0-0.5,0.7-1.1,2.2-1.7c2.2-1.2,4.1-2.4,5.7-3.9c0.5-0.5,2.7-3,6.6-7.6c0.4-0.7,0.7-1.2,0.9-1.6
		c0.2-0.4,0.3-0.8,0.3-1.2c0-0.3-0.1-0.8-0.4-1.4c-0.2-0.7-0.4-1.3-0.4-1.9c-1.4,0.1-2.4,0.2-3.1,0.2c-0.8,0-1.5-0.1-1.9-0.2
		c-0.5-0.1-1.4-0.4-2.7-0.8c-1.3-0.6-2-1.3-2-2.1c0-0.8,0.6-1.2,1.7-1.2c0.1,0,0.5,0,1.1,0.1c0.9,0.3,1.5,0.5,2.1,0.5
		c0.5,0.1,1.4,0.1,2.6,0.1c1.8,0,3.9-0.3,6.3-0.8c2.4-0.6,5.4-1.3,9-2.1h0.3C93.3,37,94.1,37.6,94.1,38.6z M86.2,79.5
		c0.9,4.1,2.4,6.4,4.3,6.8c1.4,0.2,2.9,0.4,4.4,0.4c1.2,0,2.8-0.1,4.7-0.2c1.9-0.1,3.5-0.3,4.6-0.4c1.1-0.1,1.8-0.2,2-0.2
		c1.7,0,2.6,0.7,2.6,2c0,1.2-0.7,1.8-2.2,1.8c-1.3,0-3.3,0.1-5.8,0.2C98.3,90,96.5,90,95.4,90c-1,0-2,0-3.1-0.1
		c-1-0.1-1.9-0.2-2.6-0.4c-2.1-0.4-3.6-1.7-4.7-3.9c-1.1-2.2-2.1-5.1-3-8.7c-0.4-0.5-0.6-1-0.6-1.5c0-1,0.4-1.4,1.2-1.4
		c0.5,0,1.1,0.3,1.8,0.9l0.2,0.2C85.2,75.7,85.7,77.2,86.2,79.5z M108.7,32.5c0.5,1,0.8,2.2,0.8,3.7c0,0.6-0.1,1.3-0.1,2
		c0,0.7,0,1.5,0,2.3c0,1,0,1.9,0,2.9c0,1,0,2,0,3v0.9v1v1.2v1.4v1.6v1.8c0,3.5-0.1,6.9-0.2,10.3c-0.1,3.4-0.4,5.7-0.7,7.1
		c-0.3,1.3-0.8,2-1.4,2c-0.7,0-1.1-0.8-1.1-2.4c0.1-1.2,0.2-2.3,0.3-3.4c0-1.1,0.1-2.2,0.1-3.2v-0.9c0-0.9-0.1-2.8-0.2-5.8
		c-0.1-3-0.2-5.1-0.2-6.5c-1.4,0.7-2.9,1.3-4.6,1.7c-1.7,0.4-3.2,0.6-4.7,0.6c-0.9,0-1.7-0.1-2.4-0.2c-1.2-0.6-1.7-1.3-1.7-2.1
		c0-1.2,0.9-1.6,2.6-1.4c0.6,0.2,1.4,0.3,2.3,0.3c2.6,0,5.5-0.9,8.6-2.7c0-2,0-4.2,0.1-6.4c0.1-2.3,0.1-3.6,0.1-4
		c0-1.5-0.2-2.7-0.6-3.6c-0.4-0.9-1.3-2.1-2.7-3.6c-1.1-0.9-1.6-1.7-1.6-2.4c0-0.7,0.4-1.1,1.2-1.1c0.4,0,0.8,0.1,1.1,0.3
		c0.4,0.2,0.7,0.3,0.9,0.5l0.2,0.1C106.9,29.8,108.2,31.5,108.7,32.5z"/>
	<path class="st15" d="M154.2,44.9c1.5-0.4,2.4-0.6,2.8-0.6c0.3,0,0.7,0.1,1.1,0.2c0.4,0.1,0.9,0.3,1.5,0.5c0.6,0.2,0.9,0.6,0.9,1.1
		c0,0.4-0.2,0.8-0.6,1c-0.4,0.3-1,0.4-1.8,0.4c-1.6,0-3.4,0.2-5.3,0.6c-0.4,0.1-2.1,0.5-5.2,1.2c0.4,0.3,0.8,0.7,1.1,1.2
		c0.1,0.1,0.3,0.7,0.7,1.6c0.2,0.8,0.4,1.3,0.4,1.6c0,0.4-0.2,0.9-0.6,1.4c-0.8,0.9-1.5,1.8-2.2,2.7c1.7,1.5,3.1,3.3,4.1,5.3
		c1,2,2.1,4,3.2,6.2c0.3,0.5,0.5,1,0.5,1.4c0,1-0.4,1.5-1.3,1.5c-0.7,0-1.3-0.5-1.9-1.4c-0.8-1.7-1.6-3.5-2.4-5.2
		c-1-2-2.3-3.8-4-5.5c-2,2.5-4,4.5-6,6c-2,1.4-4.1,2.5-6.3,3.1c-0.4,0.1-0.7,0.2-0.9,0.2c-0.5,0-0.8-0.2-0.8-0.5
		c0-0.4,0.4-0.8,1.1-1.2c2.2-1.2,4-2.5,5.6-4c2-1.9,4.3-4.6,6.9-8.2c1-1.4,1.5-2.3,1.5-2.8c0-0.4-0.3-0.8-0.8-1.3
		c-0.5-0.5-0.7-0.9-0.6-1.4c-0.6,0.1-1.4,0.3-2.4,0.5c-1,0.2-1.6,0.3-2,0.3c-0.8,0-2.2-0.4-4.2-1.1c-1-0.4-1.5-0.9-1.5-1.6
		c0-0.7,0.5-1.1,1.4-1.1c0.2,0,0.5,0,0.9,0.1c1.3,0.3,2.6,0.4,4,0.4c0.9,0,1.7,0,2.5-0.1c0.8-0.1,1.8-0.3,3-0.6
		c1.2-0.3,2.3-0.6,3.1-0.8C151.2,45.6,152.7,45.3,154.2,44.9z M155,38.3c0,0.8-0.5,1.2-1.5,1.2c-0.2,0-0.7-0.1-1.4-0.3
		c-1.3-0.4-3-1.2-4.9-2.4c-2.2-1.4-4-2.4-5.4-3c-0.6-0.4-0.9-0.9-0.9-1.4c0-0.9,0.6-1.3,1.7-1.3c0.3,0,0.5,0,0.7,0.1
		c0.9,0.3,1.7,0.7,2.5,1.3c0.8,0.6,1.5,1,2,1.2c1.1,0.5,2.1,1,3,1.5c0.9,0.5,1.8,1,2.7,1.4C154.5,37.1,155,37.7,155,38.3z
		 M169.3,41.6c0.2,0.5,0.3,0.9,0.3,1.3c0,0.5-0.1,1.1-0.1,1.7c0,0.6-0.1,1.4-0.1,2.4c0,3.7,0,8.2,0.1,13.3c0.1,5.1,0.1,8,0.1,8.7
		c-0.2,1.6-0.6,2.4-1.1,2.4c-0.4,0-0.7-0.7-1-2c-0.3-2.3-0.5-4.2-0.6-5.9c-0.1-1.7-0.2-4-0.2-6.9c-0.5,0.1-1.4,0.3-2.7,0.5
		c-1.2,0.2-2.3,0.4-3.2,0.4c-1,0-1.8-0.2-2.3-0.5c-0.7-0.5-1-1-1-1.5c0-0.6,0.2-1,0.7-1.2c0.5-0.2,0.9-0.2,1.3-0.1
		c0.3,0,0.7,0.1,1.3,0.3c0.3,0,0.7,0,1.1,0c0.5,0,1.3-0.1,2.3-0.3c1-0.2,1.8-0.3,2.4-0.4c0-0.2-0.1-1.4-0.2-3.6
		c-0.1-2.2-0.2-4-0.2-5.3c0-1.2-0.2-2.3-0.5-3.1c-0.4-0.8-1-1.8-2-3c-0.2-0.3-0.4-0.6-0.4-0.9c0-0.6,0.3-0.9,1-0.9
		c0.7,0,1.4,0.3,2.1,1c0.6,0.6,1.2,1.2,1.7,1.8C168.7,40.6,169.1,41.2,169.3,41.6z M181,32.8c0.3,0.9,0.5,1.8,0.5,2.8
		c-0.1,1.1-0.2,2.1-0.2,3c0,1-0.1,1.9-0.1,3c0,2.1,0.1,6,0.2,11.8c0.1,5.8,0.2,11.5,0.2,17c0,3.6-0.2,7.2-0.5,10.7
		c-0.3,3.5-0.8,6.1-1.3,7.7c-0.5,1.6-1,2.4-1.4,2.4c-0.3,0-0.4-0.4-0.4-1.2c0-0.1,0-0.2,0-0.4c0-0.2,0-0.4,0.1-0.6
		c0.1-3.1,0.2-5.8,0.3-8.2c0.1-2.4,0.1-6,0.1-11c-0.1-4.8-0.3-9.4-0.4-13.7c-0.1-4.3-0.2-9.1-0.2-14.4v-0.8c0-0.6,0-1.2,0-1.9
		c0-0.7,0-1.5,0-2.3c0-1.8-0.2-3.3-0.7-4.4c-0.5-1.1-1.5-2.8-3.3-5.3c-0.6-0.7-0.9-1.2-0.9-1.7c0-0.7,0.4-1,1.2-1
		c0.6,0,1.3,0.3,2,0.9l2.7,3.2C180,30.5,180.6,31.9,181,32.8z"/>
	<path class="st15" d="M116,162.6c1.5,0,2.7,0.1,3.4,0.2c0.7,0.1,1.4,0.4,1.9,0.9c0.6,0.5,0.8,1.1,0.8,1.8c0,0.5-0.2,0.9-0.6,1.1
		c-0.4,0.3-0.9,0.3-1.5,0.2c-3.1-0.6-5.8-1.1-8.1-1.3c-2.3-0.2-5.9-0.4-10.8-0.4c-5.8,0-10.9,0.3-15.4,0.9
		c-8.4,1.1-13.2,1.7-14.1,1.8c-1,0.1-2.3,0.4-3.9,0.9c-1.6,0.5-2.7,0.7-3.2,0.7c-0.6,0-1.6-0.2-3-0.6c-0.7-0.4-1.1-0.8-1.1-1.4
		c0-0.8,0.7-1.2,2.1-1.2c1.6,0,3.3-0.2,5-0.7c1.8-0.5,3.6-0.7,5.3-0.7c3.6-0.6,7.2-1.2,10.9-1.8c2.9-0.4,6.4-0.6,10.4-0.6
		c0-0.9,0.2-1.9,0.5-3c0.3-1.1,0.4-1.7,0.4-1.8c0-0.5-0.5-1.2-1.5-2c-0.5-0.6-0.8-1.2-0.8-1.7c0-0.8,0.5-1.2,1.4-1.2
		c0.3,0,0.7,0.1,1.2,0.2c0.5,0.1,0.9,0.4,1.2,0.6c0.9,1,1.5,1.7,1.9,2.2c0.3,0.5,0.5,0.9,0.5,1.4c0,0.4-0.1,0.8-0.2,1.3
		c-0.5,1.7-0.9,3-1,3.7c2.5,0.2,4.8,0.3,6.9,0.5c2.1,0.1,4.7,0.2,7.7,0.2H116z M106.1,123.5c0.4,0.7,0.5,1.4,0.5,2.2
		c-0.1,0.8-0.2,1.5-0.3,2.1c-0.1,0.6-0.1,1.4-0.1,2.3c0,1.9-0.1,4.7-0.3,8.3c-0.2,3.6-0.3,5.5-0.3,5.5c0,0.9,0.1,1.7,0.2,2.6
		c0.7,0.5,1,1.1,1,1.6c0,1.1-0.4,1.6-1.2,1.7c-0.8,0.1-1.4,0.1-1.9,0.1c-0.7,0-1.4-0.1-2.1-0.1c-0.7,0-1.5-0.1-2.5-0.1
		c-1,0-2.2,0.1-3.6,0.2c-0.4,0-1.2,0-2.4,0.1c-1.2,0.1-2.2,0.1-2.8,0.1c-0.7,0-1.3,0-1.7-0.1c-0.4,0-1.1-0.2-1.9-0.4
		c0,0.1,0,0.4,0.1,0.6c0,1.6-0.4,2.4-1.2,2.4c-0.7,0-1.2-0.8-1.7-2.4c-0.2-1.3-0.4-3.2-0.6-5.8c-0.3-4.8-0.5-8-0.6-9.8
		c-0.3-2-0.6-3.3-0.9-3.9c-0.3-0.6-1.2-1.4-2.6-2.4c-0.8-0.5-1.2-1-1.2-1.6c0-0.8,0.6-1.2,1.7-1.2c0.4,0,0.9,0.1,1.3,0.2
		c1.9,0.9,3.2,1.8,4,2.9c0.8,1.1,1.2,2.6,1.2,4.4c1.6,0,3-0.2,4.2-0.6c2.4-0.8,3.7-1.2,4.1-1.2c0.8,0,1.7,0.1,2.7,0.3
		c1.2,0.1,1.9,0.6,1.9,1.5c0,1-0.7,1.5-2.2,1.5c-1,0-2.1,0.1-3.5,0.4c-2.7,0.6-4.5,0.9-5.4,0.9c-0.6,0-1,0-1.4-0.1
		c0,1.4,0,3.2,0.1,5.4c0,2.1,0.1,4,0.1,5.5c1.2,0.3,2.5,0.4,3.8,0.4c0.5,0,2.1-0.1,4.8-0.3c2.7-0.2,5.1-0.3,7.3-0.3
		c-0.3-1.2-0.5-2.6-0.5-4.3c0.1-2.6,0.2-4.9,0.3-6.8c0.1-2,0.1-4.6,0.1-7.8v-1.4c0-1.1-0.2-1.9-0.5-2.5c-0.4-0.6-1.2-1.5-2.6-2.7
		c-0.5-0.5-0.8-1-0.8-1.4c0-0.8,0.5-1.2,1.6-1.2c1,0,2,0.5,3,1.5l0.3,0.2C104.9,121.7,105.7,122.8,106.1,123.5z"/>
	<path class="st15" d="M163,125.9c0.4,0.2,0.8,0.8,1.1,1.8c0.1,0.5,0.2,0.9,0.2,1.2c0,0.5-0.3,1-0.9,1.5c-0.6,0.5-1.1,1.2-1.4,2
		c-1.9,4.1-4.5,8.1-7.8,12c-3.3,3.9-6.6,6.6-9.9,8.1c-0.9,0.4-1.5,0.6-1.9,0.6c-0.6,0-0.9-0.2-0.9-0.6c0-0.4,0.4-0.8,1.1-1.3
		c2.8-1.8,5.6-4.3,8.4-7.5c3.6-4,6.1-8,7.4-12c0.1-0.2,0.3-0.6,0.7-1.2c0.4-0.5,0.5-0.9,0.5-1c0-0.3-0.9-0.5-2.7-0.5
		c-2,0-3.7,0-5.1,0.1c-1.4,0.1-2.7,0.2-4.1,0.4c-0.9,0-2-0.4-3.3-1.2c-0.6-0.6-0.9-1.2-0.9-1.6c0-0.6,0.4-0.9,1.3-0.9
		c0,0,0.2,0,0.3,0s0.3,0,0.5,0c0.2,0,0.6,0.1,1.2,0.2c0.4,0,0.9,0,1.3,0c0.8,0,2.5-0.1,5.2-0.2c2.7-0.1,5-0.2,6.9-0.2
		C161.7,125.6,162.6,125.7,163,125.9z M178.3,125.8c0-1.4,0.1-2.4,0.1-3c0-1.2-0.1-2.4-0.4-3.4c-0.3-1-0.7-1.9-1.2-2.7
		c-0.5-0.7-1.1-1.5-1.7-2.3c-0.5-0.5-0.7-1-0.7-1.6c0-0.9,0.5-1.4,1.4-1.4c0.6,0,1.3,0.3,2.2,0.8c0.9,1.1,1.6,2.1,2.1,3.2
		c0.6,1.1,1.1,2.4,1.5,3.9c0.3,1.2,0.5,2.2,0.5,3.1c0,0.5-0.1,1.4-0.2,2.8c-0.1,1.4-0.2,2.7-0.2,4c0,10.1-0.1,17.6-0.2,22.5
		c-0.3,10.4-1,17.9-2,22.4c-0.4,1.9-0.9,2.8-1.3,2.8c-0.4,0-0.6-1.1-0.6-3.4c0.7-4,1-9.9,1-17.6c0-3.1-0.1-7.2-0.2-12.2
		c-0.1-5.1-0.1-10.1-0.1-15v-0.4C178.2,128,178.2,127.1,178.3,125.8z"/>
</g>
</svg>
