<?xml version="1.0" encoding="utf-8"?>
<!-- Generator: Adobe Illustrator 26.3.1, SVG Export Plug-In . SVG Version: 6.00 Build 0)  -->
<svg version="1.1" id="레이어_1" xmlns="http://www.w3.org/2000/svg" xmlns:xlink="http://www.w3.org/1999/xlink" x="0px"
	 y="0px" viewBox="0 0 256 256" style="enable-background:new 0 0 256 256;" xml:space="preserve">
<style type="text/css">
	.st0{fill:#E8E3DD;}
	.st1{fill:#CDD0D1;}
	.st2{fill:#C6C3C1;}
	.st3{display:none;}
	.st4{display:inline;fill:none;}
	.st5{display:inline;fill:#3F2406;}
	.st6{fill:#EDA4FF;}
	.st7{display:none;fill:#DDBA9B;}
	.st8{display:none;fill:#D6F2E1;}
	.st9{display:none;fill:#E8AAC6;}
	.st10{display:none;fill:#D389AF;}
	.st11{display:none;fill:#D17CAA;}
	.st12{display:none;fill:#FCD4E0;}
	.st13{display:none;fill:#9B6B26;}
	.st14{display:none;fill:#75501F;}
	.st15{display:none;fill:#F9E3CA;}
	.st16{display:none;fill:#F98800;}
	.st17{display:none;fill:#6CC16F;}
	.st18{display:none;fill:#F4DF4A;}
	.st19{display:none;fill:#FFAD29;}
	.st20{display:none;fill:#BFD8C8;}
	.st21{display:none;fill:#7C5521;}
	.st22{display:none;fill:#191817;}
	.st23{display:inline;fill:#54350D;stroke:#54350D;stroke-miterlimit:10;}
	.st24{display:none;fill:#FCD8B6;}
	.st25{fill:#F4CDA6;}
	.st26{fill:#F7C4AD;}
	.st27{fill:#EA7B44;}
	.st28{fill:#F2AB8F;}
	.st29{fill:#EA9475;}
	.st30{fill:#E26B47;}
	.st31{fill:#E27250;}
	.st32{fill:#ED875A;}
	.st33{fill:#E87E43;}
	.st34{fill:#E07553;}
	.st35{fill:#B24D32;}
	.st36{fill:#E5A391;}
	.st37{fill:#DD7D57;}
	.st38{fill:#CC6652;}
	.st39{fill:#E06C32;}
	.st40{fill:#ED6C3A;}
	.st41{fill:#B54628;}
	.st42{fill:#EF7043;}
	.st43{fill:#F4C8A4;}
	.st44{fill:#FF6839;}
	.st45{fill:#E85831;}
	.st46{fill:#E57553;}
	.st47{fill:#E54115;}
	.st48{fill:#EF946C;}
	.st49{fill:#E5643C;}
	.st50{fill:#EF8956;}
	.st51{fill:#EA4F1F;}
	.st52{fill:#F7480B;}
	.st53{fill:#E88262;}
	.st54{fill:#CC6B46;}
	.st55{fill:#CC7E44;}
	.st56{fill:#DD9280;}
	.st57{fill:#933C21;}
	.st58{fill:#E8A897;}
	.st59{fill:none;}
	.st60{stroke:#000000;stroke-miterlimit:10;}
	.st61{fill:#E88458;}
</style>
<g>
	<path class="st0" d="M26.2,237.2c0,5,4,9,9,9h186.9c5,0,9-4,9-9V14.9c0-5-4-9-9-9H35.2c-5,0-9,4-9,9V237.2z"/>
</g>
<rect x="36.2" y="13.9" class="st1" width="184.9" height="170.7"/>
<rect x="35.5" y="192.4" class="st2" width="184.9" height="3.2"/>
<g class="st3">
	<rect x="44" y="200" class="st4" width="141.7" height="32.5"/>
</g>
<g class="st3">
	<rect x="51.1" y="206.3" class="st4" width="175.7" height="29.9"/>
	<path class="st5" d="M63.3,215.3c0.5,0.6,0.8,1.4,0.8,2.3c0,0.3,0,0.5-0.1,0.8c-0.2,0.9-0.5,1.7-1.1,2.2s-1.2,0.8-2,0.8
		s-1.7-0.3-2.5-0.9c-0.6-0.4-1.1-0.9-1.4-1.3c-0.3-0.5-0.4-0.9-0.4-1.4c0-0.9,0.4-1.6,1.3-2.3c0.1-0.1,0.2-0.2,0.3-0.3
		s0.1-0.2,0.1-0.3s-0.1-0.3-0.2-0.6c-0.1-0.3-0.2-0.5-0.2-0.7c0-0.3,0.2-0.5,0.3-0.5c0.2,0,0.4,0.1,0.6,0.4c0.4,0.6,0.7,1,0.9,1.3
		s0.3,0.5,0.3,0.7c0,0.1-0.1,0.2-0.2,0.4c-0.1,0-0.2,0.1-0.2,0.1c-0.1,0-0.3,0-0.5,0s-0.4,0-0.5,0.1c-0.2,0.1-0.4,0.2-0.5,0.5
		c-0.2,0.4-0.3,0.7-0.3,1s0.1,0.7,0.3,1s0.6,0.7,1.1,1c0.8,0.5,1.5,0.7,2.1,0.7c0.8,0,1.4-0.3,1.8-1c0.2-0.4,0.3-0.8,0.3-1.3
		s-0.1-1-0.3-1.5s-0.5-0.9-0.9-1.2c-0.2-0.1-0.4-0.2-0.7-0.2c-0.2,0-0.4,0-0.7,0s-0.4-0.2-0.4-0.5c0-0.4,0.4-0.5,1.3-0.5
		C62.1,214.3,62.8,214.7,63.3,215.3z M68.7,210.5c0,0.1,0.1,0.3,0.1,0.6c0.1,0.3,0.2,0.6,0.3,0.9c0.1,0.3,0.2,0.7,0.2,1.3
		c0,1.5,0,3.4,0,5.6c0,2.2,0,3.9,0,4.9v0.5c0,0.3,0,0.5,0,0.6c0,0.2-0.1,0.3-0.1,0.5s-0.1,0.3-0.1,0.4c0,0.1,0,0.3,0,0.5
		s0,0.4-0.1,0.6s-0.2,0.3-0.4,0.3c-0.2,0-0.3-0.4-0.3-1.1c0-0.5,0-1.7-0.1-3.5s-0.1-3.4-0.1-4.9s0-3,0-4.5c0-0.2,0-0.5-0.1-0.8
		s-0.2-0.5-0.2-0.6c-0.1-0.2-0.2-0.5-0.3-0.9c-0.2-0.3-0.6-0.7-1.2-1.2c-0.2-0.1-0.4-0.3-0.4-0.4c-0.1-0.1-0.1-0.2,0-0.3
		s0.2-0.1,0.3-0.1c0.3,0,0.9,0.3,1.9,0.9C68.4,210,68.6,210.2,68.7,210.5z"/>
	<path class="st5" d="M90.3,210.8c0.1,0.3,0.3,0.6,0.4,0.9c0,0.1,0.1,0.2,0.2,0.5c0,0.1,0,0.2,0,0.3c0,0.3-0.1,0.6-0.2,0.9
		c-0.2,0.3-0.4,0.7-0.8,1.2c-0.2,0.4-0.4,0.6-0.6,0.8c-0.3,0.3-0.8,0.6-1.4,1l-3.1,2.2c0.6-0.2,1.1-0.4,1.6-0.5
		c0.5-0.2,1-0.3,1.6-0.5c1-0.3,1.7-0.6,2.2-0.9c0.1-0.1,0.2-0.1,0.3-0.1c0.3,0,0.4,0.2,0.4,0.5c0,0.1,0,0.3-0.1,0.4
		c-0.1,0.1-0.3,0.4-0.6,0.9c-0.3,0.5-0.6,0.8-0.7,0.9c0.3,0.2,0.5,0.5,0.8,0.7c0.2,0.2,0.3,0.4,0.3,0.7v0.3c0,0.7,0,1.6,0.1,2.5
		c0.1,1.6,0.2,2.6,0.2,2.9c0,0.4,0,0.9-0.1,1.4s-0.2,0.7-0.3,0.7c-0.2,0-0.2-0.3-0.2-0.9c0-0.2-0.1-1.5-0.4-3.6
		c-0.1-1-0.2-1.8-0.2-2.5s-0.2-1.3-0.6-1.7c-0.5,0.5-1.2,1.1-2.1,2c-1.4,1.3-2.3,2.1-2.8,2.4c-0.1,0.1-0.4,0.3-0.7,0.6
		c-0.3,0.3-0.6,0.4-0.7,0.4s-0.2-0.1-0.3-0.2c-0.1-0.1-0.2-0.1-0.2-0.2c0-0.2,0.2-0.4,0.6-0.6c0.2-0.1,0.5-0.3,0.7-0.4
		c0.6-0.4,1.6-1.2,3-2.6c1.4-1.3,2.4-2.5,3.2-3.5c-2,0.7-4,1.4-6,2.1c-0.5,0.2-1.4,0.5-2.8,1.1c-1.2,0.5-2.2,0.7-2.8,0.7
		c-0.1,0-0.3,0-0.6,0c-0.2-0.1-0.3-0.2-0.3-0.4c0-0.1,0.1-0.3,0.2-0.3c0.1-0.1,0.3-0.1,0.5-0.1c0.4-0.1,0.8-0.2,1.3-0.3
		c0.5-0.2,0.9-0.3,1.4-0.5c0.9-0.3,1.7-0.6,2.2-0.8c0.7-0.3,1.2-0.6,1.6-0.9l2.4-1.7c-1.1-0.4-1.9-0.8-2.4-1.1
		c-0.5-0.4-0.9-0.8-1-1.3c0-0.2-0.1-0.4-0.1-0.6c0-0.6,0.2-1.2,0.6-1.8s1-1,1.7-1.4l-0.9-1.8c0-0.1-0.1-0.2-0.1-0.3
		c0-0.2,0.1-0.3,0.3-0.3c0.1,0,0.3,0.1,0.5,0.3c0.3,0.5,0.6,0.9,0.8,1.2c0.2,0.4,0.4,0.8,0.6,1.3c0,0.1,0,0.2,0,0.3
		c0,0.2-0.1,0.3-0.2,0.4c-0.1,0-0.2,0.1-0.2,0.1c-0.2,0-0.3-0.1-0.4-0.2c-0.4,0-0.8,0.2-1.2,0.7c-0.4,0.5-0.6,0.9-0.6,1.4
		c0,0.2,0,0.3,0.1,0.5c0.2,0.4,0.5,0.7,1,1c0.6,0.4,1.2,0.6,1.8,0.6c0.3,0,0.6,0,0.8-0.1c0.3-0.1,0.7-0.4,1.2-0.9
		c0.5-0.6,0.8-1,0.8-1.4c0-0.1,0-0.2,0-0.3c0-0.3-0.1-0.6-0.2-0.9c-0.2-0.4-0.4-0.7-0.6-0.9c-0.1-0.1-0.2-0.1-0.4-0.2
		s-0.2-0.1-0.3-0.1c-0.1,0-0.2,0-0.3,0.1c-0.1,0-0.2,0.1-0.3,0.1c-0.1,0-0.1,0-0.2,0s-0.1-0.1-0.2-0.1c-0.2-0.1-0.3-0.2-0.3-0.3
		s0.2-0.3,0.5-0.3s0.6-0.1,0.7-0.1s0.2,0,0.3,0s0.3,0,0.6,0C89.7,210.1,90.1,210.4,90.3,210.8z"/>
	<path class="st5" d="M108.6,211.3c0-0.2,0-0.3,0.1-0.3s0.3,0.2,0.5,0.6c0.3,0.6,0.5,1,0.6,1.2c0.1,0.3,0.2,0.5,0.2,0.6
		s-0.1,0.3-0.2,0.5c-0.1,0.1-0.2,0.2-0.2,0.3l-0.8,1.2c0.6,0.2,1.2,0.5,1.5,0.7s0.8,0.4,1.2,0.7c0.2,0.3,0.3,0.5,0.3,0.6
		c0,0.2-0.1,0.3-0.2,0.3c-0.2,0-0.4-0.1-0.7-0.3c-0.3-0.3-0.7-0.6-1.2-0.9c-0.6-0.3-1-0.5-1.3-0.6c-0.6,0.7-1.2,1.2-1.7,1.6
		c-0.7,0.5-1.4,1-2.1,1.2c-0.2,0.1-0.4,0.1-0.5,0.1c-0.2,0-0.3,0-0.3-0.1s0.2-0.3,0.6-0.5c0.7-0.3,1.5-0.8,2.3-1.6
		c0.7-0.7,1.3-1.3,1.7-2c0.2-0.3,0.4-0.6,0.6-0.9c0.1-0.2,0.2-0.4,0.2-0.6c0-0.2,0-0.4-0.1-0.6l-0.3-0.8
		C108.6,211.6,108.6,211.4,108.6,211.3z M114,208.5c0-0.1,0.1-0.2,0.2-0.2c0.2,0,0.4,0.1,0.7,0.2c0.7,0.5,1.2,0.9,1.5,1.3
		c0.2,0.2,0.3,0.5,0.3,0.8v0.3v6.2c0,1.7-0.2,2.6-0.5,2.6s-0.5,0.1-0.6,0.2c-0.2,0.2-0.5,0.4-0.7,0.6c-0.4,0.3-0.7,0.5-1,0.7
		c-0.2,0.1-0.3,0.2-0.3,0.2l0.1,0.1c0.2,0,0.7-0.1,1.6-0.2h0.2c0.4,0,0.6,0.1,0.8,0.3c0.2,0.2,0.3,0.4,0.3,0.7
		c0,0.2,0.1,0.5,0.1,0.8s0,0.6,0,0.9v0.3v0.3v0.4v0.9v1.1c0,0.3,0,0.6-0.1,0.8s-0.1,0.4-0.3,0.6c-0.3,0.4-0.5,0.6-0.6,0.6
		s-0.2-0.1-0.2-0.3s0.1-0.4,0.2-0.6c0.1-0.1,0.1-0.3,0.1-0.4c0-0.1,0-0.3,0-0.6s0-0.5,0-0.9c0-0.3,0-0.7,0-1c0-0.2,0-0.7,0-1.2
		c0-0.6-0.1-1-0.1-1.1c0-0.3,0-0.5-0.1-0.6s-0.3-0.2-0.6-0.2c0,0-0.1,0-0.3,0s-0.4,0-0.7,0.1c-0.3,0-0.9,0.1-1.6,0.3s-1.4,0.4-2,0.6
		c-0.1,0-0.2,0-0.3,0c-0.3,0-0.5,0-0.7-0.1c-0.2,0-0.3-0.1-0.3-0.2c0-0.1,0.1-0.1,0.3-0.2c0.2-0.1,0.4-0.2,0.7-0.3
		c0.4-0.1,0.9-0.2,1.5-0.5s1.2-0.6,1.8-0.9c0.4-0.2,0.8-0.5,1.2-0.7c0.4-0.3,0.7-0.5,1-0.7c0.1-0.1,0.2-0.2,0.3-0.3
		c0.1-0.1,0.1-0.2,0.1-0.4s0-1.1,0-2.5l-0.1-4.8c0-0.3-0.1-0.7-0.2-1c-0.2-0.5-0.6-1-1.1-1.2C114.2,208.9,114,208.7,114,208.5z"/>
	<path class="st5" d="M143.8,212.3c0.3,0,0.5-0.1,0.6-0.1c0.2,0,0.4,0.1,0.7,0.4c0.1,0.2,0.2,0.3,0.3,0.5c0,0.1,0.1,0.2,0.1,0.4
		c0,0.1,0,0.2,0,0.5c0,0.2,0,0.5,0,0.7s0,0.4,0,0.4c0,0.1,0,0.2,0,0.4s-0.1,0.4-0.2,0.6c-0.1,0.3-0.2,0.4-0.3,0.5
		c-0.2,0-0.4,0.1-0.6,0.1c-0.7,0.6-1.4,1.3-1.9,2c-0.7,0.9-1,1.5-1.1,1.9s-0.1,0.6-0.1,0.8c0,0.3,0.1,0.4,0.3,0.4
		c0.1,0,0.3,0,0.4-0.1c0.2-0.1,0.7-0.3,1.4-0.7c1-0.5,1.7-0.8,2-1.1c0.1-0.1,0.3-0.2,0.4-0.2c0.2,0,0.3,0.1,0.3,0.2
		c0,0.2-0.1,0.4-0.3,0.5c-0.4,0.4-1.1,0.8-2,1.2c-0.7,0.4-1.4,0.6-2,0.9c-0.3,0.1-0.5,0.2-0.5,0.2c-0.1,0-0.3-0.1-0.5-0.4
		c-0.2-0.3-0.3-0.6-0.3-0.8s0-0.4,0.1-0.7c0.3-0.6,0.7-1.3,1.1-1.9c0.3-0.5,0.8-1.1,1.3-1.8c-0.6,0.2-1,0.3-1.4,0.4
		c-0.4,0.1-0.7,0.1-0.9,0.1c-0.3,0-0.5-0.1-0.7-0.2c-0.2-0.1-0.3-0.2-0.3-0.4s0.2-0.3,0.6-0.2c0,0,0.1,0,0.2,0
		c0.5,0,1.7-0.3,3.7-0.9c0.1-0.1,0.2-0.3,0.2-0.4s0.1-0.3,0.1-0.4c0-0.1,0-0.2,0-0.5s0-0.4,0-0.5c0-0.2,0-0.3,0-0.4
		c0-0.3,0-0.4-0.1-0.5s-0.2-0.1-0.5-0.1c-1.7,0.4-2.8,0.5-3.1,0.5c-0.1,0-0.3,0-0.6,0c-0.3-0.1-0.5-0.2-0.5-0.4s0.2-0.3,0.6-0.3
		L143.8,212.3z M148.7,213c0,0.4,0,0.7,0.1,1c0,0.6,0,1.7,0.1,3.3s0.1,2.7,0.1,3.3s-0.1,0.9-0.4,0.9c-0.2,0-0.4-0.3-0.4-0.8
		s0-1.1,0-1.7c0-0.6,0-1,0-1.2c-0.3,0.1-0.5,0.2-0.8,0.3s-0.6,0.2-0.8,0.2s-0.5-0.1-0.8-0.2c-0.3-0.1-0.4-0.3-0.4-0.5
		s0.2-0.3,0.6-0.2c0.2,0,0.3,0.1,0.5,0.1s0.4,0,0.7-0.1c0.6-0.2,0.9-0.3,1.1-0.3c0-1.3,0-2.3-0.1-3.1c0-0.4-0.1-0.7-0.1-0.8
		s-0.2-0.2-0.4-0.4c-0.2-0.1-0.3-0.2-0.3-0.4s0.1-0.3,0.4-0.3c0.1,0,0.2,0,0.3,0s0.2,0.1,0.3,0.1C148.5,212.5,148.7,212.7,148.7,213
		z M152.3,209.5c0.2,0.3,0.4,0.8,0.5,1.7c0.3,2.9,0.4,7.5,0.4,13.7c0,0.3,0,0.6-0.1,0.9c-0.1,0.3-0.2,0.4-0.4,0.4s-0.3-0.3-0.3-0.9
		c0-1.8,0-3.8,0-5.8s-0.1-3.8-0.2-5.4c-0.1-1.6-0.3-2.8-0.5-3.6c-0.1-0.3-0.3-0.6-0.4-0.7s-0.4-0.3-0.8-0.4
		c-0.3-0.2-0.5-0.3-0.5-0.5s0.2-0.3,0.5-0.3c0.1,0,0.3,0,0.5,0.1C151.6,209,152,209.3,152.3,209.5z"/>
	<path class="st5" d="M167.6,211.5c0-0.1,0-0.2,0.1-0.2s0.2,0,0.3,0.1s0.3,0.2,0.4,0.4c0.4,0.6,0.6,1,0.7,1.3
		c0.1,0.3,0.2,0.6,0.2,0.8s0,0.3-0.1,0.4c-0.1,0.1-0.2,0.2-0.3,0.3c-0.5,0.7-0.9,1.4-1.4,2.2c0.1,0.2,0.8,0.7,2,1.3
		c0.6,0.3,1,0.6,1.2,1c0.2,0.2,0.3,0.4,0.3,0.6c0,0.3-0.1,0.4-0.4,0.4c-0.2,0-0.4-0.1-0.6-0.4c-0.1-0.2-0.4-0.5-0.8-0.9
		c-0.5-0.4-1.2-0.9-2.1-1.6c-0.7,0.9-1.4,1.6-2.2,2.3c-0.9,0.8-1.8,1.4-2.7,1.7c-0.1,0-0.2,0-0.3,0c-0.2,0-0.3,0-0.3-0.1
		s0.2-0.3,0.5-0.5c0.7-0.3,1.5-0.8,2.2-1.4c0.6-0.5,1.2-1.2,1.8-2c0.4-0.4,0.7-0.8,1.1-1.3c0.3-0.4,0.6-0.9,0.8-1.4
		c0.2-0.2,0.3-0.5,0.3-0.9s-0.1-0.9-0.4-1.3C167.8,212.1,167.6,211.8,167.6,211.5z M174,209.3c0-0.1,0.1-0.2,0.2-0.2
		s0.3,0.1,0.6,0.2c0.3,0.2,0.6,0.5,1,0.7c0.3,0.2,0.6,0.6,0.7,1.2c0.1,0.4,0.2,0.8,0.2,1.3s0.1,1.4,0.1,2.5v1.4c0,0.6,0,2-0.1,4.2
		s-0.1,3.7-0.1,4.7s-0.1,1.5-0.4,1.5s-0.4-0.5-0.4-1.4v-8.2c0-0.9,0-1.8,0-2.9c0-1.1-0.1-1.9-0.1-2.4c-0.1-0.7-0.3-1.1-0.5-1.4
		c-0.1-0.1-0.4-0.4-0.7-0.7C174.2,209.7,174,209.5,174,209.3z"/>
	<path class="st5" d="M195.6,216.7c0,0.2-0.1,0.5-0.4,0.9c-0.4,0.6-0.9,1.1-1.4,1.7c-0.4,0.5-1,1-1.6,1.6c-0.2,0.2-0.4,0.4-0.6,0.6
		v0.1c0,0,0.1,0,0.3,0s0.4-0.1,0.5-0.1c1.2-0.2,2.5-0.4,3.9-0.6s2.6-0.4,3.8-0.6l-0.2-9.1c0-0.2,0-0.4-0.1-0.7c0-0.2-0.2-0.6-0.5-1
		c-0.2-0.3-0.5-0.5-0.7-0.7c-0.2-0.1-0.5-0.3-0.7-0.4c-0.1-0.1-0.2-0.2-0.2-0.3c0-0.3,0.2-0.4,0.5-0.3c0.4,0.1,0.8,0.2,1,0.3
		c0.3,0.1,0.6,0.4,0.9,0.8c0.5,0.5,0.7,0.9,0.8,1c0.1,0.2,0.1,0.5,0.1,1v0.5c0,2.2,0,4.3,0,6.3s0,3.9,0.1,5.7c0,1.8,0,3.4,0,4.6
		c0,0.4-0.1,0.6-0.4,0.6s-0.4-0.2-0.4-0.5c0-0.2,0-1.2-0.1-3s-0.1-3.1-0.1-4c-1.2,0.2-2.6,0.4-4.4,0.6c-1.4,0.2-3,0.5-4.8,0.8
		c-0.3,0.1-0.7,0.2-1.2,0.3c-0.3,0.1-0.5,0.1-0.6,0.1s-0.3-0.1-0.5-0.2c-0.2-0.2-0.3-0.3-0.3-0.4c0-0.1,0.1-0.2,0.4-0.3
		c0.7-0.3,1-0.4,1-0.4c0.4-0.2,0.9-0.5,1.2-0.8c0.6-0.4,1.2-1,1.8-1.5c0.6-0.6,1-1.2,1.5-1.8c0.2-0.3,0.3-0.5,0.3-0.6
		s-0.2-0.2-0.6-0.2c-0.3,0-0.4-0.1-0.4-0.3s0.1-0.3,0.2-0.4s0.4-0.1,0.6-0.1c0.1,0,0.2,0,0.3,0s0.2,0,0.3,0h0.1
		C195.4,216.2,195.6,216.4,195.6,216.7z M188.6,216c0.1,0,0.2,0.1,0.4,0.2l0.8,1.2c0.1,0.1,0.2,0.2,0.2,0.2c0.1,0,0.3-0.1,0.6-0.2
		c0.1,0,0.2-0.1,0.2-0.1s0.1,0.1,0.3,0.4c0,0,0.1,0,0.2,0.1s0.2,0.1,0.2,0.1s-0.2,0.2-0.6,0.3c-0.3,0.2-0.5,0.3-0.8,0.5
		c-0.2,0.1-0.3,0.2-0.5,0.2c-0.1,0-0.3-0.1-0.5-0.4c-0.2-0.3-0.3-0.5-0.5-0.8c-0.1-0.3-0.3-0.5-0.4-0.8v-0.1
		C188.2,216.2,188.3,216,188.6,216z M188.4,213.2c0-0.1,0-0.1,0.1-0.1c0,0,0,0,0.1,0s0.1,0,0.1,0c0.4,0.1,0.7,0.1,1,0.1
		s0.7,0,1.2-0.1s1.2-0.2,2.1-0.4c0.9-0.2,1.4-0.3,1.5-0.3s0.3,0.1,0.5,0.2c0.2,0.2,0.3,0.4,0.3,0.6c0,0.2-0.1,0.4-0.4,0.4
		c-0.7,0.1-1.4,0.2-2.1,0.3c-0.8,0.1-1.6,0.2-2.3,0.2c-0.6,0-1,0-1.2-0.1s-0.4-0.2-0.6-0.4l0,0C188.5,213.4,188.4,213.2,188.4,213.2
		z"/>
</g>
<rect x="37.3" y="16" class="st6" width="181.4" height="166.4"/>
<path class="st7" d="M197.7,86.8c-6.3,1.5-9.9,6-12.2,8.8c-11.6,14.3-16.5,21.7-23.2,29.6c-9.5,11.2-13,15.4-18,15.4
	c-2.3,0-4.9-0.9-9.7-0.1c-4,0.6-7,1.9-8.8,2.8c-2.5,1.3-9.1,4.7-12.2,11.9c-1.1,2.5-2.5,5.9-1.1,9.4c2,5.5,9,7,11.5,7.4
	c1.8,0.4,8,1.5,14.1-2c3.8-2.1,5.8-5.1,8.1-8.3c3.7-5.6,4.2-9.1,5.9-12.5c2.8-5.8,7.2-6.1,20.9-14.7c12.4-7.8,21.4-13.1,30.7-22.3
	c2.1-2,6-6.1,7.2-12.4c0.5-2.2,1.5-8.3-2.2-11.5C205,85,199.2,86.4,197.7,86.8z"/>
<path class="st8" d="M199.1,76.7c-6.2,1.6-9.8,6.2-12,9c-11.3,14.6-16.1,22-22.7,30c-9.3,11.3-12.7,15.7-17.7,15.7
	c-2.3,0.1-5-0.8-9.7,0c-4,0.7-7,2-8.7,2.9c-2.5,1.4-9,4.8-12,12.1c-1,2.5-2.3,5.9-0.9,9.4c2.1,5.4,9.2,6.8,11.6,7.2
	c1.8,0.3,8,1.3,14-2.3c3.7-2.2,5.7-5.2,7.9-8.5c3.6-5.7,4.1-9.2,5.6-12.6c2.6-5.8,7.1-6.2,20.6-15.1c12.2-8.1,21.2-13.5,30.3-22.9
	c2-2.1,5.9-6.2,6.9-12.5c0.4-2.2,1.4-8.3-2.4-11.5C206.3,74.8,200.6,76.3,199.1,76.7z"/>
<path class="st9" d="M77.1,39.9c1.6-1.2,5.1-3.4,9.6-3.2c6.8,0.3,13.1,5.8,15.4,13.9c5.8,2.3,8.9,1.6,10.7,0.4
	c3.3-2.1,2.8-6,6.5-10.4c3-3.5,6.7-4.8,8.1-5.3c2.1-0.8,6.6-2.2,12.2-1c6.4,1.3,10.3,5.1,11.7,6.5c1,1.4,2.3,3.5,2.8,6.3
	c0.5,2.6-0.1,3.5,0.1,5.8c0.5,4.6,3.5,5.4,4.8,9.3c1.8,5.4-1.6,11.1-3.2,13.6c-2.3,3.8-5.3,6-11.3,10.3c-3.9,2.8-7.8,5.5-13.6,7.9
	c-2.8,1.1-7.3,2.9-13.4,3.5c-6,0.6-10.6-0.2-14.4-0.9c-4.6-0.8-7.7-1.9-11.8-3.3c-3.5-1.2-8.9-3.1-12.8-5.8
	c-1.2-0.9-3.1-2.4-4.6-3.6s-1.8-1.5-2.1-1.9c-1.7-2.1-1.7-4.7-1.7-5.9c-0.2-13.7-3.1-18.2,0.7-26.8C71.8,47.1,73.6,43.6,77.1,39.9z"
	/>
<path class="st10" d="M63.7,73.1c0.9,4.2,3.2,12.6,10.1,20.7c2.1,2.4,8.8,9.8,20.3,13.7c9.2,3.2,16.9,2.6,20.8,2.3
	c4-0.3,12.3-1.1,21.3-6.3c5.6-3.2,8.7-6.6,13.3-11.5c4.2-4.5,6-7.4,6.9-10.8c0.5-1.9,0.6-3.6,0.7-5.5c1,7.3,0.5,44.7-13.9,54.3
	c-11,6.7-16.5,16-29.7,17.3c-14.5-1.1-34.8-16.7-41.3-25.4c-3.3-6.8-7.1-16.9-8.5-29.6C63,85,63.2,78.5,63.7,73.1z"/>
<path class="st10" d="M161.9,82.9"/>
<path class="st11" d="M74.1,42.9c4.1-2,9.4-3.8,14.2-1.8c5.4,2.1,5.1,8.1,12.6,11.8c3.8,1.9,6.9,1.9,7.9,1.9c3.4-0.1,6-1.3,7.4-2.1
	c0.6-2.2,2-5.7,5-9.1c1.1-1.3,3.5-3.9,7.5-5.6c4.4-1.8,8.1-1.6,8.8-1.5c1.8,0.2,4.5,0.4,7,2.3c0.7,0.5,2.6,2,3.5,4.6
	c0.8,2.5-0.2,3.2,0.5,5.2c1,2.7,3.5,2.8,5.7,5c0,0,3.1,3.1,3.3,9.4c0.3,11.8-23,21.1-25,21.8c-6.3,2.4-19.2,7.5-34.4,2.6
	c-9.4-3.1-17.7-9.4-24-18.7c-2.1-3.2-4.7-8.1-4.3-14.5C70.3,48.8,72.7,44.9,74.1,42.9z"/>
<path class="st10" d="M151.2,68.4"/>
<ellipse class="st12" cx="162.9" cy="61.7" rx="46.3" ry="29.2"/>
<path class="st13" d="M48.4,55.4c-0.7-0.5-6.4-5.3-5.7-11.1c0.4-2.9,1.8-5,2.4-5.7c4.2-5.4,11.7-5.2,13.5-5.1
	c5.1,0.2,12.4,2.4,13,6.3c0.1,0.7,0,1.3-0.1,1.7C63.9,46.2,56.2,50.8,48.4,55.4z"/>
<path class="st13" d="M113.4,39c1.1-1.4,4.9-5.7,11.4-6.9c1.9-0.4,7.8-1.4,12.7,2.4c0.5,0.4,6.6,5.3,5,11.5
	c-0.9,3.6-3.8,5.5-4.7,6.1c-4-2.4-8.2-4.9-12.7-7.3C121.1,42.8,117.2,40.8,113.4,39z"/>
<path class="st7" d="M69.7,101.2c5.4-4,10.4-5.7,11.8-6.1c33.3-10.9,49.9-16.4,61.3-11.6c7.4,3.1,20.6,11.6,20.1,21.4
	c-1.1,20.2-61.1,42.2-88.1,23.6c-0.9-0.6-15-10.5-12.9-18.8C62.7,106.4,66,103.9,69.7,101.2z"/>
<path class="st13" d="M147.8,80.6c-0.3,7.5-0.7,17.4-1.5,21.2c-2.9,14.8-28.7,28.2-52.3,27.9c-24.6-0.3-49.4-15.3-51.9-29.4
	C41.6,97.6,41,89,40.6,81.4c-0.1-3.6-0.2-9.2-0.2-11.1c0.1-10.5,22.9-36.4,53.5-36.6c30.5-0.3,54,24.9,54,35.3
	C148.1,70.9,148.1,74.1,147.8,80.6z"/>
<path class="st14" d="M54.3,35.9c-11.2,1.7-11.1,13.8-2.6,19.2c-1.3,1.5-5.5,6.7-5.2,14.2c0.2,6.1,3.4,10.3,5,12.4
	c2.3,3.1,5.4,5.7,10,8.3c12.2,6.8,26.7,8.3,33.4,8.7c12.9-0.1,22.5-3.3,28-5.7c6.3-2.7,12.5-5.4,16.8-12c3-4.5,3.9-9.1,4.3-12
	c-0.5-2.5-1.7-6.6-4.7-10.8c-2.2-3-4.6-5.1-6.4-6.4c5.3-4.1,6.9-10.2,4.9-13.7s-7.5-4.1-8.2-4.2c-2.5-0.3-4.4,0.2-5.4,0.5
	c-4.8,1.3-7.9,4.4-9.5,6.2c-4.5-1.7-11.9-4-21.1-3.9c-7.5,0.1-15.4,1.6-23.4,5C67.4,38.2,61.7,34.3,54.3,35.9z"/>
<path class="st15" d="M49.7,68.5c0.2-0.5,1.4-2.8,4.2-5.2c1.5-1.3,1.7-1.2,9.3-5.3c2.6-1.4,3.8-2.1,5.9-2.7c1.2-0.4,2.8-0.8,4.8-0.9
	c2.1-0.1,3.9,0.4,7.4,1.3c3.2,0.8,2.7,0.9,3.6,1c3.6,0.4,4.8-1.4,9.3-2.2c2.7-0.5,4.9-0.3,7.9,0c3.3,0.3,5.3,0.5,7.6,1.6
	c3.2,1.5,3,2.8,5.5,3.8c3,1.1,4-0.4,9.2-0.4c2.6,0,6.5,0,10.2,2.3c2.3,1.4,3.7,3.3,5.1,5.1c1.5,2,2.4,3.1,2.8,4.7
	c0.8,3.3-0.8,6.2-1.9,8.3c-0.5,0.9-2.7,4.7-8.4,8.7c-3.6,2.5-6.6,3.6-10.6,5.1c-3.7,1.4-9.4,3.5-17.3,4.5c-2.5,0.3-7.5,0.8-13.9,0.2
	c-5-0.4-8.7-1.3-11.1-1.9c-3.7-0.9-8.4-2-13.9-4.6c-3.8-1.8-7-3.3-10.3-6.4c-2.4-2.3-7.1-6.7-6.6-12.1
	C48.5,71.1,49.4,69.2,49.7,68.5z"/>
<path class="st16" d="M60.7,67c-0.5,0.4-0.4,2.1,0.6,2.5c0.8,0.3,1.9-0.5,1.9-1.2C63.2,67.4,61.3,66.5,60.7,67z"/>
<path class="st17" d="M67.3,75c0.5,0.4-0.8,3-1.7,2.9c-0.5,0-0.9-0.6-0.9-1.2C64.6,75.5,66.8,74.6,67.3,75z"/>
<path class="st18" d="M73.3,64.5c-0.4,0.5-0.1,1.5,0.4,1.7c0.8,0.4,2.2-0.8,2-1.5C75.7,64.2,73.9,63.7,73.3,64.5z"/>
<path class="st19" d="M128.4,76.5c-0.8,0.1-1.4,1.5-1,2c0.4,0.6,2,0.5,2.3-0.3C130,77.6,129.2,76.5,128.4,76.5z"/>
<path class="st19" d="M53.1,76.1c-0.1-0.4,0.1-0.8,0.3-0.9c0.5-0.3,0.9,0.1,1.1,0.7c0.1,0.7-0.2,1.8-0.5,1.9
	C53.6,77.8,53.3,77.2,53.1,76.1z"/>
<path class="st18" d="M120.7,84.2c-0.3,0.6,0.1,1.5,0.6,1.6c0.7,0.2,1.8-1.4,1.5-1.9C122.5,83.5,121.1,83.4,120.7,84.2z"/>
<path class="st20" d="M118.6,148.7c-1,0.3-0.9,2.9,0.3,5.5c1.6,3.4,4.6,5.1,5.6,5.3c4.4,0.9,8.7,1.1,11.6-1c4.5-3.2,5.9-5.9,2.8-3.1
	c-0.5,0.4-4.4,2-7.5,2.5c-3.4,0.6-6.6-0.8-7.1-1C119.6,154.8,119.4,148.5,118.6,148.7z"/>
<path class="st21" d="M147.3,72.4c-0.9-0.1-1,7.1-5.9,13.6c-1.9,2.6-4.9,5.4-11.5,8.6c-17.5,8.5-35.6,8.3-36.9,8.3
	c-7.3-0.2-20.6-0.6-33.8-8.5c-4.7-2.8-11.3-6.9-14.9-14.7c-2.6-5.6-2.5-10.9-3.2-10.8c-0.8,0.1-0.5,7.9-0.2,19.2
	c0,1.4,0.1,4.4,0.6,8.3c0.2,1.5,0.5,4.2,1.1,6.1c0.7,2.4,2.3,6,9,11.6c3.6,3,8.7,7.3,17.2,10.6c17.6,6.8,33.8,4.5,36.7,4.1
	c5.9-0.9,19.5-3.1,31.1-13.1c3-2.6,6.8-6,9-11.7c0.8-1.9,1.3-4,1.8-16.4C148.1,73.4,147.6,72.5,147.3,72.4z"/>
<path class="st22" d="M77,68.1c-1.1,1.2-0.8,3.1-0.7,3.9c0.1,0.7,0.5,2.8,1.5,2.9c1,0.2,2.4-1.6,2.7-3.4c0.3-1.9-0.6-4.2-1.9-4.4
	C77.9,67.1,77.2,67.9,77,68.1z"/>
<path class="st22" d="M104.2,69.2c-0.2,1.2,0.5,2.1,1.2,3.1c0.6,0.8,2.6,3.4,4.3,2.8c1.1-0.4,1.6-2.1,1.5-3.4
	c-0.1-1.4-1-2.2-1.7-2.9c-0.9-0.9-2-1.9-3.3-1.6C105.2,67.3,104.4,68.2,104.2,69.2z"/>
<path class="st22" d="M94.3,75.8c-0.6,0.4-1,1.2-0.9,1.9c0.1,0.8,0.8,1.1,0.7,1.6c-0.1,0.4-0.5,0.5-1,0.8c-2,1-1.7,1.4-2.8,1.7
	c-0.2,0.1-2,0.5-3.4-0.3c-1.2-0.8-1.3-2-1.9-2c-0.5,0.1-1.1,1.5-0.7,2.4c0.7,1.5,3.9,1.9,6.3,1.1c1.9-0.7,2-1.6,3.5-1.7
	c1.8-0.1,2.3,1.4,4.4,1.9c3.4,0.8,7.4-2.1,7.2-2.9c-0.1-0.4-1.2-0.5-1.6-0.5c-1,0-1.5,0.5-2.8,0.9c-0.9,0.3-2,0.7-3.2,0.5
	c-1.5-0.3-2.6-1.4-2.5-1.7c0.1-0.3,1.2,0,1.6-0.5s0.2-1.4-0.1-1.9C96.6,76,95.2,75.3,94.3,75.8z"/>
<g class="st3">
	<rect x="62.1" y="197.6" class="st4" width="161.3" height="54.2"/>
	<path class="st23" d="M81.1,212c0.7,0.4,1.3,0.6,2,0.7c1.1,0.5,2,1.3,2.6,2.4c0.6,1.1,0.9,2.3,0.9,3.6c0,1-0.2,2-0.5,2.9
		c-0.5,1.8-1.4,3.1-2.7,4s-2.8,1.3-4.5,1.3c-1.4,0-2.8-0.3-4.1-1c-1.4-0.7-2.5-1.6-3.5-2.8c-0.8-1.1-1.2-2.4-1.2-3.8
		c0-2.1,0.8-4,2.4-5.5c1.7-1.7,4-2.5,6.7-2.5C79.8,211.5,80.4,211.7,81.1,212z M80.3,214c-0.7-0.3-1.3-0.5-1.7-0.5
		c-0.5,0-1,0.1-1.5,0.3s-1.2,0.6-2.1,1.2c-0.8,0.6-1.4,1.2-1.8,2s-0.6,1.6-0.6,2.5c0,1.4,0.4,2.5,1.3,3.4c1.4,1.4,3,2.1,4.8,2.1
		c1.4,0,2.6-0.4,3.6-1.3c1-0.8,1.7-2.1,1.9-3.7c0.2-0.7,0.2-1.3,0.2-1.8c0-1.7-0.8-2.8-2.4-3.5h-0.1C81.5,214.5,81,214.3,80.3,214z
		 M92.3,200.4c0-0.4,0.2-0.5,0.6-0.5s0.9,0.2,1.5,0.5c1.5,1.7,2.4,2.9,2.9,3.8c0.4,0.9,0.6,2,0.6,3.3c0,0.8-0.1,1.6-0.1,2.5
		s0,2,0,3.3c0,0.8,0,3.2,0,7s0,6.5,0,8c0,2.4,0,4.5-0.1,6.2c-0.1,1.8-0.3,3.7-0.6,5.8c-0.4,1.3-0.7,1.9-1,1.9c-0.2,0-0.3-0.3-0.3-1
		c0-0.2,0-0.5,0-1c0-1,0-3.8-0.1-8.4c-0.1-4.6-0.1-7.5-0.1-8.8s0-4.6,0-9.9c0-0.9,0.1-1.8,0.1-2.7s0-1.9,0-2.9
		c0-1.2-0.2-2.1-0.5-2.9c-0.3-0.7-1.1-1.8-2.2-3.2C92.5,201.1,92.3,200.7,92.3,200.4z"/>
	<path class="st23" d="M121.7,222.7c4.5-0.8,7.9-1.3,10.4-1.7c3.7-0.5,6.9-0.9,9.6-1.2c0.8,0,1.8,0,2.9-0.1s2.1-0.2,3.1-0.3
		c0.5,0,0.8,0.2,1.1,0.5s0.4,0.6,0.4,0.9c0,0.5-0.5,0.8-1.4,0.8c-0.4,0-0.8,0-1.1-0.1c-0.3,0-1.1,0-2.4,0.1
		c-1.3,0.1-2.4,0.1-3.3,0.1c-0.9,0-2.2,0.1-3.7,0.3c-0.7,0.1-1.7,0.2-3,0.4c0.5,0.9,0.8,1.5,1,2c0.1,0.5,0.2,1.1,0.2,1.8v1.8
		c0,1.4,0.1,3.1,0.3,5.2c0.2,2,0.3,3.5,0.3,4.3c0,0.6,0,1.2-0.1,1.9s-0.2,1.3-0.3,2s-0.5,1-0.9,1s-0.6-0.5-0.6-1.4
		c0-0.1,0-0.3,0-0.5v-1c0-1-0.1-2.4-0.3-4.5c-0.4-4-0.6-6.8-0.6-8.3c0-0.9-0.1-1.7-0.3-2.2s-0.5-1.1-0.9-1.8
		c-0.7,0.1-1.8,0.2-3.3,0.5c-1.5,0.2-2.5,0.4-3,0.5c0.4,0.7,0.6,1.2,0.6,1.6c0,0.3-0.4,1.3-1.1,3s-1.6,3.2-2.5,4.6
		c-1.2,1.7-2.3,3-3.4,3.7c-0.3,0.2-0.6,0.2-0.8,0.2c-0.4,0-0.6-0.2-0.6-0.5c0-0.4,0.3-0.8,0.9-1.3c0.8-0.7,1.6-1.8,2.4-3.4
		c0.8-1.6,1.6-3.3,2.3-5.2c0.2-0.5,0.3-0.9,0.3-1.2c0-0.4-0.2-0.8-0.7-1.1c-0.4,0-2.4,0.4-6,1.2c-1,0.2-2.4,0.4-4.2,0.8
		c-0.7,0.2-1.5,0.4-2.5,0.8c-0.6,0.2-1.1,0.3-1.6,0.3s-1.5-0.2-3.1-0.6c-0.4-0.1-0.6-0.3-0.8-0.5c-0.2-0.2-0.3-0.4-0.3-0.7
		c0-0.5,0.4-0.8,1.1-0.8c0.1,0,0.5,0.1,1.1,0.2s1.2,0.2,1.8,0.2c0.5,0,1-0.1,1.6-0.2c0.9-0.3,1.8-0.4,2.5-0.6h0.2
		C116.7,223.6,119.7,223.1,121.7,222.7z M133.3,202c1,1,1.7,2.6,2.2,4.8c0,0.1,0,0.3,0,0.5c0,1.5-0.4,2.9-1.2,4.1
		c-1.2,1.8-3.2,2.8-6,3.2c-0.2,0.1-0.4,0.1-0.8,0.1c-1.5,0-3.2-0.6-4.8-1.7c-2-1.3-3.1-3-3.5-4.9c-0.1-0.4-0.1-0.7-0.1-0.9
		c0-0.8,0.3-1.6,0.8-2.4c0.5-0.8,1.5-1.8,2.9-2.9c1.2-0.9,1.8-1.4,1.9-1.4c0.7-0.4,1.5-0.6,2.4-0.6c0.6,0,1.2,0.1,1.8,0.2h0.2
		C131.1,200.6,132.5,201.2,133.3,202z M122,205.3c-0.4,0.6-0.7,1.3-0.7,1.9c0,0.7,0.3,1.4,0.8,2.2s1.2,1.4,2,1.9
		c1.3,0.8,2.5,1.2,3.7,1.2c1,0,2-0.3,2.9-0.8s1.7-1.3,2.3-2.4c0.3-0.6,0.4-1.2,0.4-1.9s-0.2-1.5-0.5-2.2c-0.3-0.8-0.9-1.4-1.6-1.9
		c-0.4-0.3-0.9-0.6-1.5-0.8s-1.3-0.4-1.9-0.5C125.8,202.1,123.8,203.2,122,205.3z"/>
	<path class="st23" d="M165.9,205.5c0-0.4,0.2-0.6,0.7-0.6c0.2,0,0.4,0,0.7,0.1s0.5,0.2,0.7,0.4c0.6,0.9,1,1.6,1.2,2
		s0.3,0.8,0.3,1.1s-0.1,0.5-0.4,0.7c-0.4,0.4-0.7,0.6-0.8,0.7c-0.5,0.6-0.9,1.2-1.4,1.8c-0.4,0.6-0.8,1-1,1.3
		c1.7,0.7,2.9,1.3,3.6,1.8c1.1,0.8,2.3,2.1,3.7,4c0.2,0.4,0.3,0.6,0.3,0.9c0,0.6-0.3,0.9-0.8,0.9c-0.2,0-0.4,0-0.6-0.1
		c-1.2-1.3-2.4-2.6-3.6-4c-0.9-0.8-2.1-1.6-3.6-2.2c-2.5,3-4.9,5.3-7.2,6.8c-1.7,1.1-3.8,2.1-6.3,2.9c-0.6,0.1-1.1,0.2-1.6,0.2
		c-0.4,0-0.6-0.1-0.6-0.2c0-0.2,0.5-0.5,1.4-1c3-1.2,5.6-2.8,7.7-4.8c2.3-2.1,4.8-5.3,7.3-9.4c0.2-0.3,0.4-0.6,0.6-0.9
		c0.1-0.2,0.2-0.4,0.2-0.6c0-0.3-0.2-0.8-0.5-1.5C165.9,205.9,165.9,205.7,165.9,205.5z M164.2,229.7c0-0.4,0.4-0.6,1.2-0.6
		c0.5,0.1,1,0.1,1.4,0.1c0.5,0,1.1-0.1,2-0.2c1.9-0.3,3-0.4,3.2-0.5l6.9-0.7c1.5,0,2.6,0.2,3.3,0.7c0.8,0.5,1.1,1.3,1.1,2.6
		c0,0.4,0,0.9-0.1,1.4v0.7c0,0.7,0,1.4,0,2c0,0.7,0,1.3,0,1.8c0,1.2-0.1,2.2-0.2,3s-0.3,1.6-0.6,2.5c-0.4,0.7-0.8,1.1-1.1,1.1
		c-0.4,0-0.5-0.4-0.5-1.3c0.3-0.6,0.4-1.2,0.4-1.8c0-0.5,0-1,0-1.4c0-0.6,0-1.8-0.1-3.4c-0.1-1.6-0.1-2.9-0.1-3.9c0-0.2,0-0.4,0-0.7
		c0-0.6-0.2-1.1-0.5-1.3s-1-0.3-1.8-0.3c-2.9,0-5.3,0.2-7.3,0.5c-2,0.4-3.5,0.7-4.6,1.2c-0.4,0-1-0.2-1.7-0.5l-0.3-0.1
		C164.3,230.2,164.2,229.9,164.2,229.7z M178.3,200.2c0-0.3,0.2-0.5,0.5-0.5s0.7,0.1,1.2,0.4c1.6,1.5,2.6,2.6,3,3.4
		c0.4,0.8,0.6,1.7,0.6,3c0,0.5,0,1,0,1.6s0,1.1,0,1.8c0,0.9,0,2.2,0,3.9s0,2.9,0,3.6c0,1.9-0.1,3.4-0.2,4.6c-0.1,1.2-0.3,2.2-0.6,3
		s-0.6,1.2-0.8,1.2s-0.3-0.5-0.4-1.4v-15.3c0-0.5,0-1,0-1.3c0-0.4,0-0.7,0-1c0-1-0.2-1.9-0.5-2.5s-1.1-1.8-2.4-3.4
		C178.5,200.8,178.3,200.4,178.3,200.2z"/>
</g>
<path class="st13" d="M127.4,34.9c-3.9,0.2-8.8,2.1-9,4.6c0,0.6,0.1,1.3,8.4,6.8c4.2,2.8,5.4,3.4,6.7,3c2.3-0.6,3.2-3.7,3.6-5.1
	c0.4-1.4,1-3.3,0.2-5.1C135.8,35.7,130.6,34.7,127.4,34.9z"/>
<path class="st13" d="M50.7,39.6c-3.4,3.7-0.7,12.4,2,12.9c1.6,0.3,2.2-2.6,7.4-5.9c3.1-2,5-2.8,5-2.8c2-0.9,2.6-1,2.6-1.3
	C67.9,40.8,55.1,34.8,50.7,39.6z"/>
<path class="st14" d="M128.9,37.7c-1.4-0.2-3.5,0.1-3.9,1.3c-0.8,2.1,4.1,6.9,6.5,5.9c1.1-0.5,1.6-2.1,1.5-3.3
	C132.9,39.4,130.8,37.9,128.9,37.7z"/>
<path class="st14" d="M53.6,41.4c0.9-1.4,2.7-1.5,3.3-1.5c1.7-0.1,4,0.6,4.4,2c0.6,2.2-3.9,6.1-6.3,5C53.3,46.1,52.4,43.1,53.6,41.4
	z"/>
<path class="st24" d="M101.6,35.9c-21.4,6.8-39.2,24-39.9,33.4C61.6,70,61.2,76,61,83.5c-0.2,6.1-0.1,7-0.2,8.7
	c-0.7,13.2-8.2,17.7-8.3,25.3c-0.1,9.1,10.5,16,19.2,21.6c8.4,5.4,27,17.1,54.8,17.5c14.9,0.2,46.6,0.6,66.3-24
	c0.9-1.1,20-25.7,12.4-53.2C194.5,40.3,138,24.4,101.6,35.9z"/>
<path class="st24" d="M73.9,80c-7.3-0.4-20.3-1.3-26.2,6.5c-3.5,4.7-3.7,11.6-2,16.4c4.4,12,22.9,15.8,63.5,20.1
	c84.7,8.9,94,1.9,98.6-3.3c11.1-12.5,12.8-34.7,3.9-43.4c-6.7-6.6-16.1-2.1-40.4,0.7C152.2,79.1,110,81.9,73.9,80z"/>
<path class="st25" d="M104.3,31.4c-1.3,1.2-5.2,5.1-8.7,18.3c-4.4,16.7-1.3,22.4-4.9,39c-2,8.9-3.1,14-6.7,20.1
	c-10.3,17.3-26.6,19.1-26.8,30c-0.1,4.9,3.2,9.2,6.1,11.1c9.7,6.2,26.9,0.1,34.6-10.8c5.1-7.3,5.4-16.3,6.4-16.2
	c0.7,0.1,0.1,4.3,0.4,9.2c0.8,12.5,6.5,26,11.6,26c1.7,0,3.1-1.5,5.4-3.8c3.7-3.8,4.6-7.5,5.2-7.3c0.9,0.3-1.9,7.3-0.3,15
	c1.4,6.7,6.5,13.7,10.5,13.2c3.5-0.4,5.8-5.6,9.6-14.4c4.6-10.8,4.6-15.6,7.6-16.3c3.5-0.8,5.5,5.5,13.8,11.3
	c8,5.6,20.1,9.4,24.1,5.4c3.5-3.5,0.3-12.5,2.6-18.8c0.2-0.4,0.7-1.7,0.5-3.3s-1-3-2.6-4.7c-2.5-2.6-5.2-3.9-6.4-4.5
	c-0.4-0.2-3.6-2.5-10-7.1c-3.3-2.4-14.3-10.3-18.5-17.3c-9.4-15.8,13.2-31.4,5.8-55.3c-0.5-1.7-5-15.4-18.3-22.4
	c-9.1-4.8-18.2-4.2-21.1-3.9C119.9,24.3,111.1,25.1,104.3,31.4z"/>
<path class="st26" d="M104.6,90c-3.3-1.4-13,30.3-31.1,37.2c-1.4,0.5-7.3,2.6-11.6,8.1c-1.5,1.8-4.2,5.3-3.4,8.8
	c1.3,5.7,10.7,7.6,11.2,7.7c10.8,2.1,22.2-4.7,28.2-12.9c4.9-6.7,6.1-13.8,6.4-16.2c0.9-6.1-0.5-7.8-0.3-17.7
	C104.2,94.6,105.8,90.6,104.6,90z"/>
<path class="st27" d="M96.3,46.9c1.5-5.8,2.8-9.2,5.4-12.5c5.9-7.4,15.5-10.9,17-9.1c1.4,1.7-5.4,6-9,17.6c-1.8,6-2.4,12.6-2.9,18.6
	c-0.3,3.1-0.3,4.6-0.3,6.4c0.1,2.9,0.4,4,0,7.5c-1,7.9-4.5,13.6-11.3,24.7c-7.4,11.9-11.8,17.4-13.1,18.6c-6.9,6.1-12.2,7-20.4,16
	c-1.9,2.1-3.9,5.2-4.6,4.8c-0.7-0.4-0.1-3.6,1.6-6.2c1.2-1.8,2.5-2.8,4.1-3.9c2.7-2,5.2-4.2,7.7-6.3c3.7-3,7.7-6.3,11.3-11.3
	c2.5-3.4,3.8-6.4,4.7-8.3c3.2-7.2,4.2-13.5,4.8-18.6C93.9,65.4,93.1,59.7,96.3,46.9z"/>
<path class="st28" d="M103.8,91.8c-2.7-1.1-7.4,21.9-26.9,39.3c-5.5,4.9-11.4,8.6-10.5,12.2c0.9,3.5,7.7,5.4,13.2,4.8
	c12-1.3,22.8-15.3,24.1-27.9c0.5-4.6-0.6-6.3,0-18.3C104.2,94.4,104.7,92.1,103.8,91.8z"/>
<path class="st29" d="M103.1,97c-0.9-0.1-1.6,4.9-3.9,11.1C92,127.6,76.8,137.9,78.5,140c0.5,0.6,2.1,0,5.2-1.2
	c2-0.7,7.3-2.8,11.9-8c4.8-5.4,6-11.2,7.1-16.3C104.6,106.1,104.3,97.2,103.1,97z"/>
<path class="st30" d="M103.2,88.6c0.1,0,1.2,2.9,1.2,6.7c0,0.7,0,1.2-0.1,1.6c-0.1,0.1-0.3,0.5-0.4,1.2c-0.2,0.8-0.1,1.4,0,1.6
	c0.2,1.2-0.2,2.7-0.4,4.5c-0.4,3.2,0,4.1-0.3,9.4c-0.1,2.7-0.3,3.8-0.4,5.4c0,0-0.5,6.2,0.9,14.3c2.2,12.7,10.5,24.5,10.8,24.4
	c0.3-0.2-8.3-10-9.8-25.4c-1.2-11.8,0.4-22.1,0.4-22.1c0.6-6.8,0-12.1-0.7-15.9C103.9,91,103.1,88.6,103.2,88.6z"/>
<path class="st27" d="M141.5,93.5c-0.1,0-0.5,4.8-2.9,17.5c-1.8,9.3-2.7,13.9-4.1,18.4c-3.6,11-8.7,19-8.5,19c0.1,0,2.5-4.1,4.4-7.8
	C141.6,118.3,141.8,93.5,141.5,93.5z"/>
<path class="st28" d="M142.3,91.8c-1.6,0.6-0.2,6.1-1.8,15.6c-0.4,2.7-0.7,4-1.1,5.2c-1.1,3.9-2.2,5.2-1.8,8.5c0.6,4.2,3,7.2,8,13.4
	c3.1,3.9,5.9,6.5,7.7,8.1c4.7,4.4,7.1,6.6,10.2,8.1c0,0,9.5,4.8,22.5,1.2c4.1-1.2,6-3.1,6.5-3.6c0.2-0.3,0.8-0.9,1.4-1.9
	c0,0,1.8-3.1,1.6-6.4c-0.2-3.8-4.7-6.5-12.7-11.2c-3-1.8-6-3.7-9-5.5c-2.3-1.4-4-2.4-4.3-2.5C159.9,115.2,145.9,90.4,142.3,91.8z"/>
<path class="st30" d="M166.4,83.3"/>
<path class="st29" d="M141.4,99.5c-1,0.4-0.1,3.1-0.9,9.5c-0.5,4.2-1.1,5.2-1.3,7c-0.8,7.9,8.6,16.4,16.4,20.4
	c7.5,3.8,18.2,5.6,19.6,2.8c1.5-2.9-8-7.4-20.2-23C148.1,107.2,143.2,98.6,141.4,99.5z"/>
<path class="st31" d="M113,29.3c0.7-0.4,4.2-2.2,9.5-2.6c1.1-0.1,4.1-0.2,12.3,2c6.9,1.8,10.3,2.7,12.7,4.3
	c5.4,3.5,8.1,8.3,10.5,12.7c2,3.6,3.9,7,4.6,11.9c1.5,10.2-3.5,19.2-4.6,19c-0.9-0.2,1.4-6.5-1.8-13.9c-0.7-1.7-1.1-1.4-3.9-6.1
	c-3-4.9-2.9-5.4-4.3-7c-2.2-2.5-4.6-3.8-7.3-5.2s-4.8-2.2-7.7-3.2c-10.9-3.8-16.4-5.6-19.3-5.1c-4.7,0.8-8.3,3.7-8.9,2.8
	c-0.5-0.8,1.5-3.8,1.7-4c0.3-0.4,0.6-0.8,0.7-0.9C109.8,31.1,113,29.3,113,29.3z"/>
<path class="st32" d="M100.4,66c-0.4,4-2.4,10-0.1,16.9c1,3.1,2,3.9,3.3,6.4c4.3,8.7-0.1,14.3,0.2,30.8c0.2,8.5,0.4,15.7,5.1,18.7
	c2.2,1.4,4.3,1.2,7.3,3.8c4,3.4,3.7,6.8,5.4,7.1c3.4,0.6,9.6-11.8,13.9-27c5.3-18.7,4.3-28.2,7.9-29c4.9-1,7.7,16.6,25.1,29.2
	c9,6.5,18.4,9.2,18.7,8.5c0.4-0.7-9.1-4.7-18.6-14.7c-6.9-7.3-13.2-13.8-13.4-22.5c-0.3-8.2,5-9.8,6.7-20.1c0.1-0.5,2-13.4-4.4-23.9
	c-10.6-17.5-39.7-23-50.3-12.8C102.7,41.8,102,49.9,100.4,66z"/>
<path class="st33" d="M120.6,73.4c0.9,0.1,1.1,1.9,3.7,3.1c0.6,0.3,2.2,1,3.9,0.7c2.9-0.5,3.6-3.5,4.9-3.5c2.1,0,5.6,8.4,5.3,19.1
	c-0.7,18.9-12.7,24.2-12.9,40.2c0,1.5,0,7.1-2.2,7.8c-1,0.3-1.9-0.4-4.9-2.4c-5.3-3.5-5.7-3.4-6.6-4.2c-4.4-3.9-2.5-14.8-1.1-22.4
	C114.5,90.9,117.8,73.1,120.6,73.4z"/>
<path class="st33" d="M130,143.9c0,0.3,7.3,0,8.3,3.1c0.4,1.3-0.6,2.1-3,6.9c-1.8,3.6-2.8,5.5-3.3,7.9c-0.9,4.7,0.4,8.5,0.6,8.5
	c0.3,0-2.6-8.1,1.3-13.7c1.1-1.5,2.8-3,4.3-6.5c1.1-2.6,1-3.5,0.8-3.8c0,0,0,0,0-0.1C137.9,143.9,130.1,143.5,130,143.9z"/>
<path class="st29" d="M131.3,138.7c0.3-0.7,1.3-2.9,2.5-5.9c0.3-0.8,0.5-1.4,0.7-1.9c0,0,0.5-1.3,0.9-2.4c1.2-3.5,1.6-7,2.1-7
	c0.1,0,0.2,0.3,0.5,1.2c0,0,0.2,0.7,1.2,2.7c1.8,3.7,6.4,9.1,6.4,9.1c1,1.2,1.8,2.1,2.4,2.8c1.3,1.3,1.9,2,2.3,2.6
	c0.9,1.6,0.9,3.1,0.9,4.1c0,8.1-9,23.6-9,23.6c-2.8,4.9-3.8,6.2-5.1,6.2c-2.5-0.1-4.8-5.2-4.9-9.6c-0.1-2.7,0.6-4.7,1.6-7.5
	c2.5-6.9,5.6-9.5,4.5-11c-1.3-1.8-7.4,1-9-1.2c-0.4-0.6-0.5-1.1-0.4-1.4c0.1-0.4,0.4-0.5,0.8-1.1c0.2-0.3,0.2-0.4,0.7-1.4
	C131.2,138.9,131.1,139.2,131.3,138.7z"/>
<path class="st34" d="M137,121.6c-0.8,0-0.9,4-2.1,7.7c-0.3,1-0.5,2.1-0.9,3.1c-0.3,1.1-0.4,1.2-0.3,1.4c0.6,1.8,9.3,1.8,10.1-0.6
	c0.3-1-0.9-1.5-3.9-6.4c-1.1-1.8-1.6-2.7-2-3.4C137.4,122.1,137.2,121.6,137,121.6z"/>
<path class="st35" d="M137.5,121.5c-0.4,0-0.4,2.7-1.9,6.3c-0.8,2-1.4,2.4-1.1,3.1c0.6,1.2,3.4,0.2,6.2,0.6
	c4.5,0.6,6.3,4.3,12.1,10.3c2.6,2.7,6.1,6.3,9.3,8.3c11.6,7.4,28.1,0.1,28.1,0c0,0-14.5,6.7-26.7,0.2c-2-1-5-3.8-11.1-9.5
	c-8.9-8.2-6.9-8-11.6-12.6c-0.9-0.9-2.3-2.2-2.9-4.5C137.7,122.5,137.7,121.5,137.5,121.5z"/>
<path class="st35" d="M141.1,96.3c-0.2,0-0.2,5.2-2,12.1c-0.3,1-0.8,2.8-1.2,5.4c-0.4,2.7-0.6,5.8-0.4,5.8c0.3,0,1.3-4.3,1.7-6.7
	C141,103.9,141.3,96.3,141.1,96.3z"/>
<path class="st36" d="M128.6,145.4c0.2-0.1,0.3-0.1,1.7,0c2.7,0.2,2.9,0.2,3.4,0.3c0.3,0.1,1.8,0.6,2.4,1.4
	c1.3,1.9-2.1,4.9-4.3,10.4c-2.2,5.6-1.6,9.6-2.6,9.7c-1.1,0.1-2.3-4.2-2.7-5.9c-0.7-2.9-0.3-5.8,0.4-11.6
	C127.1,147.9,127.4,145.8,128.6,145.4z"/>
<path class="st37" d="M122.6,72.4c-1-2.1-0.7-4.4,0.8-5.9c2-2,5.5-1.6,7.3,0.5c1.5,1.7,1.6,4.3,0.3,6.2c-0.9,1.3-2.7,2.4-4.6,2.1
	C123.7,75,122.6,72.6,122.6,72.4z"/>
<path class="st38" d="M139.6,54.1c-1.3,1.1-1,3.2,0.1,4.3c0.9,0.8,2.3,1,3.4,0.3c1.3-0.9,1.5-2.9,0.5-4.1
	C142.6,53.3,140.7,53,139.6,54.1z"/>
<path class="st38" d="M113.9,50.7c-1.1,0.4-2.2,1.7-2,3.1c0.1,1.6,1.7,2.7,3.1,2.8c1.8,0.1,3.5-1.4,3.5-3
	C118.5,51.6,115.9,49.9,113.9,50.7z"/>
<path class="st39" d="M111.3,139c0-0.6,2-1.3,3.8-1c3.6,0.5,5.8,4.3,6.4,7.2c0.2,1,0.3,2.5,0,2.6c-0.6,0.2-1.4-3.4-4.6-5.9
	C114.1,139.7,111.2,139.8,111.3,139z"/>
<path class="st39" d="M124.4,70.4c0.5-1,1.7-1.9,2.9-1.7c1.5,0.3,2.4,2.1,1.9,3.6s-2.3,2.4-3.6,1.8
	C124.2,73.5,123.8,71.7,124.4,70.4z"/>
<path class="st40" d="M108.5,34.5c-1.1,1.4-2.8,4.5-1.8,5.9c1.7,2.3,9.3-4.4,19.5-3.7c9.5,0.7,16.2,7.4,18.2,9.5
	c4.3,4.3,6.2,8.7,8.3,13.6c5.3,12.3,4.7,21,5.4,21c1.3-0.1,6.8-33.9-7.7-43.5c-2.5-1.7-7.8-3-18.3-5.9c-5.1-1.4-7.5-1.8-10.2-1
	c-1.4,0.4-2.9,1.2-5.4,1.2c-2,0-2.6-0.4-4.1,0C110.2,32.2,108.9,33.8,108.5,34.5z"/>
<path class="st41" d="M125.1,72.3c0-0.8,0.6-1.4,1.3-1.5c0.9-0.1,1.7,0.7,1.6,1.6c-0.1,0.7-0.7,1.3-1.5,1.3
	C125.8,73.7,125.1,73.1,125.1,72.3z"/>
<path class="st41" d="M141.3,54.6c-0.3,0.2-0.5,0.6-0.6,0.9c-0.1,0.2-0.4,1.2,0.2,1.9c0.6,0.6,2,0.6,2.5-0.3c0.4-0.6,0.2-1.5-0.2-2
	C142.7,54.5,141.9,54.2,141.3,54.6z"/>
<path class="st41" d="M114.6,51.9c-0.5,0.3-0.5,1.1-0.5,1.5c0.1,0.7,0.7,1.6,1.6,1.6s1.6-1,1.5-1.8C117,52.1,115.4,51.4,114.6,51.9z
	"/>
<path class="st42" d="M123.7,78.1c2,1.1,4.4,0.5,4.9,0.3c2.5-0.7,3-2.4,3.9-2.2c2.3,0.3,5.9,13.7,1.2,27.1
	c-4.4,12.5-12.2,15.5-11.5,25.9c0.3,4.1,1.9,8.5,0.3,9.4c-1.4,0.7-4.2-1.7-5.7-3c-2-1.7-3.7-3.8-4.6-5.5c-3.5-6.6,2.4-12.3,3-27
	c0.2-4.7,1.8-9.4,1-14.1c-0.1-0.4-0.4-1.9,0.4-3.3c0.6-1.1,1.4-1.3,2.2-2c2.8-2.5,1.3-7.8,2.4-8C121.8,75.4,122,77.1,123.7,78.1z"/>
<path class="st29" d="M131.9,165.3c1.6-6,10-7.3,12.1-5.3c2.9,2.8-2.4,15.3-6.9,15.2C134.3,175.2,130.6,170.1,131.9,165.3z"/>
<path class="st43" d="M68,129.9c0.6,0.5-4.2,4.8-4.4,11.3c-0.2,4.9,2.2,7.7,1.3,8.3c-1.3,0.9-7.7-3.4-7.4-7.7c0-0.7,0.3-1.6,3.7-5.4
	C62.3,135.2,67.3,129.4,68,129.9z"/>
<path class="st43" d="M145.9,95.1c-0.3,0.2,5.2,6.7,12.9,17.8c3.6,5.2,13.2,19.5,23.4,28.1c1.6,1.4,4.7,3.8,8,3.2
	c2.1-0.4,4.8-2,5.3-4.2c1.5-6.2-17.3-11.4-36.4-30.2C151.2,102.1,146.2,94.9,145.9,95.1z"/>
<path class="st44" d="M99.9,68.3c-0.8-7.9-0.3-12.6-0.8-12.6c-0.8-0.1-2.5,10.2-3.1,20c-0.3,3.9-0.2,5.2-0.6,10.8
	c-0.7,9.3-1.4,11.9-2.4,14.4c-2.1,4.9-5.1,7.7-4.9,7.8c0.2,0.1,4-3.9,7.9-9.5c3.8-5.4,5.7-8.1,6.4-10.9
	C103.9,82.3,101.2,80.3,99.9,68.3z"/>
<path class="st45" d="M150.3,37.3c-1.4,0.7,1.7,7.3,4.7,22.2c3,15,2.4,21.2,3.7,21.3c2,0.1,7.2-14.4,2.7-28.1
	C158.5,43.6,151.9,36.5,150.3,37.3z"/>
<path class="st46" d="M141,103.9c-0.8,0.1-1.1,2-1.8,5.6c-0.2,0.9-0.8,4.3-0.8,6.1c0.1,7.8,13.6,16.1,15.5,14.4
	c0.9-0.9-2-3.6-7.2-15.3C143.8,108.2,142.3,103.7,141,103.9z"/>
<path class="st47" d="M105.2,94c-0.1,0-1,3.7-1.5,7.9c-0.5,4.3-0.3,6.7-0.2,13.4c0.2,8,0.2,13.8,0.2,13.8c0,0,0.1-5.9-0.2-13.8
	c-0.1-3-0.2-4.7,0-7.4c0.1-1.6,0.2-2.3,0.9-7.3C105,96.2,105.3,94,105.2,94z"/>
<path class="st48" d="M109.6,53.3c0.5,0,0.1,3.8,2.2,4.8c1.4,0.7,2.4-0.4,3.2,0.1c1.8,1.2-2.1,8.4-4.2,17.8
	c-1.9,8.6-1.4,15-3.2,15.2c-1,0.1-2.4-1.8-3-3S104,86,104,85.8c-0.1-1.5,0.5-2.6,0.6-2.9c0.3-0.6,0.8-3.5,1.8-9.1
	C107.8,65.3,108.8,53.3,109.6,53.3z"/>
<path class="st49" d="M121,25.7c-3,1.7-4.4,4.4-8.3,15.1c-1.5,4.3-3,8.7-2.2,9.1c0.5,0.3,1.2-1.1,2.9-1.4c2.2-0.4,3.3,1.2,4.5,0.8
	c1.8-0.6,0.9-5,1.6-9.9c1.3-8.5,6.6-13.3,5.2-14.6C124,24.1,121.5,25.4,121,25.7z"/>
<path class="st50" d="M110.8,33.5c-1.4-0.7-5.3,3.7-7.4,7c-2,3.2-3.1,6.1-3.6,9c-1.4,7-3.1,15.7-1.2,27.8c0.6,4.1,2,10.7,3.2,10.7
	c0.6,0,0.9-1.5,1.5-4c0.9-3.9,1.2-7,1.3-7.8c0.4-4.3,1.1-4.9,2.2-10.4c1.3-6.6,0.7-7.4,1.7-15.4C110,38.9,112.2,34.2,110.8,33.5z"/>
<path class="st51" d="M117.9,30.6c-1,0.7-2.4,2.3-2.1,3.6c0.1,0.4,0.3,0.6,0.3,1c0,1.2-1.5,1.8-1.3,2.2c0.2,0.5,2.7-0.9,6.6-1.3
	c1.2-0.1,2.3-0.2,2.8-1c0.3-0.5,0.1-0.8,0.2-2c0.1-1.6,0.5-1.9,0.3-2.3C124.1,29.4,120.3,28.9,117.9,30.6z"/>
<path class="st51" d="M152.2,36.9c-2-1.5-5-2.2-5.5-1.4c-0.6,0.9,2.3,2.7,5.1,7.9c1.9,3.5,2.3,5.7,3,5.6c0.8-0.1,1.3-3.5,0.7-6.4
	C155.2,41.4,154.7,38.7,152.2,36.9z"/>
<path class="st48" d="M111,41.5c1.1-1.3,2.6-1.5,4.4-1.8c2-0.3,4.2-0.7,5.4,0.5c0.1,0.1,0.1,0.2,0.2,0.2c0.9,1.5,0.5,3.4,0,5.6
	c-0.9,4.3-0.9,6.3-1.6,6.4c-0.2,0-0.3-0.2-0.7-0.7c-0.4-0.5-1.6-1.8-3-2.2c-1.6-0.5-3,0.4-3.3,0.5c-1.2,0.7-1.8,1.7-2,2.1
	c-0.3-0.5-0.6-1.4-0.8-2.4c-0.1-1,0-1.7,0.2-3.4C110.2,43.7,110.3,42.4,111,41.5z"/>
<path class="st52" d="M122.9,29c2.4-2.2,6.8-0.5,7,0.7c0.2,1.6-6.7,4.8-8.1,3.3C121,32.2,121.7,30.1,122.9,29z"/>
<path class="st28" d="M76.2,152.7c0-0.4,1.9-0.5,6.6-2.4c3.6-1.4,7.4-3.3,7.4-3.3c3.7-2.8,7.2-6.5,9.5-11.4c1.8-3.8,2.5-7.7,3.4-7.5
	c0.8,0.1,1.1,3.1,1.6,7.4c0.3,2.5,0.2,2.7,0.5,3.8c0.8,2.5,2,3.5,1.6,4.8c-0.2,0.8-0.9,1.3-2.1,2c-5.2,3.2-8,4.8-13.2,6.1
	c-0.2,0-0.3,0.1-0.4,0.1C83.6,154.1,76.3,153.4,76.2,152.7z"/>
<path class="st53" d="M133.4,167.8c0.5-4.1,6.4-5.4,7.5-5.7c1.8-0.4,2.2-0.1,2.3,0c1.4,1.2-0.9,5.8-2.5,8.2c-1.3,2-2.2,3.4-3.6,3.4
	C135.2,173.8,133,170.5,133.4,167.8z"/>
<path class="st54" d="M136,168.9c-0.2-2.9,4.4-4.9,5.4-4.1c1.2,1-0.9,7-3,7.1C137.3,171.9,136.1,170.3,136,168.9z"/>
<path class="st55" d="M159.6,147.9c0.1-0.1,3.5,4.5,9.9,8.9c0,0,6.1,4.3,13.7,5.9c1.2,0.2,2.6,0.5,4.2,0.3c3.1-0.4,4.9-1.8,5-1.7
	c0.1,0.2-3.8,3.8-7.5,2.9c-0.2,0-0.4-0.1-0.9-0.3c-2.8-1.1-4.8-2.2-5.4-2.5c-5.8-3.2-8.5-3.4-12.8-6.9
	C161.7,151.4,159.5,148,159.6,147.9z"/>
<path class="st56" d="M127.8,148.9c-0.8,0.2-1.5,5.5-1,10.7c0.3,3.2,0.9,6.4,1.3,6.3c0.5-0.1-0.4-5.1,1.1-10.6
	c0.7-2.5,1.7-4.7,1.4-5.4c-0.2-0.4-0.7,0.3-1.6-0.1C128.3,149.5,128.2,148.8,127.8,148.9z"/>
<path class="st47" d="M77.7,153.2c0-0.1,6.6,1.6,13.6-1c2.8-1,7.6-3.4,9.9-5.1c0.1-0.1,0.6-0.4,1.3-0.9c1.8-1.1,4.1-2.3,4.3-2.1
	c0.2,0.3-4.5,5.1-10.8,7.7C86.7,155.7,77.7,153.3,77.7,153.2z"/>
<path class="st47" d="M76.9,152.3c0-0.1,4.3-1.2,9.5-4c5.7-3,8.9-6.2,8.9-6.2c0.1,0.1-4.2,4.5-10.9,7.6
	C80.4,151.6,76.9,152.4,76.9,152.3z"/>
<path class="st29" d="M137.8,159.6"/>
<path class="st35" d="M126.4,153.6c0.2-4.1,0.5-6.6,0.5-6.6c0,0-1.2,6.1-0.5,13.6c0.4,3.8,0.6,6,2.1,8.4c3,4.9,8.6,6.4,8.7,6.2
	c0.1-0.2-5-1.8-8.1-6.8c-2-3.2-2.5-6.7-2.6-7.7C126.2,159.1,126.3,157.3,126.4,153.6z"/>
<path class="st48" d="M126.3,66.5c0,0.1,1.1,0.1,2.1,1c1,0.8,1.3,1.9,1.4,2.2c0.5,1.8-0.3,3.2,0,3.4c0.3,0.1,1.3-0.8,1.6-2.1
	c0.3-1.3-0.2-2.8-1.3-3.8C128.6,65.8,126.4,66.3,126.3,66.5z"/>
<path class="st57" d="M125.7,72.9c-0.2-0.4,0.2-1,0.7-1c0.3,0,0.7,0.3,0.7,0.7c0,0.3-0.3,0.5-0.5,0.6
	C126.3,73.3,125.9,73.2,125.7,72.9z"/>
<path class="st57" d="M115.3,54.1c-0.2-0.3-0.1-0.7,0.2-0.8c0.2-0.1,0.9-0.1,0.7-0.1l0,0c0,0,0.3,0.6,0.2,0.9
	C116.1,54.4,115.5,54.5,115.3,54.1z"/>
<path class="st57" d="M141.3,56.4c0-0.4,0.6-0.7,1-0.5c0.3,0.1,0.6,0.5,0.5,0.9c-0.1,0.3-0.5,0.4-0.8,0.4
	C141.7,57.1,141.3,56.8,141.3,56.4z"/>
<path class="st58" d="M117.3,51.3c-0.1,0,1.5,1.5,1.2,3c-0.3,1.2-1.5,1.8-1.7,1.9c-1.1,0.5-2.1,0.3-2.1,0.4c0,0.1,1.5,0.6,2.8-0.2
	c0.1,0,1.2-0.8,1.3-2.1C118.9,52.5,117.3,51.3,117.3,51.3z"/>
<path class="st58" d="M143.1,53.9c-0.1,0,1.5,1.5,1.2,3c-0.3,1.2-1.5,1.8-1.7,1.9c-1.1,0.5-2.1,0.3-2.1,0.4c0,0.1,1.5,0.6,2.8-0.2
	c0.1,0,1.2-0.8,1.3-2.1C144.8,55.1,143.2,53.8,143.1,53.9z"/>
<path class="st58" d="M123.5,73.8c0.1,0-2.1-2.7-1.4-5.4c0.3-1.2,1.3-2.3,2-2.8c0.3-0.2,0.7-0.3,1-0.4c0.7-0.1,1.2,0.1,1.2,0
	c0,0-0.7-0.4-1.5-0.3c-0.2,0-0.7,0.1-1.4,0.7c-0.2,0.2-1.3,1.2-1.7,2.7C121.1,71.3,123.4,73.8,123.5,73.8z"/>
<g>
	<rect x="55.1" y="198.2" class="st59" width="153" height="43.6"/>
	<path class="st60" d="M100.6,221.6c0,0.6-0.5,0.9-1.6,0.7c-0.7-0.1-1.4-0.1-2-0.1c-0.6,0-1.5,0.1-2.7,0.2c-2.5,0.3-4.8,0.5-7,0.5
		c0.6,0.5,0.9,0.9,1,1.1c0.1,0.2,0.1,0.6,0.1,1.2c0,0.1,0,0.3,0,0.5s0,0.5,0,0.9v0.5c0,0.6,0,1.1,0,1.7s0,1.1,0,1.6v0.6v0.6v0.8
		c0,1.2,0,2.4,0,3.4c0,1-0.1,2.1-0.2,3.2c-0.1,1.1-0.4,1.7-0.9,1.7c-0.4,0-0.7-0.6-0.7-1.7c0-1.9-0.1-4.1-0.2-6.6
		c-0.1-2.5-0.3-4.5-0.5-6c-0.2-1.1-0.3-1.7-0.3-1.8c-0.2-0.3-0.6-0.8-1.3-1.3c-5.6,0.9-11.1,1.9-16.7,2.8c-1.1,0.1-2.1,0.2-3,0.4
		s-1.5,0.3-1.9,0.3c-0.3,0-0.7,0-1.1-0.1c-0.4-0.1-0.9-0.2-1.4-0.4c-0.6-0.3-1-0.6-1-1c0-0.4,0.4-0.7,1.1-0.7c0.3,0,0.6,0,0.9,0.1
		c0.4,0.1,0.7,0.1,1,0.1c0.4,0,1-0.1,1.9-0.3c0.9-0.2,1.9-0.3,2.9-0.4s4.4-0.7,10.2-1.8c4.3-0.8,8-1.2,11.1-1.2
		c1.6,0,3.1-0.1,4.5-0.2c2.6-0.3,3.9-0.4,4.1-0.4c0.2,0,0.4,0,0.8,0c0.4,0,0.7,0,1.1,0.1h0.2C100.1,220.7,100.6,221.1,100.6,221.6z
		 M74.9,208.4c0.4,2.2,1.4,3.3,3.1,3.3c2.6,0,4.6-0.1,6.2-0.4c1.6-0.3,3.1-0.6,4.5-1c0.1,0,0.4,0,0.8,0c0.3,0,0.6,0.1,0.9,0.3
		c0.3,0.2,0.5,0.4,0.5,0.7c0,0.6-0.5,0.9-1.4,0.9c-1.1,0-2.8,0.2-5.3,0.7c-2.4,0.4-4.4,0.7-6,0.7c-2.6,0-4.2-1.1-4.8-3.2
		c-0.7-2.7-1.3-4.2-1.8-4.5c-0.5-0.3-0.8-0.6-0.8-0.9c0-0.4,0.4-0.6,1.1-0.6c0.1,0,0.4,0,0.8,0.1l0.3,0
		C73.9,205,74.6,206.3,74.9,208.4z"/>
	<path class="st60" d="M134.9,204.5c0.3,0,0.6,0,0.9,0.1s0.6,0.2,0.9,0.4c0.4,0.4,0.6,0.7,0.6,1c0,0.2-0.1,0.5-0.2,0.9
		c-0.3,0.8-0.5,1.2-0.6,1.4c-0.7,2.2-1.8,4.3-3.3,6.1c-1.2,1.4-2.6,2.8-4.3,4c1.6,0,3.7-0.1,6.1-0.2c4.4-0.3,7.6-0.4,9.3-0.4
		c2.1,0,3.2,0.3,3.2,1c0,0.3-0.2,0.7-0.7,1.2c-0.3,0.1-0.7,0-1.2,0c-1.4-0.3-2.2-0.4-2.4-0.4c-0.1,0-0.3,0-0.6,0c-1.1,0-2.7,0-5.1,0
		c-2.3,0-4.2,0.2-5.6,0.4c0.4,0.4,0.8,0.8,1,1.2s0.3,0.6,0.3,0.9c0,0.1,0,0.4-0.1,0.8c-0.1,0.4-0.1,0.8-0.1,1.1c0,0.2,0,0.4,0,0.7
		c0,2-0.1,4-0.1,6c0,2,0,4,0,6c0,0.9-0.2,1.7-0.6,2.5c-0.4,0.8-0.7,1.2-1,1.2c-0.3,0-0.5-0.5-0.5-1.4c0-2.7,0.1-5.3,0.1-7.7
		s0-4.7,0-6.8c0-1.4-0.1-2.4-0.2-2.9c-0.1-0.5-0.4-1-0.9-1.5c-2.3,0.3-4.4,0.5-6.4,0.7c-5.9,0.6-9.8,1.1-11.9,1.3
		c-0.3,0-0.6,0.1-1.1,0.2c-0.5,0.1-0.8,0.2-1.1,0.2c-0.4,0-1.2-0.2-2.3-0.6c-0.4-0.3-0.7-0.6-0.7-0.8c0-0.3,0.4-0.5,1.1-0.6
		c1.4,0,4.1-0.2,7.9-0.7c7.3-0.9,11.1-1.3,11.4-1.3c0.7-0.8,2-2.1,3.8-4c1.6-1.9,2.8-4,3.5-6.3c0.2-0.4,0.3-0.7,0.3-0.9
		c0-0.1,0-0.3,0-0.5c0-0.5-0.7-0.8-2-0.8c-1.9,0-3.5,0.1-5,0.2c-1.5,0.1-2.7,0.3-3.7,0.5c-0.5,0-1-0.1-1.7-0.4
		c-0.6-0.4-0.9-0.7-0.9-1c0-0.4,0.4-0.6,1.3-0.5c0.4,0.1,0.7,0.1,0.8,0.1h0.6c1.7-0.1,3.4-0.3,4.9-0.4c1.5-0.1,3.2-0.2,4.9-0.2
		H134.9z"/>
	<path class="st60" d="M185.2,203.5c0.2,0.4,0.2,0.8,0.2,1.2c0,0.2,0,0.6-0.1,1.2c-0.1,0.6-0.1,1.2-0.1,1.8s0,1.2,0,1.7
		c0,0.5,0,1,0,1.4v0.5v0.6v0.7v0.9v1v1.2v1.3v1.5v1.7v1.8v1.9c2.2,0,4.1-0.2,5.8-0.5c0.7-0.1,1.2-0.2,1.7-0.2c0.1,0,0.3,0,0.6,0
		c0.3,0,0.6,0,0.9,0c0.6,0.3,0.9,0.7,0.9,1.1c0,0.5-0.4,0.8-1.3,0.8c-1.1-0.1-2.3-0.1-3.6-0.1c-1.3,0-2.9,0-4.9,0v0.5
		c0,0.6,0,1.2,0,1.8c0,0.6,0,1.2,0,1.8v0.5v0.6v0.7v0.8c0,1.6,0,3.2-0.1,5c-0.1,1.8-0.2,3.2-0.5,4.3c-0.2,1.1-0.5,1.7-1,1.7
		c-0.4,0-0.6-0.4-0.6-1.1c0,0,0-0.1,0-0.2c0-0.1,0-0.3,0-0.6c0-0.3,0.1-0.8,0.2-1.7c0-0.6,0-1.2,0-1.8c0-0.9-0.1-2.8-0.2-5.7
		c-0.1-2.9-0.2-5.6-0.2-8.1c-1.2,0-2.3-0.1-3.3-0.1c-1,0-2,0-2.9,0c-2,0-3.9,0.1-5.7,0.2c-1.8,0.1-3.7,0.3-5.9,0.6
		c-0.1,0-0.3,0-0.6,0.1c-0.2,0-0.4,0-0.5,0c-0.6,0-1-0.1-1.4-0.4s-0.5-0.6-0.5-1.2c0-0.3,0-0.5,0.1-0.8c0.1-0.3,0.1-0.7,0.1-1.3
		v-0.6c0-0.4,0-1.1,0-2.1c0-0.9,0-1.6,0-2.1c0-1.2-0.1-2-0.2-2.4c-0.1-0.4-0.6-0.9-1.4-1.6c-0.4-0.4-0.6-0.7-0.6-0.9
		c0-0.4,0.2-0.6,0.7-0.6c0.3,0,0.6,0.1,1.1,0.3c1,0.7,1.6,1.3,1.8,1.6s0.3,0.9,0.3,1.6v1c0,0.9,0.1,1.9,0.1,2.9c0,1,0,2,0,3.2
		c0,0.4,0,0.6,0.1,0.8c0.1,0.2,0.3,0.3,0.6,0.3h0.8c2.4-0.3,4.8-0.4,7-0.6s5.6-0.2,10.3-0.2v-14.3c0-0.5,0-1,0-1.4
		c0-0.4,0-0.7,0-0.9c0-0.5-0.1-1-0.3-1.4c-0.2-0.4-0.5-1-0.9-1.7c-0.3-0.4-0.5-0.8-0.5-1.2c0-0.4,0.2-0.7,0.7-0.7
		c0.5,0,1.2,0.4,1.9,1.1l0.2,0.2C184.7,202.5,185.1,203.1,185.2,203.5z"/>
</g>
<path class="st61" d="M89.9,93.1c-0.2,0-0.7,3.9-2.7,9c-1.7,4.1-3.6,7.1-4.8,8.9c-1.2,1.7-3.7,5.4-7.7,9.2
	c-6.9,6.4-10.1,5.5-14,10.9c-2.9,4.1-3.7,8.5-3.7,8.5c0,0,0.7-2.6,2.7-5.3c1.7-2.2,3.4-3.5,4.1-3.9c8.5-6.1,21.6-15.4,25.2-27.8
	C90.4,97.8,90.2,93.1,89.9,93.1z"/>
</svg>
