<?xml version="1.0" encoding="utf-8"?>
<!-- Generator: Adobe Illustrator 26.3.1, SVG Export Plug-In . SVG Version: 6.00 Build 0)  -->
<svg version="1.1" id="레이어_1" xmlns="http://www.w3.org/2000/svg" xmlns:xlink="http://www.w3.org/1999/xlink" x="0px"
	 y="0px" viewBox="0 0 256 256" style="enable-background:new 0 0 256 256;" xml:space="preserve">
<style type="text/css">
	.st0{fill:#E8E3DD;}
	.st1{fill:#CDD0D1;}
	.st2{fill:#C6C3C1;}
	.st3{fill:none;}
	.st4{fill:#DAF4CE;}
	.st5{fill:#D0E8C4;}
	.st6{fill:#E8F4E1;}
	.st7{fill:#E1E5DF;}
	.st8{fill:#B7B6B6;}
	.st9{fill:#2E4C07;}
	.st10{fill:#E5A067;}
	.st11{fill:#EFCAA8;}
	.st12{fill:#F41621;}
	.st13{fill:#DD1910;}
	.st14{fill:#F2D1A5;}
	.st15{fill:#648C58;}
	.st16{fill:#7C4701;}
	.st17{fill:#603D0F;}
	.st18{display:none;fill:#EFCDA5;}
	.st19{fill:#FF7F00;}
	.st20{fill:#FF6700;}
	.st21{fill:#DB570E;}
	.st22{fill:#FF9100;}
	.st23{fill:#FC9B00;}
	.st24{fill:#F97C00;}
	.st25{fill:#F76400;}
	.st26{fill:#D14F0D;}
	.st27{fill:#E5CFBA;}
	.st28{fill:#F4E6D9;}
	.st29{fill:#EDAB18;}
	.st30{fill:#EAD513;}
	.st31{fill:#79AD87;}
	.st32{fill:#99AA79;}
	.st33{fill:#A8A779;}
	.st34{fill:#898858;}
	.st35{fill:#F9A991;}
	.st36{fill:#332C23;}
	.st37{display:none;}
	.st38{display:inline;fill:none;}
	.st39{display:inline;}
	.st40{stroke:#000000;stroke-miterlimit:10;}
	.st41{fill:#C10C0C;}
	.st42{fill:#848041;}
	.st43{fill:#DD894A;}
	.st44{fill:#839360;}
	.st45{fill:#69A376;}
	.st46{fill:#7F0000;}
	.st47{fill:#AD0909;}
	.st48{fill:#EA2424;}
	.st49{fill:#F4C58E;}
</style>
<g>
	<path class="st0" d="M26.2,237.2c0,5,4,9,9,9h186.9c5,0,9-4,9-9V14.9c0-5-4-9-9-9H35.2c-5,0-9,4-9,9V237.2z"/>
</g>
<rect x="36.2" y="13.9" class="st1" width="184.9" height="170.7"/>
<rect x="35.5" y="192.4" class="st2" width="184.9" height="3.2"/>
<g>
	<rect x="44" y="200" class="st3" width="141.7" height="32.5"/>
</g>
<rect x="37.3" y="16" class="st4" width="181.4" height="166.4"/>
<ellipse class="st5" cx="137.7" cy="107.3" rx="72" ry="62"/>
<ellipse class="st6" cx="130.9" cy="99.2" rx="72.1" ry="64.1"/>
<ellipse class="st7" cx="130.9" cy="94.8" rx="67.9" ry="54.4"/>
<path class="st8" d="M107.8,48.7c-4.1,1.7-27.8,11.8-35.3,36.2c-1.3,4.3-5.3,17.2,0.4,30.3c5.6,12.8,17,18.5,27.3,23.6
	c6.7,3.3,17.9,8.9,33.4,8.5c23.4-0.6,38.9-14.6,44.9-20.1c8.9-8,11.9-14.6,12.7-16.4c1.7-3.8,4.8-12.6,2.8-23.3
	c-0.2-1.3-1.3-7.1-5.5-14.2c-8.4-14.5-21.6-21.2-25.5-23.1C136.4,37,109.8,47.8,107.8,48.7z"/>
<path class="st9" d="M102.6,55.9c-0.7-1-2.5,0.1-7.1-1.4c-2.5-0.8-2.7-1.3-4.6-1.6c-3.6-0.6-7.1,0.5-7.1,1.2c0,0.6,3.2,0.7,3.3,1.5
	c0.1,1.2-6.7,2.1-6.7,3.4c0,0.5,1.2,0.6,2.9,1.8c1.1,0.8,3,2,3.1,3.3c0,1.7-3.2,1.9-7.4,5.2c-2.9,2.3-5.5,4.3-6.1,7.4
	c-0.3,1.7-0.1,3.5-1.5,5c-0.7,0.7-1.3,1-1.9,1.3c-3.9,2.2-5.3,9.9-3.5,11.1c1.3,0.9,4.2-1.8,4.8-1.1c0.4,0.5-1.2,2-2.3,5.1
	c-0.1,0.3-1.7,5-0.1,6.2c1.1,0.8,2.9-0.6,3.6,0.1c0.7,0.8-1.1,2.7-1.3,5c-0.3,4.3,5,9,7.1,8.2c1.2-0.5,1.2-3.8,1.3-10.3
	c0.1-5.3,0.4-9.4,0.4-10.3c0.2-2.6,0.9-7.1,8.3-18.5C100.3,59.4,103.6,57.2,102.6,55.9z"/>
<path class="st10" d="M92.8,64.2c0-2.1,8-3.8,8.7-3.9c2.2-0.4,3.9-0.8,6-0.2c3.1,0.9,4.8,3.1,5.3,3.8c2.6,3.6,1.9,7.7,1.6,9.3
	c-0.4,2.5-1.9,6.8-3.6,6.8c-1.9,0-1.5-5-5.3-9.2C100.6,65.3,92.9,66.3,92.8,64.2z"/>
<path class="st11" d="M91.2,68.3"/>
<path class="st10" d="M89.5,67c5.6-2.5,11.8,2,12.4,2.5c2.6,1.9,3.9,4.2,4.8,5.9c1.3,2.4,2.8,5,2.6,8.3c-0.3,5.1-4.5,9.8-6.3,9.2
	c-2.3-0.7,1.5-9.3-3.3-14.4c-1.6-1.7-5.8-4.8-10-4.1c-1.6,0.3-4.4,1.3-5.4,0.1c0,0-0.2-0.2-0.2-0.4C83.3,72.3,86.1,68.5,89.5,67z"/>
<path class="st10" d="M82.7,75.9c3.2-1.7,6.6-1,7.7-0.8c1.6,0.3,3.1,1,4.1,1.4c1.3,0.6,2.9,1.4,3.7,2c3.9,2.9,4.6,10.3,3.3,15.7
	c-0.4,1.8-1.5,6.3-3.6,6.5c-2.4,0.3-2.8-5.5-8.2-9.8C84.1,86.4,79,88,77.8,84.6C76.8,81.7,79.6,77.6,82.7,75.9z"/>
<path class="st10" d="M76.4,91c0.9-1.7,1.4-2.2,1.7-2.4c1.8-1.3,4.2-0.6,5.7-0.2c6.6,1.8,9.8,7.7,10.7,9.4c1.1,2,1.9,3.5,1.3,5
	s-2.3,2.2-5.7,3.7c-1.5,0.7-2.3,1-2.8,0.9c-2.2-0.4-1.9-3.7-4.4-6.1c-3.3-3.2-7.7-1.2-8.7-3.7C73.6,96.1,74.5,94.4,76.4,91z"/>
<path class="st12" d="M155.8,66.4c-6-1.2-15.5,5.7-17.9,15.6c-2.8,11.2,4.9,20.5,6.5,22.6c1.5,1.9,8.4,10.3,18.8,9.6
	c10.1-0.7,16-9.6,18.1-12.7c1.4-2.2,3.3-5.1,3.9-9.4c0.8-5.5-0.5-12.9-4.7-15.9c-1.1-0.8-2.5-1.3-5.1-2.4c-2.3-0.9-3.4-1.4-4.6-1.4
	c-3.1-0.2-4,1.7-5.9,1c-1.6-0.6-1.5-2.2-3.3-4.1C161.7,69.3,159.7,67.1,155.8,66.4z"/>
<path class="st13" d="M126,91c9.3-5.8,20.5-0.2,23.5,1.3c8.2,4.1,20.4,14.8,17,26.1c-3.2,10.6-18.1,15.5-29.5,12.6
	c-9.9-2.4-19-11-19.6-21.9C117.4,108.6,116.9,96.7,126,91z"/>
<path class="st14" d="M156,67.8c2.1,0.6,3.4,2.1,4.3,3.1c1.6,1.8,2.3,3.6,2.7,4.8c0.4,2.5,0.9,1.5,3,0.3c4.1-3.9,15,0.1,16.8,4.7
	c0.6,1.2,1.3,2.9,1.7,5.1c0.3,1.7,0.4,3.1,0.4,4.3c0,0.7,0,1.6-0.2,2.8c-0.3,1.9-0.9,3.3-1.6,4.9c-1.1,2.5-2.2,4.3-2.5,4.6
	c-1.1,1.7-2.6,4-5.2,6.3c-3.6,3.1-7.8,4.6-7.9,4.3c0-0.1,0.2-0.4,1.7-1.5c0.7-0.3,1.6-0.9,2.6-1.5c0.9-0.6,2.9-1.9,4.9-4.1
	c2.2-2.4,3.3-4.7,4.4-7c1.2-2.5,1.8-3.9,2.2-6.1c0.6-3.8-0.3-6.7-0.8-8.3c-0.9-2.9-1.9-4-2.2-4.3c-0.9-1-1.9-1.5-2.8-2
	c-0.7-0.4-2.6-1.3-5.1-1.7c-3.9-0.6-7,0.5-8.6,1.1c-0.8-4.1-3.7-7.4-7.4-8.4c-4-1-7.5,1.1-8.4,1.6c-0.6,0.4-2.6,1.6-4.1,3.7
	c-0.9,1.3-1.7,2.7-1.7,2.7c-0.5,0.8-0.8,1.4-1.4,2c-0.6,0.7-1.1,1.2-1.5,1.5c0.2-0.6,0.5-1.4,0.9-2.3c0.2-0.3,1-2.1,2.3-3.9
	s3.8-5.1,8.1-6.5C151.8,67.7,153.7,67.1,156,67.8z"/>
<path class="st14" d="M140,80c-0.1-0.1,1.8-1.8,5.4-5.6c0.9-0.9,1.8-1.8,3.2-2.8c1.1-0.7,2.1-1.4,3.6-1.6c2.6-0.4,4.6,0.8,5.2,1.1
	c1,0.6,1.7,1.3,2.5,2.1c1.2,1.2,1.5,1.9,2,2.5c2.1,2.5,5.9,0.4,11.3,2.2c1.2,0.4,3.6,1.2,5.6,3.3c2.8,3.1,3,7,3.1,9.7
	c0.3,6.1-1.2,11-1.7,11c-0.5-0.1,1.1-6.5-1.8-12.9c-1-2.1-2.2-3.5-2.5-3.9c-2.8-3.2-6.4-4.6-7.6-5c-1.8-0.7-2.8-0.8-4.9-1.9
	c-1.5-0.8-1.5-1-2.8-1.7c-1.2-0.6-4.1-2.2-7.7-2.2c-2,0-3.5,0.5-4.8,1C142.9,77,140.1,80.2,140,80z"/>
<path class="st14" d="M137.9,89.9c-0.5-0.2,0-4.7,3.1-7.9c0.4-0.4,2-2,5.7-3.1c7.2-2.2,13.8,0.2,16.1,1.2c2.5,1.1,6.7,2.9,9.7,7.4
	c0.7,1,3.2,5.2,2.8,10.8c-0.6,8.6-7.3,13.4-8.2,14c1.3-1.4,5.5-6.2,5.3-12.9c-0.1-3.2-1.1-5.6-1.6-6.8c-0.8-1.9-3.1-6.5-8.2-9.6
	c-5.6-3.4-14.1-4.8-19.3-0.9C139.1,85.1,138.4,90.1,137.9,89.9z"/>
<path class="st14" d="M142.9,88.8c-0.1-0.5,6.1-5.4,10.5-5.1c5.6,0.3,11,4.7,12.3,9.8c0.9,3.5-0.2,6.9-0.6,6.9
	c-0.4,0,0.1-3.1-1.5-6.5c-0.2-0.4-2.4-5.3-7.6-7.4C150.8,84.3,143,89.3,142.9,88.8z"/>
<path class="st14" d="M148.9,92c-0.2,0.7-10.6-4.1-20.2,0.2c-1.6,0.7-5,2.2-7.2,5.7c-2.8,4.4-2.6,10.4-2.5,13.2
	c0.1,1.9,0.3,3,0.1,3.1c-0.3,0.1-2-4.6-1.9-9.9c0.1-2.4,0.2-5,1.6-7.9c3.5-6.8,11.7-8.1,12.5-8.2c2.8-0.4,5,0,8.6,0.8
	C144.9,89.9,149.1,91.6,148.9,92z"/>
<path class="st14" d="M146,93.9c-3.3-0.9-5.3-1.5-8.1-1.4c-2,0.1-5.9,0.3-9.8,2.9c-2.7,1.9-4.3,4.1-5,5.5c-1.6,2.9-2,5.4-2.2,7.2
	c-0.6,5.2,0.6,10.3,1.2,10.3c0.2,0,0.3-1,0.5-2.7c0.8-5.6,1.5-10.8,4.7-14.3c1.4-1.5,2.8-2.2,5.1-3.4c1.1-0.6,4.7-2.2,9.9-2.5
	c6.3-0.3,10.7,1.6,10.8,1.2C153.2,96.4,149.7,94.9,146,93.9z"/>
<path class="st14" d="M204,124.5"/>
<path class="st15" d="M80.4,93.8c-0.3,1,0.4,2.1,1,2.9c1.1,1.6,2.3,2.2,2.2,2.5c-0.2,0.5-3.3-1.3-4.7-0.1c-0.9,0.8-1.1,2.7-0.3,3.7
	c0.8,1,2.3,0.7,2.5,1.3c0.2,0.7-1.7,1.1-2.2,2.6c-0.5,1.6,0.5,3.8,1.9,4.1c1.2,0.3,2.4-0.1,2.4-0.1c0,0.1-5,0.4-6.6,3.2
	c-0.7,1.2-0.5,2.4-0.4,3.4c0.5,4.6,4.7,11.2,10.7,11.3c2.5,0,5.3-1.1,7-3.1c1.8-2,2.2-4.7,2.5-6.4c0.5-3.1-0.1-5.1,0.7-5.3
	c1-0.4,2.3,3.6,4.8,3.8c2.3,0.1,2.7-3.2,6.5-4.7c3.4-1.3,5,0.5,7-0.9c1.5-1.1,1.2-2.6,2.2-9.2c1-6.2,2-8.5,0.6-9.7
	c-0.7-0.6-2.1-0.9-3.2-0.5c-0.9,0.3-0.9,0.9-1.6,1.2c-2.2,0.9-5.2-4.6-7.6-3.4c-0.8,0.4-0.9,1-2.4,1.9c-1.7,0.9-2.2,0.6-2.8,1.3
	c-1.2,1.4-0.3,3.7-1.1,4c-0.4,0.1-0.6-0.4-1.2-0.5c-1-0.1-1.6,1-2.8,1.7c-1.5,0.9-3.6,1.1-5,0.3c-1.4-0.7-1-1.8-2.7-4
	c-0.8-1-2.5-3.2-4.6-2.9C81.8,92.1,80.7,92.8,80.4,93.8z"/>
<path class="st15" d="M97,52.1"/>
<path class="st16" d="M97.3,53.4c0,0,1.8,3.3,1.9,3.5c1.2,2.3,1.6,2.9,2.3,3.4c1.2,0.7,2.1,0.3,3.4,0.4c5,0.3,6.9,6.5,10.1,6
	c0.7-0.1,1.5-0.6,2.2-1.6c-1.4,2.1-4.9,6-3.1,13c0.7,5.6,0.7,7,1.6,7.4c2.1,1.2,6.7-3.8,7.9-3.6c1,0.2,2.6,3.4,3.7,5
	c0.8,1,1.2,1.5,1.8,1.6c0.7,0.2,1-0.1,3.8-0.9c1.1-0.3,1.5-0.4,2-0.4c0.9-0.1,1.7,0,2.2,0.1c0.2-1.3,0.6-2.7,1-4.2
	c1.3-4.3,3.3-7.6,5.1-9.9c1.6-2.4,1.5-3.4,1.2-3.9c-0.7-1-3.8-1.2-6.8-1.6c-0.4-0.1,13.1-0.8,12.4-2.2c1.2-1.6,0.3-3.6,1.3-4.1
	c-0.6,0.2-0.9-0.1-0.4-0.5c-1.2-1.6-3.9-2-5.7-3.1c-4.2-0.7-0.3-2.9,0.8-3.8c1.6-1.1,2.6-1.1,2.8-1.9c1.2-1.2-7-8-7.9-6.5
	c-0.8,0-4.8,5.5-7.5,5.2c-6.8-4.2-4.4-5.1-12.7-1.7c-6.2,0.7-6.5-7.5-12.7,1.2c-0.2,1.5,1.5,2.4,1.1,3.3c-0.3,0.7-1.8,0.9-2.8,0.5
	C104.7,51.8,99.5,51,97.3,53.4z"/>
<path class="st17" d="M106.3,106.7c0.6-0.1,1.1,0,1.1,0s0.9,0.1,1.7,0.5c4.9,2.2,8.2,9.3,8.2,9.3c4,8.9,1.6,11.1,5.2,16
	c3.4,4.8,7.7,5.4,7.3,7.3c-0.5,2.4-8.1,3.1-14.1,2.3c-2-0.2-5.1-0.8-14.1-4.8c-10.6-4.7-18.7-9.3-18.2-10.6c0.2-0.6,2.3,0.1,3.3-1.2
	c1.1-1.4-0.4-3.2,0.7-4.7c1-1.3,2.8-0.2,4.4-1.6c1.9-1.6,1-4.4,2.3-4.8c1.1-0.4,1.9,1.7,3.8,1.6c1.4-0.1,2.5-1.2,3.1-2.2
	c0.8-1.5-0.1-2.1,0.6-3.8C102.4,107.8,105.1,106.8,106.3,106.7z"/>
<path class="st18" d="M110,75.2c-2.2-0.4-4.8,0.7-4.9,1.9c-0.2,1.3,2.4,1.9,2.3,3.5c0,0.9-0.9,1.5-3.3,3.2c-3.6,2.4-5.2,3-5.1,3.5
	c0.2,1.1,8.5-0.6,9.1,1.2c0.2,0.7-1,1.2-2.9,4.2c-1.2,1.9-1.3,2.7-2.3,3c-0.9,0.3-1.6-0.2-3.6-1c-2.5-1-5.3-2.1-6.7-1
	c-0.6,0.5-0.8,1.4-1.2,3.2c-0.5,2.2-0.7,3.4-0.3,4.1c1.4,2.5,8.2-0.6,10.3,2.2c1.7,2.2-0.8,6.6,0.1,7c0.4,0.2,0.9-0.7,2.9-2.6
	c2.4-2.3,3.2-2.6,3.3-3.6c0.3-1.9-1.7-3.5-1.6-3.6s2.2,1.8,5.4,5.7c2.6,3.3,3.2,4.4,4.2,4.4c1.2-0.1,1.3-1.8,3.6-5.5
	c2.3-3.8,3.8-4.6,3.5-6.3c-0.2-0.8-1-1.6-2.8-3.1c-3.1-2.7-4.5-3.2-4.4-3.9c0.2-1.1,3.7-1.3,5.7-1.5c4.7-0.3,6.5,0.5,7.5-0.7
	c0.5-0.6,0.3-1.1,0.4-4.8c0-5,0.4-5.8-0.3-6.5c-1.6-1.4-4.7,1.4-6.4,0c-1.7-1.4,0.7-4.8-1-6.7c-1.9-2.1-7.9-0.9-8.7,1.5
	c-0.6,1.8,1.6,4,1.2,4.4C113.7,77.6,112.4,75.6,110,75.2z"/>
<path class="st9" d="M189.7,103.2c0.5-2.4,0.4-5.8,2.6-10.3c1.1-2.2,2.4-3.9,1.7-5c-0.9-1.4-4.1,0.4-5.7-1.1
	c-2.6-2.4,2.1-10.4,0.7-11.3c-0.8-0.5-3.4,1.5-4.9,4.3c-2.1,4.1,0.2,6.3-0.8,12c-0.5,2.7-2.4,5.9-6.2,12.3c-2.3,3.9-3.5,5.2-5.2,6.1
	c-2.7,1.4-4,0.3-5.7,1.7c-2.6,2.1-0.7,5.2-3.4,9.5c-1.7,2.7-3.9,4.3-5.8,5.5c-1.2,0.8-4.4,2.8-8.7,3.8c-8.7,2-18.7-1.2-18.9-4.2
	c-0.2-2.1,4.7-3.4,4.4-6.3c-0.2-1.5-1.6-1.5-2.3-3.5c-1.2-3.2,1.8-5.3,0.6-8.2c-0.7-1.6-2.4-2.8-3.4-2.4c-1.4,0.5-0.3,4.8-2.5,5.7
	c-1,0.4-2.1-0.3-2.5,0.2c-0.3,0.5,0.5,1.3,0.9,2.5c0.8,2.5-0.8,6-2.1,6.1c-2.2,0.2-4-8.4-5.8-8.1c-1.5,0.3-1.4,7.1-3.4,7.4
	c-0.7,0.1-1.2-0.7-1.7-0.4c-1,0.5-0.1,3.1-1.2,3.8c-1.2,0.8-3.2-1.3-4.1-0.6c-0.8,0.7-0.3,2.8,0.6,4.4c2.2,3.9,5.7,4.7,5.5,5.8
	c-0.3,2.2-15.6,0.6-15.9,2.1c-0.3,1.6,17.5,10.4,38.6,8.1c18.1-1.9,30.2-11,34.6-14.5C179.3,120.9,188.3,110.1,189.7,103.2z"/>
<path class="st19" d="M97.6,48.3c-0.5,0.9,0.6,1.8,1.6,4.9c1,3,0.6,4,1.5,4.5c1.1,0.6,2.1-0.9,5.4-1.6c2.6-0.6,3.6,0,4.1-0.7
	c0.8-1.3-1.9-3-2.3-7.3c-0.1-1.5,0.1-2.2-0.4-2.6c-1-0.7-2.4,1.1-5.8,1.9C99.1,48,98.1,47.5,97.6,48.3z"/>
<path class="st19" d="M108.7,44.8c-0.3,1,1.8,1.6,2.6,4.1c0.8,2.2-0.1,3.6,0.7,4.2c0.7,0.5,1.5-0.5,3.8-0.9c2.6-0.5,3.3,0.4,4.2-0.3
	c1.1-0.8,1-2.7,0.7-6.3c-0.1-1.8-0.2-2.8-0.7-3.2c-1-0.8-2.3,0.2-6.3,1C110.5,44.2,109,44,108.7,44.8z"/>
<path class="st19" d="M121.6,49c0.1,0.7,0.8,0.7,2.2,1.9c2.4,2,2.4,3.6,3.6,3.8c1,0.2,1.9-0.8,3.6-2.6c1.7-1.8,3.9-4.1,3.2-5.4
	c-0.4-0.8-1.5-0.3-3.2-1.3c-2.2-1.3-2.4-3.3-3.5-3.2c-0.8,0.1-0.9,1.2-2.3,3.1C123.3,47.6,121.5,47.9,121.6,49z"/>
<path class="st19" d="M136.7,43.4c-0.6,1.1,2,2.5,3.6,6.4c1,2.5,0.8,3.9,1.7,4.2c1,0.3,1.6-1.4,4.5-2.6c1.3-0.5,2.1-0.6,2.5-1.3
	c0.4-0.8,0.1-1.8-0.3-2.8c-0.4-1.1-1.1-2.9-2.9-3.9c-1.2-0.7-2.8-0.7-5.8-0.6C137.9,42.9,136.9,43,136.7,43.4z"/>
<path class="st20" d="M136.2,43.7c0.7,0,1.1,0.6,2.3,2.6c2.2,3.6,1.5,4.4,3.2,6.7c0.3,0.3,0.5,0.7,0.4,1c-0.2,0.8-2.2,0.4-4.8,1.2
	c-2.6,0.7-3.6,2-4.1,1.6c-0.6-0.6,1.6-2.5,1.5-5.5c-0.1-2-1.2-2.5-0.9-4.4C134.2,45.4,135.2,43.7,136.2,43.7z"/>
<path class="st21" d="M132.9,56.2c0-0.3,1.9-0.1,4.5-1.2c2.2-0.9,2.3-2.1,4.4-2.6c1.3-0.4,1.5,0,3.1-0.3c2.6-0.5,3.8-1.8,4-1.5
	c0.3,0.4-2,3.8-5.8,5.2c-1.7,0.7-3.3,0.8-4.8,0.9C135.5,56.8,132.9,56.5,132.9,56.2z"/>
<path class="st22" d="M101.9,50.5c0.5-0.8,1.7-0.5,6.2-0.6c0.7,0,2.6-0.1,2.6-0.1l0,0c0,0,2.9-0.2,6.1-0.7c1.2-0.2,1.9-0.3,3.2-0.4
	c0.9-0.1,1.4-0.1,2.4-0.1c1.4,0,2.1,0,2.4,0.2c0.3,0.3,0.5,1.3,0.9,3.3c0.1,0.6,0.2,1.1,0.2,1.7c0.1,1,0.1,1.5,0,1.7
	c-0.5,1.1-3.3,0-7.5,0.5c-2.5,0.3-4.9,1.2-6.8,1.3c-0.2,0-1,0.1-2.2,0.2c-0.7,0.1-0.7,0.1-1.1,0.1c-0.7,0.1-1.1,0-2.2,0.1
	c-0.2,0-0.4,0-0.5,0c-2.6,0.2-3.9,0.2-4.2-0.3c-0.1-0.1-0.1-0.5-0.1-1.4c0-0.6,0-0.9,0-1.2c0-1.1,0.3-1.4,0.4-2.5
	C101.9,50.9,101.6,50.9,101.9,50.5z"/>
<path class="st23" d="M128.4,49.8c-0.8,0.7-0.2,1.7-0.9,4.9c-0.5,2.3-1.1,2.8-0.7,3.3c0.8,1.2,3.5-0.6,8.3,0c2.3,0.3,3.9,1,4.5,0.1
	c0.3-0.3,0.1-0.7,0.1-2.8c0-2.2,0.2-2.2,0-2.6c-0.4-0.9-1.4-1.3-5.5-2.3C129.4,49.4,128.8,49.4,128.4,49.8z"/>
<path class="st24" d="M133.6,58.9c-4-0.1-7.8-1-11.8-2c-2.6-0.7-3.4-1.1-4.4-0.6c-1.7,1-2.3,4.3-1,6.3c0.3,0.5,0.7,0.9,3.3,2.2
	c4,2,4.6,1.8,7.1,3.2c2.8,1.5,3.1,2.3,4.1,2c1.3-0.3,1.2-1.8,3.5-6.1c1.3-2.4,2.2-3.5,1.7-4.3C135.8,58.9,134.7,58.9,133.6,58.9z"/>
<path class="st24" d="M143.3,56.8c-1.5,0.5-1.4,1.7-3.6,2.9c-1.9,1-3.3,0.9-3.3,1.5c-0.1,0.6,1.3,1,3.5,2c5,2.3,5.1,3.2,6.7,3.1
	c1.7-0.2,1.5-1.3,5.2-3.2c2.3-1.2,3.3-1.3,3.3-1.9c0-0.8-1.8-1-6.5-2.9C145.2,56.9,144.5,56.4,143.3,56.8z"/>
<path class="st25" d="M136.1,62c0.6-0.5,1.7,0.2,3.7,1.2c4.8,2.3,6.4,2.4,6.6,3.6c0.1,0.5-0.4,1.2-1.3,2.8c-1,1.7-1.6,2.6-2.2,2.7
	c-0.8,0.2-1.1-0.7-3.6-2.5c-1.8-1.3-2.4-1.4-2.8-2.4c-0.3-0.6-0.4-1.3-0.5-2.6C135.8,63.1,135.8,62.4,136.1,62z"/>
<path class="st26" d="M146.6,65.9c0.4-0.5,0.8-0.4,1.8-0.9c0.6-0.3,1-0.6,1.8-1.2c2.9-2,4.3-3,4.7-2.7c0.2,0.1,0.2,0.7,0.1,1.7
	c-0.1,1.1-0.1,1.7-0.7,2.2c-0.2,0.2-0.4,0.3-0.9,0.4c-0.6,0.2-1,0.3-1.4,0.4c-0.5,0.1-0.9,0.1-1,0.1c-1.7,0-6.6,4.7-6.8,4.6
	c-0.1-0.1,0.9-0.8,1.5-2.3C146.2,67,146,66.5,146.6,65.9z"/>
<path class="st25" d="M151.9,63.9"/>
<path class="st27" d="M122.9,69.1c-1.3-0.2-2,3.2-7.1,11.5c-3.7,6.1-5.6,8.7-5.6,8.7c-2.8,4.1-5.1,6-4.6,6.7
	c0.7,0.9,5.5-1.3,7.4-2.4c4.9-2.8,7.4-6.4,8-7.2c1.3-1.8,3.1-4.6,3.6-8.6C125.1,74.1,124.4,69.3,122.9,69.1z"/>
<path class="st28" d="M105.7,95.2c0.4,0.1,0.9-0.3,5.3-7c2.4-3.7,3.9-6.1,4.9-7.7c0.8-1.3,1.8-2.7,3.1-4.8c3.6-5.7,3.7-6.2,3.5-6.5
	c-0.9-1.4-7.1-0.2-11.5,3.4c-0.5,0.4-3.3,2.7-5.1,7.1C102.9,86.6,103.9,94.9,105.7,95.2z"/>
<path class="st29" d="M119,75.2c-0.6-0.2-1.1,2.3-4,6.3c-2,2.8-3.7,4.1-3.3,4.7c0.3,0.6,2,0.2,3.1-0.3c2-0.9,3-2.7,3.4-3.5
	C119.8,79.3,119.7,75.4,119,75.2z"/>
<path class="st30" d="M119,75.7c-0.5-0.8-2.8-0.4-4.4,0.4c-2,1.1-2.8,3.1-3.1,3.7c-0.9,2.4-0.7,5.6,0.2,5.8c0.6,0.2,1.1-1.1,4.1-5.1
	C118.3,77.2,119.3,76.3,119,75.7z"/>
<path class="st28" d="M121,60.9c-0.8,0.6-0.4,2-0.2,4.3c0.2,1.6,0.1,4.8,0,11.2c-0.1,7.1-0.2,10.6-0.4,11.6c-0.3,1.3-0.7,2.8,0,3.4
	c1,0.9,3.9-0.7,5.6-2.2c2.3-1.9,3.2-4.3,3.9-6.1c0.8-2.1,2.3-6,1.4-10.9c-0.3-1.3-0.9-4.8-3.7-7.7C125.7,62.2,122.3,59.9,121,60.9z"
	/>
<path class="st30" d="M121.8,69.1c-1,0.4-0.1,2.8-0.6,8c-0.3,3.1-0.9,4.7-0.2,5c0.7,0.4,2.4-1.1,3.3-2.2c1.4-1.8,1.5-3.7,1.5-4.4
	c0-0.8,0.1-2.4-0.9-4C124.3,70.5,122.7,68.8,121.8,69.1z"/>
<path class="st19" d="M102.5,53c1.9-1.5,3.4-0.6,9.1-0.9c2-0.1,6.2-0.4,11-0.2c0.9,0,2.4,0.1,3.2,1.2c0.5,0.7,0.6,1.8,0.1,2.5
	c-0.9,1.2-2.8,0.2-6.5,0.3c-3.2,0.1-2.9,0.9-8.3,1.5c-1.6,0.2-0.6,0-5.5,0.4c-3.6,0.3-4.5,0.4-5-0.1C99.9,56.8,100.9,54.4,102.5,53z
	"/>
<path class="st31" d="M80.5,90.8c-1.3,0.4-0.9,2-0.8,2.6c0.7,2.9,5,6,7.9,5.6c1.7-0.2,2.5-1.6,2.6-1.7c0.9-1.7-1.5-3.3-2.8-4.2
	C85.7,91.9,82.2,90.2,80.5,90.8z"/>
<path class="st31" d="M83.4,98.2c-2.1-0.1-3.9-0.2-5.3,1c-0.1,0.1-1.4,1.3-1.2,2.9c0.3,1.5,1.9,2.4,2.3,2.6c3,1.6,7.9,0.7,9.7-1.8
	c0.2-0.3,1.2-1.6,0.7-2.7C88.9,98.4,85.4,98.3,83.4,98.2z"/>
<path class="st32" d="M90.4,98.5c-1.1,1.5-2,2.6-2.5,4.3c-0.4,1.3-0.7,2.4-0.3,3.7c0.5,1.7,2.2,3.1,3.7,3c2.4-0.3,3.8-4.5,3.4-7.6
	c-0.3-2.3-1.6-4.9-2.8-4.8C91.6,97,91.2,97.5,90.4,98.5z"/>
<path class="st31" d="M103.4,117.5c1.1-0.9,2.1-1.6,1.2-3.7c-0.1-0.1-1-2.3-3.2-4.3c-2.1-1.9-4-2.2-4.4-2.3
	c-3.4-0.6-4.5,2.8-2.2,6.9c0.3,0.5,1.5,2.6,3.2,3.8C100.5,119.8,102.4,118.4,103.4,117.5z"/>
<path class="st31" d="M104.1,92c-1.3,1.6-2.2,2.8-2.8,4.8c-0.4,1.5-0.8,2.7-0.4,4c0.6,1.9,2.5,3.5,4.2,3.3c2.7-0.3,4.3-5,3.9-8.4
	c-0.3-2.5-1.8-5.4-3.2-5.3C105.4,90.4,105,90.9,104.1,92z"/>
<path class="st32" d="M114.4,90.8c-0.6,0.1-3.7,0.5-4.8,3.9c-0.1,0.3-0.7,2.2-0.2,3.9c1,3.2,4.8,2.5,5.1,2.4
	c2.9-0.6,6.1-3.9,5.9-6.5C120.2,91.9,116.8,90.5,114.4,90.8z"/>
<path class="st32" d="M100.1,99.3c-2.6-0.2-6.6,5.4-4.8,9.3c0.7,1.5,2.4,3.2,4.3,3c2.4-0.2,3.8-3.3,4-5.3
	C104,103.1,102.1,99.4,100.1,99.3z"/>
<path class="st33" d="M82.3,116.8c-1.5-0.1-4.5-0.4-5.3-2.7c-0.9-2.6,1.3-6.8,3.9-8.2c4.5-2.3,10.6,3.8,10.2,7
	C90.8,115.6,85.8,117,82.3,116.8z"/>
<path class="st34" d="M78.9,113.2c-1,0.9-2.4,2.2-2.8,4.3c-0.4,2.1,0.2,5.1,2.2,6c2.7,1.3,6.9-1.9,8.8-5.1c1.5-2.5,2.5-6.6,0.6-8
	C85.7,108.8,81.2,111.1,78.9,113.2z"/>
<path class="st34" d="M109.8,100.7c-2.1-1.4-6.2,2-7.5,6.1c-0.1,0.3-1.3,4.5,0.4,6.4c1.7,1.8,5.3,0.6,7.1-1.9
	C112.2,108,111.9,102,109.8,100.7z"/>
<path class="st32" d="M86.6,117.9c-1.4,1.6-2.4,2.8-3,4.7c-0.5,1.5-0.9,2.6-0.4,4c0.7,1.9,2.7,3.4,4.6,3.3c2.9-0.3,4.6-4.9,4.2-8.4
	c-0.3-2.5-1.9-5.3-3.4-5.3C88,116.2,87.5,116.8,86.6,117.9z"/>
<path class="st34" d="M89.4,112.9c-0.3,2.1-0.5,3.6-0.1,5.5c0.4,1.4,0.7,2.6,1.8,3.4c1.5,1.1,4.1,1.2,5.6,0.1c2.3-1.8,1.3-6.5-0.9-9
	c-1.6-1.8-4.4-3.2-5.7-2.3C89.7,110.8,89.6,111.5,89.4,112.9z"/>
<path class="st35" d="M93.4,65c-0.1-0.7,2.3-1.8,4.4-2c2.7-0.2,4.7,0.9,7.8,2.7c2.2,1.3,6.5,3.7,6,5.7c0,0.2-0.7,0.9-2,2.3
	c-0.9,1-1.2,1.3-1.6,1.2c-0.6-0.1-0.8-1.2-1.1-1.9c-0.6-1.9-2-2.9-4.1-4.6C98.8,65,93.5,66.1,93.4,65z"/>
<path class="st35" d="M84.3,74.5c-0.1-1.1,3.5-2.7,6.6-3.1c2.6-0.3,4.6,0.3,5.2,0.5c4.2,1.4,6.3,4.9,6.9,5.8
	c3.6,6.2,1.4,14.3,0.1,14.4c-1.5,0.1-0.5-9.5-6.9-14.1C91,74.3,84.5,76,84.3,74.5z"/>
<path class="st35" d="M77.2,84.4c0.2-0.9,4.1-1.1,7.6-0.3c4.3,1,6.9,3.3,10.4,6.4c1.1,1,5,4.5,4.3,6c-0.1,0.3-0.7,0.6-1.8,1.2
	c-1.1,0.6-1.6,0.9-1.9,1c-1.9,0.4-2.9-4.8-7.3-8c-1.4-1-1.2-0.4-7.4-3.7C77.7,85.2,77.2,84.8,77.2,84.4z"/>
<path class="st24" d="M133.9,69.7c-0.1,0.3-0.5,2.1-0.9,3.4c-0.5,1.5-1,2.6-1.9,4.3c-1.9,3.8-2.9,4.6-2.5,5.5
	c0.4,0.7,1.1,0.4,3.7,1.2c2.7,0.9,3,1.6,3.8,1.3c1.3-0.5,0.7-2.7,2.4-7.2c0.6-1.5,1.3-3.1,1.5-3.6c1.5-3.2,2.3-4.1,1.9-5
	c-0.2-0.5-0.6-0.5-3.5-2c-2.5-1.2-3-1.6-3.5-1.3C134.4,66.5,134.4,67.1,133.9,69.7z"/>
<path class="st36" d="M93.8,68.3c0.2-0.1,0.4-0.2,0.4-0.1s-0.1,0.3-0.3,0.4c-0.2,0.1-0.4,0-0.4,0C93.4,68.4,93.6,68.3,93.8,68.3z"/>
<path class="st36" d="M94.1,68.8"/>
<path class="st36" d="M93.1,70.4L93.1,70.4c0.1,0.2,0.5-0.3,0.5-0.3S93.2,70.2,93.1,70.4z"/>
<path class="st36" d="M95.8,69.5c0-0.1,0.4,0,0.4,0.1c0,0-0.1,0.1-0.2,0.1C95.9,69.7,95.8,69.6,95.8,69.5z"/>
<path class="st36" d="M97.6,68.7c0,0,0.3-0.1,0.4,0s0,0.3-0.1,0.3c0,0,0-0.1-0.1-0.2C97.7,68.7,97.6,68.7,97.6,68.7z"/>
<path class="st36" d="M101.3,71.7c0,0-0.2,0.2-0.1,0.4c0.1,0.2,0.3,0.2,0.3,0.2s-0.1-0.1-0.2-0.3C101.3,71.8,101.3,71.7,101.3,71.7z
	"/>
<path class="st36" d="M98.1,71.3c0,0,0.1,0,0.3,0c0.3,0,0.3,0,0.3,0.1s-0.2,0.2-0.4,0.1C98.2,71.5,98.1,71.3,98.1,71.3z"/>
<g class="st37">
	<rect x="25.7" y="207.4" class="st38" width="206" height="44.6"/>
	<path class="st39" d="M42.5,211.8c0.1,0.5,0.1,1.1,0.1,2.1c0,0.6,0,1.9,0,3.8c0,2,0,3.4,0,4.3c0.3-0.2,0.6-0.3,0.9-0.3
		s0.9-0.2,1.8-0.4c0.3-0.1,0.5-0.2,0.7-0.2c0.3,0,0.5,0.2,0.7,0.5c0,0.1,0.1,0.2,0.1,0.3c0,0.2-0.1,0.3-0.4,0.3
		c-0.3,0-0.6,0-0.9,0.1c-0.7,0-1.2,0-1.7,0c-0.4,0-0.8,0.2-1.2,0.5c0,1.9,0,3.1-0.1,3.7c0,0.6-0.2,1.3-0.4,2
		c-0.1,0.6-0.3,0.8-0.5,0.8s-0.2-0.2-0.2-0.6c0.1-0.4,0.2-0.8,0.3-1.2c0,0,0-0.1,0-0.3s0-0.5,0-0.8s0-0.6,0-1v-4.2
		c-1.2,0.2-2.5,0.4-3.7,0.6c-1.3,0.2-2.2,0.4-2.8,0.6c-0.2,0.1-0.4,0.1-0.6,0.2c-0.2,0-0.3,0.1-0.4,0.1c-0.3,0-0.6-0.2-0.9-0.5
		c-0.4-0.4-0.6-0.7-0.6-1c0-0.1,0-0.2,0.1-0.4s0.2-0.3,0.3-0.4c0.8-1.1,1.7-2.2,2.5-3.4c-0.6,0-1.1,0-1.7,0.1
		c-0.6,0.1-1.1,0.2-1.5,0.3c-0.3,0-0.6-0.1-0.9-0.2c-0.1,0-0.2-0.1-0.4-0.1c-0.2-0.1-0.3-0.2-0.3-0.3c0-0.2,0.1-0.3,0.4-0.3
		c0.1,0,0.3,0,0.6,0c0.2,0,0.4,0.1,0.6,0.1c0.1,0,0.3,0,0.4,0c0.1,0,0.3,0,0.5,0c0.8-0.1,1.6-0.2,2.5-0.4c1.4-0.3,2.1-0.4,2.2-0.4
		c0.3,0,0.4,0.1,0.4,0.4c0,0.2-0.1,0.4-0.4,0.5c-0.4,0.2-0.8,0.4-1,0.6c-0.3,0.3-0.8,0.8-1.4,1.5c-0.6,0.7-1,1.3-1.5,1.8
		c-0.2,0.3-0.3,0.6-0.3,0.7c0,0.1,0.1,0.2,0.2,0.4c0.2,0.1,0.3,0.2,0.5,0.2c0.1,0,0.4,0,0.6-0.1c2.3-0.4,4.5-0.8,6.8-1.2l-0.1-7.4
		c0-1.1-0.3-1.9-1-2.4c-0.5-0.4-0.8-0.7-0.8-0.8s0.1-0.1,0.3-0.1c0.3,0,0.9,0.3,1.6,0.9C42.2,210.9,42.4,211.3,42.5,211.8z"/>
	<path class="st39" d="M61.8,216.4c0.5,0.6,0.8,1.4,0.8,2.3c0,0.3,0,0.5-0.1,0.8c-0.2,0.9-0.5,1.7-1.1,2.2s-1.2,0.8-2,0.8
		s-1.7-0.3-2.5-0.9c-0.6-0.4-1.1-0.9-1.4-1.3c-0.3-0.5-0.4-0.9-0.4-1.4c0-0.9,0.4-1.6,1.3-2.3c0.1-0.1,0.2-0.2,0.3-0.3
		s0.1-0.2,0.1-0.3s-0.1-0.3-0.2-0.6c-0.1-0.3-0.2-0.5-0.2-0.7c0-0.3,0.2-0.5,0.3-0.5c0.2,0,0.4,0.1,0.6,0.4c0.4,0.6,0.7,1,0.9,1.3
		s0.3,0.5,0.3,0.7c0,0.1-0.1,0.2-0.2,0.4c-0.1,0-0.2,0.1-0.2,0.1c-0.1,0-0.3,0-0.5,0s-0.4,0-0.5,0.1c-0.2,0.1-0.4,0.2-0.5,0.5
		c-0.2,0.4-0.3,0.7-0.3,1s0.1,0.7,0.3,1s0.6,0.7,1.1,1c0.8,0.5,1.5,0.7,2.1,0.7c0.8,0,1.4-0.3,1.8-1c0.2-0.4,0.3-0.8,0.3-1.3
		s-0.1-1-0.3-1.5s-0.5-0.9-0.9-1.2c-0.2-0.1-0.4-0.2-0.7-0.2c-0.2,0-0.4,0-0.7,0s-0.4-0.2-0.4-0.5c0-0.4,0.4-0.5,1.3-0.5
		C60.7,215.4,61.3,215.7,61.8,216.4z M67.3,211.6c0,0.1,0.1,0.3,0.1,0.6c0.1,0.3,0.2,0.6,0.3,0.9c0.1,0.3,0.2,0.7,0.2,1.3
		c0,1.5,0,3.4,0,5.6c0,2.2,0,3.9,0,4.9v0.5c0,0.3,0,0.5,0,0.6c0,0.2-0.1,0.3-0.1,0.5s-0.1,0.3-0.1,0.4c0,0.1,0,0.3,0,0.5
		s0,0.4-0.1,0.6s-0.2,0.3-0.4,0.3c-0.2,0-0.3-0.4-0.3-1.1c0-0.5,0-1.7-0.1-3.5s-0.1-3.4-0.1-4.9s0-3,0-4.5c0-0.2,0-0.5-0.1-0.8
		s-0.2-0.5-0.2-0.6c-0.1-0.2-0.2-0.5-0.3-0.9c-0.2-0.3-0.6-0.7-1.2-1.2c-0.2-0.1-0.4-0.3-0.4-0.4c-0.1-0.1-0.1-0.2,0-0.3
		s0.2-0.1,0.3-0.1c0.3,0,0.9,0.3,1.9,0.9C67,211.1,67.2,211.3,67.3,211.6z"/>
	<path class="st39" d="M79.4,214.6c0-0.2,0.1-0.3,0.2-0.3s0.2,0,0.3,0.1c0.1,0.1,0.2,0.2,0.2,0.3l1.4,2.1c0.1,0,0.2,0,0.4,0
		c0.1,0,0.2,0,0.4,0c0.8,0,1.5,0.2,1.9,0.6c0.4,0.4,0.8,1,1.1,1.8c0.8-0.2,1.4-0.3,2-0.5c0.9-0.2,1.7-0.5,2.2-0.6c0-0.6,0-1.1,0-1.6
		s0-1,0-1.5c0-0.6,0-1.2,0-1.8s-0.1-1.2-0.2-1.7s-0.4-1-1.1-1.3c-0.1-0.1-0.3-0.2-0.3-0.4s-0.1-0.3-0.1-0.4c0-0.1,0.1-0.2,0.2-0.2
		s0.3,0.1,0.6,0.2c0.6,0.3,1,0.6,1.4,0.9c0.4,0.4,0.6,0.9,0.6,1.6c0,1.2,0,2.9,0,5.2c0,2.2-0.1,4.5-0.1,6.7s0,4,0,5.2
		c0,0.3,0,0.6-0.1,0.8s-0.2,0.3-0.3,0.3c-0.2,0-0.3-0.4-0.3-1.1c0-1.7,0-3.4,0-5.1c0-1.7,0-3.2,0-4.6c-0.4,0-1,0.1-2,0.3
		c-0.9,0.2-1.7,0.3-2.3,0.5c0,1.2-0.3,2.2-1,2.9c-0.6,0.7-1.4,1.1-2.4,1.1c-0.3,0-0.6,0-0.9-0.1s-0.6-0.2-0.9-0.3
		c-0.6-0.3-1.2-0.8-1.7-1.4c-0.6-0.7-0.8-1.4-0.8-2.1c0-0.1,0-0.3,0-0.5c0.2-0.6,0.4-1.1,0.8-1.5s0.9-0.8,1.7-1.1
		c0-0.2-0.1-0.4-0.2-0.7s-0.3-0.6-0.5-1.1C79.4,214.9,79.4,214.8,79.4,214.6z M79.2,218.5c-0.4,0.4-0.6,0.9-0.6,1.5
		c0,0.7,0.3,1.3,0.8,1.9c0.4,0.4,0.8,0.7,1.2,0.9c0.4,0.2,0.8,0.3,1.2,0.3c0.4,0,0.8-0.1,1.1-0.3s0.6-0.5,0.9-0.9
		c0.4-0.7,0.6-1.4,0.6-2c0-0.7-0.2-1.2-0.7-1.6c-0.5-0.4-1.1-0.6-2-0.6c-0.1,0-0.2,0.1-0.3,0.1c-0.1,0.1-0.2,0.1-0.4,0.1
		c-0.1,0-0.2,0-0.4-0.1C80.1,217.9,79.5,218.1,79.2,218.5z"/>
	<path class="st39" d="M100.5,225.6c0.2,0,0.3,0,0.5,0c0.1,0,0.6-0.1,1.4-0.2c0.8-0.1,1.7-0.2,2.7-0.2c1.2-0.1,2.4-0.3,3.6-0.4
		c1.2-0.1,2.6-0.2,4.3-0.2c0.4,0,0.9,0,1.6,0s1.2,0,1.5,0c0.6,0,1.1,0,1.5,0.1c0.5,0,0.8,0.1,1,0.3c0.2,0.1,0.3,0.3,0.3,0.5
		s-0.2,0.3-0.5,0.3c-0.1,0-1-0.1-2.9-0.2c-0.8-0.1-1.9-0.1-3.2-0.1c-1.4,0-2.9,0.1-4.4,0.3s-2.5,0.3-3.1,0.3c-1,0-2,0.1-3,0.3
		c-0.4,0.1-0.6,0.1-0.8,0.1c-0.3,0-0.8-0.1-1.2-0.3c-0.2-0.1-0.3-0.2-0.3-0.3c0-0.2,0.2-0.3,0.6-0.2
		C100.1,225.6,100.3,225.6,100.5,225.6z M106,213.4c0.2,0,0.4,0,0.7,0c0.3,0,0.7,0,1.1-0.1s0.9-0.2,1.5-0.3c0,0,0.5-0.1,1.5-0.4
		c0.5-0.1,0.9-0.2,1.2-0.2c0.2,0,0.4,0,0.7,0.1c0.2,0.1,0.4,0.2,0.4,0.4c0,0.3-0.2,0.5-0.6,0.5c-0.3,0-0.8,0-1.5,0.1
		c-0.8,0.2-1.5,0.3-2.3,0.5c-0.2,0-0.4,0.1-0.6,0.2c-0.1,0-0.3,0-0.5,0s-0.5,0-0.9-0.1s-0.8-0.2-1.2-0.2c-0.4,0-0.5-0.2-0.5-0.3
		c0-0.2,0.2-0.2,0.5-0.2C105.6,213.4,105.8,213.4,106,213.4z M106.5,217.1c0.3,0,0.8-0.1,1.4-0.2c0.3-0.1,0.7-0.2,1.3-0.3
		c0.4-0.1,0.7-0.2,1.1-0.4c0.7-0.2,1.4-0.3,1.9-0.3c0.1,0,0.3,0.1,0.4,0.2c0.1,0.1,0.2,0.2,0.2,0.4s-0.2,0.3-0.5,0.3
		c-0.7,0.2-1.3,0.5-1.8,0.7c-0.5,0.3-1.1,0.8-2,1.5c-0.1,0.1-0.3,0.3-0.7,0.7s-0.6,0.7-0.6,0.9c0,0.4,0.4,0.5,1.3,0.5
		c0.4,0,0.8,0,1.4-0.1c0.5-0.1,1.1-0.2,1.8-0.4c0.3-0.2,0.6-0.2,0.9-0.2c0.2,0,0.4,0,0.5,0.1s0.2,0.2,0.2,0.3s-0.1,0.3-0.4,0.5
		c-0.4,0.1-1,0.3-1.8,0.4c-0.7,0.1-1.5,0.2-2.2,0.2c0,0-0.1,0-0.2,0h-0.3c-0.9,0-1.5-0.3-1.8-0.8c-0.1-0.2-0.1-0.4-0.1-0.5
		c0-0.4,0.8-1.5,2.4-3c-0.4,0-0.8,0.1-1.2,0.2c-0.4,0.1-0.7,0.2-0.8,0.2c-0.3,0-0.8-0.1-1.4-0.4c-0.2,0-0.2-0.1-0.2-0.3
		s0.1-0.2,0.4-0.2h0.1c0,0,0.1,0,0.2,0C106.1,217.1,106.3,217.1,106.5,217.1z"/>
	<path class="st39" d="M131.1,212.3c0-0.2,0-0.3,0.1-0.3s0.3,0.2,0.5,0.6c0.3,0.6,0.5,1,0.6,1.2c0.1,0.3,0.2,0.5,0.2,0.6
		s-0.1,0.3-0.2,0.5c-0.1,0.1-0.2,0.2-0.2,0.3l-0.8,1.2c0.6,0.2,1.2,0.5,1.5,0.7c0.4,0.2,0.8,0.4,1.2,0.7c0.2,0.3,0.3,0.5,0.3,0.6
		c0,0.2-0.1,0.3-0.2,0.3c-0.2,0-0.4-0.1-0.7-0.3c-0.3-0.3-0.7-0.6-1.2-0.9c-0.6-0.3-1-0.5-1.3-0.6c-0.6,0.7-1.2,1.2-1.7,1.6
		c-0.7,0.5-1.4,1-2.1,1.2c-0.2,0.1-0.4,0.1-0.5,0.1c-0.2,0-0.3,0-0.3-0.1s0.2-0.3,0.6-0.5c0.7-0.3,1.5-0.8,2.3-1.6
		c0.7-0.7,1.3-1.3,1.7-2c0.2-0.3,0.4-0.6,0.6-0.9c0.1-0.2,0.2-0.4,0.2-0.6c0-0.2,0-0.4-0.1-0.6l-0.3-0.8
		C131.2,212.6,131.1,212.5,131.1,212.3z M136.6,209.6c0-0.1,0.1-0.2,0.2-0.2c0.2,0,0.4,0.1,0.7,0.2c0.7,0.5,1.2,0.9,1.5,1.3
		c0.2,0.2,0.3,0.5,0.3,0.8v0.3v6.2c0,1.7-0.2,2.6-0.5,2.6s-0.5,0.1-0.6,0.2c-0.2,0.2-0.5,0.4-0.7,0.6c-0.4,0.3-0.7,0.5-1,0.7
		c-0.2,0.1-0.3,0.2-0.3,0.2l0.1,0.1c0.2,0,0.7-0.1,1.6-0.2h0.2c0.4,0,0.6,0.1,0.8,0.3s0.3,0.4,0.3,0.7c0,0.2,0.1,0.5,0.1,0.8
		s0,0.6,0,0.9v0.3v0.3v0.4v0.9v1.1c0,0.3,0,0.6-0.1,0.8s-0.1,0.4-0.3,0.6c-0.3,0.4-0.5,0.6-0.6,0.6s-0.2-0.1-0.2-0.3
		s0.1-0.4,0.2-0.6c0.1-0.1,0.1-0.3,0.1-0.4c0-0.1,0-0.3,0-0.6s0-0.5,0-0.9c0-0.3,0-0.7,0-1c0-0.2,0-0.7,0-1.2c0-0.6-0.1-1-0.1-1.1
		c0-0.3,0-0.5-0.1-0.6s-0.3-0.2-0.6-0.2c0,0-0.1,0-0.3,0c-0.1,0-0.4,0-0.7,0.1c-0.3,0-0.9,0.1-1.6,0.3c-0.7,0.2-1.4,0.4-2,0.6
		c-0.1,0-0.2,0-0.3,0c-0.3,0-0.5,0-0.7-0.1c-0.2,0-0.3-0.1-0.3-0.2c0-0.1,0.1-0.1,0.3-0.2c0.2-0.1,0.4-0.2,0.7-0.3
		c0.4-0.1,0.9-0.2,1.5-0.5s1.2-0.6,1.8-0.9c0.4-0.2,0.8-0.5,1.2-0.7c0.4-0.3,0.7-0.5,1-0.7c0.1-0.1,0.2-0.2,0.3-0.3s0.1-0.2,0.1-0.4
		s0-1.1,0-2.5l-0.1-4.8c0-0.3-0.1-0.7-0.2-1c-0.2-0.5-0.6-1-1.1-1.2C136.7,210,136.6,209.8,136.6,209.6z"/>
	<path class="st39" d="M166.3,213.4c0.3,0,0.5-0.1,0.6-0.1c0.2,0,0.4,0.1,0.7,0.4c0.1,0.2,0.2,0.3,0.3,0.5c0,0.1,0.1,0.2,0.1,0.4
		c0,0.1,0,0.2,0,0.5c0,0.2,0,0.5,0,0.7s0,0.4,0,0.4c0,0.1,0,0.2,0,0.4s-0.1,0.4-0.2,0.6c-0.1,0.3-0.2,0.4-0.3,0.5
		c-0.2,0-0.4,0.1-0.6,0.1c-0.7,0.6-1.4,1.3-1.9,2c-0.7,0.9-1,1.5-1.1,1.9s-0.1,0.6-0.1,0.8c0,0.3,0.1,0.4,0.3,0.4
		c0.1,0,0.3,0,0.4-0.1c0.2-0.1,0.7-0.3,1.4-0.7c1-0.5,1.7-0.8,2-1.1c0.1-0.1,0.3-0.2,0.4-0.2c0.2,0,0.3,0.1,0.3,0.2
		c0,0.2-0.1,0.4-0.3,0.5c-0.4,0.4-1.1,0.8-2,1.2c-0.7,0.4-1.4,0.6-2,0.9c-0.3,0.1-0.5,0.2-0.5,0.2c-0.1,0-0.3-0.1-0.5-0.4
		c-0.2-0.3-0.3-0.6-0.3-0.8s0-0.4,0.1-0.7c0.3-0.6,0.7-1.3,1.1-1.9c0.3-0.5,0.8-1.1,1.3-1.8c-0.6,0.2-1,0.3-1.4,0.4
		c-0.4,0.1-0.7,0.1-0.9,0.1s-0.5-0.1-0.7-0.2c-0.2-0.1-0.3-0.2-0.3-0.4s0.2-0.3,0.6-0.2c0,0,0.1,0,0.2,0c0.5,0,1.7-0.3,3.7-0.9
		c0.1-0.1,0.2-0.3,0.2-0.4s0.1-0.3,0.1-0.4c0-0.1,0-0.2,0-0.5s0-0.4,0-0.5c0-0.2,0-0.3,0-0.4c0-0.3,0-0.4-0.1-0.5s-0.2-0.1-0.5-0.1
		c-1.7,0.4-2.8,0.5-3.1,0.5c-0.1,0-0.3,0-0.6,0c-0.3-0.1-0.5-0.2-0.5-0.4s0.2-0.3,0.6-0.3L166.3,213.4z M171.3,214
		c0,0.4,0,0.7,0.1,1c0,0.6,0,1.7,0.1,3.3s0.1,2.7,0.1,3.3s-0.1,0.9-0.4,0.9c-0.2,0-0.4-0.3-0.4-0.8s0-1.1,0-1.7c0-0.6,0-1,0-1.2
		c-0.3,0.1-0.5,0.2-0.8,0.3s-0.6,0.2-0.8,0.2s-0.5-0.1-0.8-0.2c-0.3-0.1-0.4-0.3-0.4-0.5s0.2-0.3,0.6-0.2c0.2,0,0.3,0.1,0.5,0.1
		s0.4,0,0.7-0.1c0.6-0.2,0.9-0.3,1.1-0.3c0-1.3,0-2.3-0.1-3.1c0-0.4-0.1-0.7-0.1-0.8s-0.2-0.2-0.4-0.4c-0.2-0.1-0.3-0.2-0.3-0.4
		s0.1-0.3,0.4-0.3c0.1,0,0.2,0,0.3,0s0.2,0.1,0.3,0.1C171,213.6,171.2,213.8,171.3,214z M174.8,210.6c0.2,0.3,0.4,0.8,0.5,1.7
		c0.3,2.9,0.4,7.5,0.4,13.7c0,0.3,0,0.6-0.1,0.9c-0.1,0.3-0.2,0.4-0.4,0.4s-0.3-0.3-0.3-0.9c0-1.8,0-3.8,0-5.8s-0.1-3.8-0.2-5.4
		c-0.1-1.6-0.3-2.8-0.5-3.6c-0.1-0.3-0.3-0.6-0.4-0.7s-0.4-0.3-0.8-0.4c-0.3-0.2-0.5-0.3-0.5-0.5s0.2-0.3,0.5-0.3
		c0.1,0,0.3,0,0.5,0.1C174.1,210.1,174.6,210.3,174.8,210.6z"/>
	<path class="st39" d="M190.2,212.6c0-0.1,0-0.2,0.1-0.2s0.2,0,0.3,0.1s0.3,0.2,0.4,0.4c0.4,0.6,0.6,1,0.7,1.3
		c0.1,0.3,0.2,0.6,0.2,0.8s0,0.3-0.1,0.4c-0.1,0.1-0.2,0.2-0.3,0.3c-0.5,0.7-0.9,1.4-1.4,2.2c0.1,0.2,0.8,0.7,2,1.3
		c0.6,0.3,1,0.6,1.2,1c0.2,0.2,0.3,0.4,0.3,0.6c0,0.3-0.1,0.4-0.4,0.4c-0.2,0-0.4-0.1-0.6-0.4c-0.1-0.2-0.4-0.5-0.8-0.9
		c-0.5-0.4-1.2-0.9-2.1-1.6c-0.7,0.9-1.4,1.6-2.2,2.3c-0.9,0.8-1.8,1.4-2.7,1.7c-0.1,0-0.2,0-0.3,0c-0.2,0-0.3,0-0.3-0.1
		s0.2-0.3,0.5-0.5c0.7-0.3,1.5-0.8,2.2-1.4c0.6-0.5,1.2-1.2,1.8-2c0.4-0.4,0.7-0.8,1.1-1.3c0.3-0.4,0.6-0.9,0.8-1.4
		c0.2-0.2,0.3-0.5,0.3-0.9s-0.1-0.9-0.4-1.3C190.3,213.2,190.2,212.9,190.2,212.6z M196.6,210.4c0-0.1,0.1-0.2,0.2-0.2
		s0.3,0.1,0.6,0.2c0.3,0.2,0.6,0.5,1,0.7c0.3,0.2,0.6,0.6,0.7,1.2c0.1,0.4,0.2,0.8,0.2,1.3s0.1,1.4,0.1,2.5v1.4c0,0.6,0,2-0.1,4.2
		s-0.1,3.7-0.1,4.7s-0.1,1.5-0.4,1.5s-0.4-0.5-0.4-1.4v-8.2c0-0.9,0-1.8,0-2.9c0-1.1-0.1-1.9-0.1-2.4c-0.1-0.7-0.3-1.1-0.5-1.4
		c-0.1-0.1-0.4-0.4-0.7-0.7C196.7,210.8,196.6,210.6,196.6,210.4z"/>
	<path class="st39" d="M218.1,217.8c0,0.2-0.1,0.5-0.4,0.9c-0.4,0.6-0.9,1.1-1.4,1.7c-0.4,0.5-1,1-1.6,1.6c-0.2,0.2-0.4,0.4-0.6,0.6
		v0.1c0,0,0.1,0,0.3,0s0.4-0.1,0.5-0.1c1.2-0.2,2.5-0.4,3.9-0.6s2.6-0.4,3.8-0.6l-0.2-9.1c0-0.2,0-0.4-0.1-0.7c0-0.2-0.2-0.6-0.5-1
		c-0.2-0.3-0.5-0.5-0.7-0.7c-0.2-0.1-0.5-0.3-0.7-0.4c-0.1-0.1-0.2-0.2-0.2-0.3c0-0.3,0.2-0.4,0.5-0.3c0.4,0.1,0.8,0.2,1,0.3
		c0.3,0.1,0.6,0.4,0.9,0.8c0.5,0.5,0.7,0.9,0.8,1c0.1,0.2,0.1,0.5,0.1,1v0.5c0,2.2,0,4.3,0,6.3s0,3.9,0.1,5.7c0,1.8,0,3.4,0,4.6
		c0,0.4-0.1,0.6-0.4,0.6s-0.4-0.2-0.4-0.5c0-0.2,0-1.2-0.1-3s-0.1-3.1-0.1-4c-1.2,0.2-2.6,0.4-4.4,0.6c-1.4,0.2-3,0.5-4.8,0.8
		c-0.3,0.1-0.7,0.2-1.2,0.3c-0.3,0.1-0.5,0.1-0.6,0.1s-0.3-0.1-0.5-0.2c-0.2-0.2-0.3-0.3-0.3-0.4c0-0.1,0.1-0.2,0.4-0.3
		c0.7-0.3,1-0.4,1-0.4c0.4-0.2,0.9-0.5,1.2-0.8c0.6-0.4,1.2-1,1.8-1.5c0.6-0.6,1-1.2,1.5-1.8c0.2-0.3,0.3-0.5,0.3-0.6
		s-0.2-0.2-0.6-0.2c-0.3,0-0.4-0.1-0.4-0.3s0.1-0.3,0.2-0.4s0.4-0.1,0.6-0.1c0.1,0,0.2,0,0.3,0s0.2,0,0.3,0h0.1
		C217.9,217.2,218.1,217.5,218.1,217.8z M211.1,217.1c0.1,0,0.2,0.1,0.4,0.2l0.8,1.2c0.1,0.1,0.2,0.2,0.2,0.2c0.1,0,0.3-0.1,0.6-0.2
		c0.1,0,0.2-0.1,0.2-0.1s0.1,0.1,0.3,0.4c0,0,0.1,0,0.2,0.1s0.2,0.1,0.2,0.1s-0.2,0.2-0.6,0.3c-0.3,0.2-0.5,0.3-0.8,0.5
		c-0.2,0.1-0.3,0.2-0.5,0.2c-0.1,0-0.3-0.1-0.5-0.4c-0.2-0.3-0.3-0.5-0.5-0.8c-0.1-0.3-0.3-0.5-0.4-0.8v-0.1
		C210.7,217.3,210.8,217.1,211.1,217.1z M210.9,214.2c0-0.1,0-0.1,0.1-0.1c0,0,0,0,0.1,0s0.1,0,0.1,0c0.4,0.1,0.7,0.1,1,0.1
		s0.7,0,1.2-0.1s1.2-0.2,2.1-0.4c0.9-0.2,1.4-0.3,1.5-0.3s0.3,0.1,0.5,0.2c0.2,0.2,0.3,0.4,0.3,0.6c0,0.2-0.1,0.4-0.4,0.4
		c-0.7,0.1-1.4,0.2-2.1,0.3c-0.8,0.1-1.6,0.2-2.3,0.2c-0.6,0-1,0-1.2-0.1s-0.4-0.2-0.6-0.4l0,0C211,214.5,210.9,214.3,210.9,214.2z"
		/>
</g>
<g>
	<rect x="44.3" y="195.6" class="st3" width="185.9" height="48"/>
	<path class="st40" d="M63.8,211.5c0.4-0.1,0.7-0.2,0.9-0.2c0.3,0,0.7,0.3,1.1,0.9c0.1,0.3,0.1,0.4,0.1,0.6c0,0.6-1.3,1-3.8,1.2
		c-2.5,0.2-4.3,0.4-5.3,0.7c0.3,0.5,0.5,0.9,0.6,1.2s0.1,0.6,0.1,1.1c-0.1,0.8-0.1,1.6-0.2,2.3c0,0.7-0.1,1.6-0.1,2.6
		c0,0.8,0.1,1.4,0.2,1.7c0.1,0.3,0.5,0.5,1.1,0.5c0.5,0,1.2-0.1,2-0.2c0.8-0.2,2.5-0.4,5-0.8c1.6-0.2,3.2-0.6,4.9-1.1
		c1-0.3,2-0.6,3-0.9c1-0.3,1.8-0.5,2.5-0.5c0-1.3,0-3.3,0-6s0-4.6,0-5.7v-1.4c0-1.2-0.1-2.1-0.3-2.7c-0.2-0.6-0.8-1.4-1.7-2.5
		c-0.5-0.6-0.7-1.2-0.5-1.7c0.1-0.2,0.3-0.2,0.5-0.2c0.3,0,0.7,0.2,1.2,0.5c1.3,1.3,2.1,2.3,2.4,3.1c0.4,0.8,0.5,1.7,0.5,2.8
		c0,0.3,0,0.9,0,1.7c0,0.9,0,1.6,0,2.2c0,1.6,0.1,3.4,0.2,5.5s0.2,3.5,0.2,4.3c0,1.2-0.1,2.3-0.2,3.3c1.7-0.2,3.3-0.4,4.9-0.6
		c2.5-0.4,3.8-0.6,4.1-0.6c0.7,0,1.2,0.4,1.5,1.2l0.1,0.6c0,0.5-0.6,0.8-1.7,0.8c-1,0-2-0.1-2.9-0.1s-1.9-0.1-2.8-0.1H80
		c-0.3,0-0.6,0-0.8-0.1c-0.3-0.1-0.6-0.2-1-0.3c-0.1,0.5-0.1,0.9-0.1,1.4c0,0.4,0,0.9,0,1.4c0,0.7,0,1.4,0,2.1c0,0.7,0,1.4,0,2.1
		c0,1.2,0,2.2-0.1,3.1c-0.1,0.9-0.2,1.9-0.4,3s-0.5,1.5-0.9,1.5s-0.6-0.6-0.5-1.7c0.3-1.2,0.4-2.6,0.4-4.1c0,0-0.1-2.1-0.3-6.1
		c-0.1-1.3-0.1-2.9-0.1-4.6c-0.3-0.1-0.5-0.1-0.7-0.1c-0.5,0-1.3,0.2-2.4,0.5s-1.6,0.5-1.7,0.6c-1.6,0.4-3.3,0.8-5,1.1
		c-2.6,0.4-4.7,0.8-6.5,1.2c-0.8,0.1-1.4,0.3-1.9,0.5s-0.8,0.3-0.9,0.3c-0.2,0-0.5-0.1-1-0.4c-0.4-0.4-0.6-0.7-0.6-1.2
		c0-0.3,0-0.6,0-1s0-0.8,0-1.3c0-3.7-0.1-6-0.4-6.7c-0.3-0.8-1.1-1.2-2.5-1.5c-0.9,0-1.4-0.3-1.4-0.9c0-0.2,0.1-0.4,0.4-0.6
		c0.3-0.2,0.6-0.3,1.1-0.3c1.7,0,3.4-0.1,5.2-0.2c1.8-0.1,3.4-0.3,4.8-0.7C62.9,211.7,63.3,211.6,63.8,211.5z"/>
	<path class="st40" d="M104,210c0.7,0.4,1.3,0.6,2,0.7c1.1,0.5,2,1.3,2.6,2.4c0.6,1.1,0.9,2.3,0.9,3.6c0,1-0.2,2-0.5,2.9
		c-0.5,1.8-1.4,3.1-2.7,4s-2.8,1.3-4.5,1.3c-1.4,0-2.8-0.3-4.1-1c-1.4-0.7-2.5-1.6-3.5-2.8c-0.8-1.1-1.2-2.4-1.2-3.8
		c0-2.1,0.8-4,2.4-5.5c1.7-1.7,4-2.5,6.7-2.5C102.7,209.5,103.4,209.7,104,210z M103.2,212c-0.7-0.3-1.3-0.5-1.7-0.5
		c-0.5,0-1,0.1-1.5,0.3s-1.2,0.6-2.1,1.2c-0.8,0.6-1.4,1.2-1.8,2s-0.6,1.6-0.6,2.5c0,1.4,0.4,2.5,1.3,3.4c1.4,1.4,3,2.1,4.8,2.1
		c1.4,0,2.6-0.4,3.6-1.3c1-0.8,1.7-2.1,1.9-3.7c0.2-0.7,0.2-1.3,0.2-1.8c0-1.7-0.8-2.8-2.4-3.5h-0.1
		C104.4,212.5,103.9,212.3,103.2,212z M115.2,198.4c0-0.4,0.2-0.5,0.6-0.5s0.9,0.2,1.5,0.5c1.5,1.7,2.4,2.9,2.9,3.8
		c0.4,0.9,0.6,2,0.6,3.3c0,0.8-0.1,1.6-0.1,2.5s0,2,0,3.3c0,0.8,0,3.2,0,7s0,6.5,0,8c0,2.4,0,4.5-0.1,6.2c-0.1,1.8-0.3,3.7-0.6,5.8
		c-0.4,1.3-0.7,1.9-1,1.9c-0.2,0-0.3-0.3-0.3-1c0-0.2,0-0.5,0-1c0-1,0-3.8-0.1-8.4c-0.1-4.6-0.1-7.5-0.1-8.8s0-4.6,0-9.9
		c0-0.9,0.1-1.8,0.1-2.7s0-1.9,0-2.9c0-1.2-0.2-2.1-0.5-2.9c-0.3-0.7-1.1-1.8-2.2-3.2C115.4,199.2,115.2,198.7,115.2,198.4z"/>
	<path class="st40" d="M145.1,212.3c1.3,1.5,2,3.4,2,5.5c0,1.3-0.3,2.6-0.8,3.7c-0.6,1.2-1.4,2.2-2.5,3c-0.9,0.6-1.7,1-2.5,1.2
		s-1.6,0.4-2.5,0.4c-2.3,0-4.2-0.8-5.8-2.5s-2.4-3.6-2.4-5.9c0-0.2,0-0.5,0-0.9c0-2,0.8-3.7,2.4-5c1.6-1.3,3.9-2,6.8-2
		C141.9,209.8,143.7,210.6,145.1,212.3z M138.8,211.8c-2,0-3.5,0.6-4.7,1.8c-1.1,1.1-1.6,2.4-1.6,4c0,1.2,0.3,2.3,0.9,3.3
		s1.6,1.8,2.8,2.3c0.9,0.4,1.8,0.7,2.8,0.7c1.6,0,3-0.6,4.1-1.7c1.2-1.3,1.8-3,1.8-5.2c-0.1-1.4-0.6-2.5-1.4-3.4
		c-0.8-0.8-2-1.4-3.7-1.7C139.6,211.8,139.3,211.8,138.8,211.8z M149,218.3c-0.4-0.4-0.6-0.7-0.6-1.1c0-0.4,0.3-0.6,1-0.6
		c0.3,0,0.5,0,0.8,0.1s0.6,0.1,0.9,0.1c0.7,0,1.5-0.1,2.2-0.4c0.8-0.2,1.5-0.6,2.3-1c0-0.1,0.1-1.4,0.3-3.8c0.1-0.8,0.1-1.8,0.1-2.9
		c0-1.9-0.1-3.2-0.2-4c-0.2-0.8-0.6-1.8-1.4-3.1c-0.8-0.8-1.2-1.4-1.2-2c0-0.4,0.2-0.7,0.7-0.7c0.4,0,0.8,0.2,1.3,0.5s1,0.8,1.4,1.4
		c0.6,1.1,1.1,2,1.3,2.7s0.3,1.5,0.3,2.3c0,0.5,0,1,0,1.5s0,1,0,1.6c0,2.7,0.1,5.6,0.1,8.6s0,6.6,0,10.8c0,2.2,0,3.9,0,5.3
		c0,1.3-0.1,2.6-0.2,3.6c0,2.5-0.3,3.8-1,3.8c-0.5,0-0.8-1-0.8-2.9c0-1.8-0.1-6.1-0.3-12.9c-0.1-2.9-0.1-5.3-0.1-7.4
		c-0.8,0.3-1.5,0.6-2.3,0.9c-0.6,0.2-1.2,0.3-1.9,0.3c-0.2,0-0.5,0-0.9-0.1h-0.4C149.8,218.9,149.4,218.6,149,218.3z"/>
	<path class="st40" d="M185.3,231.1c3.3-0.4,6.5-0.7,9.5-0.9s6.4-0.3,10.1-0.3c0.2,0,0.4,0,0.8,0c0.4,0,0.9,0,1.4-0.1
		c0.4,0,0.9,0.2,1.7,0.7c0.3,0.2,0.5,0.5,0.5,0.9s-0.1,0.6-0.4,0.9c-0.2,0.2-0.5,0.3-0.8,0.2c-0.6-0.1-1.3-0.3-1.9-0.4
		c-0.7-0.1-1.9-0.1-3.6-0.1c-3.5,0-7.5,0.2-12,0.6c-4.5,0.4-9.6,1-15.3,1.8c-1.3,0.2-2.8,0.4-4.2,0.7c-0.8,0.2-1.4,0.2-1.8,0.2
		c-0.4,0-1.5-0.2-3.2-0.5c-0.6-0.2-1-0.5-1-1c0-0.3,0.1-0.6,0.4-0.7c0.3-0.2,0.6-0.2,1.1-0.1c0.9,0.2,1.6,0.3,2.2,0.3
		c0.5,0,1.6-0.1,3.3-0.4c0.9-0.1,2.1-0.3,3.6-0.5C178.7,231.9,182,231.5,185.3,231.1z M188.1,205.7c1.9-0.2,3.8-0.6,5.6-1.2
		c0.6-0.2,1.2-0.3,1.9-0.6c0.7-0.2,1.1-0.3,1.3-0.3c0.3,0,0.6,0.1,1,0.4c0.4,0.3,0.6,0.5,0.6,0.8c0,0.4-0.7,0.8-2.2,1.1
		c-0.7,0.2-1.4,0.4-2.1,0.5c-0.7,0.1-1.4,0.3-2.2,0.5c-3,0.5-6,1-9,1.4c0.1,0.4,0.2,1.1,0.2,2.1v0.9v2.2c1.2,0,2.5-0.1,3.8-0.2
		c1.3-0.1,2.8-0.4,4.4-0.6c1-0.2,1.9-0.4,2.5-0.6c1-0.3,1.5-0.5,1.5-0.5c0.3,0,0.8,0.1,1.4,0.2c0.6,0.3,0.9,0.7,0.9,1.2
		c0,0.3-0.1,0.5-0.4,0.7c-0.3,0.2-0.6,0.3-1.1,0.3c-0.8,0-1.6,0.1-2.5,0.2c-0.9,0.1-1.8,0.3-2.6,0.5c-0.5,0.1-1.4,0.2-2.6,0.5
		c-1.3,0.3-2.4,0.4-3.4,0.4c-0.2,0-0.4,0-0.7,0s-0.6,0-0.9-0.1c0,1.6,0.2,2.9,0.6,3.7c0.4,0.6,0.7,0.9,1,1.1s0.9,0.2,1.8,0.2h2.1
		c2.7,0,4.8-0.3,6.4-0.8c0.7-0.2,1.2-0.3,1.6-0.3c0.3,0,0.7,0,1.2,0.1c0.4,0.2,0.7,0.5,0.7,0.9s-0.2,0.7-0.5,0.9
		c-0.4,0.3-0.9,0.4-1.7,0.4s-1.9,0.1-3.3,0.3c-2.9,0.5-5,0.7-6.5,0.7c-1.8-0.2-3.1-0.7-3.9-1.5c-0.6-0.6-1-1.6-1.3-3
		s-0.4-2.5-0.4-3.5s0-1.9,0-2.8c0-0.7,0-1.4-0.1-2s-0.2-1.2-0.4-1.6c-0.4-0.1-0.7-0.2-1-0.4c-0.2-0.2-0.4-0.4-0.4-0.6
		c0-0.3,0.2-0.5,0.5-0.7c0.3-0.3,0.7-0.4,1.3-0.4c0.2,0,0.6,0,1.2,0.1C184.3,206.2,186.2,206,188.1,205.7z"/>
</g>
<path class="st41" d="M148.4,111.4c3.3-1.1,7.9-2.7,9.8-6.8c0.8-1.8,0.7-3.1,1.4-3.3c1.3-0.4,3.7,4,4.6,7.9
	c0.3,1.2,1.6,7.1-1.8,12.7c-3.6,6.1-9.9,7.7-12.8,8.4c-10.1,2.5-20.3-1.6-20.3-3.8c0-0.6,0.7-0.7,2.9-3.5c1.8-2.2,1.8-2.8,1.8-3.2
	c-0.2-1.4-2-1.4-2.6-3.2c-0.3-0.8-0.2-1.9,0.3-2.7c1.1-1.5,3.8-0.4,7.3-0.8C140.9,113,144.5,112.7,148.4,111.4z"/>
<path class="st42" d="M109.2,101.1c-1.5-0.4-3.3,2.5-4.9,4.9c-2,3.1-1.8,4.5-1.6,5c0.1,0.2,0.4,1.5,1.4,2.1c1.7,1,4.4-0.3,5.7-1.8
	C112.7,108,111.2,101.6,109.2,101.1z"/>
<path class="st43" d="M84.1,82.2c0.2-0.6,3.9,0.9,9.1-0.2c2.2-0.5,2.6-1,3.6-0.7c4.1,1.3,4.7,13,3.3,13.4c-0.5,0.2-1-1.4-2.7-3.7
	C92.1,84.3,83.9,83,84.1,82.2z"/>
<path class="st43" d="M101.1,73.9c0.2-0.7,2-0.8,3.4-0.2c1.1,0.5,1.9,1.6,2.1,2.7c0.1,0.4-0.1,0.9-0.3,1.9c-0.4,1.6-0.6,2.7-0.9,2.7
	c-0.4,0-0.3-1.7-1.3-3.6C102.8,75.1,100.9,74.6,101.1,73.9z"/>
<path class="st44" d="M112.4,93.5c1-0.7,2.1-0.9,2.6-0.9c1.7-0.2,4.8,0.1,5.4,1.9c0.5,1.6-1.2,3.4-2.1,4.3c-0.8,0.8-2,2-3.8,2.2
	c-0.5,0-2.4,0.2-3.5-1.2c-1.3-1.5-0.6-3.6-0.4-3.9C111,94.5,112.1,93.7,112.4,93.5z"/>
<path class="st44" d="M100.1,99.9c-2-0.1-3.5,3.2-3.7,5.7c0,0.4-0.2,4.1,2,5c1.1,0.5,2.6,0.2,3.3-0.6c0.6-0.7,0.1-1.4,0.7-3.2
	c0.4-1.3,0.8-1.3,0.9-2.1C103.6,102.8,101.8,100,100.1,99.9z"/>
<path class="st45" d="M104.3,94.9c0.8-1,1.2-1.6,1.7-1.5c0.8,0.1,1.2,1.7,1.7,4.1c0.5,2.2,0.3,2.7,0.2,2.9c-0.5,0.8-1.3,0.5-2.6,1.4
	c-1.2,0.9-1.3,1.7-1.9,1.6c-0.8-0.1-1.6-1.9-1.6-3.6C101.9,98,102.9,96.7,104.3,94.9z"/>
<path class="st46" d="M138.8,92.3c0-0.1,4.3,0.2,9.3,1.9c4,1.4,5.6,2.7,6.3,3.3c1.1,1,1.8,1.9,2.9,3.4c1.9,2.5,3,4.7,3.3,5.4
	c2.6,5.2,3,9.7,3.1,9.7c0,0-0.3-3.9-2.3-8.5c-1.1-2.6-2.1-4.1-3.8-6.6c-1.2-1.7-2.2-3-3.9-4c-0.4-0.2-0.7-0.4-1.5-0.7
	c-2.3-1-4.1-1.6-4.8-1.8C143.1,93,138.8,92.4,138.8,92.3z"/>
<path class="st46" d="M137,88.4c0-0.1,6.1,0.3,12.7,3.2c2.8,1.2,4.5,2.4,5.9,3.7c1.2,1.1,2,2.2,2.9,3.4c1.9,2.5,3,4.7,3.3,5.4
	c2.6,5.2,3,9.7,3.1,9.7c0,0-0.3-3.9-2.3-8.5c-0.3-0.8-0.6-1.4-1-2c-0.8-1.5-1.5-3-2.9-4.5c-1.2-1.4-2.4-2.4-3.9-3.6
	c-0.5-0.4-0.9-0.7-1.5-1.1c-1.9-1.3-3.6-1.9-4.4-2.2C144.5,90.1,137,88.5,137,88.4z"/>
<path class="st46" d="M141.8,93.4"/>
<path class="st46" d="M122.1,118.7c-0.1,0-3.4-7.2-0.3-15c0.4-1,2.9-6.9,8.7-9.7c4.1-1.9,8.3-1.7,8.3-1.8c0-0.1-2.3,0-4.9,0.6
	c-1.1,0.3-2.9,0.7-4.8,1.7c0,0-3.6,1.9-6,5.5C118.3,107.5,122.2,118.7,122.1,118.7z"/>
<path class="st46" d="M142.5,88.8c-0.1-0.1,2-2.4,5.4-3.7c1.2-0.5,3.7-1.4,7-0.9c0.7,0.1,3.7,0.6,6.6,3.1c1,0.8,3.9,3.3,4.4,7.5
	c0.4,3.2-0.8,5.7-1.1,6.3c-0.9,1.9-2.3,3.2-2.2,3.3c0,0,1.3-1,2.2-2.5c2-3.3,1.6-6.8,1.5-7.3c-0.6-4.3-3.6-6.7-4.7-7.6
	c-0.8-0.6-4-3.2-8.3-3.2C147.2,83.7,142.7,89,142.5,88.8z"/>
<path class="st46" d="M120.3,95.9c-0.1,0,0.9-2.2,2.5-3.9c5-5.2,13.9-3.8,13.9-3.9c0-0.1-6.7-1.6-11.8,2.3
	C121.9,92.6,120.4,96,120.3,95.9z"/>
<path class="st47" d="M139.8,121.1c0.5-2,9.2,0.7,14.8-3.5c3.7-2.8,4.3-7.3,5.2-7c0.8,0.2,0.8,3.5,0,6.3c-1.4,4.7-5.1,7.4-6.6,8.4
	c-4.6,2.9-10.8,3.6-11.8,1.9c-0.3-0.5,0.1-0.9-0.1-2.3C140.9,122.5,139.6,121.9,139.8,121.1z"/>
<path class="st48" d="M128.1,102.8c0.1-1.1,1.7-1.9,3.1-2.4c3.6-2.1,6.8-2.9,8.9-3.3c3.2-0.6,6.5-1.2,9.7,0.4
	c1.2,0.6,3.1,1.6,3.3,3.2c0.4,3.2-6.2,7.9-12.8,8.1C134.2,109,127.8,105.2,128.1,102.8z"/>
<path class="st46" d="M137.3,88.4c0.1,0.1,1.8-5.6,7.1-8.6c4.3-2.4,8.8-1.8,11.9-1.4c2.6,0.3,8.4,1.1,13.3,5.7
	c1.3,1.2,4.7,4.5,5.6,9.7c0.2,1,0.8,4.8-1,8.7c-0.1,0.3-0.3,0.6-0.6,1.2c-2.4,4.6-4.6,7.2-4.6,7.3c0,0,2.8-2.5,4.6-6.6
	c0.7-1.7,2.4-5.6,1.5-10.5c-1.1-6.7-6-10.5-7.3-11.4c-0.5-0.3-0.8-0.5-1.1-0.8c-1.3-0.8-6.1-3.7-13-3.9c-3.4-0.1-6.5-0.2-9.7,1.6
	C138.8,82.4,137.2,88.3,137.3,88.4z"/>
<path class="st49" d="M141.2,79.1c0,0,5.2-5.7,11.7-5.6c1.9,0.1,2,0.5,8.6,3.1c7.8,3,8.3,2.6,11,4.3c2.1,1.3,5.6,3.5,7.3,7.9
	c2,4.7,0.8,9.4,0.3,9.5c-0.5,0,0.5-7.6-4.3-13c-1.9-2.2-4.4-3.5-5-3.9c-2.5-1.3-3.5-1.2-6.8-2.2c-7.2-2.2-7.7-4.5-12-4.4
	c-2.5,0.1-4.7,1-5.8,1.4C143.1,77.4,141.2,79,141.2,79.1z"/>
</svg>
