<?xml version="1.0" encoding="utf-8"?>
<!-- Generator: Adobe Illustrator 26.3.1, SVG Export Plug-In . SVG Version: 6.00 Build 0)  -->
<svg version="1.1" id="레이어_1" xmlns="http://www.w3.org/2000/svg" xmlns:xlink="http://www.w3.org/1999/xlink" x="0px"
	 y="0px" viewBox="0 0 113.4 85" style="enable-background:new 0 0 113.4 85;" xml:space="preserve">
<style type="text/css">
	.st0{display:none;}
	.st1{display:inline;fill:#F90303;}
	.st2{display:none;fill:#F90303;}
	.st3{fill:#848484;}
	.st4{fill:#DFE7EF;}
	.st5{fill:#98C7ED;}
	.st6{display:inline;fill:#E2AB6F;}
	.st7{display:inline;fill:#F4E6D9;}
	.st8{display:inline;fill:#D3291C;}
	.st9{display:inline;fill:#F4F2DC;}
	.st10{display:inline;fill:#E2DCBC;}
	.st11{display:inline;fill:#D3CEBA;}
	.st12{display:inline;fill:#EF4343;}
	.st13{display:inline;fill:#A5211B;}
	.st14{display:inline;fill:#B72720;}
	.st15{display:inline;fill:#D89552;}
	.st16{display:inline;fill:#B7763B;}
	.st17{display:inline;fill:#B5211A;}
	.st18{display:inline;fill:#98BBD8;}
	.st19{display:inline;fill:#935624;}
	.st20{display:none;fill:#F9A5A5;}
	.st21{fill:#E2AB6F;}
	.st22{fill:#F4E6D9;}
	.st23{fill:#D3291C;}
	.st24{fill:#F4F2DC;}
	.st25{fill:#E2DCBC;}
	.st26{fill:#D3CEBA;}
	.st27{fill:#EF4343;}
	.st28{fill:#A5211B;}
	.st29{fill:#B72720;}
	.st30{fill:#D89552;}
	.st31{fill:#B7763B;}
	.st32{fill:#B5211A;}
	.st33{fill:#98BBD8;}
	.st34{fill:#935624;}
	.st35{display:inline;fill:none;}
	.st36{display:inline;stroke:#000000;stroke-miterlimit:10;}
	.st37{fill:none;}
	.st38{stroke:#000000;stroke-miterlimit:10;}
</style>
<g id="레이어_2_00000098199513596845998940000003141797128322258333_">
</g>
<g id="레이어_1_00000025441762096741309610000016039404830869381532_">
	<g class="st0">
		<ellipse transform="matrix(0.1309 -0.9914 0.9914 0.1309 2.462 10.7354)" class="st1" cx="7.4" cy="4" rx="2" ry="2.5"/>
	</g>
	<circle class="st2" cx="6.7" cy="4" r="3"/>
	<g>
		<path class="st3" d="M3.3,83.8c0-1.5,1.3-2.8,2.8-2.8c1.6,0,2.8,1.2,2.8,2.8c0,0.1,0,0.1,0,0.2h2.6v-0.1c0-1.5,1.3-2.8,2.8-2.8
			s2.8,1.2,2.8,2.8V84h3.3v-0.1c0-1.5,1.3-2.8,2.8-2.8s2.8,1.2,2.8,2.8V84h3.3v-0.1c0-1.5,1.3-2.8,2.8-2.8c1.6,0,2.8,1.2,2.8,2.8V84
			h3.3v-0.1c0-1.5,1.3-2.8,2.8-2.8s2.8,1.2,2.8,2.8V84h3.3v-0.1c0-1.5,1.3-2.8,2.8-2.8c1.6,0,2.8,1.2,2.8,2.8V84H56v-0.1
			c0-1.5,1.3-2.8,2.8-2.8s2.8,1.2,2.8,2.8V84h3.3v-0.1c0-1.5,1.3-2.8,2.8-2.8s2.8,1.2,2.8,2.8V84h3.3v-0.1c0-1.5,1.3-2.8,2.8-2.8
			s2.8,1.2,2.8,2.8V84h3.3v-0.1c0-1.5,1.3-2.8,2.8-2.8s2.8,1.2,2.8,2.8V84h3.4v-0.1c0-1.5,1.3-2.8,2.8-2.8s2.8,1.2,2.8,2.8V84h3.3
			v-0.1c0-1.5,1.3-2.8,2.8-2.8c1.6,0,2.8,1.2,2.8,2.8V84h3.3v-0.1c0-1.5,1.3-2.8,2.8-2.8c0.1,0,0.2,0,0.3,0v-1.3
			c-1.5,0-2.8-1.3-2.8-2.8s1.2-2.7,2.8-2.8V72c-1.5,0-2.8-1.3-2.8-2.8s1.2-2.7,2.8-2.8v-2.3c-1.5,0-2.8-1.3-2.8-2.8s1.2-2.7,2.8-2.8
			v-2.3c-1.5,0-2.8-1.3-2.8-2.8s1.2-2.7,2.8-2.8v-2.3c-1.5,0-2.8-1.3-2.8-2.8s1.2-2.7,2.8-2.8v-2.3c-1.5,0-2.8-1.3-2.8-2.8
			s1.2-2.7,2.8-2.8v-2.3c-1.5,0-2.8-1.3-2.8-2.8s1.2-2.7,2.8-2.8v-2.3c-1.5,0-2.8-1.3-2.8-2.8s1.2-2.7,2.8-2.8v-2.3
			c-1.5,0-2.8-1.3-2.8-2.8s1.2-2.7,2.8-2.8V9.5c-1.5,0-2.8-1.3-2.8-2.8s1.2-2.7,2.8-2.8v-1c-0.5,0.5-1.2,0.8-1.9,0.8
			c-1.5,0-2.7-1.2-2.8-2.6h-3.3c-0.1,1.5-1.3,2.6-2.8,2.6S99.1,2.5,99,1.1h-3.3c-0.1,1.5-1.3,2.6-2.8,2.6s-2.7-1.2-2.8-2.6h-3.3
			c-0.1,1.5-1.3,2.6-2.8,2.6s-2.7-1.2-2.8-2.6h-3.3c-0.1,1.5-1.3,2.6-2.8,2.6s-2.7-1.2-2.8-2.6H69c-0.1,1.5-1.3,2.6-2.8,2.6
			s-2.7-1.2-2.8-2.6h-3.3c-0.1,1.5-1.3,2.6-2.8,2.6s-2.7-1.2-2.8-2.6h-3.3c-0.1,1.5-1.3,2.6-2.8,2.6s-2.7-1.2-2.8-2.6h-3.3
			c-0.1,1.5-1.3,2.6-2.8,2.6s-2.7-1.2-2.8-2.6h-3.3c-0.1,1.5-1.3,2.6-2.8,2.6s-2.7-1.2-2.8-2.6h-3.3c-0.1,1.5-1.3,2.6-2.8,2.6
			S19,2.5,18.9,1.1h-3.3c-0.1,1.5-1.3,2.6-2.8,2.6S10.1,2.5,10,1.1H7.3C7.2,2.5,6,3.6,4.5,3.6S1.8,2.5,1.7,1h-1v4.9c0,0,0,0,0.1,0
			c1.6,0,2.8,1.2,2.8,2.8c0,1.5-1.3,2.8-2.8,2.8c0,0,0,0-0.1,0v2.3c0,0,0,0,0.1,0c1.6,0,2.8,1.2,2.8,2.8c0,1.5-1.3,2.8-2.8,2.8
			c0,0,0,0-0.1,0v2.3c0,0,0,0,0.1,0c1.6,0,2.8,1.2,2.8,2.8c0,1.5-1.3,2.8-2.8,2.8c0,0,0,0-0.1,0v2.3c0,0,0,0,0.1,0
			c1.6,0,2.8,1.2,2.8,2.8c0,1.5-1.3,2.8-2.8,2.8c0,0,0,0-0.1,0v2.3c0,0,0,0,0.1,0c1.6,0,2.8,1.2,2.8,2.8c0,1.5-1.3,2.8-2.8,2.8
			c0,0,0,0-0.1,0V45c0,0,0,0,0.1,0c1.6,0,2.8,1.2,2.8,2.8c0,1.5-1.3,2.8-2.8,2.8c0,0,0,0-0.1,0v2.3c0,0,0,0,0.1,0
			c1.6,0,2.8,1.2,2.8,2.8c0,1.5-1.3,2.8-2.8,2.8c0,0,0,0-0.1,0v2.3c0,0,0,0,0.1,0c1.6,0,2.8,1.2,2.8,2.8c0,1.5-1.3,2.8-2.8,2.8
			c0,0,0,0-0.1,0v2.3c0,0,0,0,0.1,0c1.6,0,2.8,1.2,2.8,2.8c0,1.5-1.3,2.8-2.8,2.8c0,0,0,0-0.1,0v2.3c0,0,0,0,0.1,0
			c1.6,0,2.8,1.2,2.8,2.8c0,1.5-1.3,2.8-2.8,2.8c0,0,0,0-0.1,0V84h2.6C3.3,83.9,3.3,83.9,3.3,83.8z"/>
		<path class="st4" d="M3.3,83.4c0-1.5,1.3-2.8,2.8-2.8c1.6,0,2.8,1.2,2.8,2.8c0,0.1,0,0.1,0,0.2h2.6v-0.1c0-1.5,1.3-2.8,2.8-2.8
			s2.8,1.2,2.8,2.8v0.1h3.3v-0.1c0-1.5,1.3-2.8,2.8-2.8s2.8,1.2,2.8,2.8v0.1h3.3v-0.1c0-1.5,1.3-2.8,2.8-2.8c1.6,0,2.8,1.2,2.8,2.8
			v0.1h3.3v-0.1c0-1.5,1.3-2.8,2.8-2.8s2.8,1.2,2.8,2.8v0.1h3.3v-0.1c0-1.5,1.3-2.8,2.8-2.8c1.6,0,2.8,1.2,2.8,2.8v0.1H56v-0.1
			c0-1.5,1.3-2.8,2.8-2.8s2.8,1.2,2.8,2.8v0.1h3.3v-0.1c0-1.5,1.3-2.8,2.8-2.8s2.8,1.2,2.8,2.8v0.1h3.3v-0.1c0-1.5,1.3-2.8,2.8-2.8
			s2.8,1.2,2.8,2.8v0.1h3.3v-0.1c0-1.5,1.3-2.8,2.8-2.8s2.8,1.2,2.8,2.8v0.1h3.4v-0.1c0-1.5,1.3-2.8,2.8-2.8s2.8,1.2,2.8,2.8v0.1
			h3.3v-0.1c0-1.5,1.3-2.8,2.8-2.8c1.6,0,2.8,1.2,2.8,2.8v0.1h3.3v-0.1c0-1.5,1.3-2.8,2.8-2.8c0.1,0,0.2,0,0.3,0v-1.3
			c-1.5,0-2.8-1.3-2.8-2.8s1.2-2.7,2.8-2.8v-2.2c-1.5,0-2.8-1.3-2.8-2.8s1.2-2.7,2.8-2.8v-2.3c-1.5,0-2.8-1.3-2.8-2.8
			s1.2-2.7,2.8-2.8v-2.3c-1.5,0-2.8-1.3-2.8-2.8s1.2-2.7,2.8-2.8v-2.3c-1.5,0-2.8-1.3-2.8-2.8s1.2-2.7,2.8-2.8V40
			c-1.5,0-2.8-1.3-2.8-2.8s1.2-2.7,2.8-2.8v-2.3c-1.5,0-2.8-1.3-2.8-2.8s1.2-2.7,2.8-2.8v-2.3c-1.5,0-2.8-1.3-2.8-2.8
			s1.2-2.7,2.8-2.8v-2.3c-1.5,0-2.8-1.3-2.8-2.8s1.2-2.7,2.8-2.8V9.1c-1.5,0-2.8-1.3-2.8-2.8s1.2-2.7,2.8-2.8v-1
			c-0.5,0.5-1.2,0.8-1.9,0.8c-1.5,0-2.7-1.2-2.8-2.6h-3.3c-0.1,1.5-1.3,2.6-2.8,2.6S99.1,2.1,99,0.7h-3.3c-0.1,1.5-1.3,2.6-2.8,2.6
			s-2.7-1.2-2.8-2.6h-3.3c-0.1,1.5-1.3,2.6-2.8,2.6s-2.7-1.2-2.8-2.6h-3.3c-0.1,1.5-1.3,2.6-2.8,2.6s-2.7-1.2-2.8-2.6H69
			c-0.1,1.5-1.3,2.6-2.8,2.6s-2.7-1.2-2.8-2.6h-3.3c-0.1,1.5-1.3,2.6-2.8,2.6s-2.7-1.2-2.8-2.6h-3.3c-0.1,1.5-1.3,2.6-2.8,2.6
			s-2.7-1.2-2.8-2.6h-3.3c-0.1,1.5-1.3,2.6-2.8,2.6s-2.7-1.2-2.8-2.6h-3.3c-0.1,1.5-1.3,2.6-2.8,2.6s-2.7-1.2-2.8-2.6h-3.3
			c-0.1,1.5-1.3,2.6-2.8,2.6S19,2.1,18.9,0.7h-3.3c-0.1,1.5-1.3,2.6-2.8,2.6S10.1,2.1,10,0.7H7.3C7.2,2.1,6,3.2,4.5,3.2
			S1.8,2.1,1.7,0.6h-1v4.9c0,0,0,0,0.1,0c1.6,0,2.8,1.2,2.8,2.8c0,1.5-1.3,2.8-2.8,2.8c0,0,0,0-0.1,0v2.3c0,0,0,0,0.1,0
			c1.6,0,2.8,1.2,2.8,2.8c0,1.5-1.3,2.8-2.8,2.8c0,0,0,0-0.1,0v2.3c0,0,0,0,0.1,0c1.6,0,2.8,1.2,2.8,2.8c0,1.5-1.3,2.8-2.8,2.8
			c0,0,0,0-0.1,0v2.3c0,0,0,0,0.1,0c1.6,0,2.8,1.2,2.8,2.8c0,1.5-1.3,2.8-2.8,2.8c0,0,0,0-0.1,0v2.3c0,0,0,0,0.1,0
			c1.6,0,2.8,1.2,2.8,2.8c0,1.5-1.3,2.8-2.8,2.8c0,0,0,0-0.1,0v1.9c0,0,0,0,0.1,0c1.6,0,2.8,1.2,2.8,2.8c0,1.5-1.3,2.8-2.8,2.8
			c0,0,0,0-0.1,0v2.3c0,0,0,0,0.1,0c1.6,0,2.8,1.2,2.8,2.8c0,1.5-1.3,2.8-2.8,2.8c0,0,0,0-0.1,0v2.3c0,0,0,0,0.1,0
			c1.6,0,2.8,1.2,2.8,2.8c0,1.5-1.3,2.8-2.8,2.8c0,0,0,0-0.1,0v2.3c0,0,0,0,0.1,0c1.6,0,2.8,1.2,2.8,2.8c0,1.5-1.3,2.8-2.8,2.8
			c0,0,0,0-0.1,0v2.3c0,0,0,0,0.1,0c1.6,0,2.8,1.2,2.8,2.8c0,1.5-1.3,2.8-2.8,2.8c0,0,0,0-0.1,0v1.8h2.6C3.3,83.5,3.3,83.5,3.3,83.4
			z"/>
		<rect x="7.4" y="8.1" class="st5" width="99.5" height="48.2"/>
		<g class="st0">
			<path class="st6" d="M34.3,34.6c-0.2,0.4,0.1,0.4,0.1,3.7c0,2.5-0.2,2.8,0,3.7c0.1,0.6,0.4,1.5,2.3,3.8c1.6,1.9,2.5,3,3.9,4.1
				c2.8,2.1,5.7,2.7,9.4,3.4c1.4,0.3,3.2,0.6,5.6,0.6c3.1,0,5.4-0.5,8.7-1.2c2.6-0.6,3.9-0.8,5.5-1.6c2.5-1.1,4.4-2.4,5.6-3.4
				c0.3-0.3,0.8-0.7,1.2-1.2c0.8-1.1,1-2.2,1.2-3.6c0.5-3.4,0.7-5.1,0.1-5.8C76.6,35.6,73.8,37,73,37C60.6,36,36.1,30.3,34.3,34.6z"
				/>
			<path class="st7" d="M38.2,29.1c-1.3,0.3-3.5,1-4,2.5c-0.6,2,1.9,4.3,2.3,4.7c3.4,3.2,6.5,1.8,9.5,5.1c1.1,1.2,0.9,1.6,2.1,2.7
				c2.3,2.1,5,2.5,5.9,2.7c1.1,0.2,4.2,0.5,13.9-4.8c8.1-4.4,8.4-5.9,8.3-6.6c-0.2-1.4-2-2.3-3.2-2.8C60.6,27,46.6,27.1,38.2,29.1z"
				/>
			<path class="st8" d="M74,29.8c-1.3,0.5-3.5,1.4-3.6,3c-0.1,1.8,1.7,3.1,3.2,3.4c2,0.4,3.6-1,3.8-1.2c0.4-0.4,1.2-1.1,1.2-2.3
				c0.1-1.5-0.9-2.9-2.3-3.3C75.6,29.2,74.9,29.5,74,29.8z"/>
			<path class="st8" d="M68.7,34.5c-1.9,0.8-1.7,3.2-4.4,4.4c-1.2,0.5-1.9,0.3-2,0.8c-0.3,0.9,2.4,3.5,5.5,3.5c2.1,0,3.6-1.2,4.7-2
				c1.3-1,2.9-2.3,2.7-3.7C75,35.4,71,33.4,68.7,34.5z"/>
			<path class="st8" d="M34.4,26c-1.3,0.2-2.8,1.2-3,2.5c-0.1,0.7,0.1,1.5,0.5,2.6c0.3,0.8,0.4,1.2,0.7,1.5c0.9,1,2.7,1.4,4.2,0.9
				c1.4-0.5,2.5-1.9,2.6-3.4C39.5,27.6,36.7,25.7,34.4,26z"/>
			<path class="st6" d="M34.3,23.3c-0.8,3.3,1.2,6.3,2,7.5c0,0,0.1,0.2,0.3,0.4c1.9,2.4,9,6.3,19.9,6.2c0,0,8.1-0.1,15.6-3.7
				c0.8-0.4,2.3-1.2,3.5-2.8c0.4-0.5,2.2-2.9,1.7-5.4c-0.4-1.9-1.8-3.2-3.5-4.3c-4.5-3-10.2-4.1-17.1-4.8
				c-11.5-1.1-14.6,0.2-16.1,0.9C38.7,18.1,35.1,19.8,34.3,23.3z"/>
			<path class="st8" d="M53.6,37.6c-1.4,0-4.4-0.1-5.3,1.7c-0.8,1.6,0.5,3.8,1.6,4.9c2,2,4.9,1.7,6.8,1.6c1.6-0.1,3.2-0.3,3.9-1.5
				c0.9-1.6-0.4-3.7-0.5-3.9C58.4,37.7,54.7,37.6,53.6,37.6z"/>
			<path class="st9" d="M43.4,16.1c-3.3,1.3-7.2,2.7-7.7,5.5c-0.7,4,5.7,8.2,6.9,9c1.3,0.8,3.2,0.6,4.6,2.2c0.7,0.7,1.1,1.6,2,1.6
				c0.7,0,0.8-0.6,1.7-1c0.7-0.3,1.2-0.2,4.4,0.2c2.1,0.3,2,0.3,2.3,0.4c2.2,0.2,3.9,0,4.3,0c3.4-0.4,5.8-1.8,7.2-2.6
				c1.8-1.1,3-2.1,3.8-2.8c2.3-2.1,3.6-3.1,3.6-4.1c0.2-4.4-11.1-9.3-20.7-10.1C53.6,14.3,48.8,14.1,43.4,16.1z"/>
			<path class="st10" d="M47.6,11.5c0.3,4.3-0.2,5.3-0.7,5.5c-0.7,0.2-1.3-1.2-3.1-2c-1.3-0.5-2.7-0.4-3.6-0.2
				c-0.9,0.4-3.1,1.3-3.8,3.4c-1.2,3.2,1.9,6.7,3.3,8.2c3.8,4.3,9,5.4,11.5,5.8c2.7-1.3,5.4-0.7,7.5,1c3.6,2.1,14.7-5.7,16.4-9.6
				c0.3-0.6,1.1-2,0.9-3.9c-0.1-0.8-0.2-2.3-1.4-3.1c-1.2-0.9-3.1-0.7-4.7,0.4c0.4-0.4,1.1-1.2,1.1-2.3c-0.1-1.4-1.4-2.3-2.6-3.1
				c-0.9-0.6-1.3-0.9-1.9-0.9c-1.2-0.1-1.8,0.8-3.5,1.8c-0.7,0.4-1.8,1-3.2,1.5c-0.2,0-0.8,0.1-1.4-0.3c-0.5-0.3-0.9-0.7-0.9-1
				C55.6,10.3,50.7,9.1,47.6,11.5z"/>
			<path class="st9" d="M69.9,17c-0.3,0.1-0.2,0.9-0.3,1.6c-0.4,3-4,3.6-5.7,6.9c-1.2,2.3-1.2,5.2-0.5,5.5c0.6,0.3,1.5-1.4,5.4-5.1
				c1-0.9,1.8-1.9,3.6-3.7c1.1-1.2,1.8-2,1.7-3C74,18,73,17,72.6,17.2c-0.3,0.1,0.1,1.1-0.3,2.4c-0.4,1.1-1.1,1.7-1.6,2
				c-3.1,2.7-4.8,6.1-5.3,5.8c-0.3-0.2,0.1-1.9,1.1-3.2c0.5-0.7,0.8-0.8,2.6-2.4c1.9-1.7,2.1-2.1,2.2-2.6
				C71.4,18.1,70.3,16.9,69.9,17z"/>
			<path class="st9" d="M74.5,21c-0.3,0.8-0.8,1.7-1.5,2.7c-0.3,0.5-1.1,1.6-2.4,2.7c-1.1,1-2.2,1.7-3.1,2.2"/>
			<path class="st9" d="M62.3,29.8c0.1-0.3-3.3-2.1-6.8-3.4c-4-1.5-6.5-1.9-7.3-3.8c-0.1-0.4-0.5-1.4-1.4-1.9
				c-0.5-0.3-1.2-0.4-1.4-0.1s0.3,0.8,0.7,1.3c1.9,2.3,3.1,3.8,5.8,5.1c0.7,0.3,1.4,0.6,2.8,1C57.6,28.9,62.2,30.2,62.3,29.8z"/>
			<path class="st9" d="M45,21.9c0.6,0.3,1,0.7,1.2,0.8c1.6,1.4,1.7,2.8,3,4c0.8,0.7,1.6,1.1,2.6,1.6c3.2,1.4,4.5,0.7,7.8,2
				c0.5,0.2,1.2,0.6,2.3,0.8c1.6,0.3,2.5,0.1,2.6,0.3c0.1,0.3-2.2,1.4-4.5,1.1c-1.5-0.2-2.2-0.9-3.5-1.7c-4.6-2.8-6.3-0.9-9.6-3.5
				c-1.2-0.9-1.5-1.6-2.4-2.5c-0.5-0.5-1-0.9-1.5-1.3c-1-0.8-1.4-1-1.4-1.4c0.1-0.5,1-0.7,1.6-0.8C43.8,21.3,44.5,21.6,45,21.9z"/>
			<path class="st9" d="M54.5,31c0-0.4-4.3,0.2-8-2.6c-3-2.2-4-3.7-4-3.7c-0.3-0.4-0.7-0.9-1.1-1.6c-0.5-0.7-0.5-0.8-0.7-0.9
				c-1-0.9-3.7-0.3-3.9,0.5c-0.1,0.7,1.5,1.1,4.2,3c3.5,2.5,3.3,3.8,5.6,4.8C50.5,32.3,54.5,31.4,54.5,31z"/>
			<path class="st9" d="M58.9,15.4c-0.1-0.5,1.1-1.2,1.9-1.8c1.8-1.1,2.4-1,3.9-2.1c0.8-0.6,0.8-0.8,1.2-0.9
				c1.3-0.1,3.6,3.3,2.6,5.7c-0.8,1.9-3.5,2.6-3.6,2.3c-0.2-0.2,1.8-1.1,2.3-3c0.5-2-0.8-4-0.9-3.9c-0.2,0,0.8,1.9,0.1,3.9
				c-0.5,1.3-1.7,2.9-3,2.8c-0.8,0-1.6-0.6-1.6-1.2s1.3-0.7,2.2-1.9c1-1.2,1.1-2.9,0.9-3c-0.3-0.1-0.7,2.1-2.6,3
				C60.8,16,59.1,15.8,58.9,15.4z"/>
			<path class="st9" d="M45.2,16.5c-1.4-0.8-5-2-5-1.7c-0.1,0.4,8.7,3.3,6.1,6c-1.4-0.4-9.9-9.1-4.4-1.8c1.2,1.2,2.3,1.5,2.3,1.8
				c-0.1,0.4-1.4,0.7-2.3,0.2c-1.4-0.7-2.7-6.3-2.8-5.7c-0.3,0.6-0.6,1.6-0.5,2.8c0,1.5,0.4,2.7,0.7,3.3c-0.7,0.3-1.1,0.2-1.3,0.1
				c-1-0.5-1.3-2.6-0.4-5.3c-0.2,0-0.9,1.3-0.9,2.8c0.1,1.6,0,2-0.1,2c-0.2,0-1.1-2-0.5-3.7c0.2-0.5,0.4-0.6,1.6-2.3
				c0.3-0.5,0.6-0.9,0.8-1.2C44.6,15.8,47.6,16.7,45.2,16.5z"/>
			<path class="st9" d="M50,9.5c-1.3,1-2.6,2-4,3"/>
			<path class="st9" d="M49.7,17.5c2.8,1.1,4.3,1.6,4.7,1.6c3,0.3,6.8-1,7.1-2.9c0.2-1.1-0.8-2-2.4-3.5C57,10.7,55,8.8,52.2,9
				c-0.2,0-3.6,0.4-5.1,3.1c-0.2,0.3-1.2,2.2-0.4,3.6C47,16.4,47.5,16.6,49.7,17.5z"/>
			<path class="st8" d="M49.2,23.5c-0.6-1.1-0.7-2.1-0.8-2.8c-0.3-3.4,1.5-5.9,3.4-8.4c0.9-1.2,1.6-1.8,2.5-2
				c1.1-0.2,2.1,0.4,2.3,0.5c0.7,0.5,0.8,0.9,1.5,1.8c1.2,1.5,1.7,1.3,2.9,2.7c0.8,1,1.3,1.9,1.6,2.8c0.6,1.4,1.1,2.4,0.9,3.6
				c-0.3,2.4-2.5,3.9-2.9,4.1C57.2,28.1,51.3,27,49.2,23.5z"/>
			<path class="st9" d="M49.7,24.9c0-1,1.1-2,2.2-2.3c1-0.2,1.3,0.4,2.2,0.1c1.2-0.4,1.2-2,2.1-2c0.4,0,0.6,0.4,1.2,0.4
				c0.5,0,0.6-0.3,1-0.2c0.7,0,0.8,0.8,1.6,1.4s1.4,0.1,2.8,0.6c1,0.4,2.2,0.9,2.3,1.6c0.2,1.3-2.9,2.7-3.3,2.9
				c-0.3,0.1-1.1,0.5-2.3,0.7c-2.3,0.4-4.2,0-4.8-0.2C53.9,27.8,49.7,26.7,49.7,24.9z"/>
			<path class="st10" d="M56.8,21.3c-0.6-0.1-0.7,2.8-2.8,4.3c-0.7,0.5-1.4,0.7-1.4,1.1c0,0.6,1.4,1.1,2,1.2c0.5,0.2,2.6,0.8,3.1,0
				c0.2-0.3,0-0.5-0.1-1.5c-0.2-1.7,0.1-2.1-0.2-3.6C57.3,22.1,57.1,21.3,56.8,21.3z"/>
			<path class="st11" d="M56.8,21.7c0.4-0.3,1.2,0.8,4.3,2.8c1,0.6,1.6,1,1.6,1.5c0,0.2-0.1,0.5-1.9,1.2c-1.7,0.7-2.6,1.1-3,0.7
				c-0.4-0.3-0.1-1-0.1-2.3C57.6,23.3,56.4,22,56.8,21.7z"/>
			<path class="st12" d="M53.7,11c0.2,0,0.2,0.4,0.5,0.8c0.2,0.3,0.6,0.5,0.8,0.6c-0.2,0.3-0.3,0.9-0.2,1.6c0,0.1,0,0.2,0.1,0.3
				c0,0.1-0.2,0.3-0.2,0.3c-0.6,0.5-0.7,0.7-0.6,0.8c0.1,0.1,0.4-0.1,0.8,0c0.1,0,0.1,0.1,0.7,0.7c0.3,0.3,0.6,0.5,0.7,0.9
				c0,0.1,0,0.1,0,0.1c0.1,0.4-0.1,0.8-0.2,1c-0.5,1-1.7,1.1-1.6,1.5c0,0.2,0.2,0.2,0.3,0.4c0.1,0.3,0,0.6-0.2,0.9
				c-0.4,0.7-0.9,1.1-1.1,1.2c-0.8,0.5-2.1,0.8-2.4,0.4c-0.3-0.3,0.3-0.8,0.1-1.4c-0.3-0.8-1.4-0.8-1.6-1.6c-0.1-0.5,0.1-1,0.2-1.2
				c0.2-0.6,0.6-0.7,0.5-1.1c0-0.4-0.3-0.4-0.4-0.7c-0.1-0.3,0.1-0.4,0.6-1.4c0.2-0.4,0.2-0.5,0.4-0.9c0.1-0.2,0.2-0.4,0.4-0.6
				c0.3-0.3,0.5-0.3,0.7-0.5s0.2-0.3,0.6-0.8C53.2,11.4,53.5,11,53.7,11z"/>
			<path class="st8" d="M52.3,13.2c-0.3,0-0.7,0.5-0.6,1c0.1,0.2,0.4,0.4,0.6,0.3c0.2-0.1,0.3-0.5,0.3-0.6
				C52.6,13.6,52.5,13.2,52.3,13.2z"/>
			<path class="st8" d="M53.8,13.5c-0.1,0-0.1,0-0.4,0.5c-0.1,0.2-0.1,0.2-0.2,0.2c-0.1,0.3,0.1,0.8,0.3,0.8s0.3-0.1,0.4-0.2
				c0.1-0.1,0.3-0.3,0.3-0.5S54.1,14,54,13.9C54,13.6,53.9,13.5,53.8,13.5z"/>
			<path class="st8" d="M52.9,14.7c-0.2,0-0.4,0.3-0.4,0.6s0.1,0.6,0.3,0.7c0.1,0,0.2-0.1,0.3-0.2c0.2-0.2,0.3-0.3,0.3-0.4
				c0-0.1,0-0.1-0.3-0.4C52.9,14.7,52.9,14.7,52.9,14.7z"/>
			<path class="st8" d="M51.5,14.3c-0.2,0-0.4,0.2-0.5,0.5c-0.1,0.2-0.1,0.6,0.1,0.7c0.2,0.1,0.5-0.1,0.6-0.3
				C51.9,14.8,51.7,14.3,51.5,14.3z"/>
			<path class="st8" d="M54.4,15.6c-0.2,0-0.5,0.2-0.5,0.5c0,0.1-0.1,0.2,0,0.4c0,0.1,0.1,0.3,0.3,0.3c0.2,0.1,0.3-0.1,0.4-0.1
				c0,0,0.3-0.2,0.3-0.5c0-0.1,0-0.1-0.1-0.2C54.5,15.7,54.5,15.6,54.4,15.6z"/>
			<path class="st8" d="M51.9,15.6c-0.2-0.1-0.4,0.2-0.5,0.4c0,0.1,0,0.2,0,0.4c0,0.2,0,0.3,0.1,0.3s0.1,0,0.4-0.2
				c0.2-0.2,0.3-0.2,0.3-0.2c0-0.1,0-0.2-0.1-0.4C52.1,15.7,52,15.6,51.9,15.6z"/>
			<path class="st8" d="M53.1,16.2c-0.1,0-0.1,0.1-0.4,0.3c-0.3,0.2-0.3,0.2-0.3,0.3c0,0.1,0.1,0.1,0.2,0.4c0.1,0.2,0.1,0.2,0.1,0.3
				c0.1,0,0.2,0,0.3-0.1c0.2-0.1,0.3-0.2,0.3-0.3c0,0,0-0.1,0-0.4C53.3,16.4,53.2,16.3,53.1,16.2z"/>
			<path class="st8" d="M50.7,15.6c-0.2,0-0.4,0.3-0.4,0.5c0,0.3,0.1,0.6,0.3,0.6c0,0,0,0,0.2-0.1c0.3-0.2,0.3-0.2,0.3-0.3
				s0-0.2-0.1-0.4C50.9,15.7,50.8,15.6,50.7,15.6z"/>
			<path class="st8" d="M53,12.7c-0.3,0.5-0.3,1.2-0.1,1.2c0.2,0.1,0.5-0.4,0.6-0.8c0.1-0.3,0.1-0.7-0.1-0.8
				C53.3,12.3,53.1,12.5,53,12.7z"/>
			<path class="st8" d="M51.1,17c-0.2,0-0.3,0.3-0.4,0.5c0,0.2,0,0.6,0.1,0.6c0.2,0.1,0.5-0.2,0.6-0.5C51.4,17.3,51.3,17,51.1,17z"
				/>
			<path class="st8" d="M52.1,17.5c-0.2,0-0.5,0.3-0.5,0.6c0,0.3,0.1,0.7,0.3,0.7s0.4-0.2,0.5-0.5C52.5,18,52.3,17.6,52.1,17.5z"/>
			<path class="st8" d="M53.8,17.3c0,0-0.1,0-0.3,0.3c-0.3,0.3-0.3,0.4-0.3,0.4c0,0.1,0,0.1,0.1,0.3c0.1,0.2,0.1,0.3,0.1,0.3
				s0.1,0,0.3-0.1c0.2-0.2,0.4-0.3,0.4-0.4s0-0.2-0.1-0.5C53.9,17.5,53.9,17.3,53.8,17.3z"/>
			<path class="st8" d="M55.1,17.2c0,0-0.1,0-0.3,0.2c-0.3,0.2-0.3,0.2-0.3,0.3c0,0.1,0,0.1,0.1,0.4s0,0.5,0.1,0.5s0.1,0,0.3-0.1
				s0.4-0.2,0.4-0.4c0-0.1,0-0.1-0.1-0.4C55.1,17.4,55.2,17.2,55.1,17.2z"/>
			<path class="st8" d="M52.7,18.4c-0.1,0-0.1,0.1-0.3,0.5c-0.1,0.2-0.1,0.3-0.1,0.4s0,0.2,0.1,0.3c0,0,0.1,0.2,0.3,0.2
				c0.1,0,0.2-0.1,0.4-0.3c0.2-0.2,0.3-0.3,0.3-0.4s0-0.1-0.3-0.4C52.8,18.4,52.8,18.4,52.7,18.4z"/>
			<path class="st8" d="M53.7,19.4c-0.1,0-0.1,0.1-0.3,0.3c-0.2,0.2-0.2,0.2-0.3,0.3c0,0.1,0.1,0.2,0.2,0.4c0.1,0.3,0.1,0.4,0.2,0.5
				c0.1,0,0.2-0.1,0.5-0.2c0.3-0.2,0.4-0.3,0.4-0.4s-0.1-0.2-0.2-0.4C54,19.6,53.8,19.4,53.7,19.4z"/>
			<path class="st13" d="M55.1,10.7c-0.1,0.2,1,0.8,1.1,2.1c0.1,1.1-0.6,1.7-0.2,2.2c0.3,0.4,0.8,0,1.4,0.4c0.7,0.5,0.3,1.2,0.9,2
				c0.6,0.7,1.3,0.5,1.6,1.2c0.1,0.1,0.3,0.6,0.1,1c-0.3,0.7-1.1,0.7-1.3,1.2c-0.1,0.6,0.8,1.6,1.9,1.8c0.5,0.1,0.8-0.1,1.6,0.1
				c0.7,0.2,0.8,0.4,0.9,0.3c0.6-0.3,0.3-3.6-1.5-6c-0.9-1.2-1.3-1.1-2.5-2.7c-0.7-0.9-1-1.5-1.9-2.4C56.2,11.1,55.2,10.5,55.1,10.7
				z"/>
			<path class="st13" d="M57.7,20.3"/>
			<path class="st8" d="M43.1,36c-0.5-0.9-1.2-0.7-3.2-1.9c-1.4-0.9-1.6-1.3-2.3-1.2c-1,0.1-1.9,1.2-2.2,2c-0.9,2.3,0.3,5.8,3,7.2
				c3.5,1.8,7.8-0.8,7.8-1.8c0-0.6-1.7-0.5-2.5-1.9C43.1,37.4,43.6,36.9,43.1,36z"/>
			<path class="st13" d="M52.1,38.4c0,0.3,1.9,0,3.2,1.2c1.3,1.3,0.6,3.1,1.6,3.6c0.9,0.5,2.7-0.4,3-1.5c0.4-1.4-1.7-2.9-3-3.4
				C54.6,37.4,52.1,38.1,52.1,38.4z"/>
			<path class="st13" d="M76,31.6"/>
			<path class="st14" d="M75.9,31.2c-0.6-0.2-1,0.9-2.8,2c-1.5,1-2.8,1.2-2.7,1.5c0,0.2,0.7,0.1,1.9,0.3c2,0.3,2.5,0.8,3.1,0.5
				c0.7-0.4,0.9-1.5,0.9-2C76.4,32.9,76.4,31.5,75.9,31.2z"/>
			<path class="st15" d="M65.1,43.8c-0.9,0.9-1.8,1-3.3,1.4c-2.4,0.7-4.7,1.7-4.6,2c0.1,0.3,2.1-0.3,2.4,0.3
				c0.3,0.7-1.5,2.9-3.9,3.6c-2.7,0.8-5.1-0.7-5.5,0c-0.2,0.4,0.3,1.1,0.9,1.6c1.1,0.9,2.6,0.9,7.3,0.2c2.4-0.3,3.6-0.5,4.1-0.6
				c4.6-1,10.6-2.3,13.4-6.7c0.1-0.2,0.8-1.3,1.2-2.9c0.7-2.8,0.4-6.1-0.5-6.3c-0.8-0.2-1.1,2.3-4,4.7c-1.4,1.1-2.5,2.1-3.9,1.9
				c-0.8-0.1-1.6-0.5-2.4-0.1C65.7,43.1,65.5,43.4,65.1,43.8z"/>
			<path class="st15" d="M76.7,24.2c-1-0.4-2,3.6-6.6,6.6c-1.7,1.1-5.7,3.7-9.6,3.4c-0.4,0-1.7-0.2-3.3,0.4c-1.2,0.5-2.6,1.5-2.4,2
				c0.3,0.8,4.3,0.2,5.8-0.1c3.9-0.6,6.5-1.6,10.5-3.2c3.1-1.2,3.7-1.7,4.3-2.4C77.6,28.5,77.6,24.5,76.7,24.2z"/>
			<path class="st16" d="M66.8,46.7c-1,0.3-2.1,0.7-3.1,0.9c-0.8,0.2-1.5,0.3-2.1,0.9c-0.5,0.5-0.6,0.9-0.8,1.3c-1,2-3,2.4-2.9,2.7
				c0.2,0.6,6.1-0.8,12.4-3.4c2.2-0.9,3.2-1.4,4.2-2.5c2.6-2.8,2.9-7.3,2-7.7c-0.4-0.2-0.9,0.6-3.7,3.2
				C69.9,44.9,68.4,46.2,66.8,46.7z"/>
			<path class="st17" d="M37.6,32.9c-0.1,0.1,2.6,1.4,2.6,3.2c0,1.1-0.9,1.3-1,2.5c-0.1,1.3,1,2.6,2.2,3.2c2.5,1.2,5.6-0.9,5.4-1.6
				c-0.1-0.5-1.8,0-2.8-1.2c-0.8-1-0.1-1.8-0.9-3c-0.5-0.7-0.9-0.5-2.8-1.6C38.8,33.6,37.7,32.8,37.6,32.9z"/>
			<path class="st15" d="M45.8,42.6c-0.9-0.2-1,0.4-2.6,0.7c-2.4,0.4-3.6-0.5-4.2,0.2c-0.3,0.4,0,0.7,0,2.7c0,1.4-0.2,1.4-0.1,1.9
				c0.6,1.8,4.3,2,4.7,2c1,0.1,2.2-0.2,4.6-0.7c3.8-0.8,4.1-1.1,4.1-1.3c0.1-0.6-1.4-0.7-3.3-2.3C47.1,44.2,47.1,42.9,45.8,42.6z"/>
			<path class="st7" d="M45.1,41.6c-1.5,0.4-2.9,0.7-2.9,1.1c0,0.3,1.5,0,2.4,1c0.4,0.5,0.3,0.8,0.8,1.1c0.6,0.3,1.6,0.3,2.1-0.4
				c0.6-0.7,0.4-1.5,0.3-1.6c-0.2-1-1.2-1.3-1.3-1.3C46.1,41.4,45.8,41.4,45.1,41.6z"/>
			<path class="st7" d="M66.6,43.2c-0.4,0.2-0.6,0.9-0.4,1.2c0.3,0.5,1.6,0.2,1.7-0.2C68,43.8,67.2,42.9,66.6,43.2z"/>
			<path class="st7" d="M54.4,20.2"/>
			<path class="st18" d="M72.8,48.3c-7.1,4.2-14.5,5.1-14.5,5.1c-9.3,1.1-16.7-3.2-16.7-3c-0.1,0.2,6.5,3.7,15.8,4.5
				c6.3,0.6,11.2-0.3,16.1-1.2c1.1-0.2,3.8-0.7,7-2.1c2.2-1,6.9-3,6.7-4.9C87,45,83,44,81.8,43.7c-1.8-0.4-2.7-0.6-3.7-0.2
				c-1.6,0.7-1.7,2.3-4.2,4.1C73.5,47.9,73.2,48.1,72.8,48.3z"/>
			<path class="st19" d="M76.6,44.2c0.1-0.3,0.2-1,0.1-1.1C76.5,43,76.2,44,75,45.3c-0.8,0.9-1.9,2-4.1,3c-1,0.5-1.6,0.7-3.8,1.6
				c-2.3,0.9-3.4,1.4-3.8,1.6c-2.1,0.8-9.6,3.2-17.3,0.8c-4.9-1.6-8.1-4.5-8.2-4.3c-0.1,0.1,1.8,1.6,3.8,2.8c0.7,0.4,2,1.2,3.7,1.8
				c3.4,1.2,6.4,1.3,8.5,1.2c0.9,0,2.8-0.1,5.1-0.5c0.9-0.2,3-0.5,6.8-2C71,49.2,75.6,48.3,76.6,44.2z"/>
			<path class="st9" d="M68.5,17.6c-0.1-0.1-0.3,0.1-1.6,1.6c-1.2,1.3-1.5,1.6-1.6,2.1c-0.3,0.8-0.3,1.8-0.1,1.9
				c0.2,0.1,0.4-0.2,1.7-2c0.8-1,0.9-1.2,1.2-1.6C68.5,18.8,68.8,17.8,68.5,17.6z"/>
			<path class="st13" d="M70.2,35c-1.2-1-4.1,2.9-8.1,2.7c-1-0.1-2.1-0.4-2.5,0.2c-0.3,0.5,0.1,1.3,0.2,1.6
				c1.3,2.5,6.4,4.9,10.8,3.2c2.9-1.1,5.1-3.9,4.7-4.6c-0.1-0.2-0.4-0.2-0.9-0.4c-1.1-0.3-1.4,0-2.1-0.2s-1.1-0.7-1.3-0.9
				C70.3,35.7,70.5,35.3,70.2,35z"/>
			<path class="st7" d="M38.9,43.1c-0.2,0.3-0.2,0.7,0,0.9c0.4,0.4,1.8-0.4,1.8-0.8C40.7,42.9,39.4,42.5,38.9,43.1z"/>
		</g>
	</g>
</g>
<rect x="7" y="6.5" class="st20" width="99.5" height="48.2"/>
<g>
	<path class="st21" d="M38,34.5c-0.2,0.4,0.1,0.4,0.1,3.7c0,2.5-0.2,2.8,0,3.7c0.1,0.6,0.4,1.5,2.3,3.8c1.6,1.9,2.5,3,3.9,4.1
		c2.8,2.1,5.7,2.7,9.4,3.4c1.4,0.3,3.2,0.6,5.6,0.6c3.1,0,5.4-0.5,8.7-1.2c2.6-0.6,3.9-0.8,5.5-1.6c2.5-1.1,4.4-2.4,5.6-3.4
		c0.3-0.3,0.8-0.7,1.2-1.2c0.8-1.1,1-2.2,1.2-3.6c0.5-3.4,0.7-5.1,0.1-5.8c-1.3-1.5-4.1-0.1-4.9-0.1C64.3,35.9,39.8,30.2,38,34.5z"
		/>
	<path class="st22" d="M41.9,29c-1.3,0.3-3.5,1-4,2.5c-0.6,2,1.9,4.3,2.3,4.7c3.4,3.2,6.5,1.8,9.5,5.1c1.1,1.2,0.9,1.6,2.1,2.7
		c2.3,2.1,5,2.5,5.9,2.7c1.1,0.2,4.2,0.5,13.9-4.8c8.1-4.4,8.4-5.9,8.3-6.6c-0.2-1.4-2-2.3-3.2-2.8C64.3,26.9,50.3,27,41.9,29z"/>
	<path class="st23" d="M77.7,29.7c-1.3,0.5-3.5,1.4-3.6,3c-0.1,1.8,1.7,3.1,3.2,3.4c2,0.4,3.6-1,3.8-1.2c0.4-0.4,1.2-1.1,1.2-2.3
		c0.1-1.5-0.9-2.9-2.3-3.3C79.3,29.1,78.6,29.4,77.7,29.7z"/>
	<path class="st23" d="M72.4,34.4c-1.9,0.8-1.7,3.2-4.4,4.4c-1.2,0.5-1.9,0.3-2,0.8c-0.3,0.9,2.4,3.5,5.5,3.5c2.1,0,3.6-1.2,4.7-2
		c1.3-1,2.9-2.3,2.7-3.7C78.7,35.3,74.7,33.3,72.4,34.4z"/>
	<path class="st23" d="M38.1,25.9c-1.3,0.2-2.8,1.2-3,2.5c-0.1,0.7,0.1,1.5,0.5,2.6c0.3,0.8,0.4,1.2,0.7,1.5c0.9,1,2.7,1.4,4.2,0.9
		c1.4-0.5,2.5-1.9,2.6-3.4C43.2,27.5,40.4,25.6,38.1,25.9z"/>
	<path class="st21" d="M38,23.2c-0.8,3.3,1.2,6.3,2,7.5c0,0,0.1,0.2,0.3,0.4c1.9,2.4,9,6.3,19.9,6.2c0,0,8.1-0.1,15.6-3.7
		c0.8-0.4,2.3-1.2,3.5-2.8c0.4-0.5,2.2-2.9,1.7-5.4c-0.4-1.9-1.8-3.2-3.5-4.3c-4.5-3-10.2-4.1-17.1-4.8c-11.5-1.1-14.6,0.2-16.1,0.9
		C42.4,18,38.8,19.7,38,23.2z"/>
	<path class="st23" d="M57.3,37.5c-1.4,0-4.4-0.1-5.3,1.7c-0.8,1.6,0.5,3.8,1.6,4.9c2,2,4.9,1.7,6.8,1.6c1.6-0.1,3.2-0.3,3.9-1.5
		c0.9-1.6-0.4-3.7-0.5-3.9C62.1,37.6,58.4,37.5,57.3,37.5z"/>
	<path class="st24" d="M47.1,16c-3.3,1.3-7.2,2.7-7.7,5.5c-0.7,4,5.7,8.2,6.9,9c1.3,0.8,3.2,0.6,4.6,2.2c0.7,0.7,1.1,1.6,2,1.6
		c0.7,0,0.8-0.6,1.7-1c0.7-0.3,1.2-0.2,4.4,0.2c2.1,0.3,2,0.3,2.3,0.4c2.2,0.2,3.9,0,4.3,0c3.4-0.4,5.8-1.8,7.2-2.6
		c1.8-1.1,3-2.1,3.8-2.8c2.3-2.1,3.6-3.1,3.6-4.1c0.2-4.4-11.1-9.3-20.7-10.1C57.3,14.2,52.5,14,47.1,16z"/>
	<path class="st25" d="M51.3,11.4c0.3,4.3-0.2,5.3-0.7,5.5c-0.7,0.2-1.3-1.2-3.1-2c-1.3-0.5-2.7-0.4-3.6-0.2
		c-0.9,0.4-3.1,1.3-3.8,3.4c-1.2,3.2,1.9,6.7,3.3,8.2c3.8,4.3,9,5.4,11.5,5.8c2.7-1.3,5.4-0.7,7.5,1c3.6,2.1,14.7-5.7,16.4-9.6
		c0.3-0.6,1.1-2,0.9-3.9c-0.1-0.8-0.2-2.3-1.4-3.1c-1.2-0.9-3.1-0.7-4.7,0.4c0.4-0.4,1.1-1.2,1.1-2.3c-0.1-1.4-1.4-2.3-2.6-3.1
		c-0.9-0.6-1.3-0.9-1.9-0.9c-1.2-0.1-1.8,0.8-3.5,1.8c-0.7,0.4-1.8,1-3.2,1.5c-0.2,0-0.8,0.1-1.4-0.3c-0.5-0.3-0.9-0.7-0.9-1
		C59.3,10.2,54.4,9,51.3,11.4z"/>
	<path class="st24" d="M73.6,16.9c-0.3,0.1-0.2,0.9-0.3,1.6c-0.4,3-4,3.6-5.7,6.9c-1.2,2.3-1.2,5.2-0.5,5.5c0.6,0.3,1.5-1.4,5.4-5.1
		c1-0.9,1.8-1.9,3.6-3.7c1.1-1.2,1.8-2,1.7-3c-0.1-1.2-1.1-2.2-1.5-2c-0.3,0.1,0.1,1.1-0.3,2.4c-0.4,1.1-1.1,1.7-1.6,2
		c-3.1,2.7-4.8,6.1-5.3,5.8c-0.3-0.2,0.1-1.9,1.1-3.2c0.5-0.7,0.8-0.8,2.6-2.4c1.9-1.7,2.1-2.1,2.2-2.6C75.1,18,74,16.8,73.6,16.9z"
		/>
	<path class="st24" d="M78.2,20.9c-0.3,0.8-0.8,1.7-1.5,2.7c-0.3,0.5-1.1,1.6-2.4,2.7c-1.1,1-2.2,1.7-3.1,2.2"/>
	<path class="st24" d="M66,29.7c0.1-0.3-3.3-2.1-6.8-3.4c-4-1.5-6.5-1.9-7.3-3.8c-0.1-0.4-0.5-1.4-1.4-1.9c-0.5-0.3-1.2-0.4-1.4-0.1
		s0.3,0.8,0.7,1.3c1.9,2.3,3.1,3.8,5.8,5.1c0.7,0.3,1.4,0.6,2.8,1C61.3,28.8,65.9,30.1,66,29.7z"/>
	<path class="st24" d="M48.7,21.8c0.6,0.3,1,0.7,1.2,0.8c1.6,1.4,1.7,2.8,3,4c0.8,0.7,1.6,1.1,2.6,1.6c3.2,1.4,4.5,0.7,7.8,2
		c0.5,0.2,1.2,0.6,2.3,0.8c1.6,0.3,2.5,0.1,2.6,0.3c0.1,0.3-2.2,1.4-4.5,1.1c-1.5-0.2-2.2-0.9-3.5-1.7c-4.6-2.8-6.3-0.9-9.6-3.5
		c-1.2-0.9-1.5-1.6-2.4-2.5c-0.5-0.5-1-0.9-1.5-1.3c-1-0.8-1.4-1-1.4-1.4c0.1-0.5,1-0.7,1.6-0.8C47.5,21.2,48.2,21.5,48.7,21.8z"/>
	<path class="st24" d="M58.2,30.9c0-0.4-4.3,0.2-8-2.6c-3-2.2-4-3.7-4-3.7c-0.3-0.4-0.7-0.9-1.1-1.6c-0.5-0.7-0.5-0.8-0.7-0.9
		c-1-0.9-3.7-0.3-3.9,0.5c-0.1,0.7,1.5,1.1,4.2,3c3.5,2.5,3.3,3.8,5.6,4.8C54.2,32.2,58.2,31.3,58.2,30.9z"/>
	<path class="st24" d="M62.6,15.3c-0.1-0.5,1.1-1.2,1.9-1.8c1.8-1.1,2.4-1,3.9-2.1c0.8-0.6,0.8-0.8,1.2-0.9c1.3-0.1,3.6,3.3,2.6,5.7
		c-0.8,1.9-3.5,2.6-3.6,2.3c-0.2-0.2,1.8-1.1,2.3-3c0.5-2-0.8-4-0.9-3.9c-0.2,0,0.8,1.9,0.1,3.9c-0.5,1.3-1.7,2.9-3,2.8
		c-0.8,0-1.6-0.6-1.6-1.2s1.3-0.7,2.2-1.9c1-1.2,1.1-2.9,0.9-3c-0.3-0.1-0.7,2.1-2.6,3C64.5,15.9,62.8,15.7,62.6,15.3z"/>
	<path class="st24" d="M48.9,16.4c-1.4-0.8-5-2-5-1.7c-0.1,0.4,8.7,3.3,6.1,6c-1.4-0.4-9.9-9.1-4.4-1.8c1.2,1.2,2.3,1.5,2.3,1.8
		c-0.1,0.4-1.4,0.7-2.3,0.2c-1.4-0.7-2.7-6.3-2.8-5.7c-0.3,0.6-0.6,1.6-0.5,2.8c0,1.5,0.4,2.7,0.7,3.3c-0.7,0.3-1.1,0.2-1.3,0.1
		c-1-0.5-1.3-2.6-0.4-5.3c-0.2,0-0.9,1.3-0.9,2.8c0.1,1.6,0,2-0.1,2c-0.2,0-1.1-2-0.5-3.7c0.2-0.5,0.4-0.6,1.6-2.3
		c0.3-0.5,0.6-0.9,0.8-1.2C48.3,15.7,51.3,16.6,48.9,16.4z"/>
	<path class="st24" d="M53.7,9.4c-1.3,1-2.6,2-4,3"/>
	<path class="st24" d="M53.4,17.4c2.8,1.1,4.3,1.6,4.7,1.6c3,0.3,6.8-1,7.1-2.9c0.2-1.1-0.8-2-2.4-3.5c-2.1-2-4.1-3.9-6.9-3.7
		c-0.2,0-3.6,0.4-5.1,3.1c-0.2,0.3-1.2,2.2-0.4,3.6C50.7,16.3,51.2,16.5,53.4,17.4z"/>
	<path class="st23" d="M52.9,23.4c-0.6-1.1-0.7-2.1-0.8-2.8c-0.3-3.4,1.5-5.9,3.4-8.4c0.9-1.2,1.6-1.8,2.5-2
		c1.1-0.2,2.1,0.4,2.3,0.5c0.7,0.5,0.8,0.9,1.5,1.8c1.2,1.5,1.7,1.3,2.9,2.7c0.8,1,1.3,1.9,1.6,2.8c0.6,1.4,1.1,2.4,0.9,3.6
		c-0.3,2.4-2.5,3.9-2.9,4.1C60.9,28,55,26.9,52.9,23.4z"/>
	<path class="st24" d="M53.4,24.8c0-1,1.1-2,2.2-2.3c1-0.2,1.3,0.4,2.2,0.1c1.2-0.4,1.2-2,2.1-2c0.4,0,0.6,0.4,1.2,0.4
		c0.5,0,0.6-0.3,1-0.2c0.7,0,0.8,0.8,1.6,1.4s1.4,0.1,2.8,0.6c1,0.4,2.2,0.9,2.3,1.6c0.2,1.3-2.9,2.7-3.3,2.9
		c-0.3,0.1-1.1,0.5-2.3,0.7c-2.3,0.4-4.2,0-4.8-0.2C57.6,27.7,53.4,26.6,53.4,24.8z"/>
	<path class="st25" d="M60.5,21.2c-0.6-0.1-0.7,2.8-2.8,4.3c-0.7,0.5-1.4,0.7-1.4,1.1c0,0.6,1.4,1.1,2,1.2c0.5,0.2,2.6,0.8,3.1,0
		c0.2-0.3,0-0.5-0.1-1.5c-0.2-1.7,0.1-2.1-0.2-3.6C61,22,60.8,21.2,60.5,21.2z"/>
	<path class="st26" d="M60.5,21.6c0.4-0.3,1.2,0.8,4.3,2.8c1,0.6,1.6,1,1.6,1.5c0,0.2-0.1,0.5-1.9,1.2c-1.7,0.7-2.6,1.1-3,0.7
		c-0.4-0.3-0.1-1-0.1-2.3C61.3,23.2,60.1,21.9,60.5,21.6z"/>
	<path class="st27" d="M57.4,10.9c0.2,0,0.2,0.4,0.5,0.8c0.2,0.3,0.6,0.5,0.8,0.6c-0.2,0.3-0.3,0.9-0.2,1.6c0,0.1,0,0.2,0.1,0.3
		c0,0.1-0.2,0.3-0.2,0.3c-0.6,0.5-0.7,0.7-0.6,0.8c0.1,0.1,0.4-0.1,0.8,0c0.1,0,0.1,0.1,0.7,0.7c0.3,0.3,0.6,0.5,0.7,0.9
		c0,0.1,0,0.1,0,0.1c0.1,0.4-0.1,0.8-0.2,1c-0.5,1-1.7,1.1-1.6,1.5c0,0.2,0.2,0.2,0.3,0.4c0.1,0.3,0,0.6-0.2,0.9
		c-0.4,0.7-0.9,1.1-1.1,1.2c-0.8,0.5-2.1,0.8-2.4,0.4c-0.3-0.3,0.3-0.8,0.1-1.4c-0.3-0.8-1.4-0.8-1.6-1.6c-0.1-0.5,0.1-1,0.2-1.2
		c0.2-0.6,0.6-0.7,0.5-1.1c0-0.4-0.3-0.4-0.4-0.7c-0.1-0.3,0.1-0.4,0.6-1.4c0.2-0.4,0.2-0.5,0.4-0.9c0.1-0.2,0.2-0.4,0.4-0.6
		c0.3-0.3,0.5-0.3,0.7-0.5s0.2-0.3,0.6-0.8C56.9,11.3,57.2,10.9,57.4,10.9z"/>
	<path class="st23" d="M56,13.1c-0.3,0-0.7,0.5-0.6,1c0.1,0.2,0.4,0.4,0.6,0.3c0.2-0.1,0.3-0.5,0.3-0.6C56.3,13.5,56.2,13.1,56,13.1
		z"/>
	<path class="st23" d="M57.5,13.4c-0.1,0-0.1,0-0.4,0.5c-0.1,0.2-0.1,0.2-0.2,0.2c-0.1,0.3,0.1,0.8,0.3,0.8s0.3-0.1,0.4-0.2
		c0.1-0.1,0.3-0.3,0.3-0.5s-0.1-0.3-0.2-0.4C57.7,13.5,57.6,13.4,57.5,13.4z"/>
	<path class="st23" d="M56.6,14.6c-0.2,0-0.4,0.3-0.4,0.6s0.1,0.6,0.3,0.7c0.1,0,0.2-0.1,0.3-0.2c0.2-0.2,0.3-0.3,0.3-0.4
		c0-0.1,0-0.1-0.3-0.4C56.6,14.6,56.6,14.6,56.6,14.6z"/>
	<path class="st23" d="M55.2,14.2c-0.2,0-0.4,0.2-0.5,0.5c-0.1,0.2-0.1,0.6,0.1,0.7c0.2,0.1,0.5-0.1,0.6-0.3
		C55.6,14.7,55.4,14.2,55.2,14.2z"/>
	<path class="st23" d="M58.1,15.5c-0.2,0-0.5,0.2-0.5,0.5c0,0.1-0.1,0.2,0,0.4c0,0.1,0.1,0.3,0.3,0.3c0.2,0.1,0.3-0.1,0.4-0.1
		c0,0,0.3-0.2,0.3-0.5c0-0.1,0-0.1-0.1-0.2C58.2,15.6,58.2,15.5,58.1,15.5z"/>
	<path class="st23" d="M55.6,15.5c-0.2-0.1-0.4,0.2-0.5,0.4c0,0.1,0,0.2,0,0.4c0,0.2,0,0.3,0.1,0.3s0.1,0,0.4-0.2
		c0.2-0.2,0.3-0.2,0.3-0.2c0-0.1,0-0.2-0.1-0.4C55.8,15.6,55.7,15.5,55.6,15.5z"/>
	<path class="st23" d="M56.8,16.1c-0.1,0-0.1,0.1-0.4,0.3c-0.3,0.2-0.3,0.2-0.3,0.3s0.1,0.1,0.2,0.4c0.1,0.2,0.1,0.2,0.1,0.3
		c0.1,0,0.2,0,0.3-0.1c0.2-0.1,0.3-0.2,0.3-0.3c0,0,0-0.1,0-0.4C57,16.3,56.9,16.2,56.8,16.1z"/>
	<path class="st23" d="M54.4,15.5c-0.2,0-0.4,0.3-0.4,0.5c0,0.3,0.1,0.6,0.3,0.6c0,0,0,0,0.2-0.1c0.3-0.2,0.3-0.2,0.3-0.3
		s0-0.2-0.1-0.4S54.5,15.5,54.4,15.5z"/>
	<path class="st23" d="M56.7,12.6c-0.3,0.5-0.3,1.2-0.1,1.2c0.2,0.1,0.5-0.4,0.6-0.8c0.1-0.3,0.1-0.7-0.1-0.8
		C57,12.2,56.8,12.4,56.7,12.6z"/>
	<path class="st23" d="M54.8,16.9c-0.2,0-0.3,0.3-0.4,0.5c0,0.2,0,0.6,0.1,0.6c0.2,0.1,0.5-0.2,0.6-0.5C55.1,17.2,55,16.9,54.8,16.9
		z"/>
	<path class="st23" d="M55.8,17.4c-0.2,0-0.5,0.3-0.5,0.6c0,0.3,0.1,0.7,0.3,0.7s0.4-0.2,0.5-0.5C56.2,17.9,56,17.5,55.8,17.4z"/>
	<path class="st23" d="M57.5,17.2c0,0-0.1,0-0.3,0.3c-0.3,0.3-0.3,0.4-0.3,0.4c0,0.1,0,0.1,0.1,0.3c0.1,0.2,0.1,0.3,0.1,0.3
		s0.1,0,0.3-0.1c0.2-0.2,0.4-0.3,0.4-0.4s0-0.2-0.1-0.5C57.6,17.4,57.6,17.2,57.5,17.2z"/>
	<path class="st23" d="M58.8,17.1c0,0-0.1,0-0.3,0.2c-0.3,0.2-0.3,0.2-0.3,0.3c0,0.1,0,0.1,0.1,0.4s0,0.5,0.1,0.5s0.1,0,0.3-0.1
		s0.4-0.2,0.4-0.4c0-0.1,0-0.1-0.1-0.4C58.8,17.3,58.9,17.1,58.8,17.1z"/>
	<path class="st23" d="M56.4,18.3c-0.1,0-0.1,0.1-0.3,0.5C56,19,56,19.1,56,19.2s0,0.2,0.1,0.3c0,0,0.1,0.2,0.3,0.2
		c0.1,0,0.2-0.1,0.4-0.3c0.2-0.2,0.3-0.3,0.3-0.4s0-0.1-0.3-0.4C56.5,18.3,56.5,18.3,56.4,18.3z"/>
	<path class="st23" d="M57.4,19.3c-0.1,0-0.1,0.1-0.3,0.3c-0.2,0.2-0.2,0.2-0.3,0.3c0,0.1,0.1,0.2,0.2,0.4c0.1,0.3,0.1,0.4,0.2,0.5
		c0.1,0,0.2-0.1,0.5-0.2c0.3-0.2,0.4-0.3,0.4-0.4S58,20,57.9,19.8C57.7,19.5,57.5,19.3,57.4,19.3z"/>
	<path class="st28" d="M58.8,10.6c-0.1,0.2,1,0.8,1.1,2.1c0.1,1.1-0.6,1.7-0.2,2.2c0.3,0.4,0.8,0,1.4,0.4c0.7,0.5,0.3,1.2,0.9,2
		c0.6,0.7,1.3,0.5,1.6,1.2c0.1,0.1,0.3,0.6,0.1,1c-0.3,0.7-1.1,0.7-1.3,1.2c-0.1,0.6,0.8,1.6,1.9,1.8c0.5,0.1,0.8-0.1,1.6,0.1
		c0.7,0.2,0.8,0.4,0.9,0.3c0.6-0.3,0.3-3.6-1.5-6c-0.9-1.2-1.3-1.1-2.5-2.7c-0.7-0.9-1-1.5-1.9-2.4C59.9,11,58.9,10.4,58.8,10.6z"/>
	<path class="st28" d="M61.4,20.2"/>
	<path class="st23" d="M46.8,35.9c-0.5-0.9-1.2-0.7-3.2-1.9c-1.4-0.9-1.6-1.3-2.3-1.2c-1,0.1-1.9,1.2-2.2,2c-0.9,2.3,0.3,5.8,3,7.2
		c3.5,1.8,7.8-0.8,7.8-1.8c0-0.6-1.7-0.5-2.5-1.9C46.8,37.3,47.3,36.8,46.8,35.9z"/>
	<path class="st28" d="M55.8,38.3c0,0.3,1.9,0,3.2,1.2c1.3,1.3,0.6,3.1,1.6,3.6c0.9,0.5,2.7-0.4,3-1.5c0.4-1.4-1.7-2.9-3-3.4
		C58.3,37.3,55.8,38,55.8,38.3z"/>
	<path class="st28" d="M79.7,31.5"/>
	<path class="st29" d="M79.6,31.1c-0.6-0.2-1,0.9-2.8,2c-1.5,1-2.8,1.2-2.7,1.5c0,0.2,0.7,0.1,1.9,0.3c2,0.3,2.5,0.8,3.1,0.5
		c0.7-0.4,0.9-1.5,0.9-2C80.1,32.8,80.1,31.4,79.6,31.1z"/>
	<path class="st30" d="M68.8,43.7c-0.9,0.9-1.8,1-3.3,1.4c-2.4,0.7-4.7,1.7-4.6,2c0.1,0.3,2.1-0.3,2.4,0.3c0.3,0.7-1.5,2.9-3.9,3.6
		c-2.7,0.8-5.1-0.7-5.5,0c-0.2,0.4,0.3,1.1,0.9,1.6c1.1,0.9,2.6,0.9,7.3,0.2c2.4-0.3,3.6-0.5,4.1-0.6c4.6-1,10.6-2.3,13.4-6.7
		c0.1-0.2,0.8-1.3,1.2-2.9c0.7-2.8,0.4-6.1-0.5-6.3c-0.8-0.2-1.1,2.3-4,4.7c-1.4,1.1-2.5,2.1-3.9,1.9c-0.8-0.1-1.6-0.5-2.4-0.1
		C69.4,43,69.2,43.3,68.8,43.7z"/>
	<path class="st30" d="M80.4,24.1c-1-0.4-2,3.6-6.6,6.6c-1.7,1.1-5.7,3.7-9.6,3.4c-0.4,0-1.7-0.2-3.3,0.4c-1.2,0.5-2.6,1.5-2.4,2
		c0.3,0.8,4.3,0.2,5.8-0.1c3.9-0.6,6.5-1.6,10.5-3.2c3.1-1.2,3.7-1.7,4.3-2.4C81.3,28.4,81.3,24.4,80.4,24.1z"/>
	<path class="st31" d="M70.5,46.6c-1,0.3-2.1,0.7-3.1,0.9c-0.8,0.2-1.5,0.3-2.1,0.9c-0.5,0.5-0.6,0.9-0.8,1.3c-1,2-3,2.4-2.9,2.7
		C61.8,53,67.7,51.6,74,49c2.2-0.9,3.2-1.4,4.2-2.5c2.6-2.8,2.9-7.3,2-7.7c-0.4-0.2-0.9,0.6-3.7,3.2C73.6,44.8,72.1,46.1,70.5,46.6z
		"/>
	<path class="st32" d="M41.3,32.8c-0.1,0.1,2.6,1.4,2.6,3.2c0,1.1-0.9,1.3-1,2.5c-0.1,1.3,1,2.6,2.2,3.2c2.5,1.2,5.6-0.9,5.4-1.6
		c-0.1-0.5-1.8,0-2.8-1.2c-0.8-1-0.1-1.8-0.9-3c-0.5-0.7-0.9-0.5-2.8-1.6C42.5,33.5,41.4,32.7,41.3,32.8z"/>
	<path class="st30" d="M49.5,42.5c-0.9-0.2-1,0.4-2.6,0.7c-2.4,0.4-3.6-0.5-4.2,0.2c-0.3,0.4,0,0.7,0,2.7c0,1.4-0.2,1.4-0.1,1.9
		c0.6,1.8,4.3,2,4.7,2c1,0.1,2.2-0.2,4.6-0.7c3.8-0.8,4.1-1.1,4.1-1.3c0.1-0.6-1.4-0.7-3.3-2.3C50.8,44.1,50.8,42.8,49.5,42.5z"/>
	<path class="st22" d="M48.8,41.5c-1.5,0.4-2.9,0.7-2.9,1.1c0,0.3,1.5,0,2.4,1c0.4,0.5,0.3,0.8,0.8,1.1c0.6,0.3,1.6,0.3,2.1-0.4
		c0.6-0.7,0.4-1.5,0.3-1.6c-0.2-1-1.2-1.3-1.3-1.3C49.8,41.3,49.5,41.3,48.8,41.5z"/>
	<path class="st22" d="M70.3,43.1c-0.4,0.2-0.6,0.9-0.4,1.2c0.3,0.5,1.6,0.2,1.7-0.2C71.7,43.7,70.9,42.8,70.3,43.1z"/>
	<path class="st22" d="M58.1,20.1"/>
	<path class="st33" d="M76.5,48.2C69.4,52.4,62,53.3,62,53.3c-9.3,1.1-16.7-3.2-16.7-3c-0.1,0.2,6.5,3.7,15.8,4.5
		c6.3,0.6,11.2-0.3,16.1-1.2c1.1-0.2,3.8-0.7,7-2.1c2.2-1,6.9-3,6.7-4.9c-0.2-1.7-4.2-2.7-5.4-3c-1.8-0.4-2.7-0.6-3.7-0.2
		c-1.6,0.7-1.7,2.3-4.2,4.1C77.2,47.8,76.9,48,76.5,48.2z"/>
	<path class="st34" d="M80.3,44.1c0.1-0.3,0.2-1,0.1-1.1c-0.2-0.1-0.5,0.9-1.7,2.2c-0.8,0.9-1.9,2-4.1,3c-1,0.5-1.6,0.7-3.8,1.6
		c-2.3,0.9-3.4,1.4-3.8,1.6c-2.1,0.8-9.6,3.2-17.3,0.8c-4.9-1.6-8.1-4.5-8.2-4.3c-0.1,0.1,1.8,1.6,3.8,2.8c0.7,0.4,2,1.2,3.7,1.8
		c3.4,1.2,6.4,1.3,8.5,1.2c0.9,0,2.8-0.1,5.1-0.5c0.9-0.2,3-0.5,6.8-2C74.7,49.1,79.3,48.2,80.3,44.1z"/>
	<path class="st24" d="M72.2,17.5c-0.1-0.1-0.3,0.1-1.6,1.6c-1.2,1.3-1.5,1.6-1.6,2.1c-0.3,0.8-0.3,1.8-0.1,1.9
		c0.2,0.1,0.4-0.2,1.7-2c0.8-1,0.9-1.2,1.2-1.6C72.2,18.7,72.5,17.7,72.2,17.5z"/>
	<path class="st28" d="M73.9,34.9c-1.2-1-4.1,2.9-8.1,2.7c-1-0.1-2.1-0.4-2.5,0.2c-0.3,0.5,0.1,1.3,0.2,1.6
		c1.3,2.5,6.4,4.9,10.8,3.2c2.9-1.1,5.1-3.9,4.7-4.6c-0.1-0.2-0.4-0.2-0.9-0.4c-1.1-0.3-1.4,0-2.1-0.2s-1.1-0.7-1.3-0.9
		C74,35.6,74.2,35.2,73.9,34.9z"/>
	<path class="st22" d="M42.6,43c-0.2,0.3-0.2,0.7,0,0.9c0.4,0.4,1.8-0.4,1.8-0.8C44.4,42.8,43.1,42.4,42.6,43z"/>
</g>
<g class="st0">
	<rect x="19.1" y="55.6" class="st35" width="81" height="23.9"/>
	<path class="st36" d="M37,60c0.1,0.3,0.2,0.7,0.2,1.4c0,1.8,0,3.5,0,5c0,1.6,0,3,0,4.3c0,0.5,0,1.2,0.1,2c0,0.8,0.1,1.5,0.1,1.8
		c0,0.5,0,1-0.1,1.5s-0.2,1-0.3,1.3s-0.2,0.6-0.3,0.7c0,0-0.1,0.1-0.2,0.1c-0.1,0-0.2-0.2-0.2-0.5v-0.1c0-0.1,0-0.2,0-0.3
		c0-0.1,0-0.3,0.1-0.7c0-0.4,0-0.8,0-1.2V75c0-0.7,0-1.7-0.1-2.9c-0.1-1.2-0.1-2-0.1-2.4c-1.5,0.1-3,0.3-4.6,0.4s-3.3,0.4-5.1,0.8
		c-0.2,0-0.4,0.1-0.6,0.1s-0.4,0.1-0.6,0.1c-0.3,0-0.6-0.1-0.7-0.3c-0.1-0.2-0.2-0.6-0.2-1.2c0-0.4,0-1,0.1-1.8
		c0-0.8,0.1-1.3,0.1-1.5c0-0.3,0-0.5-0.1-0.7c0-0.2-0.1-0.3-0.2-0.4c-0.2,0-0.4-0.1-0.6-0.2s-0.4-0.1-0.6-0.2
		c-0.4-0.2-0.6-0.3-0.6-0.6c0-0.2,0.1-0.3,0.4-0.3c0,0,0.2,0,0.4,0C23.6,64,24,64,24.4,64c0.6,0,1.4-0.1,2.7-0.4
		c0.8-0.2,1.7-0.3,2.5-0.5C29.8,63,30,63,30.2,63c0.5,0,0.7,0.2,0.7,0.5s-0.2,0.4-0.6,0.4l-4.8,0.9c0.1,0.1,0.2,0.2,0.3,0.3
		c0,0.1,0.1,0.3,0.1,0.6c0,0.2,0,0.6-0.1,1.4c-0.1,0.7-0.1,1.3-0.1,1.9v0.2c0,0.1,0,0.3,0,0.4c0,0.2,0.1,0.2,0.3,0.2
		c0.2,0,0.4,0,0.6-0.1c1.8-0.3,3.6-0.6,5.3-0.7c2.7-0.3,4.2-0.4,4.6-0.6v-6.6c0-0.7-0.1-1.3-0.2-1.7c-0.2-0.5-0.6-1.1-1.2-1.7
		c-0.3-0.2-0.4-0.4-0.4-0.6c0-0.2,0.1-0.3,0.4-0.3c0.1,0,0.2,0,0.4,0.1s0.3,0.1,0.4,0.2H36C36.3,59.1,36.8,59.7,37,60z"/>
	<path class="st36" d="M56.2,63.1c0,0.3-0.2,0.5-0.7,0.6s-0.9,0.2-1.4,0.3c-0.4,0.1-0.8,0.1-1.3,0.2c0.4,0.6,0.5,1.1,0.5,1.3
		c0,0.2-0.1,0.3-0.2,0.5c-0.4,0.5-0.7,0.9-0.8,1.2c0.5,0.5,1,1.3,1.5,2.3c0.2,0.4,0.5,1.2,1,2.6c0,0.2,0.1,0.4,0.1,0.6
		c0,0.5-0.1,0.7-0.4,0.7c-0.3,0-0.6-0.3-0.7-0.8c-0.4-1.2-0.7-2.2-1.1-3c-0.4-0.8-0.7-1.4-1-1.7c-0.9,0.8-1.5,1.4-1.9,1.7
		C49,70.2,48,70.7,47,71c-0.3,0.1-0.5,0.1-0.6,0.1c-0.3,0-0.4-0.1-0.4-0.2c0-0.2,0.2-0.4,0.6-0.6c1.4-0.5,2.6-1.2,3.5-2.1
		c0.3-0.3,0.9-1,1.8-2.3c0.2-0.2,0.3-0.4,0.3-0.5s0.1-0.2,0.1-0.3c0-0.1-0.1-0.2-0.2-0.4c-0.1-0.2-0.2-0.3-0.2-0.5
		c-0.3,0-0.7,0-1.2,0.1c-0.1,0-0.3,0-0.4,0c-0.2,0-0.3,0-0.5,0s-0.4-0.1-0.6-0.2c-0.4-0.2-0.6-0.4-0.6-0.6c0-0.2,0.2-0.3,0.6-0.3
		c0.2,0,0.4,0,0.5,0s0.3,0,0.6,0c0.7,0,1.5-0.1,2.4-0.2c1-0.2,1.9-0.3,2.7-0.6C55.9,62.4,56.2,62.6,56.2,63.1z M60.9,59.9
		c0.1,0.5,0.2,1.2,0.2,2.2c0,0.8,0,2.2,0.1,4.2c0,1.9,0.1,3.4,0.1,4.4c0,1.4,0,2.7-0.1,3.9c-0.1,1.2-0.2,2.3-0.3,3.3
		c-0.1,0.6-0.3,0.9-0.6,0.9c-0.2,0-0.3-0.2-0.3-0.6c0-0.1,0-0.2,0-0.4c0-0.6,0-1.4,0.1-2.4s0.1-1.6,0.1-2c0-0.3,0-1-0.1-2.3
		c0-1.3-0.1-2.4-0.1-3.3c-0.6,0-1.1,0-1.6,0.1C58,68,57.6,68,57.3,68.1c-0.2,0-0.4-0.1-0.6-0.2c-0.3-0.2-0.5-0.4-0.5-0.6
		c0-0.3,0.2-0.4,0.5-0.4c0.1,0,0.2,0,0.3,0s0.2,0,0.4,0c0.8,0,1.6-0.1,2.6-0.4c0-0.2,0-0.8,0-2c0-1.1,0-2,0-2.4
		c0-0.8-0.1-1.5-0.2-1.9c-0.1-0.4-0.4-1-0.8-1.8c-0.2-0.2-0.3-0.4-0.3-0.5c0-0.3,0.2-0.4,0.5-0.4c0.1,0,0.2,0,0.3,0s0.2,0.1,0.3,0.2
		l0.1,0.1C60.4,58.8,60.8,59.5,60.9,59.9z"/>
	<path class="st36" d="M78.3,73.8c1.7-0.2,3.2-0.3,4.7-0.4s3.2-0.1,5.1-0.1c0.1,0,0.2,0,0.4,0c0.2,0,0.5,0,0.7,0s0.5,0.1,0.8,0.4
		c0.2,0.1,0.2,0.2,0.2,0.4c0,0.2-0.1,0.3-0.2,0.4s-0.3,0.1-0.4,0.1c-0.3-0.1-0.6-0.1-1-0.2c-0.3,0-0.9-0.1-1.8-0.1
		c-1.8,0-3.8,0.1-6,0.3c-2.2,0.2-4.8,0.5-7.6,0.9c-0.7,0.1-1.4,0.2-2.1,0.3c-0.4,0.1-0.7,0.1-0.9,0.1c-0.2,0-0.8-0.1-1.6-0.3
		c-0.3-0.1-0.5-0.3-0.5-0.5s0.1-0.3,0.2-0.4s0.3-0.1,0.5-0.1c0.4,0.1,0.8,0.2,1.1,0.2c0.3,0,0.8-0.1,1.6-0.2
		c0.4-0.1,1.1-0.2,1.8-0.3C75,74.2,76.6,74,78.3,73.8z M79.7,61.2c1-0.1,1.9-0.3,2.8-0.6c0.3-0.1,0.6-0.2,0.9-0.3s0.5-0.2,0.7-0.2
		c0.1,0,0.3,0.1,0.5,0.2s0.3,0.3,0.3,0.4c0,0.2-0.4,0.4-1.1,0.6c-0.4,0.1-0.7,0.2-1.1,0.3s-0.7,0.1-1.1,0.2c-1.5,0.2-3,0.5-4.5,0.7
		c0.1,0.2,0.1,0.5,0.1,1.1V64v1.1c0.6,0,1.3,0,1.9-0.1s1.4-0.2,2.2-0.3c0.5-0.1,0.9-0.2,1.2-0.3c0.5-0.2,0.8-0.2,0.8-0.2
		c0.2,0,0.4,0,0.7,0.1c0.3,0.2,0.5,0.4,0.5,0.6c0,0.1-0.1,0.2-0.2,0.3c-0.1,0.1-0.3,0.1-0.6,0.1c-0.4,0-0.8,0-1.2,0.1
		c-0.4,0.1-0.9,0.1-1.3,0.2c-0.2,0-0.7,0.1-1.3,0.3c-0.6,0.1-1.2,0.2-1.7,0.2c-0.1,0-0.2,0-0.4,0s-0.3,0-0.5,0
		c0,0.8,0.1,1.4,0.3,1.8c0.2,0.3,0.3,0.5,0.5,0.5c0.2,0.1,0.5,0.1,0.9,0.1h1c1.3,0,2.4-0.1,3.2-0.4c0.3-0.1,0.6-0.2,0.8-0.2
		c0.1,0,0.3,0,0.6,0.1c0.2,0.1,0.3,0.2,0.3,0.5c0,0.2-0.1,0.3-0.3,0.5s-0.5,0.2-0.8,0.2c-0.4,0-1,0.1-1.6,0.2
		c-1.4,0.2-2.5,0.4-3.2,0.4c-0.9-0.1-1.5-0.3-2-0.8c-0.3-0.3-0.5-0.8-0.7-1.5c-0.1-0.7-0.2-1.3-0.2-1.7c0-0.5,0-1,0-1.4s0-0.7,0-1
		s-0.1-0.6-0.2-0.8c-0.2,0-0.4-0.1-0.5-0.2s-0.2-0.2-0.2-0.3s0.1-0.2,0.3-0.4c0.1-0.1,0.4-0.2,0.7-0.2c0.1,0,0.3,0,0.6,0
		C77.8,61.4,78.7,61.3,79.7,61.2z"/>
</g>
<g>
	<rect x="26.2" y="57" class="st37" width="66.9" height="23.3"/>
	<path class="st38" d="M44.1,60.9c0.1,0.3,0.2,0.7,0.2,1.4c0,1.8,0,3.5,0,5c0,1.6,0,3,0,4.3c0,0.5,0,1.2,0.1,2
		c0,0.8,0.1,1.5,0.1,1.8c0,0.5,0,1-0.1,1.5c-0.1,0.5-0.2,1-0.3,1.3s-0.2,0.6-0.3,0.7c0,0-0.1,0.1-0.2,0.1c-0.1,0-0.2-0.2-0.2-0.5
		c0,0,0-0.1,0-0.1c0-0.1,0-0.2,0-0.3c0-0.1,0-0.3,0.1-0.7c0-0.4,0-0.8,0-1.2V76c0-0.7,0-1.7-0.1-2.9c-0.1-1.2-0.1-2-0.1-2.4
		c-1.5,0.1-3,0.3-4.6,0.4c-1.6,0.1-3.3,0.4-5.1,0.8c-0.2,0-0.4,0.1-0.6,0.1s-0.4,0.1-0.6,0.1c-0.3,0-0.6-0.1-0.7-0.3
		c-0.1-0.2-0.2-0.6-0.2-1.2c0-0.4,0-1,0.1-1.8c0-0.8,0.1-1.3,0.1-1.5c0-0.3,0-0.5-0.1-0.7c0-0.2-0.1-0.3-0.2-0.4
		c-0.2,0-0.4-0.1-0.6-0.2C30.4,66,30.2,66,30,65.9c-0.4-0.2-0.6-0.3-0.6-0.6c0-0.2,0.1-0.3,0.4-0.3c0,0,0.2,0,0.4,0
		c0.3,0.1,0.7,0.1,1.1,0.1c0.6,0,1.4-0.1,2.7-0.4c0.8-0.2,1.7-0.3,2.5-0.5c0.2-0.1,0.4-0.1,0.6-0.1c0.5,0,0.7,0.2,0.7,0.5
		c0,0.3-0.2,0.4-0.6,0.4l-4.8,0.9c0.1,0.1,0.2,0.2,0.3,0.3c0,0.1,0.1,0.3,0.1,0.6c0,0.2,0,0.6-0.1,1.4c-0.1,0.7-0.1,1.3-0.1,1.9v0.2
		c0,0.1,0,0.3,0,0.4c0,0.2,0.1,0.2,0.3,0.2c0.2,0,0.4,0,0.6-0.1c1.8-0.3,3.6-0.6,5.3-0.7c2.7-0.3,4.2-0.4,4.6-0.6v-6.6
		c0-0.7-0.1-1.3-0.2-1.7c-0.2-0.5-0.6-1.1-1.2-1.7c-0.3-0.2-0.4-0.4-0.4-0.6c0-0.2,0.1-0.3,0.4-0.3c0.1,0,0.2,0,0.4,0.1
		c0.1,0,0.3,0.1,0.4,0.2l0.1,0C43.4,60,43.9,60.6,44.1,60.9z"/>
	<path class="st38" d="M58.9,64c0,0.3-0.2,0.5-0.7,0.6c-0.5,0.1-0.9,0.2-1.4,0.3C56.4,64.9,56,65,55.5,65c0.4,0.6,0.5,1.1,0.5,1.3
		c0,0.2-0.1,0.3-0.2,0.5c-0.4,0.5-0.7,0.9-0.8,1.2c0.5,0.5,1,1.3,1.5,2.3c0.2,0.4,0.5,1.2,1,2.6c0,0.2,0.1,0.4,0.1,0.6
		c0,0.5-0.1,0.7-0.4,0.7c-0.3,0-0.6-0.3-0.7-0.8c-0.4-1.2-0.7-2.2-1.1-3c-0.4-0.8-0.7-1.4-1-1.7c-0.9,0.8-1.5,1.4-1.9,1.7
		c-0.8,0.6-1.8,1.1-2.8,1.4C49.3,72,49,72,48.9,72c-0.3,0-0.4-0.1-0.4-0.2c0-0.2,0.2-0.4,0.6-0.6c1.4-0.5,2.6-1.2,3.5-2.1
		c0.3-0.3,0.9-1,1.8-2.3c0.2-0.2,0.3-0.4,0.3-0.5c0-0.1,0.1-0.2,0.1-0.3c0-0.1-0.1-0.2-0.2-0.4c-0.1-0.2-0.2-0.3-0.2-0.5
		c-0.3,0-0.7,0-1.2,0.1c-0.1,0-0.3,0-0.4,0c-0.2,0-0.3,0-0.5,0s-0.4-0.1-0.6-0.2c-0.4-0.2-0.6-0.4-0.6-0.6c0-0.2,0.2-0.3,0.6-0.3
		c0.2,0,0.4,0,0.5,0c0.1,0,0.3,0,0.6,0c0.7,0,1.5-0.1,2.4-0.2c1-0.2,1.9-0.3,2.7-0.6C58.6,63.3,58.9,63.5,58.9,64z M63.6,60.8
		c0.1,0.5,0.2,1.2,0.2,2.2c0,0.8,0,2.2,0.1,4.2s0.1,3.4,0.1,4.4c0,1.4,0,2.7-0.1,3.9s-0.2,2.3-0.3,3.3c-0.1,0.6-0.3,0.9-0.6,0.9
		c-0.2,0-0.3-0.2-0.3-0.6c0-0.1,0-0.2,0-0.4c0-0.6,0-1.4,0.1-2.4c0.1-1,0.1-1.6,0.1-2c0-0.3,0-1-0.1-2.3c0-1.3-0.1-2.4-0.1-3.3
		c-0.6,0-1.1,0-1.6,0.1c-0.4,0.1-0.8,0.1-1.1,0.2c-0.2,0-0.4-0.1-0.6-0.2c-0.3-0.2-0.5-0.4-0.5-0.6c0-0.3,0.2-0.4,0.5-0.4
		c0.1,0,0.2,0,0.3,0c0.1,0,0.2,0,0.4,0c0.8,0,1.6-0.1,2.6-0.4c0-0.2,0-0.8,0-2c0-1.1,0-2,0-2.4c0-0.8-0.1-1.5-0.2-1.9
		c-0.1-0.4-0.4-1-0.8-1.8c-0.2-0.2-0.3-0.4-0.3-0.5c0-0.3,0.2-0.4,0.5-0.4c0.1,0,0.2,0,0.3,0c0.1,0,0.2,0.1,0.3,0.2l0.1,0.1
		C63.1,59.7,63.5,60.3,63.6,60.8z"/>
	<path class="st38" d="M77.4,74.7c1.7-0.2,3.2-0.3,4.7-0.4c1.5-0.1,3.2-0.1,5.1-0.1c0.1,0,0.2,0,0.4,0c0.2,0,0.5,0,0.7,0
		c0.2,0,0.5,0.1,0.8,0.4c0.2,0.1,0.2,0.2,0.2,0.4c0,0.2-0.1,0.3-0.2,0.4s-0.3,0.1-0.4,0.1c-0.3-0.1-0.6-0.1-1-0.2
		c-0.3,0-0.9-0.1-1.8-0.1c-1.8,0-3.8,0.1-6,0.3c-2.2,0.2-4.8,0.5-7.6,0.9c-0.7,0.1-1.4,0.2-2.1,0.3c-0.4,0.1-0.7,0.1-0.9,0.1
		c-0.2,0-0.8-0.1-1.6-0.3c-0.3-0.1-0.5-0.3-0.5-0.5c0-0.2,0.1-0.3,0.2-0.4c0.1-0.1,0.3-0.1,0.5-0.1c0.4,0.1,0.8,0.2,1.1,0.2
		c0.3,0,0.8-0.1,1.6-0.2c0.4-0.1,1.1-0.2,1.8-0.3C74.1,75.1,75.7,74.9,77.4,74.7z M78.8,62c1-0.1,1.9-0.3,2.8-0.6
		c0.3-0.1,0.6-0.2,0.9-0.3c0.3-0.1,0.5-0.2,0.7-0.2c0.1,0,0.3,0.1,0.5,0.2c0.2,0.1,0.3,0.3,0.3,0.4c0,0.2-0.4,0.4-1.1,0.6
		c-0.4,0.1-0.7,0.2-1.1,0.3s-0.7,0.1-1.1,0.2c-1.5,0.2-3,0.5-4.5,0.7c0.1,0.2,0.1,0.5,0.1,1.1v0.5V66c0.6,0,1.3,0,1.9-0.1
		c0.7-0.1,1.4-0.2,2.2-0.3c0.5-0.1,0.9-0.2,1.2-0.3c0.5-0.2,0.8-0.2,0.8-0.2c0.2,0,0.4,0,0.7,0.1c0.3,0.2,0.5,0.4,0.5,0.6
		c0,0.1-0.1,0.2-0.2,0.3c-0.1,0.1-0.3,0.1-0.6,0.1c-0.4,0-0.8,0-1.2,0.1c-0.4,0.1-0.9,0.1-1.3,0.2c-0.2,0-0.7,0.1-1.3,0.3
		C78.4,67,77.8,67,77.4,67c-0.1,0-0.2,0-0.4,0c-0.2,0-0.3,0-0.5,0c0,0.8,0.1,1.4,0.3,1.8c0.2,0.3,0.3,0.5,0.5,0.5s0.5,0.1,0.9,0.1h1
		c1.3,0,2.4-0.1,3.2-0.4c0.3-0.1,0.6-0.2,0.8-0.2c0.1,0,0.3,0,0.6,0.1c0.2,0.1,0.3,0.2,0.3,0.5c0,0.2-0.1,0.3-0.3,0.5
		S83.5,70,83.1,70c-0.4,0-1,0.1-1.6,0.2c-1.4,0.2-2.5,0.4-3.2,0.4c-0.9-0.1-1.5-0.3-2-0.8c-0.3-0.3-0.5-0.8-0.7-1.5
		s-0.2-1.3-0.2-1.7c0-0.5,0-1,0-1.4c0-0.4,0-0.7,0-1s-0.1-0.6-0.2-0.8c-0.2,0-0.4-0.1-0.5-0.2c-0.1-0.1-0.2-0.2-0.2-0.3
		c0-0.1,0.1-0.2,0.3-0.4c0.1-0.1,0.4-0.2,0.7-0.2c0.1,0,0.3,0,0.6,0C76.9,62.2,77.9,62.1,78.8,62z"/>
</g>
</svg>
