<?xml version="1.0" encoding="utf-8"?>
<!-- Generator: Adobe Illustrator 26.3.1, SVG Export Plug-In . SVG Version: 6.00 Build 0)  -->
<svg version="1.1" id="레이어_1" xmlns="http://www.w3.org/2000/svg" xmlns:xlink="http://www.w3.org/1999/xlink" x="0px"
	 y="0px" viewBox="0 0 113.4 85" style="enable-background:new 0 0 113.4 85;" xml:space="preserve">
<style type="text/css">
	.st0{display:none;}
	.st1{display:inline;fill:#F90303;}
	.st2{display:none;fill:#F90303;}
	.st3{fill:#E8EEF9;}
	.st4{fill:#98C7ED;}
	.st5{fill:#E2AB6F;}
	.st6{fill:#F4E6D9;}
	.st7{fill:#D3291C;}
	.st8{fill:#F4F2DC;}
	.st9{fill:#E2DCBC;}
	.st10{fill:#D3CEBA;}
	.st11{fill:#EF4343;}
	.st12{fill:#A5211B;}
	.st13{fill:#B72720;}
	.st14{fill:#D89552;}
	.st15{fill:#B7763B;}
	.st16{fill:#B5211A;}
	.st17{fill:#98BBD8;}
	.st18{fill:#935624;}
	.st19{fill:none;}
	.st20{stroke:#000000;stroke-miterlimit:10;}
</style>
<g id="레이어_2_00000039848509079530652530000017615385121511347609_">
</g>
<g id="레이어_1_00000008149333728331929520000014320195283790237116_">
	<g class="st0">
		<ellipse transform="matrix(0.1309 -0.9914 0.9914 0.1309 2.5528 10.9124)" class="st1" cx="7.5" cy="4" rx="2" ry="2.5"/>
	</g>
	<circle class="st2" cx="7" cy="4" r="3"/>
	<path class="st3" d="M3.6,83.8c0-1.5,1.3-2.8,2.8-2.8c1.6,0,2.8,1.2,2.8,2.8c0,0.1,0,0.1,0,0.2h2.6v-0.1c0-1.5,1.3-2.8,2.8-2.8
		s2.8,1.2,2.8,2.8V84h3.3v-0.1c0-1.5,1.3-2.8,2.8-2.8s2.8,1.2,2.8,2.8V84h3.3v-0.1c0-1.5,1.3-2.8,2.8-2.8c1.6,0,2.8,1.2,2.8,2.8V84
		h3.3v-0.1c0-1.5,1.3-2.8,2.8-2.8s2.8,1.2,2.8,2.8V84h3.3v-0.1c0-1.5,1.3-2.8,2.8-2.8c1.6,0,2.8,1.2,2.8,2.8V84h3.3v-0.1
		c0-1.5,1.3-2.8,2.8-2.8s2.8,1.2,2.8,2.8V84h3.3v-0.1c0-1.5,1.3-2.8,2.8-2.8s2.8,1.2,2.8,2.8V84h3.3v-0.1c0-1.5,1.3-2.8,2.8-2.8
		s2.8,1.2,2.8,2.8V84H83v-0.1c0-1.5,1.3-2.8,2.8-2.8s2.8,1.2,2.8,2.8V84H92v-0.1c0-1.5,1.3-2.8,2.8-2.8s2.8,1.2,2.8,2.8V84h3.3v-0.1
		c0-1.5,1.3-2.8,2.8-2.8c1.6,0,2.8,1.2,2.8,2.8V84h3.3v-0.1c0-1.5,1.3-2.8,2.8-2.8c0.1,0,0.2,0,0.3,0v-1.3c-1.5,0-2.8-1.3-2.8-2.8
		s1.2-2.7,2.8-2.8V72c-1.5,0-2.8-1.3-2.8-2.8s1.2-2.7,2.8-2.8v-2.3c-1.5,0-2.8-1.3-2.8-2.8s1.2-2.7,2.8-2.8v-2.3
		c-1.5,0-2.8-1.3-2.8-2.8s1.2-2.7,2.8-2.8v-2.3c-1.5,0-2.8-1.3-2.8-2.8s1.2-2.7,2.8-2.8v-2.3c-1.5,0-2.8-1.3-2.8-2.8
		s1.2-2.7,2.8-2.8v-2.3c-1.5,0-2.8-1.3-2.8-2.8s1.2-2.7,2.8-2.8v-2.3c-1.5,0-2.8-1.3-2.8-2.8s1.2-2.7,2.8-2.8v-2.3
		c-1.5,0-2.8-1.3-2.8-2.8s1.2-2.7,2.8-2.8V9.5c-1.5,0-2.8-1.3-2.8-2.8s1.2-2.7,2.8-2.8v-1c-0.5,0.5-1.2,0.8-1.9,0.8
		c-1.5,0-2.7-1.2-2.8-2.6h-3.3c-0.1,1.5-1.3,2.6-2.8,2.6s-2.7-1.2-2.8-2.6H96c-0.1,1.5-1.3,2.6-2.8,2.6s-2.7-1.2-2.8-2.6h-3.3
		c-0.1,1.5-1.3,2.6-2.8,2.6s-2.7-1.2-2.8-2.6h-3.3c-0.1,1.5-1.3,2.6-2.8,2.6s-2.7-1.2-2.8-2.6h-3.3c-0.1,1.5-1.3,2.6-2.8,2.6
		s-2.7-1.2-2.8-2.6h-3.3c-0.1,1.5-1.3,2.6-2.8,2.6s-2.7-1.2-2.8-2.6h-3.3c-0.1,1.5-1.3,2.6-2.8,2.6S46,2.5,45.9,1.1h-3.3
		c-0.1,1.5-1.3,2.6-2.8,2.6S37.1,2.5,37,1.1h-3.3c-0.1,1.5-1.3,2.6-2.8,2.6s-2.7-1.2-2.8-2.6h-3.3c-0.1,1.5-1.3,2.6-2.8,2.6
		s-2.7-1.2-2.8-2.6h-3.3c-0.1,1.5-1.3,2.6-2.8,2.6s-2.7-1.2-2.8-2.6H7.6C7.5,2.5,6.3,3.6,4.8,3.6S2.1,2.5,2,1H1v4.9c0,0,0,0,0.1,0
		c1.6,0,2.8,1.2,2.8,2.8c0,1.5-1.3,2.8-2.8,2.8c0,0,0,0-0.1,0v2.3c0,0,0,0,0.1,0c1.6,0,2.8,1.2,2.8,2.8c0,1.5-1.3,2.8-2.8,2.8
		c0,0,0,0-0.1,0v2.3c0,0,0,0,0.1,0c1.6,0,2.8,1.2,2.8,2.8c0,1.5-1.3,2.8-2.8,2.8c0,0,0,0-0.1,0v2.3c0,0,0,0,0.1,0
		c1.6,0,2.8,1.2,2.8,2.8c0,1.5-1.3,2.8-2.8,2.8c0,0,0,0-0.1,0v2.3c0,0,0,0,0.1,0c1.6,0,2.8,1.2,2.8,2.8c0,1.5-1.3,2.8-2.8,2.8
		c0,0,0,0-0.1,0V45c0,0,0,0,0.1,0c1.6,0,2.8,1.2,2.8,2.8c0,1.5-1.3,2.8-2.8,2.8c0,0,0,0-0.1,0v2.3c0,0,0,0,0.1,0
		c1.6,0,2.8,1.2,2.8,2.8c0,1.5-1.3,2.8-2.8,2.8c0,0,0,0-0.1,0v2.3c0,0,0,0,0.1,0c1.6,0,2.8,1.2,2.8,2.8c0,1.5-1.3,2.8-2.8,2.8
		c0,0,0,0-0.1,0v2.3c0,0,0,0,0.1,0c1.6,0,2.8,1.2,2.8,2.8c0,1.5-1.3,2.8-2.8,2.8c0,0,0,0-0.1,0v2.3c0,0,0,0,0.1,0
		c1.6,0,2.8,1.2,2.8,2.8c0,1.5-1.3,2.8-2.8,2.8c0,0,0,0-0.1,0V84h2.6C3.6,83.9,3.6,83.9,3.6,83.8z"/>
</g>
<rect x="7.2" y="7" class="st4" width="99.5" height="48.2"/>
<g>
	<path class="st5" d="M36,33.7c-0.2,0.4,0.1,0.4,0.1,3.7c0,2.5-0.2,2.8,0,3.7c0.1,0.6,0.4,1.5,2.3,3.8c1.6,1.9,2.5,3,3.9,4.1
		c2.8,2.1,5.7,2.7,9.4,3.4c1.4,0.3,3.2,0.6,5.6,0.6c3.1,0,5.4-0.5,8.7-1.2c2.6-0.6,3.9-0.8,5.5-1.6c2.5-1.1,4.4-2.4,5.6-3.4
		c0.3-0.3,0.8-0.7,1.2-1.2c0.8-1.1,1-2.2,1.2-3.6c0.5-3.4,0.7-5.1,0.1-5.8c-1.3-1.5-4.1-0.1-4.9-0.1C62.3,35.1,37.8,29.4,36,33.7z"
		/>
	<path class="st6" d="M39.9,28.2c-1.3,0.3-3.5,1-4,2.5c-0.6,2,1.9,4.3,2.3,4.7c3.4,3.2,6.5,1.8,9.5,5.1c1.1,1.2,0.9,1.6,2.1,2.7
		c2.3,2.1,5,2.5,5.9,2.7c1.1,0.2,4.2,0.5,13.9-4.8c8.1-4.4,8.4-5.9,8.3-6.6c-0.2-1.4-2-2.3-3.2-2.8C62.3,26.1,48.3,26.2,39.9,28.2z"
		/>
	<path class="st7" d="M75.7,28.9c-1.3,0.5-3.5,1.4-3.6,3c-0.1,1.8,1.7,3.1,3.2,3.4c2,0.4,3.6-1,3.8-1.2c0.4-0.4,1.2-1.1,1.2-2.3
		c0.1-1.5-0.9-2.9-2.3-3.3C77.3,28.3,76.6,28.6,75.7,28.9z"/>
	<path class="st7" d="M70.4,33.6c-1.9,0.8-1.7,3.2-4.4,4.4c-1.2,0.5-1.9,0.3-2,0.8c-0.3,0.9,2.4,3.5,5.5,3.5c2.1,0,3.6-1.2,4.7-2
		c1.3-1,2.9-2.3,2.7-3.7C76.7,34.5,72.7,32.5,70.4,33.6z"/>
	<path class="st7" d="M36.1,25.1c-1.3,0.2-2.8,1.2-3,2.5c-0.1,0.7,0.1,1.5,0.5,2.6c0.3,0.8,0.4,1.2,0.7,1.5c0.9,1,2.7,1.4,4.2,0.9
		c1.4-0.5,2.5-1.9,2.6-3.4C41.2,26.7,38.4,24.8,36.1,25.1z"/>
	<path class="st5" d="M36,22.4c-0.8,3.3,1.2,6.3,2,7.5c0,0,0.1,0.2,0.3,0.4c1.9,2.4,9,6.3,19.9,6.2c0,0,8.1-0.1,15.6-3.7
		c0.8-0.4,2.3-1.2,3.5-2.8c0.4-0.5,2.2-2.9,1.7-5.4c-0.4-1.9-1.8-3.2-3.5-4.3c-4.5-3-10.2-4.1-17.1-4.8c-11.5-1.1-14.6,0.2-16.1,0.9
		C40.4,17.2,36.8,18.9,36,22.4z"/>
	<path class="st7" d="M55.3,36.7c-1.4,0-4.4-0.1-5.3,1.7c-0.8,1.6,0.5,3.8,1.6,4.9c2,2,4.9,1.7,6.8,1.6c1.6-0.1,3.2-0.3,3.9-1.5
		c0.9-1.6-0.4-3.7-0.5-3.9C60.1,36.8,56.4,36.7,55.3,36.7z"/>
	<path class="st8" d="M45.1,15.2c-3.3,1.3-7.2,2.7-7.7,5.5c-0.7,4,5.7,8.2,6.9,9c1.3,0.8,3.2,0.6,4.6,2.2c0.7,0.7,1.1,1.6,2,1.6
		c0.7,0,0.8-0.6,1.7-1c0.7-0.3,1.2-0.2,4.4,0.2c2.1,0.3,2,0.3,2.3,0.4c2.2,0.2,3.9,0,4.3,0c3.4-0.4,5.8-1.8,7.2-2.6
		c1.8-1.1,3-2.1,3.8-2.8c2.3-2.1,3.6-3.1,3.6-4.1c0.2-4.4-11.1-9.3-20.7-10.1C55.3,13.4,50.5,13.2,45.1,15.2z"/>
	<path class="st9" d="M49.3,10.6c0.3,4.3-0.2,5.3-0.7,5.5c-0.7,0.2-1.3-1.2-3.1-2c-1.3-0.5-2.7-0.4-3.6-0.2
		c-0.9,0.4-3.1,1.3-3.8,3.4c-1.2,3.2,1.9,6.7,3.3,8.2c3.8,4.3,9,5.4,11.5,5.8c2.7-1.3,5.4-0.7,7.5,1c3.6,2.1,14.7-5.7,16.4-9.6
		c0.3-0.6,1.1-2,0.9-3.9c-0.1-0.8-0.2-2.3-1.4-3.1c-1.2-0.9-3.1-0.7-4.7,0.4c0.4-0.4,1.1-1.2,1.1-2.3c-0.1-1.4-1.4-2.3-2.6-3.1
		c-0.9-0.6-1.3-0.9-1.9-0.9c-1.2-0.1-1.8,0.8-3.5,1.8c-0.7,0.4-1.8,1-3.2,1.5c-0.2,0-0.8,0.1-1.4-0.3c-0.5-0.3-0.9-0.7-0.9-1
		C57.3,9.4,52.4,8.2,49.3,10.6z"/>
	<path class="st8" d="M71.6,16.1c-0.3,0.1-0.2,0.9-0.3,1.6c-0.4,3-4,3.6-5.7,6.9c-1.2,2.3-1.2,5.2-0.5,5.5c0.6,0.3,1.5-1.4,5.4-5.1
		c1-0.9,1.8-1.9,3.6-3.7c1.1-1.2,1.8-2,1.7-3c-0.1-1.2-1.1-2.2-1.5-2c-0.3,0.1,0.1,1.1-0.3,2.4c-0.4,1.1-1.1,1.7-1.6,2
		c-3.1,2.7-4.8,6.1-5.3,5.8c-0.3-0.2,0.1-1.9,1.1-3.2c0.5-0.7,0.8-0.8,2.6-2.4c1.9-1.7,2.1-2.1,2.2-2.6C73.1,17.2,72,16,71.6,16.1z"
		/>
	<path class="st8" d="M76.2,20.1c-0.3,0.8-0.8,1.7-1.5,2.7c-0.3,0.5-1.1,1.6-2.4,2.7c-1.1,1-2.2,1.7-3.1,2.2"/>
	<path class="st8" d="M64,28.9c0.1-0.3-3.3-2.1-6.8-3.4c-4-1.5-6.5-1.9-7.3-3.8c-0.1-0.4-0.5-1.4-1.4-1.9c-0.5-0.3-1.2-0.4-1.4-0.1
		s0.3,0.8,0.7,1.3c1.9,2.3,3.1,3.8,5.8,5.1c0.7,0.3,1.4,0.6,2.8,1C59.3,28,63.9,29.3,64,28.9z"/>
	<path class="st8" d="M46.7,21c0.6,0.3,1,0.7,1.2,0.8c1.6,1.4,1.7,2.8,3,4c0.8,0.7,1.6,1.1,2.6,1.6c3.2,1.4,4.5,0.7,7.8,2
		c0.5,0.2,1.2,0.6,2.3,0.8c1.6,0.3,2.5,0.1,2.6,0.3c0.1,0.3-2.2,1.4-4.5,1.1c-1.5-0.2-2.2-0.9-3.5-1.7c-4.6-2.8-6.3-0.9-9.6-3.5
		c-1.2-0.9-1.5-1.6-2.4-2.5c-0.5-0.5-1-0.9-1.5-1.3c-1-0.8-1.4-1-1.4-1.4c0.1-0.5,1-0.7,1.6-0.8C45.5,20.4,46.2,20.7,46.7,21z"/>
	<path class="st8" d="M56.2,30.1c0-0.4-4.3,0.2-8-2.6c-3-2.2-4-3.7-4-3.7c-0.3-0.4-0.7-0.9-1.1-1.6c-0.5-0.7-0.5-0.8-0.7-0.9
		c-1-0.9-3.7-0.3-3.9,0.5c-0.1,0.7,1.5,1.1,4.2,3c3.5,2.5,3.3,3.8,5.6,4.8C52.2,31.4,56.2,30.5,56.2,30.1z"/>
	<path class="st8" d="M60.6,14.5c-0.1-0.5,1.1-1.2,1.9-1.8c1.8-1.1,2.4-1,3.9-2.1c0.8-0.6,0.8-0.8,1.2-0.9c1.3-0.1,3.6,3.3,2.6,5.7
		c-0.8,1.9-3.5,2.6-3.6,2.3c-0.2-0.2,1.8-1.1,2.3-3c0.5-2-0.8-4-0.9-3.9c-0.2,0,0.8,1.9,0.1,3.9c-0.5,1.3-1.7,2.9-3,2.8
		c-0.8,0-1.6-0.6-1.6-1.2c0-0.6,1.3-0.7,2.2-1.9c1-1.2,1.1-2.9,0.9-3c-0.3-0.1-0.7,2.1-2.6,3C62.5,15.1,60.8,14.9,60.6,14.5z"/>
	<path class="st8" d="M46.9,15.6c-1.4-0.8-5-2-5-1.7c-0.1,0.4,8.7,3.3,6.1,6c-1.4-0.4-9.9-9.1-4.4-1.8c1.2,1.2,2.3,1.5,2.3,1.8
		c-0.1,0.4-1.4,0.7-2.3,0.2c-1.4-0.7-2.7-6.3-2.8-5.7c-0.3,0.6-0.6,1.6-0.5,2.8c0,1.5,0.4,2.7,0.7,3.3c-0.7,0.3-1.1,0.2-1.3,0.1
		c-1-0.5-1.3-2.6-0.4-5.3c-0.2,0-0.9,1.3-0.9,2.8c0.1,1.6,0,2-0.1,2c-0.2,0-1.1-2-0.5-3.7c0.2-0.5,0.4-0.6,1.6-2.3
		c0.3-0.5,0.6-0.9,0.8-1.2C46.3,14.9,49.3,15.8,46.9,15.6z"/>
	<path class="st8" d="M51.7,8.6c-1.3,1-2.6,2-4,3"/>
	<path class="st8" d="M51.4,16.6c2.8,1.1,4.3,1.6,4.7,1.6c3,0.3,6.8-1,7.1-2.9c0.2-1.1-0.8-2-2.4-3.5c-2.1-2-4.1-3.9-6.9-3.7
		c-0.2,0-3.6,0.4-5.1,3.1c-0.2,0.3-1.2,2.2-0.4,3.6C48.7,15.5,49.2,15.7,51.4,16.6z"/>
	<path class="st7" d="M50.9,22.6c-0.6-1.1-0.7-2.1-0.8-2.8c-0.3-3.4,1.5-5.9,3.4-8.4c0.9-1.2,1.6-1.8,2.5-2c1.1-0.2,2.1,0.4,2.3,0.5
		c0.7,0.5,0.8,0.9,1.5,1.8c1.2,1.5,1.7,1.3,2.9,2.7c0.8,1,1.3,1.9,1.6,2.8c0.6,1.4,1.1,2.4,0.9,3.6c-0.3,2.4-2.5,3.9-2.9,4.1
		C58.9,27.2,53,26.1,50.9,22.6z"/>
	<path class="st8" d="M51.4,24c0-1,1.1-2,2.2-2.3c1-0.2,1.3,0.4,2.2,0.1c1.2-0.4,1.2-2,2.1-2c0.4,0,0.6,0.4,1.2,0.4
		c0.5,0,0.6-0.3,1-0.2c0.7,0,0.8,0.8,1.6,1.4s1.4,0.1,2.8,0.6c1,0.4,2.2,0.9,2.3,1.6c0.2,1.3-2.9,2.7-3.3,2.9
		c-0.3,0.1-1.1,0.5-2.3,0.7c-2.3,0.4-4.2,0-4.8-0.2C55.6,26.9,51.4,25.8,51.4,24z"/>
	<path class="st9" d="M58.5,20.4c-0.6-0.1-0.7,2.8-2.8,4.3c-0.7,0.5-1.4,0.7-1.4,1.1c0,0.6,1.4,1.1,2,1.2c0.5,0.2,2.6,0.8,3.1,0
		c0.2-0.3,0-0.5-0.1-1.5c-0.2-1.7,0.1-2.1-0.2-3.6C59,21.2,58.8,20.4,58.5,20.4z"/>
	<path class="st10" d="M58.5,20.8c0.4-0.3,1.2,0.8,4.3,2.8c1,0.6,1.6,1,1.6,1.5c0,0.2-0.1,0.5-1.9,1.2c-1.7,0.7-2.6,1.1-3,0.7
		c-0.4-0.3-0.1-1-0.1-2.3C59.3,22.4,58.1,21.1,58.5,20.8z"/>
	<path class="st11" d="M55.4,10.1c0.2,0,0.2,0.4,0.5,0.8c0.2,0.3,0.6,0.5,0.8,0.6c-0.2,0.3-0.3,0.9-0.2,1.6c0,0.1,0,0.2,0.1,0.3
		c0,0.1-0.2,0.3-0.2,0.3c-0.6,0.5-0.7,0.7-0.6,0.8c0.1,0.1,0.4-0.1,0.8,0c0.1,0,0.1,0.1,0.7,0.7c0.3,0.3,0.6,0.5,0.7,0.9
		c0,0.1,0,0.1,0,0.1c0.1,0.4-0.1,0.8-0.2,1c-0.5,1-1.7,1.1-1.6,1.5c0,0.2,0.2,0.2,0.3,0.4c0.1,0.3,0,0.6-0.2,0.9
		c-0.4,0.7-0.9,1.1-1.1,1.2c-0.8,0.5-2.1,0.8-2.4,0.4c-0.3-0.3,0.3-0.8,0.1-1.4c-0.3-0.8-1.4-0.8-1.6-1.6c-0.1-0.5,0.1-1,0.2-1.2
		c0.2-0.6,0.6-0.7,0.5-1.1c0-0.4-0.3-0.4-0.4-0.7c-0.1-0.3,0.1-0.4,0.6-1.4c0.2-0.4,0.2-0.5,0.4-0.9c0.1-0.2,0.2-0.4,0.4-0.6
		c0.3-0.3,0.5-0.3,0.7-0.5s0.2-0.3,0.6-0.8C54.9,10.5,55.2,10.1,55.4,10.1z"/>
	<path class="st7" d="M54,12.3c-0.3,0-0.7,0.5-0.6,1c0.1,0.2,0.4,0.4,0.6,0.3c0.2-0.1,0.3-0.5,0.3-0.6C54.3,12.7,54.2,12.3,54,12.3z
		"/>
	<path class="st7" d="M55.5,12.6c-0.1,0-0.1,0-0.4,0.5c-0.1,0.2-0.1,0.2-0.2,0.2c-0.1,0.3,0.1,0.8,0.3,0.8s0.3-0.1,0.4-0.2
		c0.1-0.1,0.3-0.3,0.3-0.5s-0.1-0.3-0.2-0.4C55.7,12.7,55.6,12.6,55.5,12.6z"/>
	<path class="st7" d="M54.6,13.8c-0.2,0-0.4,0.3-0.4,0.6s0.1,0.6,0.3,0.7c0.1,0,0.2-0.1,0.3-0.2c0.2-0.2,0.3-0.3,0.3-0.4
		c0-0.1,0-0.1-0.3-0.4C54.6,13.8,54.6,13.8,54.6,13.8z"/>
	<path class="st7" d="M53.2,13.4c-0.2,0-0.4,0.2-0.5,0.5c-0.1,0.2-0.1,0.6,0.1,0.7c0.2,0.1,0.5-0.1,0.6-0.3
		C53.6,13.9,53.4,13.4,53.2,13.4z"/>
	<path class="st7" d="M56.1,14.7c-0.2,0-0.5,0.2-0.5,0.5c0,0.1-0.1,0.2,0,0.4c0,0.1,0.1,0.3,0.3,0.3c0.2,0.1,0.3-0.1,0.4-0.1
		c0,0,0.3-0.2,0.3-0.5c0-0.1,0-0.1-0.1-0.2C56.2,14.8,56.2,14.7,56.1,14.7z"/>
	<path class="st7" d="M53.6,14.7c-0.2-0.1-0.4,0.2-0.5,0.4c0,0.1,0,0.2,0,0.4s0,0.3,0.1,0.3s0.1,0,0.4-0.2c0.2-0.2,0.3-0.2,0.3-0.2
		c0-0.1,0-0.2-0.1-0.4C53.8,14.8,53.7,14.7,53.6,14.7z"/>
	<path class="st7" d="M54.8,15.3c-0.1,0-0.1,0.1-0.4,0.3c-0.3,0.2-0.3,0.2-0.3,0.3c0,0.1,0.1,0.1,0.2,0.4c0.1,0.2,0.1,0.2,0.1,0.3
		c0.1,0,0.2,0,0.3-0.1c0.2-0.1,0.3-0.2,0.3-0.3c0,0,0-0.1,0-0.4C55,15.5,54.9,15.4,54.8,15.3z"/>
	<path class="st7" d="M52.4,14.7c-0.2,0-0.4,0.3-0.4,0.5c0,0.3,0.1,0.6,0.3,0.6c0,0,0,0,0.2-0.1c0.3-0.2,0.3-0.2,0.3-0.3
		s0-0.2-0.1-0.4S52.5,14.7,52.4,14.7z"/>
	<path class="st7" d="M54.7,11.8c-0.3,0.5-0.3,1.2-0.1,1.2c0.2,0.1,0.5-0.4,0.6-0.8c0.1-0.3,0.1-0.7-0.1-0.8
		C55,11.4,54.8,11.6,54.7,11.8z"/>
	<path class="st7" d="M52.8,16.1c-0.2,0-0.3,0.3-0.4,0.5c0,0.2,0,0.6,0.1,0.6c0.2,0.1,0.5-0.2,0.6-0.5C53.1,16.4,53,16.1,52.8,16.1z
		"/>
	<path class="st7" d="M53.8,16.6c-0.2,0-0.5,0.3-0.5,0.6c0,0.3,0.1,0.7,0.3,0.7s0.4-0.2,0.5-0.5C54.2,17.1,54,16.7,53.8,16.6z"/>
	<path class="st7" d="M55.5,16.4c0,0-0.1,0-0.3,0.3c-0.3,0.3-0.3,0.4-0.3,0.4c0,0.1,0,0.1,0.1,0.3c0.1,0.2,0.1,0.3,0.1,0.3
		s0.1,0,0.3-0.1c0.2-0.2,0.4-0.3,0.4-0.4s0-0.2-0.1-0.5C55.6,16.6,55.6,16.4,55.5,16.4z"/>
	<path class="st7" d="M56.8,16.3c0,0-0.1,0-0.3,0.2c-0.3,0.2-0.3,0.2-0.3,0.3c0,0.1,0,0.1,0.1,0.4s0,0.5,0.1,0.5s0.1,0,0.3-0.1
		s0.4-0.2,0.4-0.4c0-0.1,0-0.1-0.1-0.4C56.8,16.5,56.9,16.3,56.8,16.3z"/>
	<path class="st7" d="M54.4,17.5c-0.1,0-0.1,0.1-0.3,0.5C54,18.2,54,18.3,54,18.4s0,0.2,0.1,0.3c0,0,0.1,0.2,0.3,0.2
		c0.1,0,0.2-0.1,0.4-0.3c0.2-0.2,0.3-0.3,0.3-0.4s0-0.1-0.3-0.4C54.5,17.5,54.5,17.5,54.4,17.5z"/>
	<path class="st7" d="M55.4,18.5c-0.1,0-0.1,0.1-0.3,0.3c-0.2,0.2-0.2,0.2-0.3,0.3c0,0.1,0.1,0.2,0.2,0.4c0.1,0.3,0.1,0.4,0.2,0.5
		c0.1,0,0.2-0.1,0.5-0.2c0.3-0.2,0.4-0.3,0.4-0.4S56,19.2,55.9,19C55.7,18.7,55.5,18.5,55.4,18.5z"/>
	<path class="st12" d="M56.8,9.8c-0.1,0.2,1,0.8,1.1,2.1c0.1,1.1-0.6,1.7-0.2,2.2c0.3,0.4,0.8,0,1.4,0.4c0.7,0.5,0.3,1.2,0.9,2
		c0.6,0.7,1.3,0.5,1.6,1.2c0.1,0.1,0.3,0.6,0.1,1c-0.3,0.7-1.1,0.7-1.3,1.2c-0.1,0.6,0.8,1.6,1.9,1.8c0.5,0.1,0.8-0.1,1.6,0.1
		c0.7,0.2,0.8,0.4,0.9,0.3c0.6-0.3,0.3-3.6-1.5-6c-0.9-1.2-1.3-1.1-2.5-2.7c-0.7-0.9-1-1.5-1.9-2.4C57.9,10.2,56.9,9.6,56.8,9.8z"/>
	<path class="st12" d="M59.4,19.4"/>
	<path class="st7" d="M44.8,35.1c-0.5-0.9-1.2-0.7-3.2-1.9c-1.4-0.9-1.6-1.3-2.3-1.2c-1,0.1-1.9,1.2-2.2,2c-0.9,2.3,0.3,5.8,3,7.2
		c3.5,1.8,7.8-0.8,7.8-1.8c0-0.6-1.7-0.5-2.5-1.9C44.8,36.5,45.3,36,44.8,35.1z"/>
	<path class="st12" d="M53.8,37.5c0,0.3,1.9,0,3.2,1.2c1.3,1.3,0.6,3.1,1.6,3.6c0.9,0.5,2.7-0.4,3-1.5c0.4-1.4-1.7-2.9-3-3.4
		C56.3,36.5,53.8,37.2,53.8,37.5z"/>
	<path class="st12" d="M77.7,30.7"/>
	<path class="st13" d="M77.6,30.3c-0.6-0.2-1,0.9-2.8,2c-1.5,1-2.8,1.2-2.7,1.5c0,0.2,0.7,0.1,1.9,0.3c2,0.3,2.5,0.8,3.1,0.5
		c0.7-0.4,0.9-1.5,0.9-2C78.1,32,78.1,30.6,77.6,30.3z"/>
	<path class="st14" d="M66.8,42.9c-0.9,0.9-1.8,1-3.3,1.4c-2.4,0.7-4.7,1.7-4.6,2c0.1,0.3,2.1-0.3,2.4,0.3c0.3,0.7-1.5,2.9-3.9,3.6
		c-2.7,0.8-5.1-0.7-5.5,0c-0.2,0.4,0.3,1.1,0.9,1.6c1.1,0.9,2.6,0.9,7.3,0.2c2.4-0.3,3.6-0.5,4.1-0.6c4.6-1,10.6-2.3,13.4-6.7
		c0.1-0.2,0.8-1.3,1.2-2.9c0.7-2.8,0.4-6.1-0.5-6.3c-0.8-0.2-1.1,2.3-4,4.7c-1.4,1.1-2.5,2.1-3.9,1.9C69.6,42,68.8,41.6,68,42
		C67.4,42.2,67.2,42.5,66.8,42.9z"/>
	<path class="st14" d="M78.4,23.3c-1-0.4-2,3.6-6.6,6.6c-1.7,1.1-5.7,3.7-9.6,3.4c-0.4,0-1.7-0.2-3.3,0.4c-1.2,0.5-2.6,1.5-2.4,2
		c0.3,0.8,4.3,0.2,5.8-0.1c3.9-0.6,6.5-1.6,10.5-3.2c3.1-1.2,3.7-1.7,4.3-2.4C79.3,27.6,79.3,23.6,78.4,23.3z"/>
	<path class="st15" d="M68.5,45.8c-1,0.3-2.1,0.7-3.1,0.9c-0.8,0.2-1.5,0.3-2.1,0.9c-0.5,0.5-0.6,0.9-0.8,1.3c-1,2-3,2.4-2.9,2.7
		c0.2,0.6,6.1-0.8,12.4-3.4c2.2-0.9,3.2-1.4,4.2-2.5c2.6-2.8,2.9-7.3,2-7.7c-0.4-0.2-0.9,0.6-3.7,3.2C71.6,44,70.1,45.3,68.5,45.8z"
		/>
	<path class="st16" d="M39.3,32c-0.1,0.1,2.6,1.4,2.6,3.2c0,1.1-0.9,1.3-1,2.5c-0.1,1.3,1,2.6,2.2,3.2c2.5,1.2,5.6-0.9,5.4-1.6
		c-0.1-0.5-1.8,0-2.8-1.2c-0.8-1-0.1-1.8-0.9-3c-0.5-0.7-0.9-0.5-2.8-1.6C40.5,32.7,39.4,31.9,39.3,32z"/>
	<path class="st14" d="M47.5,41.7c-0.9-0.2-1,0.4-2.6,0.7c-2.4,0.4-3.6-0.5-4.2,0.2c-0.3,0.4,0,0.7,0,2.7c0,1.4-0.2,1.4-0.1,1.9
		c0.6,1.8,4.3,2,4.7,2c1,0.1,2.2-0.2,4.6-0.7c3.8-0.8,4.1-1.1,4.1-1.3c0.1-0.6-1.4-0.7-3.3-2.3C48.8,43.3,48.8,42,47.5,41.7z"/>
	<path class="st6" d="M46.8,40.7c-1.5,0.4-2.9,0.7-2.9,1.1c0,0.3,1.5,0,2.4,1c0.4,0.5,0.3,0.8,0.8,1.1c0.6,0.3,1.6,0.3,2.1-0.4
		c0.6-0.7,0.4-1.5,0.3-1.6c-0.2-1-1.2-1.3-1.3-1.3C47.8,40.5,47.5,40.5,46.8,40.7z"/>
	<path class="st6" d="M68.3,42.3c-0.4,0.2-0.6,0.9-0.4,1.2c0.3,0.5,1.6,0.2,1.7-0.2C69.7,42.9,68.9,42,68.3,42.3z"/>
	<path class="st6" d="M56.1,19.3"/>
	<path class="st17" d="M74.5,47.4C67.4,51.6,60,52.5,60,52.5c-9.3,1.1-16.7-3.2-16.7-3c-0.1,0.2,6.5,3.7,15.8,4.5
		c6.3,0.6,11.2-0.3,16.1-1.2c1.1-0.2,3.8-0.7,7-2.1c2.2-1,6.9-3,6.7-4.9c-0.2-1.7-4.2-2.7-5.4-3c-1.8-0.4-2.7-0.6-3.7-0.2
		c-1.6,0.7-1.7,2.3-4.2,4.1C75.2,47,74.9,47.2,74.5,47.4z"/>
	<path class="st18" d="M78.3,43.3c0.1-0.3,0.2-1,0.1-1.1c-0.2-0.1-0.5,0.9-1.7,2.2c-0.8,0.9-1.9,2-4.1,3c-1,0.5-1.6,0.7-3.8,1.6
		c-2.3,0.9-3.4,1.4-3.8,1.6c-2.1,0.8-9.6,3.2-17.3,0.8c-4.9-1.6-8.1-4.5-8.2-4.3c-0.1,0.1,1.8,1.6,3.8,2.8c0.7,0.4,2,1.2,3.7,1.8
		c3.4,1.2,6.4,1.3,8.5,1.2c0.9,0,2.8-0.1,5.1-0.5c0.9-0.2,3-0.5,6.8-2C72.7,48.3,77.3,47.4,78.3,43.3z"/>
	<path class="st8" d="M70.2,16.7c-0.1-0.1-0.3,0.1-1.6,1.6c-1.2,1.3-1.5,1.6-1.6,2.1c-0.3,0.8-0.3,1.8-0.1,1.9
		c0.2,0.1,0.4-0.2,1.7-2c0.8-1,0.9-1.2,1.2-1.6C70.2,17.9,70.5,16.9,70.2,16.7z"/>
	<path class="st12" d="M71.9,34.1c-1.2-1-4.1,2.9-8.1,2.7c-1-0.1-2.1-0.4-2.5,0.2c-0.3,0.5,0.1,1.3,0.2,1.6
		c1.3,2.5,6.4,4.9,10.8,3.2c2.9-1.1,5.1-3.9,4.7-4.6c-0.1-0.2-0.4-0.2-0.9-0.4c-1.1-0.3-1.4,0-2.1-0.2s-1.1-0.7-1.3-0.9
		C72,34.8,72.2,34.4,71.9,34.1z"/>
	<path class="st6" d="M40.6,42.2c-0.2,0.3-0.2,0.7,0,0.9c0.4,0.4,1.8-0.4,1.8-0.8C42.4,42,41.1,41.6,40.6,42.2z"/>
</g>
<g>
	<rect x="25.4" y="55.9" class="st19" width="70.5" height="24.4"/>
	<path class="st20" d="M43.2,59.9c0.1,0.3,0.2,0.7,0.2,1.4c0,1.8,0,3.5,0,5c0,1.6,0,3,0,4.3c0,0.5,0,1.2,0.1,2
		c0,0.8,0.1,1.5,0.1,1.8c0,0.5,0,1-0.1,1.5c-0.1,0.5-0.2,1-0.3,1.3S43,77.9,42.9,78c0,0-0.1,0.1-0.2,0.1c-0.1,0-0.2-0.2-0.2-0.5
		c0,0,0-0.1,0-0.1c0-0.1,0-0.2,0-0.3c0-0.1,0-0.3,0.1-0.7c0-0.4,0-0.8,0-1.2V75c0-0.7,0-1.7-0.1-2.9c-0.1-1.2-0.1-2-0.1-2.4
		c-1.5,0.1-3,0.3-4.6,0.4c-1.6,0.1-3.3,0.4-5.1,0.8c-0.2,0-0.4,0.1-0.6,0.1s-0.4,0.1-0.6,0.1c-0.3,0-0.6-0.1-0.7-0.3
		c-0.1-0.2-0.2-0.6-0.2-1.2c0-0.4,0-1,0.1-1.8c0-0.8,0.1-1.3,0.1-1.5c0-0.3,0-0.5-0.1-0.7c0-0.2-0.1-0.3-0.2-0.4
		c-0.2,0-0.4-0.1-0.6-0.2c-0.2-0.1-0.4-0.1-0.6-0.2c-0.4-0.2-0.6-0.3-0.6-0.6c0-0.2,0.1-0.3,0.4-0.3c0,0,0.2,0,0.4,0
		c0.3,0.1,0.7,0.1,1.1,0.1c0.6,0,1.4-0.1,2.7-0.4c0.8-0.2,1.7-0.3,2.5-0.5c0.2-0.1,0.4-0.1,0.6-0.1c0.5,0,0.7,0.2,0.7,0.5
		c0,0.3-0.2,0.4-0.6,0.4l-4.8,0.9c0.1,0.1,0.2,0.2,0.3,0.3c0,0.1,0.1,0.3,0.1,0.6c0,0.2,0,0.6-0.1,1.4c-0.1,0.7-0.1,1.3-0.1,1.9v0.2
		c0,0.1,0,0.3,0,0.4c0,0.2,0.1,0.2,0.3,0.2c0.2,0,0.4,0,0.6-0.1c1.8-0.3,3.6-0.6,5.3-0.7c2.7-0.3,4.2-0.4,4.6-0.6v-6.6
		c0-0.7-0.1-1.3-0.2-1.7c-0.2-0.5-0.6-1.1-1.2-1.7c-0.3-0.2-0.4-0.4-0.4-0.6c0-0.2,0.1-0.3,0.4-0.3c0.1,0,0.2,0,0.4,0.1
		s0.3,0.1,0.4,0.2l0.1,0C42.6,59,43.1,59.6,43.2,59.9z"/>
	<path class="st20" d="M58.1,62.9c0,0.3-0.2,0.5-0.7,0.6c-0.5,0.1-0.9,0.2-1.4,0.3c-0.4,0.1-0.8,0.1-1.3,0.2
		c0.4,0.6,0.5,1.1,0.5,1.3c0,0.2-0.1,0.3-0.2,0.5c-0.4,0.5-0.7,0.9-0.8,1.2c0.5,0.5,1,1.3,1.5,2.3c0.2,0.4,0.5,1.2,1,2.6
		c0,0.2,0.1,0.4,0.1,0.6c0,0.5-0.1,0.7-0.4,0.7c-0.3,0-0.6-0.3-0.7-0.8c-0.4-1.2-0.7-2.2-1.1-3c-0.4-0.8-0.7-1.4-1-1.7
		c-0.9,0.8-1.5,1.4-1.9,1.7c-0.8,0.6-1.8,1.1-2.8,1.4c-0.3,0.1-0.5,0.1-0.6,0.1c-0.3,0-0.4-0.1-0.4-0.2c0-0.2,0.2-0.4,0.6-0.6
		c1.4-0.5,2.6-1.2,3.5-2.1c0.3-0.3,0.9-1,1.8-2.3c0.2-0.2,0.3-0.4,0.3-0.5c0-0.1,0.1-0.2,0.1-0.3c0-0.1-0.1-0.2-0.2-0.4
		c-0.1-0.2-0.2-0.3-0.2-0.5c-0.3,0-0.7,0-1.2,0.1c-0.1,0-0.3,0-0.4,0c-0.2,0-0.3,0-0.5,0s-0.4-0.1-0.6-0.2c-0.4-0.2-0.6-0.4-0.6-0.6
		c0-0.2,0.2-0.3,0.6-0.3c0.2,0,0.4,0,0.5,0c0.1,0,0.3,0,0.6,0c0.7,0,1.5-0.1,2.4-0.2c1-0.2,1.9-0.3,2.7-0.6
		C57.8,62.3,58.1,62.5,58.1,62.9z M62.8,59.8C62.9,60.3,63,61,63,62c0,0.8,0,2.2,0.1,4.2c0,1.9,0.1,3.4,0.1,4.4c0,1.4,0,2.7-0.1,3.9
		c-0.1,1.2-0.2,2.3-0.3,3.3c-0.1,0.6-0.3,0.9-0.6,0.9c-0.2,0-0.3-0.2-0.3-0.6c0-0.1,0-0.2,0-0.4c0-0.6,0-1.4,0.1-2.4
		c0.1-1,0.1-1.6,0.1-2c0-0.3,0-1-0.1-2.3c0-1.3-0.1-2.4-0.1-3.3c-0.6,0-1.1,0-1.6,0.1c-0.4,0.1-0.8,0.1-1.1,0.2
		c-0.2,0-0.4-0.1-0.6-0.2c-0.3-0.2-0.5-0.4-0.5-0.6c0-0.3,0.2-0.4,0.5-0.4c0.1,0,0.2,0,0.3,0c0.1,0,0.2,0,0.4,0
		c0.8,0,1.6-0.1,2.6-0.4c0-0.2,0-0.8,0-2c0-1.1,0-2,0-2.4c0-0.8-0.1-1.5-0.2-1.9c-0.1-0.4-0.4-1-0.8-1.8c-0.2-0.2-0.3-0.4-0.3-0.5
		c0-0.3,0.2-0.4,0.5-0.4c0.1,0,0.2,0,0.3,0s0.2,0.1,0.3,0.2l0.1,0.1C62.3,58.7,62.6,59.3,62.8,59.8z"/>
	<path class="st20" d="M76.6,73.7c1.7-0.2,3.2-0.3,4.7-0.4c1.5-0.1,3.2-0.1,5.1-0.1c0.1,0,0.2,0,0.4,0c0.2,0,0.5,0,0.7,0
		c0.2,0,0.5,0.1,0.8,0.4c0.2,0.1,0.2,0.2,0.2,0.4c0,0.2-0.1,0.3-0.2,0.4s-0.3,0.1-0.4,0.1c-0.3-0.1-0.6-0.1-1-0.2
		c-0.3,0-0.9-0.1-1.8-0.1c-1.8,0-3.8,0.1-6,0.3c-2.2,0.2-4.8,0.5-7.6,0.9c-0.7,0.1-1.4,0.2-2.1,0.3c-0.4,0.1-0.7,0.1-0.9,0.1
		c-0.2,0-0.8-0.1-1.6-0.3c-0.3-0.1-0.5-0.3-0.5-0.5c0-0.2,0.1-0.3,0.2-0.4c0.1-0.1,0.3-0.1,0.5-0.1c0.4,0.1,0.8,0.2,1.1,0.2
		c0.3,0,0.8-0.1,1.6-0.2c0.4-0.1,1.1-0.2,1.8-0.3C73.3,74.1,74.9,73.9,76.6,73.7z M78,61c1-0.1,1.9-0.3,2.8-0.6
		c0.3-0.1,0.6-0.2,0.9-0.3c0.3-0.1,0.5-0.2,0.7-0.2c0.1,0,0.3,0.1,0.5,0.2s0.3,0.3,0.3,0.4c0,0.2-0.4,0.4-1.1,0.6
		c-0.4,0.1-0.7,0.2-1.1,0.3s-0.7,0.1-1.1,0.2c-1.5,0.2-3,0.5-4.5,0.7c0.1,0.2,0.1,0.5,0.1,1.1v0.5v1.1c0.6,0,1.3,0,1.9-0.1
		s1.4-0.2,2.2-0.3c0.5-0.1,0.9-0.2,1.2-0.3c0.5-0.2,0.8-0.2,0.8-0.2c0.2,0,0.4,0,0.7,0.1c0.3,0.2,0.5,0.4,0.5,0.6
		c0,0.1-0.1,0.2-0.2,0.3c-0.1,0.1-0.3,0.1-0.6,0.1c-0.4,0-0.8,0-1.2,0.1c-0.4,0.1-0.9,0.1-1.3,0.2c-0.2,0-0.7,0.1-1.3,0.3
		C77.6,65.9,77,66,76.5,66c-0.1,0-0.2,0-0.4,0s-0.3,0-0.5,0c0,0.8,0.1,1.4,0.3,1.8c0.2,0.3,0.3,0.5,0.5,0.5c0.2,0.1,0.5,0.1,0.9,0.1
		h1c1.3,0,2.4-0.1,3.2-0.4c0.3-0.1,0.6-0.2,0.8-0.2c0.1,0,0.3,0,0.6,0.1c0.2,0.1,0.3,0.2,0.3,0.5c0,0.2-0.1,0.3-0.3,0.5
		S82.7,69,82.3,69c-0.4,0-1,0.1-1.6,0.2c-1.4,0.2-2.5,0.4-3.2,0.4c-0.9-0.1-1.5-0.3-2-0.8c-0.3-0.3-0.5-0.8-0.7-1.5
		c-0.1-0.7-0.2-1.3-0.2-1.7c0-0.5,0-1,0-1.4c0-0.4,0-0.7,0-1s-0.1-0.6-0.2-0.8c-0.2,0-0.4-0.1-0.5-0.2s-0.2-0.2-0.2-0.3
		c0-0.1,0.1-0.2,0.3-0.4c0.1-0.1,0.4-0.2,0.7-0.2c0.1,0,0.3,0,0.6,0C76.1,61.2,77.1,61.1,78,61z"/>
</g>
</svg>
