<?xml version="1.0" encoding="utf-8"?>
<!-- Generator: Adobe Illustrator 26.3.1, SVG Export Plug-In . SVG Version: 6.00 Build 0)  -->
<svg version="1.1" id="레이어_1" xmlns="http://www.w3.org/2000/svg" xmlns:xlink="http://www.w3.org/1999/xlink" x="0px"
	 y="0px" viewBox="0 0 256 256" style="enable-background:new 0 0 256 256;" xml:space="preserve">
<style type="text/css">
	.st0{fill:#FACC22;}
	.st1{display:none;fill:none;stroke:#FFFFFF;stroke-miterlimit:10;}
	.st2{display:none;}
	.st3{display:inline;fill:none;}
	.st4{display:inline;fill:#FFFFFF;}
	.st5{fill:none;}
	.st6{fill:#562D20;}
	.st7{fill:#493A0B;}
</style>
<g>
	<path class="st0" d="M249.5,130c0,8.7-9.4,16.2-11.3,24.3c-1.9,8.4,3.2,19.2-0.5,26.8c-3.7,7.7-15.5,10.3-20.8,16.9
		c-5.3,6.6-5.5,18.6-12.2,23.9c-6.6,5.2-18.3,2.6-26,6.2c-7.6,3.6-12.9,14.4-21.3,16.3c-8.1,1.8-17.5-5.6-26.2-5.6
		s-18.1,7.4-26.2,5.6c-8.4-1.9-13.7-12.7-21.3-16.3c-7.7-3.7-19.4-1-26-6.2c-6.7-5.3-6.8-17.3-12.2-23.9c-5.3-6.6-17-9.2-20.8-16.9
		c-3.7-7.6,1.4-18.4-0.5-26.8c-1.9-8.1-11.3-15.6-11.3-24.3s9.4-16.2,11.3-24.3c1.9-8.4-3.2-19.2,0.5-26.8
		c3.7-7.7,15.5-10.3,20.8-16.9S51,43.4,57.7,38.1c6.6-5.2,18.3-2.6,26-6.2c7.6-3.6,12.9-14.4,21.3-16.3c8.1-1.8,17.5,5.6,26.2,5.6
		s18.1-7.4,26.2-5.6c8.4,1.9,13.7,12.7,21.3,16.3c7.7,3.7,19.4,1,26,6.2c6.7,5.3,6.8,17.3,12.2,23.9c5.3,6.6,17,9.2,20.8,16.9
		c3.7,7.6-1.4,18.4,0.5,26.8C240.1,113.8,249.5,121.3,249.5,130z"/>
</g>
<path class="st1" d="M204.8,126.3c0,38.5-32.3,69.6-72.2,69.6s-75-30.2-75-68.5s35.1-70.5,75-70.5S204.8,87.8,204.8,126.3z"/>
<ellipse class="st1" cx="131.2" cy="126.3" rx="81.3" ry="76.9"/>
<g class="st2">
	<rect x="71.3" y="100.5" class="st3" width="113" height="64.6"/>
	<path class="st4" d="M99.2,120.7l3.7,8.8c0.5,1.1,1.1,1.7,1.9,1.7h0.7h7.3c1.6,0,2.4,0.6,2.4,1.7c0,0.8-0.3,1.4-0.8,1.9
		s-1.4,0.7-2.4,0.7h-8.1c-2.2,0-3.8-1.1-4.6-3.2L94.2,120l-2.4,5.8c-1.1,2.8-1.9,4.7-2.4,5.6s-1,1.9-1.6,2.7c-2.2,3-5.1,4.5-8.5,4.5
		c-2.5,0-4.5-0.8-6-2.3s-2.3-3.6-2.3-6.1c0-3.3,1.2-6.1,3.6-8.6c1.3-1.3,2.9-2.4,4.9-3.2s3.9-1.2,5.8-1.2c0.9,0,1.7,0.2,2.2,0.6
		s0.9,1,0.9,1.6c0,0.7-0.3,1.3-0.9,1.7c-0.4,0.2-1,0.4-2,0.5c-2.3,0.2-4.2,0.7-5.6,1.6c-1.2,0.7-2.1,1.7-2.8,2.8s-1,2.3-1,3.6
		s0.3,2.4,1,3.1s1.6,1.2,2.8,1.2c1.4,0,2.7-0.6,3.7-1.8s2.2-3.4,3.5-6.4l6.1-15h-1.8c-1.6,0-2.4-0.6-2.4-1.7c0-0.8,0.3-1.4,0.8-1.9
		s1.4-0.7,2.4-0.7H98c1.5,0,2.6,0.1,3.3,0.3s1.4,0.5,2,1.1c1.4,1.1,2,2.7,2,4.8c0,1.9-0.6,3.5-1.7,5S101,120.2,99.2,120.7z
		 M95.2,117.4h0.5c1.3-0.1,2.3-0.3,3-0.8c1.3-0.8,1.9-2,1.9-3.4c0-1.6-0.8-2.4-2.3-2.4h-0.4L95.2,117.4z"/>
	<path class="st4" d="M110.3,125.5c0,0.9,0.7,1.3,2,1.3h5.2c1.5,0,2.2,0.5,2.2,1.6c0,0.7-0.3,1.3-0.8,1.7s-1.3,0.6-2.2,0.6h-5
		c-1.9,0-3.3-0.5-4.2-1.4c-1-0.9-1.5-2.3-1.5-4c0-2.3,0.8-4.2,2.3-5.9s3.3-2.5,5.5-2.5c1.5,0,2.8,0.4,3.7,1.2s1.4,1.9,1.4,3.2
		c0,1.6-0.6,2.8-1.9,3.5c-0.7,0.4-1.8,0.7-3.2,0.7C113.8,125.5,110.3,125.5,110.3,125.5z M111.1,122.3h1.9c1.3,0,1.9-0.3,1.8-0.8
		c0-0.6-0.4-0.9-1.2-0.9C112.6,120.5,111.8,121.1,111.1,122.3z"/>
	<path class="st4" d="M130.5,130.6h-5.1c-1.5,0-2.7-0.5-3.6-1.5s-1.4-2.4-1.4-4c0-2.2,0.8-4.1,2.3-5.7s3.3-2.4,5.3-2.4
		c1.4,0,2.5,0.4,3.4,1.2s1.3,1.8,1.3,3c0,0.9-0.2,1.6-0.7,2.1s-1,0.8-1.7,0.8c-1.1,0-1.6-0.5-1.6-1.5c0-0.2,0-0.3,0-0.4s0-0.3,0-0.4
		c0-0.8-0.4-1.2-1.2-1.2s-1.5,0.4-2.1,1.2s-0.9,1.7-0.9,2.7c0,0.8,0.3,1.4,0.8,1.8s1.4,0.5,2.6,0.5h3.3c1.5,0,2.2,0.5,2.2,1.6
		c0,0.7-0.3,1.3-0.8,1.7S131.4,130.6,130.5,130.6z"/>
	<path class="st4" d="M139,126.8h2c1.5,0,2.2,0.5,2.2,1.6c0,0.7-0.3,1.3-0.8,1.7s-1.3,0.6-2.2,0.6h-2.8c-1,0-1.8-0.2-2.4-0.6
		s-0.9-1-0.9-1.7c0-0.4,0.1-0.9,0.4-1.5l2.9-7.1l0.2-0.5c0.5-1.3,1.4-2,2.6-2c0.5,0,0.9,0.2,1.3,0.5s0.5,0.7,0.5,1.2
		c0,0.4-0.2,0.9-0.5,1.7L139,126.8z M141.3,111.6c0.7,0,1.3,0.2,1.7,0.7s0.7,1.1,0.7,1.7s-0.2,1.3-0.7,1.7s-1.1,0.7-1.7,0.7
		s-1.3-0.2-1.7-0.7s-0.7-1.1-0.7-1.7s0.2-1.3,0.7-1.7S140.6,111.6,141.3,111.6z"/>
	<path class="st4" d="M153.5,117.2h2.4c1.5,0,2.2,0.5,2.2,1.6c0,0.7-0.3,1.3-0.8,1.7s-1.3,0.6-2.2,0.6H152l-7.9,19.5
		c-0.7,1.6-1.6,2.4-2.7,2.4c-0.5,0-0.9-0.2-1.3-0.5s-0.5-0.7-0.5-1.2c0-0.3,0.2-0.9,0.5-1.7l7.5-18.5h-1.2c-1.5,0-2.2-0.5-2.2-1.5
		c0-0.7,0.3-1.3,0.8-1.7s1.3-0.6,2.2-0.6h2l2.2-5.5c0.8-1.8,1.6-3.1,2.7-3.9s2.5-1.2,4.2-1.2h2c1.5,0,2.2,0.5,2.2,1.5
		c0,0.7-0.3,1.3-0.8,1.7s-1.3,0.6-2.2,0.6H159c-1,0-1.8,0.2-2.3,0.6s-1,1.1-1.4,2L153.5,117.2z"/>
	<path class="st4" d="M160.8,126.8h2c1.5,0,2.2,0.5,2.2,1.6c0,0.7-0.3,1.3-0.8,1.7s-1.3,0.6-2.2,0.6h-2.8c-1,0-1.8-0.2-2.4-0.6
		s-0.9-1-0.9-1.7c0-0.4,0.1-0.9,0.4-1.5l2.9-7.1l0.2-0.5c0.5-1.3,1.4-2,2.6-2c0.5,0,0.9,0.2,1.3,0.5s0.5,0.7,0.5,1.2
		c0,0.4-0.2,0.9-0.5,1.7L160.8,126.8z M163.1,111.6c0.7,0,1.3,0.2,1.7,0.7s0.7,1.1,0.7,1.7s-0.2,1.3-0.7,1.7s-1.1,0.7-1.7,0.7
		s-1.3-0.2-1.7-0.7s-0.7-1.1-0.7-1.7s0.2-1.3,0.7-1.7S162.5,111.6,163.1,111.6z"/>
	<path class="st4" d="M174.5,117.2h0.5c1.5,0,2.2,0.5,2.2,1.6c0,0.7-0.3,1.3-0.8,1.7s-1.3,0.6-2.2,0.6H173l-2.4,5.8h2
		c1.5,0,2.2,0.5,2.2,1.6c0,0.7-0.3,1.3-0.8,1.7s-1.3,0.6-2.2,0.6h-3.1c-0.9,0-1.6-0.2-2.1-0.6s-0.8-1-0.8-1.7c0-0.4,0.1-0.9,0.3-1.4
		l0.3-0.8l2.1-5.1h-0.3c-1.3,0-2-0.5-2-1.5c0-0.7,0.3-1.3,0.8-1.7s1.3-0.6,2.2-0.6h0.8l0.9-2.3l0.2-0.5c0.6-1.3,1.4-2,2.6-2
		c0.5,0,0.9,0.2,1.2,0.5s0.5,0.7,0.5,1.2c0,0.4-0.2,1-0.5,1.7L174.5,117.2z"/>
</g>
<line class="st1" x1="73.6" y1="145.5" x2="182" y2="145.5"/>
<g>
	<rect x="28.2" y="89.6" class="st5" width="203.1" height="81.2"/>
	<path class="st6" d="M81.8,128.3l7.1,16.9c0.9,2.2,2.1,3.3,3.6,3.3l1.3,0h14.1c3.1,0,4.6,1.1,4.6,3.2c0,1.5-0.5,2.8-1.6,3.6
		c-1.1,0.9-2.6,1.3-4.6,1.3H90.8c-4.3,0-7.2-2-8.9-6.1L72.2,127l-4.5,11.1c-2.2,5.3-3.7,8.9-4.6,10.8c-0.9,1.9-2,3.6-3.2,5.2
		c-4.3,5.8-9.7,8.7-16.2,8.7c-4.7,0-8.6-1.5-11.5-4.4c-2.9-3-4.4-6.9-4.4-11.7c0-6.3,2.3-11.8,6.9-16.5c2.5-2.5,5.6-4.6,9.4-6.1
		c3.8-1.6,7.5-2.3,11.2-2.3c1.8,0,3.2,0.4,4.3,1.2c1.1,0.8,1.6,1.8,1.6,3.1c0,1.4-0.6,2.5-1.8,3.3c-0.7,0.5-2,0.8-3.9,1
		c-4.5,0.4-8.1,1.4-10.8,3.1c-2.3,1.4-4.1,3.2-5.4,5.4c-1.3,2.2-2,4.5-2,6.9c0,2.5,0.6,4.5,1.9,6s3,2.2,5.3,2.2
		c2.7,0,5.1-1.2,7.1-3.5s4.2-6.4,6.6-12.3l11.7-28.7h-3.5c-3.1,0-4.6-1.1-4.6-3.2c0-1.5,0.5-2.7,1.6-3.6c1.1-0.8,2.6-1.3,4.6-1.3
		h11.2c2.9,0,5.1,0.2,6.4,0.5s2.7,1,3.9,2.1c2.6,2.2,3.9,5.2,3.9,9.2c0,3.6-1.1,6.8-3.2,9.6C88,125.5,85.2,127.4,81.8,128.3z
		 M74.2,122l1-0.1c2.6-0.2,4.5-0.7,5.7-1.5c2.4-1.6,3.6-3.7,3.6-6.4c0-3.1-1.5-4.6-4.4-4.6h-0.7L74.2,122z"/>
	<path class="st6" d="M103,137.4c0,1.7,1.3,2.5,3.8,2.5h10c2.8,0,4.2,1,4.2,3c0,1.4-0.5,2.4-1.5,3.2c-1,0.8-2.4,1.1-4.2,1.1h-9.5
		c-3.5,0-6.2-0.9-8.1-2.6c-1.9-1.8-2.8-4.3-2.8-7.7c0-4.3,1.5-8.1,4.4-11.2c2.9-3.1,6.4-4.7,10.5-4.7c2.9,0,5.3,0.8,7.1,2.3
		c1.8,1.5,2.7,3.6,2.7,6.1c0,3-1.2,5.3-3.7,6.7c-1.4,0.8-3.4,1.2-6.1,1.2H103z M104.6,131.3h3.7c2.4,0,3.6-0.5,3.5-1.6
		c-0.1-1.2-0.8-1.8-2.3-1.8C107.4,127.9,105.8,129.1,104.6,131.3z"/>
	<path class="st6" d="M141.7,147.3h-9.8c-2.8,0-5.1-1-6.9-3c-1.8-2-2.6-4.5-2.6-7.7c0-4.2,1.4-7.8,4.3-10.9
		c2.9-3.1,6.3-4.6,10.2-4.6c2.6,0,4.8,0.7,6.5,2.2c1.7,1.5,2.5,3.4,2.5,5.8c0,1.7-0.4,3-1.2,4.1c-0.8,1.1-1.9,1.6-3.2,1.6
		c-2.1,0-3.1-1-3.1-2.9c0-0.3,0-0.5,0-0.7c0-0.2,0-0.5,0-0.7c0-1.6-0.8-2.4-2.3-2.4c-1.5,0-2.8,0.8-4,2.3s-1.8,3.3-1.8,5.2
		c0,1.6,0.5,2.7,1.5,3.4c1,0.7,2.6,1,5,1h6.4c2.9,0,4.3,1,4.3,3c0,1.3-0.5,2.4-1.5,3.2C144.8,146.9,143.4,147.3,141.7,147.3z"/>
	<path class="st6" d="M158,140h3.8c2.8,0,4.2,1,4.2,3c0,1.4-0.5,2.4-1.5,3.2s-2.4,1.1-4.2,1.1H155c-2,0-3.5-0.4-4.7-1.2
		s-1.7-1.9-1.7-3.3c0-0.7,0.2-1.7,0.7-2.8l5.6-13.7l0.4-0.9c1-2.5,2.7-3.8,5-3.8c0.9,0,1.8,0.3,2.4,0.9c0.7,0.6,1,1.4,1,2.3
		c0,0.7-0.3,1.8-0.9,3.3L158,140z M162.4,110.8c1.3,0,2.4,0.5,3.3,1.4c0.9,0.9,1.4,2,1.4,3.3c0,1.3-0.5,2.4-1.4,3.3
		c-0.9,0.9-2,1.4-3.3,1.4s-2.4-0.5-3.3-1.4c-0.9-0.9-1.4-2-1.4-3.3c0-1.3,0.5-2.4,1.4-3.3C160,111.3,161.1,110.8,162.4,110.8z"/>
	<path class="st6" d="M185.9,121.5h4.6c2.9,0,4.3,1,4.3,3c0,1.4-0.5,2.4-1.5,3.2c-1,0.8-2.4,1.1-4.2,1.1h-6.2l-15.1,37.3
		c-1.3,3.1-3,4.6-5.3,4.6c-1,0-1.8-0.3-2.5-0.9s-1-1.4-1-2.3c0-0.7,0.3-1.7,0.9-3.2l14.5-35.5h-2.3c-2.9,0-4.3-1-4.3-2.9
		c0-1.4,0.5-2.5,1.5-3.3c1-0.8,2.4-1.2,4.2-1.2h3.8l4.3-10.5c1.4-3.5,3.2-6,5.2-7.5c2-1.5,4.7-2.2,8.1-2.2h3.8c2.9,0,4.3,1,4.3,3
		c0,1.4-0.5,2.5-1.5,3.3c-1,0.8-2.4,1.2-4.2,1.2h-1c-1.9,0-3.4,0.4-4.5,1.1c-1.1,0.8-2,2.1-2.7,3.9L185.9,121.5z"/>
	<path class="st6" d="M199.8,140h3.8c2.8,0,4.2,1,4.2,3c0,1.4-0.5,2.4-1.5,3.2s-2.4,1.1-4.2,1.1h-5.4c-2,0-3.5-0.4-4.7-1.2
		s-1.7-1.9-1.7-3.3c0-0.7,0.2-1.7,0.7-2.8l5.6-13.7l0.4-0.9c1-2.5,2.7-3.8,5-3.8c0.9,0,1.8,0.3,2.4,0.9c0.7,0.6,1,1.4,1,2.3
		c0,0.7-0.3,1.8-0.9,3.3L199.8,140z M204.3,110.8c1.3,0,2.4,0.5,3.3,1.4c0.9,0.9,1.4,2,1.4,3.3c0,1.3-0.5,2.4-1.4,3.3
		c-0.9,0.9-2,1.4-3.3,1.4s-2.4-0.5-3.3-1.4c-0.9-0.9-1.4-2-1.4-3.3c0-1.3,0.5-2.4,1.4-3.3C201.9,111.3,203,110.8,204.3,110.8z"/>
	<path class="st6" d="M226,121.5h1c2.9,0,4.3,1,4.3,3c0,1.4-0.5,2.4-1.5,3.2c-1,0.8-2.4,1.1-4.2,1.1h-2.5l-4.5,11.1h3.8
		c2.9,0,4.3,1,4.3,3c0,1.4-0.5,2.4-1.5,3.2s-2.4,1.1-4.2,1.1h-6c-1.7,0-3.1-0.4-4.1-1.2c-1-0.8-1.5-1.9-1.5-3.2
		c0-0.8,0.2-1.8,0.6-2.8l0.6-1.5l4-9.8h-0.5c-2.5,0-3.8-1-3.8-2.9c0-1.4,0.5-2.5,1.5-3.3c1-0.8,2.4-1.2,4.2-1.2h1.5l1.8-4.4l0.4-0.9
		c1.1-2.5,2.7-3.7,5-3.7c0.9,0,1.7,0.3,2.4,0.9c0.7,0.6,1,1.4,1,2.2c0,0.9-0.3,1.9-0.9,3.2L226,121.5z"/>
</g>
<path class="st7" d="M170.2,138.2"/>
</svg>
