<?xml version="1.0" encoding="utf-8"?>
<!-- Generator: Adobe Illustrator 26.3.1, SVG Export Plug-In . SVG Version: 6.00 Build 0)  -->
<svg version="1.1" id="레이어_1" xmlns="http://www.w3.org/2000/svg" xmlns:xlink="http://www.w3.org/1999/xlink" x="0px"
	 y="0px" viewBox="0 0 256 256" style="enable-background:new 0 0 256 256;" xml:space="preserve">
<style type="text/css">
	.st0{fill:#969492;}
	.st1{fill:#E8E3DD;}
	.st2{fill:#CDD0D1;}
	.st3{fill:#C6C3C1;}
	.st4{fill:none;}
	.st5{fill:#F76A23;}
	.st6{fill:#D84F12;}
	.st7{fill:#EDDDD6;}
	.st8{fill:#E2CBC3;}
	.st9{display:none;}
	.st10{display:inline;fill:none;}
	.st11{display:inline;}
	.st12{fill:#F46300;}
	.st13{fill:#E02612;}
	.st14{fill:#EF701B;}
	.st15{fill:#FF6700;}
	.st16{fill:#175101;}
	.st17{fill:#E5CEC6;}
	.st18{fill:#EFDAD5;}
	.st19{fill:#FCA100;}
	.st20{fill:#EF9F6A;}
	.st21{fill:#EFCBB4;}
	.st22{display:none;fill:#F98E00;}
	.st23{fill:#F98E00;}
	.st24{fill:#F2B451;}
	.st25{fill:#F77A26;}
	.st26{stroke:#000000;stroke-miterlimit:10;}
	.st27{fill:#FFFFFF;}
	.st28{fill:#F9B800;}
	.st29{fill:#ED481D;}
	.st30{fill:#EFD3CA;}
</style>
<g>
	<path class="st0" d="M28,238.4c0,5,4,9,9,9h186.9c5,0,9-4,9-9V16.1c0-5-4-9-9-9c-50.6,0-101.2,0-151.8,0c-7.4,0-7.5,0-7.5,0
		C50.9,6.8,46.3,6.9,37,7.1c-0.6,0-2.2,0.1-3.9,0.9c-3,1.4-5.1,4.5-5.1,8.1C28,16.1,28,238.4,28,238.4z"/>
</g>
<g>
	<path class="st1" d="M26.9,237.2c0,5,4,9,9,9h186.9c5,0,9-4,9-9V14.9c0-5-4-9-9-9H35.9c-5,0-9,4-9,9L26.9,237.2z"/>
</g>
<rect x="36.2" y="13.9" class="st2" width="184.9" height="170.7"/>
<rect x="35.5" y="192.4" class="st3" width="184.9" height="3.2"/>
<g>
	<rect x="44" y="200" class="st4" width="141.7" height="32.5"/>
</g>
<rect x="37.3" y="16" class="st5" width="181.4" height="166.4"/>
<ellipse class="st6" cx="132" cy="104.1" rx="80.9" ry="66.1"/>
<ellipse class="st7" cx="127.9" cy="101" rx="76.8" ry="63"/>
<ellipse class="st8" cx="129.4" cy="101" rx="65.7" ry="49.1"/>
<ellipse class="st7" cx="127.9" cy="101.2" rx="62.4" ry="47.1"/>
<g class="st9">
	<polygon class="st10" points="216.1,228 61.3,229.3 61.3,195.3 216.1,194 	"/>
	<path class="st11" d="M64.5,220c-0.1-0.3-0.3-0.6-0.5-1.1c-0.2-0.4-0.3-0.6-0.5-0.8s-0.4-0.3-0.7-0.4c-0.1-0.1-0.2-0.2-0.2-0.3
		s0.1-0.2,0.3-0.2c0.5,0.1,0.9,0.3,1.1,0.5c0.1,0.1,0.3,0.4,0.5,0.9c0.3,0.6,0.6,1.3,0.7,2.1c0,0.1,0.1,0.2,0.2,0.3s0.1,0.1,0.1,0.3
		c0,0.1-0.1,0.2-0.3,0.2c-0.1,0-0.2,0-0.3-0.1c-0.1-0.1-0.2-0.2-0.2-0.3V221C64.7,220.6,64.6,220.3,64.5,220z M68.2,216.3
		c0.1,0,0.2,0.1,0.4,0.2c0.3,0.3,0.4,0.7,0.4,1.1v1.7c0,0.2-0.1,0.4-0.2,0.6c0,0.1-0.1,0.1-0.1,0.2c0,0,0.1,0,0.2,0s0.2,0,0.3,0.1
		c0.1,0.1,0.1,0.2,0.1,0.3s-0.1,0.2-0.3,0.3c-0.3,0-0.5,0.1-0.8,0.1s-0.6,0.1-0.9,0.2c-0.3,0.1-0.4,0-0.4-0.3c0-0.1,0.1-0.2,0.2-0.3
		c0.2-0.1,0.3-0.2,0.5-0.3c0.1-0.1,0.3-0.3,0.6-0.6c0.1-0.1,0.1-0.2,0.2-0.3c0-0.1,0-0.2,0-0.3v-0.5l-0.1-1.1c0-0.3-0.1-0.4-0.2-0.4
		s-0.2,0-0.4,0.1c-1,0.4-1.6,0.6-1.9,0.6c-0.1,0-0.2,0-0.2,0c-0.2-0.1-0.3-0.1-0.3-0.3c0-0.1,0.1-0.2,0.3-0.2c0.2,0,0.5-0.1,0.9-0.3
		c0.4-0.1,0.7-0.3,1-0.4l0.1-0.1C67.9,216.3,68.1,216.3,68.2,216.3z M73.9,214.3c0-0.2-0.1-0.4-0.2-0.6c-0.1-0.2-0.2-0.4-0.3-0.5
		c-0.1-0.1-0.3-0.2-0.4-0.3c-0.2-0.1-0.3-0.2-0.3-0.3c0-0.2,0.1-0.3,0.4-0.3c0.2,0,0.5,0.1,0.7,0.3s0.4,0.4,0.6,0.6
		c0.2,0.3,0.3,0.4,0.3,0.5s0,0.3,0,0.7v0.9c0,0.4,0,1.1,0.1,2.1c0,1,0.1,1.9,0.1,2.7s0,1.6,0,2.4c0,0.8,0,1.4-0.1,1.7
		s-0.2,0.8-0.5,1.4c-0.1,0.2-0.2,0.3-0.3,0.3s-0.1,0-0.1,0s0-0.2,0.1-0.3c0.2-0.5,0.3-0.8,0.3-1.1s0.1-0.5,0.1-0.8
		c0-0.1,0-0.3,0-0.5s0-0.3,0-0.4l-0.2-3.6c-1.1,0.6-1.8,0.9-2.1,0.9c-0.2,0-0.3,0-0.5-0.1c-0.4-0.2-0.5-0.7-0.5-1.4
		c0-0.3,0-0.7-0.1-1.3c0-0.6-0.1-1-0.1-1.2s0.1-0.3,0.3-0.3c0.2,0,0.3,0.1,0.3,0.3l0.1,2.4c0,0.3,0,0.4,0,0.6c0,0.1,0.1,0.2,0.2,0.3
		s0.2,0.1,0.3,0.1c0.4,0,1-0.3,1.9-1l-0.1-3C73.9,215,73.9,214.5,73.9,214.3z"/>
	<path class="st11" d="M90.7,213.1c0.2,0.3,0.3,0.6,0.3,1s-0.1,0.8-0.3,1.2c-0.2,0.3-0.4,0.6-0.6,0.9c-0.3,0.3-0.6,0.6-1,0.8
		s-0.8,0.5-1.4,0.9c-1,0.6-1.6,0.9-1.9,1.1l3-0.6c0.5-0.1,0.9-0.2,1.1-0.2c0.3,0,0.5,0.1,0.7,0.3s0.3,0.4,0.3,0.5s0.1,0.3,0.1,0.6
		v0.6v0.2c0,0.2,0,0.4,0,0.6c0,0.2,0,0.3,0,0.5c0,0.3,0,0.5-0.1,0.6c-0.1,0.2-0.3,0.4-0.6,0.6c-0.2,0.2-0.6,0.4-1,0.7
		s-0.8,0.6-1.3,1c-0.6,0.4-1,0.8-1.4,1.2c-0.1,0.1-0.1,0.2-0.1,0.2c0,0.1,0.1,0.2,0.3,0.3c0.1,0,0.2,0.1,0.3,0.1
		c0.4,0.1,0.7,0.2,0.8,0.2c0.1,0,0.4,0,0.6,0c0.5,0,1.1-0.1,1.7-0.3c0.2-0.1,0.3-0.1,0.4-0.1s0.1,0,0.2,0c0.3,0,0.4,0.2,0.4,0.5
		c0,0.2-0.1,0.3-0.3,0.4s-0.4,0.1-0.7,0.1c-0.1,0-0.4,0-0.7,0.1s-0.6,0.1-0.7,0.1c-0.2,0-0.5,0-0.9-0.1c-0.3-0.1-0.7-0.2-1.1-0.3
		c-0.2-0.1-0.4-0.2-0.6-0.3c-0.2-0.2-0.3-0.4-0.3-0.6c0-0.2,0.1-0.4,0.4-0.7c0.5-0.5,1.1-1.1,1.9-1.7c0.3-0.2,0.8-0.6,1.5-1.1
		c0.2-0.1,0.3-0.3,0.4-0.4s0.1-0.3,0.1-0.7l-0.1-1.9c0-0.2-0.1-0.3-0.2-0.4s-0.3-0.2-0.5-0.2c-0.1,0-0.3,0-0.4,0.1l-6,1.2
		c-0.3,0.1-0.6,0.1-0.9,0.2c-0.3,0.1-0.5,0.1-0.5,0.1c-0.1,0-0.2,0-0.4-0.1c-0.2,0-0.2-0.1-0.2-0.3s0.2-0.3,0.5-0.4
		c0.3-0.1,0.6-0.1,1-0.2c0.4-0.1,0.6-0.1,0.7-0.1c0.5-0.1,1-0.2,1.4-0.3s0.8-0.2,1.1-0.4c0,0,0.6-0.4,1.6-1.1
		c0.3-0.2,0.6-0.4,0.7-0.5c-0.7-0.3-1.3-0.6-1.6-0.8c-0.6-0.5-0.9-1.2-0.9-2c0-0.4,0.2-0.8,0.5-1.1c0.2-0.3,0.6-0.6,1.1-1
		c-0.1-0.2-0.2-0.3-0.2-0.4c0-0.1,0-0.1,0-0.2c-0.1-0.2,0-0.3,0.1-0.3s0.2,0.1,0.4,0.2c0.1,0.1,0.3,0.3,0.5,0.4s0.3,0.3,0.3,0.4
		c0,0.2,0,0.3-0.1,0.4c-0.1,0.1-0.3,0.1-0.6,0.1c-0.4,0.2-0.7,0.4-0.9,0.7s-0.4,0.6-0.4,0.9c0,0.2,0,0.4,0.1,0.7s0.3,0.6,0.7,0.8
		c0.4,0.3,0.9,0.5,1.5,0.5c0.3,0,0.6-0.1,0.8-0.3c0.2-0.1,0.4-0.4,0.6-0.7c0.1-0.2,0.3-0.4,0.3-0.6c0.1-0.2,0.1-0.4,0.1-0.7
		c0-0.2-0.1-0.5-0.2-0.7s-0.3-0.4-0.6-0.5c-0.3-0.1-0.5-0.3-0.5-0.5s0.1-0.2,0.3-0.2c0.1,0,0.3,0.1,0.5,0.2
		C90.3,212.6,90.5,212.8,90.7,213.1z"/>
	<path class="st11" d="M114.4,218.9c0,0.1,0,0.2-0.1,0.3c0,0.1-0.1,0.1-0.3,0.1c-0.1,0-0.2,0-0.3,0c-0.1,0-0.1,0-0.1-0.1
		s-0.1-0.1-0.3-0.1c-1.2,0-2.6,0.1-4.2,0.3s-3.2,0.4-4.8,0.7c-1.3,0.2-2.7,0.5-4.1,0.8c-0.2,0.1-0.3,0.1-0.5,0.2
		c-0.2,0-0.3,0.1-0.4,0.1s-0.2-0.1-0.3-0.2c-0.1-0.1-0.1-0.2-0.1-0.2c0-0.1,0.2-0.2,0.7-0.3c3.5-0.6,6.5-1.1,9.1-1.4
		c2.1-0.2,3.8-0.4,5-0.4C114.2,218.5,114.4,218.6,114.4,218.9z M108,212.4c0.6,0,1.1,0.4,1.5,1.2c0.1,0.2,0.1,0.3,0.1,0.5
		s0.1,0.3,0.1,0.5c0,0.6-0.2,1.2-0.7,1.8c-0.2,0.3-0.5,0.5-0.7,0.6c-0.3,0.2-0.7,0.2-1.1,0.2c-1,0-1.8-0.2-2.3-0.6
		c-0.6-0.4-0.9-1-0.9-1.7c0-0.4,0.1-0.7,0.3-1c0.2-0.2,0.4-0.5,0.8-0.7c0.2-0.2,0.3-0.3,0.3-0.5c0-0.1-0.1-0.3-0.2-0.5
		s-0.2-0.4-0.2-0.4c0-0.1,0-0.1,0.1-0.1s0.2,0,0.3,0.1s0.2,0.2,0.2,0.2c0.5,0.5,0.7,0.8,0.7,1c0,0.1-0.1,0.3-0.4,0.4
		c-0.4,0.3-0.7,0.5-0.9,0.8c-0.2,0.3-0.3,0.5-0.3,0.9c0,0.1,0,0.2,0,0.3c0.1,0.4,0.4,0.7,0.8,0.9s1,0.4,1.7,0.4c0.4,0,0.7-0.2,1-0.4
		s0.5-0.6,0.7-1c0.1-0.2,0.1-0.4,0.1-0.6c0-0.5-0.2-0.9-0.5-1.3c-0.1-0.1-0.2-0.1-0.3-0.2s-0.2-0.1-0.4-0.1c-0.1,0-0.3,0-0.5,0.1
		c-0.1,0-0.3-0.1-0.3-0.2c-0.1-0.1,0-0.2,0-0.3s0.3-0.1,0.5-0.2C107.8,212.4,107.9,212.4,108,212.4z M105.6,223.2
		c0.1,0.3,0.2,0.6,0.3,0.9c0.1,0.3,0.2,0.6,0.3,0.9c0.2,0.4,0.4,0.7,0.6,1c0.1,0.1,0.2,0.2,0.3,0.3c0.1,0.1,0.1,0.2,0.1,0.2
		c0,0.1-0.1,0.2-0.2,0.3c-0.2,0.1-0.5-0.1-0.9-0.6c-0.3-0.4-0.5-0.8-0.7-1.3c-0.1-0.3-0.3-0.8-0.5-1.4c0-0.2-0.2-0.3-0.4-0.6
		c-0.1-0.1-0.1-0.2-0.1-0.3c0.1-0.1,0.1-0.1,0.2-0.1s0.2,0.1,0.4,0.2C105.3,222.8,105.5,223,105.6,223.2z M111,222.2
		c0,0.2-0.1,0.5-0.4,0.9c-0.3,0.5-0.6,1-1.1,1.5c-0.1,0.1-0.1,0.1-0.1,0.2s0,0.1,0.1,0.1s0.2,0,0.4-0.1c0.2,0,0.3-0.1,0.4-0.1
		s0.2,0,0.2,0c0.2,0,0.3,0.1,0.3,0.3s-0.1,0.4-0.3,0.5c-0.2,0.1-0.5,0.1-1.1,0.1c-0.7,0-1-0.1-1-0.4c0-0.1,0.1-0.3,0.2-0.4
		c0.3-0.4,0.6-0.8,0.8-1.1c0.3-0.4,0.5-0.8,0.6-1c0-0.1,0.1-0.2,0.1-0.2c0-0.1-0.1-0.1-0.2-0.1s-0.3,0-0.6,0.1
		c-0.3,0.1-0.7,0.1-1.1,0.2c-0.4,0.1-0.7,0.1-0.9,0.1c-0.2,0-0.3-0.1-0.5-0.2c-0.1-0.1-0.1-0.1-0.1-0.2c0-0.1,0.1-0.1,0.3-0.2
		c0.2,0,0.4-0.1,0.8-0.1c0.3,0,0.6-0.1,1-0.2c0.3-0.1,0.6-0.2,0.8-0.2c0.2-0.1,0.5-0.1,0.7-0.1c0.3,0,0.5,0,0.7,0.1
		C110.9,221.9,111,222,111,222.2z"/>
	<path class="st11" d="M122.4,213.9c0-0.1,0-0.2,0.1-0.2s0.2,0.2,0.4,0.5c0.2,0.4,0.4,0.7,0.5,0.9s0.1,0.3,0.1,0.5
		c0,0.1-0.1,0.2-0.2,0.4c-0.1,0.1-0.1,0.2-0.2,0.2l-0.6,0.9c0.5,0.2,0.9,0.3,1.2,0.5s0.6,0.3,0.9,0.5c0.1,0.2,0.2,0.4,0.2,0.5
		s-0.1,0.2-0.2,0.2s-0.3-0.1-0.5-0.3s-0.5-0.4-0.9-0.7c-0.4-0.2-0.7-0.4-1-0.4c-0.4,0.5-0.9,0.9-1.3,1.2c-0.5,0.4-1,0.7-1.6,0.9
		c-0.1,0-0.3,0.1-0.4,0.1s-0.2,0-0.2-0.1s0.1-0.2,0.4-0.4c0.5-0.2,1.1-0.6,1.7-1.2c0.5-0.5,1-1,1.3-1.5c0.1-0.2,0.3-0.5,0.5-0.7
		c0.1-0.2,0.1-0.3,0.1-0.4c0-0.1,0-0.3-0.1-0.5l-0.2-0.6C122.4,214.2,122.4,214,122.4,213.9z M126.5,211.9c0-0.1,0.1-0.1,0.2-0.1
		s0.3,0.1,0.5,0.2c0.6,0.3,0.9,0.7,1.1,1c0.1,0.2,0.2,0.4,0.2,0.6v0.2v4.6c0,1.3-0.1,1.9-0.4,2c-0.2,0-0.4,0.1-0.5,0.2
		c-0.2,0.1-0.4,0.3-0.5,0.4c-0.3,0.2-0.5,0.4-0.8,0.5c-0.1,0.1-0.2,0.1-0.2,0.2c0,0,0.1,0,0.1,0.1c0.2,0,0.6-0.1,1.2-0.2h0.1
		c0.3,0,0.5,0.1,0.6,0.2c0.1,0.1,0.2,0.3,0.2,0.5s0.1,0.4,0.1,0.6c0,0.2,0,0.5,0,0.7v0.2v0.2v0.3v0.7v0.8c0,0.2,0,0.4-0.1,0.6
		c0,0.2-0.1,0.3-0.2,0.5c-0.2,0.3-0.3,0.4-0.5,0.4c-0.1,0-0.1-0.1-0.1-0.2c0-0.1,0-0.3,0.1-0.5c0-0.1,0.1-0.2,0.1-0.3s0-0.3,0-0.5
		s0-0.4,0-0.6c0-0.2,0-0.5,0-0.8c0-0.2,0-0.5,0-0.9s0-0.7-0.1-0.8c0-0.2,0-0.4-0.1-0.5s-0.2-0.1-0.5-0.1c0,0-0.1,0-0.2,0
		s-0.3,0-0.5,0c-0.3,0-0.6,0.1-1.2,0.2c-0.5,0.1-1,0.3-1.5,0.5c0,0-0.1,0-0.2,0c-0.2,0-0.4,0-0.5-0.1c-0.1,0-0.2-0.1-0.2-0.2
		c0,0,0.1-0.1,0.2-0.2s0.3-0.1,0.5-0.2c0.3,0,0.7-0.2,1.1-0.4s0.9-0.4,1.3-0.7c0.3-0.2,0.6-0.4,0.9-0.6c0.3-0.2,0.5-0.4,0.7-0.6
		c0.1-0.1,0.2-0.2,0.2-0.2c0.1-0.1,0.1-0.1,0.1-0.3s0-0.8,0-1.9l-0.1-3.6c0-0.3-0.1-0.5-0.2-0.8c-0.2-0.4-0.4-0.7-0.8-0.9
		C126.6,212.2,126.5,212,126.5,211.9z"/>
	<path class="st11" d="M148.8,214.7c0.2,0,0.4-0.1,0.5-0.1c0.2,0,0.3,0.1,0.5,0.3c0.1,0.1,0.2,0.3,0.2,0.3c0,0.1,0.1,0.2,0.1,0.3
		s0,0.2,0,0.3c0,0.2,0,0.3,0,0.5s0,0.3,0,0.3c0,0.1,0,0.2,0,0.3s-0.1,0.3-0.2,0.5c-0.1,0.2-0.2,0.3-0.2,0.4c-0.1,0-0.3,0-0.4,0.1
		c-0.5,0.4-1,0.9-1.5,1.5s-0.8,1.1-0.8,1.4c-0.1,0.3-0.1,0.5-0.1,0.6c0,0.2,0.1,0.3,0.2,0.3c0.1,0,0.2,0,0.3-0.1
		c0.2-0.1,0.5-0.2,1.1-0.5c0.8-0.3,1.3-0.6,1.5-0.8c0.1-0.1,0.2-0.1,0.3-0.1s0.2,0.1,0.2,0.2c0,0.1-0.1,0.3-0.3,0.4
		c-0.3,0.3-0.8,0.6-1.5,0.9c-0.5,0.3-1,0.5-1.5,0.7c-0.2,0.1-0.3,0.1-0.4,0.1c-0.1,0-0.2-0.1-0.4-0.3s-0.2-0.4-0.2-0.6
		c0-0.1,0-0.3,0.1-0.5c0.2-0.5,0.5-0.9,0.8-1.4c0.3-0.4,0.6-0.8,1-1.4c-0.4,0.1-0.8,0.2-1,0.3c-0.3,0.1-0.5,0.1-0.7,0.1
		s-0.4,0-0.5-0.1s-0.2-0.2-0.2-0.3c0-0.2,0.1-0.2,0.4-0.2c0,0,0.1,0,0.2,0c0.4,0,1.3-0.2,2.8-0.7c0.1-0.1,0.1-0.2,0.2-0.3
		c0-0.1,0-0.2,0-0.3s0-0.2,0-0.3c0-0.2,0-0.3,0-0.4c0-0.1,0-0.2,0-0.3c0-0.2,0-0.3-0.1-0.4s-0.2-0.1-0.3-0.1
		c-1.3,0.3-2.1,0.4-2.3,0.4c-0.1,0-0.2,0-0.4,0c-0.3-0.1-0.4-0.2-0.4-0.3s0.2-0.2,0.5-0.2L148.8,214.7z M152.5,215.2
		c0,0.3,0,0.5,0.1,0.8c0,0.5,0,1.3,0.1,2.5s0.1,2,0.1,2.5c0,0.4-0.1,0.6-0.3,0.6s-0.3-0.2-0.3-0.6c0-0.4,0-0.8,0-1.3s0-0.8,0-0.9
		c-0.2,0.1-0.4,0.2-0.6,0.2c-0.2,0.1-0.4,0.1-0.6,0.1c-0.2,0-0.4,0-0.6-0.1c-0.2-0.1-0.3-0.2-0.3-0.3c0-0.2,0.1-0.2,0.4-0.2
		c0.1,0,0.3,0.1,0.4,0.1c0.1,0,0.3,0,0.5-0.1c0.4-0.1,0.7-0.2,0.8-0.2c0-1,0-1.7-0.1-2.3c0-0.3-0.1-0.5-0.1-0.6s-0.1-0.2-0.3-0.3
		c-0.1-0.1-0.2-0.2-0.2-0.3s0.1-0.2,0.3-0.2c0.1,0,0.1,0,0.2,0c0.1,0,0.1,0,0.2,0.1C152.3,214.9,152.5,215,152.5,215.2z
		 M155.2,212.6c0.2,0.2,0.3,0.6,0.4,1.3c0.2,2.2,0.3,5.6,0.3,10.3c0,0.2,0,0.5-0.1,0.7s-0.2,0.3-0.3,0.3c-0.2,0-0.3-0.2-0.3-0.7
		c0-1.4,0-2.8,0-4.4c0-1.5-0.1-2.9-0.2-4c-0.1-1.2-0.2-2.1-0.4-2.7c-0.1-0.3-0.2-0.4-0.3-0.5s-0.3-0.2-0.6-0.3s-0.4-0.3-0.4-0.4
		c0-0.1,0.1-0.2,0.4-0.2c0.1,0,0.2,0,0.4,0.1C154.7,212.2,155,212.4,155.2,212.6z"/>
	<path class="st11" d="M166.7,214.1c0-0.1,0-0.1,0.1-0.1c0,0,0.1,0,0.2,0.1c0.1,0.1,0.2,0.2,0.3,0.3c0.3,0.4,0.5,0.8,0.6,1
		s0.1,0.4,0.1,0.6c0,0.1,0,0.2-0.1,0.3c0,0.1-0.1,0.1-0.3,0.2c-0.3,0.5-0.7,1.1-1,1.6c0.1,0.2,0.6,0.5,1.5,1
		c0.4,0.2,0.8,0.5,0.9,0.7c0.1,0.1,0.2,0.3,0.2,0.4c0,0.2-0.1,0.3-0.3,0.3s-0.3-0.1-0.5-0.3c-0.1-0.2-0.3-0.4-0.6-0.6
		c-0.4-0.3-0.9-0.7-1.5-1.2c-0.5,0.7-1.1,1.2-1.6,1.7c-0.7,0.6-1.4,1-2,1.3c0,0-0.1,0-0.2,0c-0.2,0-0.3,0-0.3-0.1s0.1-0.2,0.4-0.3
		c0.6-0.2,1.1-0.6,1.6-1.1c0.4-0.4,0.9-0.9,1.4-1.5c0.3-0.3,0.5-0.6,0.8-1c0.2-0.3,0.4-0.7,0.6-1c0.1-0.2,0.2-0.4,0.2-0.6
		c0-0.3-0.1-0.7-0.3-1C166.8,214.6,166.7,214.3,166.7,214.1z M171.5,212.5c0-0.1,0.1-0.2,0.2-0.2c0.1,0,0.3,0,0.4,0.1
		c0.2,0.2,0.5,0.3,0.7,0.5s0.4,0.5,0.6,0.9c0.1,0.3,0.1,0.6,0.2,1c0,0.4,0,1,0,1.9v1c0,0.5,0,1.5-0.1,3.1s-0.1,2.8-0.1,3.5
		c0,0.8-0.1,1.1-0.3,1.1s-0.3-0.3-0.3-1v-6.1c0-0.6,0-1.4,0-2.2s0-1.4-0.1-1.8c-0.1-0.5-0.2-0.9-0.4-1c-0.1-0.1-0.3-0.3-0.6-0.5
		C171.6,212.8,171.5,212.6,171.5,212.5z"/>
	<path class="st11" d="M187.7,218c0,0.2-0.1,0.4-0.3,0.6c-0.3,0.4-0.6,0.9-1,1.3c-0.3,0.4-0.7,0.8-1.2,1.2c-0.2,0.1-0.3,0.3-0.5,0.4
		v0.1c0,0,0.1,0,0.2,0c0.1,0,0.3,0,0.4-0.1c0.9-0.2,1.9-0.3,2.9-0.5s2-0.3,2.8-0.4l-0.2-6.8c0-0.2,0-0.3,0-0.5s-0.1-0.4-0.4-0.7
		c-0.2-0.2-0.4-0.4-0.5-0.5c-0.2-0.1-0.4-0.2-0.5-0.3c-0.1,0-0.1-0.1-0.1-0.2c0-0.2,0.1-0.3,0.4-0.2c0.3,0.1,0.6,0.1,0.8,0.2
		c0.2,0.1,0.4,0.3,0.7,0.6c0.3,0.4,0.5,0.7,0.6,0.8c0,0.1,0.1,0.4,0.1,0.7v0.4c0,1.7,0,3.2,0,4.7s0,2.9,0,4.3c0,1.4,0,2.5,0,3.5
		c0,0.3-0.1,0.4-0.3,0.4s-0.3-0.1-0.3-0.4c0-0.2,0-0.9-0.1-2.2s-0.1-2.3-0.1-3c-0.9,0.1-2,0.3-3.3,0.5c-1.1,0.2-2.3,0.4-3.6,0.6
		c-0.3,0-0.6,0.1-0.9,0.2c-0.2,0.1-0.4,0.1-0.5,0.1s-0.2,0-0.4-0.1c-0.1-0.1-0.2-0.2-0.2-0.3s0.1-0.2,0.3-0.2
		c0.5-0.2,0.8-0.3,0.8-0.3c0.3-0.2,0.6-0.4,0.9-0.6c0.5-0.3,0.9-0.7,1.3-1.2s0.8-0.9,1.1-1.3c0.2-0.3,0.2-0.4,0.2-0.5
		s-0.1-0.1-0.4-0.1c-0.2,0-0.3-0.1-0.3-0.2c0-0.1,0.1-0.2,0.2-0.3c0.1-0.1,0.3-0.1,0.5-0.1c0,0,0.1,0,0.2,0c0.1,0,0.2,0,0.3,0h0.1
		C187.5,217.6,187.7,217.8,187.7,218z M182.4,217.5c0.1,0,0.2,0,0.3,0.1l0.6,0.9c0.1,0.1,0.1,0.1,0.2,0.1c0.1,0,0.2-0.1,0.4-0.2
		c0.1,0,0.1-0.1,0.1-0.1s0.1,0.1,0.2,0.3c0,0,0.1,0,0.2,0.1c0.1,0,0.1,0,0.1,0.1c0,0-0.1,0.1-0.4,0.2c-0.2,0.1-0.4,0.2-0.6,0.4
		c-0.1,0.1-0.3,0.1-0.3,0.1c-0.1,0-0.2-0.1-0.4-0.3c-0.1-0.2-0.3-0.4-0.4-0.6c-0.1-0.2-0.2-0.4-0.3-0.6v-0.1
		C182.1,217.7,182.2,217.5,182.4,217.5z M182.3,215.4c0-0.1,0-0.1,0.1-0.1c0,0,0,0,0.1,0h0.1c0.3,0.1,0.5,0.1,0.7,0.1s0.6,0,0.9-0.1
		c0.4-0.1,0.9-0.2,1.6-0.3c0.7-0.1,1-0.2,1.1-0.2s0.2,0,0.4,0.1c0.1,0.2,0.2,0.3,0.2,0.4c0,0.2-0.1,0.3-0.3,0.3
		c-0.5,0.1-1,0.2-1.6,0.3s-1.2,0.1-1.8,0.1c-0.4,0-0.7,0-0.9-0.1s-0.3-0.1-0.5-0.3l0,0C182.3,215.5,182.3,215.4,182.3,215.4z"/>
</g>
<path class="st12" d="M81.5,72.4c-2,1.5-3.2,2.4-4.1,4.1c-1.5,3-0.2,4.9-1.5,8c-1.1,2.7-2.8,2.7-4.5,4.9c-3.9,4.9-2.4,13-0.3,17.7
	c1.9,4.3,4.1,5.2,8.9,10.2c8.6,9.1,7,12.3,12.4,17.5c9.9,9.6,26.7,9.8,36.7,7.7c7.9-1.7,8.7-4.2,20.2-6.5
	c10.9-2.3,12.4-0.5,17.9-2.5c10.4-3.8,18.3-15.2,20.4-26.8c3.3-18.7-9.9-32.1-12.2-34.5c-7.5-7.7-17.2-11.4-23.6-11.9
	c-4.4-0.3-8.4,0.5-8.4,0.5c-4.1,0.8-5.7,2.1-8,2.9c-7.2,2.4-9.8-3.9-22.2-4.9c-3-0.2-12-0.8-17.2,4.7c-0.5,0.5-0.3,0.4-0.9,1
	C90.7,69.2,87,68.4,81.5,72.4z"/>
<path class="st13" d="M80.9,85.7c-2.5,4.9-4.5,4.9-5.9,8.1c-0.8,2-2.3,7,6.3,21.7c7,12,10.5,18,16.7,22c11.4,7.3,30.1,0.7,45.5-3.8
	c1.6-0.5,5.9-1.8,11.6-1.3c3.4,0.3,4.7,1.1,6.6,1.3c7.7,1,16.1-8.1,19.9-15c6.2-11.2,5.2-25.9-1.4-36.9
	c-5.8-9.6-16.3-17.4-27.3-17.9c-8.5-0.4-10,4-19,2.8c-10-1.4-12.1-7.3-20.4-6.5c-3.4,0.3-2.4,1.3-13.6,6
	c-10.7,4.5-13.1,4.3-15.3,7.6C82,77.4,84,79.6,80.9,85.7z"/>
<path class="st14" d="M93.8,88.4c-1.2,3.7-1.1,8.9,1,9.8c1,0.5,2.1-0.2,3.3-0.8c6-2.9,15.1-3.7,20.9-0.8c3.1,1.5,4,3.5,5.7,2.9
	c2.3-0.7,3.2-5,2.8-8.2c-0.1-0.9-0.5-3.8-2.6-5.6c-2.3-1.9-5-1.2-9.9-1c-12,0.8-17.6-2.3-20.2,1.3C94.4,86.5,94.2,87.1,93.8,88.4z"
	/>
<path class="st14" d="M94.3,104.4c-1,2-0.1,5.3,2,7c2.2,1.8,4.7,0.9,21.7-3.9c4.5-1.3,7-1.9,7.2-3.5c0.3-2-3.2-4.4-6.3-5.5
	c-3.4-1.2-4.6-0.1-18.4,3.1C97.1,102.3,95.1,102.7,94.3,104.4z"/>
<path class="st14" d="M128.8,73.3c-0.7,1-1.7,3.1-1.2,4.7c1.5,4.5,13.2,0.1,24.3,7c2.7,1.7,4.2,3.3,5.9,2.7
	c3.3-1.2,4.7-9.8,1.4-12.9c-1.9-1.8-3.8-0.1-9.5-0.7c-8.5-0.8-11.5-5.2-17-3.5C132,70.9,130.1,71.5,128.8,73.3z"/>
<path class="st14" d="M120.8,113.2c-1.4,2-0.2,5,0,5.6c0.1,0.1,1.1,2.7,3.2,3.9c5.2,3.2,11.2-5.3,23.9-6.2c5.4-0.4,9,0.8,9.7-0.8
	c0.7-1.6-2.2-4.9-5.3-6.7c-3.3-1.8-7.2-1.5-14.9-0.9c-2.5,0.2-6.3,1.3-13.9,3.4C122.8,111.8,121.6,112.1,120.8,113.2z"/>
<path class="st14" d="M90.5,114.1c-0.4,1.8-0.2,4,1,5.6c1.5,2,4.2,2.2,7,2.5c13.6,1.3,18.3,3.7,20.1,1.1c0.9-1.3,0.8-3.5,0.7-4.3
	c-0.1-1.3-0.2-2.9-1.2-4.1c-1.1-1.2-2.7-1.2-7.9-1.2c-3.9,0-5.9,0-6.1-0.1c-6.6-0.7-9.5-4.2-11.8-2.7
	C91.1,111.7,90.8,113.1,90.5,114.1z"/>
<path class="st15" d="M91.4,72.7c0.5-0.8,1.7-0.9,3.9-1.2c2.1-0.3,3.2-0.4,4.4,0c3.5,1.1,4.8,5.2,5.1,6.2c0.2,0.5,1.5,4.7-0.1,5.9
	c-1,0.7-2.2-0.4-5.5-0.1c-1.7,0.2-1.8,0.5-2.6,0.3c-1.7-0.4-2.6-2.3-3.9-5.3C91.4,75.3,90.7,73.7,91.4,72.7z"/>
<path class="st15" d="M139.2,97c-0.5,0.4-1.4,1.3-2,2.7c-0.7,1.7-0.7,3.9,0.1,5.1c1.8,2.8,7.4-0.3,16.6,0.3c8.9,0.5,13.8,4,17,1.1
	c0.3-0.3,1.9-1.7,1.9-3.7c0-1.8-1.3-3-1.7-3.5c-2.1-2.1-5.1-2-5.8-2c-5.2-0.6-11.3-1-17.9-0.7C144.6,96.4,141.8,96.7,139.2,97z"/>
<path class="st15" d="M103.2,70.9c-0.7,2,2.2,3.1,3.1,8.1c0.3,2,0.1,3.6,1.3,4.4c0.6,0.4,1,0.2,2.9,0.2c3.6-0.1,3.8,0.3,4.4,0
	c2.7-1.4,3.1-12.4-2.6-15.1C108.9,67,104,68.5,103.2,70.9z"/>
<path class="st14" d="M141.2,87c-2,2.2-3,5.9-1.6,7.5c0.9,1.1,3,1.1,7,1c1.7,0,2.5-0.2,4.7-0.4c0.7-0.1,4.8-0.4,7.5-0.5
	c7.4-0.1,9.8,2.1,11.3,0.6c1.5-1.6,0.8-5.7-1.3-8.2c-2.9-3.5-8-3.3-15.9-3.1C147,84.2,143.5,84.4,141.2,87z"/>
<path class="st16" d="M85.4,92.1"/>
<path class="st17" d="M117.3,83c-1.4,3-0.8,6-0.4,7.7c0.3,1.6,2.1,10,9.2,11.8c6,1.5,12.6-2.6,14.4-8c2.7-8.2-6.2-18-14-17.6
	C123,77,119,79.2,117.3,83z"/>
<path class="st18" d="M125.3,77c-0.5,0.1-2.5,0.4-4.6,2c-0.6,0.5-2.8,2.1-3.8,5.1c-0.9,2.7-0.4,4.9,0.1,7.1c0.6,2.7,1.2,5.3,3.5,7.3
	c4.2,3.9,10.6,2.1,10.9,2c4.3-1.3,7.8-4.9,8.7-9.2c0.5-2.5,0-4.5-0.3-5.4c-1.3-4.2-4.7-6.1-6.2-7C132,78.1,129,76.4,125.3,77z"/>
<path class="st19" d="M120.9,85.1c-0.1,0.5-0.6,2.3,0.1,4.3c1.1,2.8,3.7,3.9,4.3,4c2.5,0.9,6.4,0.7,8.3-2.2c2-2.9,0.9-7-1.7-9.2
	c-2.9-2.3-7-1.8-9.2,0.2C121.5,83.3,121,84.7,120.9,85.1z"/>
<path class="st20" d="M143,99.1c-0.5,0.6-0.7,1.6-0.3,2s1.3-0.1,3.3-0.5c1.6-0.4,2.8-0.4,4.8-0.5c2.7-0.1,4,0.1,4-0.2
	c0.1-0.4-1.5-1.1-3.1-1.5c-1.4-0.4-2.9-0.2-5.8,0C144.2,98.3,143.5,98.5,143,99.1z"/>
<path class="st20" d="M155.9,98.5c0,0.1,0,0.2,0.9,0.7c3.2,1.6,5.3,0.3,9.4,1.1c2.4,0.5,3.9,1.3,4.1,0.9c0.2-0.3-0.4-1.2-1.1-1.6
	c-1.2-0.9-2.8-0.6-3.5-0.5C160.5,99.6,156,97.9,155.9,98.5z"/>
<path class="st20" d="M144.3,86.2c0,0.3,0.6,0.7,1.1,0.8c0.7,0.1,1.3-0.2,1.4-0.3c2.6-1.5,15.4-0.6,17-0.3c0.1,0,0.6,0.1,1.1-0.1
	c0.1,0,0.5-0.2,0.5-0.4c0-0.4-2.9-0.5-3.5-0.5C156,85.2,144.4,85,144.3,86.2z"/>
<path class="st21" d="M123.1,115.1c0,0.4,0.3,0.7,0.6,0.9c1,0.6,2.1-0.8,4.3-1.6c3.2-1.2,5.5,0.1,6.9-1.6c0.2-0.2,0.5-0.6,0.3-0.8
	c-0.1-0.3-0.9-0.5-7.2,1.2C124.5,113.9,123.1,114.4,123.1,115.1z"/>
<path class="st21" d="M137.8,110.5c0,0.1-0.6,0.7-0.4,1c0.4,0.7,3.5-1.5,7.9-1.2c1.1,0.1,2.3,0.3,2.4,0c0.1-0.2-0.8-0.7-1.3-0.9
	c-2.1-0.9-4-0.4-7.3,0.4C138.8,109.9,138.2,110,137.8,110.5z"/>
<path class="st22" d="M233.7,139.3c0,0.2,0.1,0.4,0.3,0.5s0.5-0.1,1-0.2c0.1,0,1.1-0.2,1.3,0.1c0.1,0.2,0.1,0.4-0.1,0.6
	c-0.3,0.3-0.8,0.2-1.3,0.3c0,0-1,0.1-2,0.9c-1,0.9-1.3,2.5-0.9,3.7c0.5,2,2.8,3.6,4.9,3.2c1.3-0.3,2.6-1.3,3-2.6
	c0.7-2.3-1.6-4.8-1.2-5.1c0.2-0.1,0.8,0.3,1.1,0.7c0.8,0.8,0.7,1.6,1.5,2c0.2,0.1,0.6,0.3,0.8,0.1c0.4-0.4-0.8-2.7-2.7-3.9
	C237.1,138.2,233.8,138.7,233.7,139.3z"/>
<path class="st23" d="M122.7,88.3c0.6,0.1,0.5,1.2,1.4,2.2s2,1.3,2.4,1.3c0.3,0.1,1,0.2,1.8,0.1c1-0.2,1.4-0.6,2-0.4
	c0.4,0.1,0.8,0.5,0.8,0.8c-0.1,0.7-2.6,1.2-4.8,0.8c-0.7-0.1-2.5-0.6-3.7-2.1c-0.3-0.4-1.2-1.4-0.8-2.1
	C121.9,88.5,122.3,88.2,122.7,88.3z"/>
<path class="st20" d="M134.3,71.9c-0.5,0.2-1.2,0.6-1.3,1c-0.4,1.1,5.6,0.1,13.5,3.4c3.9,1.6,5.9,3.7,8.3,2.7
	c1.4-0.6,2.5-2.1,2.2-2.6c-0.3-0.7-2.4,0.3-5.2,0.2c-2.1-0.1-2.5-0.7-7.6-2.8C138.5,71.4,136.3,71.1,134.3,71.9z"/>
<path class="st20" d="M107.9,83.4c0.1,0,0.4,0,0.7,0c0.4,0,0.6-0.1,1-0.1s0.4,0.1,0.8,0.1c0.5,0,0.7-0.1,1.4-0.1c0.1,0,0.3,0,0.3,0
	c0.1,0,0.3,0,0.6,0c1.2,0,1.6,0.3,2.1,0.1c0.2-0.1,0.5-0.3,0.7-0.9c-0.2,0.3-0.6,0.6-1,0.7c-0.2,0-0.3,0-0.8-0.1
	c-0.8-0.1-0.9,0-1.6-0.1c-0.2,0-0.5-0.1-0.8-0.1c-0.8-0.2-0.9-0.3-1.3-0.3c-0.2,0-0.5,0.1-1,0.3c-0.6,0.2-0.7,0.3-0.9,0.2
	c-0.1-0.1-0.1-0.2-0.5-0.4c-0.2-0.2-0.3-0.3-0.4-0.2c-0.1,0.1,0,0.4,0.2,0.7C107.5,83.2,107.8,83.3,107.9,83.4z"/>
<path class="st21" d="M96.2,83.6c3.2-1.2,5.5,0.1,6.9-1.6"/>
<path class="st21" d="M107.2,102c-0.3-0.6-1.1-1-7.2,1.2c-3.4,1.2-4.8,1.3-4.9,2"/>
<path class="st24" d="M123,82.8c-0.5,0-0.9,0.6-1.1,1c-0.5,0.8-0.5,1.6-0.6,2.4c-0.1,0.9,0,1.7,0.2,1.7c0.1,0,0.2-0.2,0.3-0.2
	c0.1,0,0.1,0.3,0.2,0.4c0.1,0,0.2-0.1,0.3-0.1c0.3-0.3,0.1-0.9,0.1-1.5c0-0.4,0-1.7,0.7-2.5c0.3-0.4,0.7-0.6,0.6-0.8
	C123.6,82.9,123.3,82.8,123,82.8z"/>
<path class="st20" d="M104.5,70.8c0.1,0.1,0.8,0,2.1-0.3c2-0.5,2.1-0.7,2.8-0.7c0.2,0,1.8,0.1,2.6,1.3c0.2,0.2,0.2,0.4,0.3,0.7
	c0.7,1.7,0,2.6,0.7,3.4c0.4,0.4,1.1,0.8,1.4,0.5c0.9-0.6,0.1-5.5-2.8-6.8c-1.4-0.6-2.8-0.2-3.7,0C106,69.4,104.4,70.6,104.5,70.8z"
	/>
<path class="st20" d="M95.8,72.1c0-0.2,0.9-0.4,1-0.5c0.7-0.2,1.9-0.5,3.2,0c0.9,0.4,1.4,0.9,1.9,1.5c0.2,0.3,1.7,2.1,1.6,4.7
	c0,0.4,0,1.4-0.3,1.4c-0.2,0-0.5-0.3-2-3.4c-1.1-2.4-1.2-2.8-1.7-3.2C98,71.7,95.8,72.4,95.8,72.1z"/>
<path class="st20" d="M96.4,86.5c2.6-1.5,15.4-0.6,17-0.3"/>
<path class="st21" d="M106.7,101.2c0-0.2,2.2-0.8,3-1c3.7-0.9,5.1-1.6,7-1.1c0.2,0.1,0.9,0.3,0.9,0.5c0,0.3-1.4,0.4-3.4,0.8
	c-1.5,0.3-6.1,1.6-6.7,1.2c0,0-0.2-0.1-0.4-0.2C106.8,101.3,106.7,101.3,106.7,101.2z"/>
<path class="st25" d="M182.9,109.6c0.5-2.6-1.7-5.5-2.1-5.9c-0.1-0.1-2.1-2.5-4.4-3.2c-6-1.7-8.3,9.4-19.7,14.5
	c-4.8,2.2-8,1.8-8.7,4c-0.8,2.9,3.3,7.8,7.9,8.4c3.2,0.5,3.4-1.5,13.5-7c0.1-0.1,0.2-0.1,0.3-0.2c0.9-0.6,5.2-3.4,11.3-8.1
	C181.6,111.9,182.6,111.1,182.9,109.6z"/>
<path class="st21" d="M157.7,117.1c-2.7,2-6.4,1.4-6.4,2.3c0,0.4,0.7,0.8,1.2,1c1.1,0.4,2.1,0,5.6-1.7c3.4-1.8,3.8-2.1,3.7-2.3
	c-0.1-0.3-1.2-0.4-2-0.2C158.7,116.3,158,116.8,157.7,117.1z"/>
<path class="st21" d="M161.5,114.5c0.1,0.3,0.6,0.4,0.7,0.5c2.3,0.5,3.6-3.7,8.6-6.8c2.6-1.6,4.6-2,4.9-3.7c0.2-0.9-0.1-2-0.7-2.2
	c-0.6-0.2-1.4,1-2.3,2.1c-2.3,2.9-4.9,4.9-7.1,6.5C163.2,112.8,161.2,113.8,161.5,114.5z"/>
<path class="st21" d="M92.7,114.4c-0.1,0.3,1.6,1.2,3.1,1.7c3.8,1.2,7.2,0.8,14.3,0.7c0.6,0,1.3,0,2.2,0.2c2.2,0.6,3.4,2.2,3.6,2
	s-0.1-1.4-0.8-2.2c-2.5-2.9-7-1-16.6-1.9C95.4,114.5,92.8,114,92.7,114.4z"/>
<g class="st9">
	<rect x="33.1" y="205.6" class="st10" width="203.1" height="38.7"/>
	<path class="st11" d="M37.4,218.7c-0.1-0.4-0.4-0.8-0.7-1.4c-0.2-0.5-0.5-0.8-0.7-1.1c-0.2-0.2-0.5-0.4-0.9-0.6
		c-0.2-0.1-0.3-0.2-0.3-0.3c0-0.2,0.1-0.2,0.4-0.2c0.7,0.2,1.2,0.4,1.5,0.6c0.2,0.1,0.4,0.5,0.7,1.2c0.4,0.8,0.7,1.7,1,2.8
		c0,0.2,0.1,0.3,0.2,0.4c0.1,0.1,0.2,0.2,0.1,0.3c0,0.2-0.2,0.2-0.4,0.2s-0.3,0-0.5-0.1c-0.1-0.1-0.2-0.2-0.3-0.4V220
		C37.6,219.4,37.5,219,37.4,218.7z M42.2,213.6c0.1,0,0.3,0.1,0.5,0.2c0.4,0.4,0.6,0.9,0.6,1.5v2.2c0,0.3-0.1,0.5-0.3,0.7
		c-0.1,0.1-0.1,0.2-0.2,0.2c0,0,0.1,0,0.3,0s0.3,0.1,0.4,0.2c0.1,0.1,0.1,0.2,0.1,0.4s-0.1,0.3-0.4,0.4c-0.3,0-0.7,0.1-1,0.2
		c-0.4,0.1-0.8,0.1-1.2,0.3c-0.4,0.1-0.6,0-0.6-0.4c0-0.2,0.1-0.3,0.3-0.4c0.3-0.1,0.5-0.2,0.6-0.4c0.1-0.1,0.4-0.4,0.8-0.8
		c0.1-0.1,0.2-0.3,0.2-0.4c0-0.1,0-0.2,0-0.3v-0.6l-0.1-1.4c0-0.4-0.1-0.6-0.3-0.6c-0.1,0-0.3,0.1-0.6,0.2c-1.3,0.5-2.1,0.7-2.5,0.7
		c-0.1,0-0.2,0-0.3,0c-0.3-0.1-0.4-0.2-0.4-0.3s0.1-0.2,0.4-0.3c0.3-0.1,0.7-0.2,1.2-0.4s1-0.4,1.4-0.5l0.1-0.1
		C41.8,213.7,42.1,213.6,42.2,213.6z M49.8,211.1c0-0.3-0.1-0.6-0.3-0.8s-0.3-0.5-0.5-0.6s-0.3-0.2-0.6-0.4s-0.3-0.2-0.3-0.4
		s0.2-0.3,0.5-0.4c0.3,0,0.6,0.1,0.9,0.3c0.3,0.2,0.6,0.5,0.8,0.9c0.2,0.3,0.3,0.6,0.4,0.7c0,0.1,0,0.4,0,0.9v1.2
		c0,0.5,0,1.5,0.1,2.8c0,1.3,0.1,2.6,0.1,3.6c0,1.1,0.1,2.1,0.1,3.1c0,1.1,0,1.9-0.1,2.3c-0.1,0.4-0.3,1-0.7,1.8
		c-0.2,0.2-0.3,0.3-0.3,0.3c-0.1,0-0.1,0-0.1-0.1s0-0.2,0.1-0.4c0.2-0.6,0.3-1.1,0.4-1.4c0.1-0.3,0.1-0.7,0.1-1.1c0-0.1,0-0.3,0-0.6
		s0-0.5,0-0.6l-0.3-4.8c-1.5,0.8-2.4,1.2-2.8,1.2c-0.2,0-0.4-0.1-0.7-0.2c-0.5-0.3-0.7-1-0.7-1.9c0-0.4,0-0.9-0.1-1.7
		c0-0.8-0.1-1.4-0.1-1.7s0.1-0.4,0.4-0.4c0.3,0,0.4,0.2,0.4,0.5l0.1,3.2c0,0.3,0,0.6,0.1,0.7c0,0.2,0.1,0.3,0.3,0.4
		c0.2,0.1,0.3,0.1,0.4,0.1c0.5,0,1.4-0.5,2.6-1.4l-0.1-4C49.9,211.9,49.9,211.3,49.8,211.1z"/>
	<path class="st11" d="M72.3,209.5c0.2,0.4,0.4,0.8,0.4,1.3s-0.1,1-0.4,1.6c-0.3,0.5-0.6,0.9-0.8,1.2c-0.4,0.4-0.8,0.8-1.3,1.1
		s-1.1,0.7-1.9,1.1c-1.3,0.8-2.2,1.2-2.6,1.5l4-0.8c0.7-0.1,1.2-0.2,1.5-0.2c0.4,0,0.7,0.1,0.9,0.4c0.2,0.3,0.3,0.5,0.4,0.7
		c0,0.2,0.1,0.4,0.1,0.8v0.8v0.3c0,0.3,0,0.5,0,0.7s0,0.4,0,0.6c0,0.4,0,0.6-0.1,0.7c-0.1,0.2-0.4,0.5-0.8,0.7
		c-0.3,0.2-0.8,0.5-1.3,1s-1.1,0.9-1.7,1.3c-0.7,0.6-1.3,1.1-1.8,1.6c-0.1,0.1-0.1,0.2-0.1,0.3c0,0.2,0.1,0.3,0.4,0.5
		c0.1,0,0.2,0.1,0.4,0.2c0.5,0.2,0.9,0.3,1.1,0.3s0.5,0,0.8,0c0.7,0,1.5-0.1,2.3-0.4c0.3-0.1,0.5-0.2,0.6-0.2s0.2,0,0.3,0
		c0.4,0,0.6,0.2,0.6,0.7c0,0.3-0.2,0.5-0.4,0.5c-0.2,0-0.5,0.1-1,0.2c-0.2,0-0.5,0.1-0.9,0.1c-0.4,0.1-0.7,0.1-1,0.1s-0.7,0-1.2-0.1
		c-0.4-0.1-0.9-0.2-1.4-0.4c-0.3-0.1-0.5-0.2-0.7-0.5c-0.3-0.3-0.5-0.6-0.5-0.8s0.2-0.6,0.5-0.9c0.6-0.7,1.5-1.4,2.5-2.2
		c0.4-0.3,1.1-0.8,2-1.5c0.2-0.2,0.4-0.4,0.5-0.5s0.1-0.5,0.1-0.9l-0.1-2.5c0-0.2-0.1-0.4-0.2-0.6s-0.4-0.2-0.7-0.2
		c-0.2,0-0.4,0-0.6,0.1l-8.1,1.6c-0.4,0.1-0.8,0.2-1.2,0.3s-0.6,0.2-0.7,0.2c-0.1,0-0.3,0-0.5-0.1s-0.3-0.2-0.3-0.4s0.2-0.4,0.6-0.5
		c0.4-0.1,0.9-0.2,1.3-0.2c0.5-0.1,0.8-0.1,0.9-0.2c0.7-0.1,1.3-0.3,1.9-0.4c0.6-0.1,1.1-0.3,1.5-0.5c0,0,0.8-0.5,2.2-1.5
		c0.4-0.3,0.8-0.5,0.9-0.6c-1-0.4-1.7-0.7-2.1-1.1c-0.8-0.7-1.2-1.6-1.2-2.7c0.1-0.5,0.3-1,0.6-1.5c0.3-0.4,0.8-0.8,1.5-1.3
		c-0.1-0.2-0.2-0.4-0.2-0.5s0-0.2-0.1-0.3c-0.1-0.3,0-0.4,0.1-0.4s0.3,0.1,0.5,0.2c0.2,0.2,0.4,0.4,0.6,0.6s0.4,0.4,0.4,0.6
		c0,0.2,0,0.4-0.1,0.5s-0.4,0.1-0.8,0.1c-0.5,0.3-0.9,0.6-1.2,1s-0.5,0.8-0.5,1.2c0,0.2,0.1,0.5,0.2,0.9s0.4,0.8,0.9,1.1
		c0.5,0.4,1.2,0.6,2,0.6c0.4,0,0.8-0.1,1.1-0.4c0.2-0.2,0.5-0.5,0.8-1c0.2-0.3,0.3-0.5,0.4-0.8s0.2-0.6,0.2-0.9
		c0-0.3-0.1-0.6-0.3-0.9c-0.2-0.3-0.4-0.5-0.8-0.7c-0.4-0.1-0.6-0.4-0.6-0.6c0-0.2,0.1-0.3,0.4-0.3c0.2,0,0.4,0.1,0.7,0.2
		C71.7,208.8,72.1,209.1,72.3,209.5z"/>
	<path class="st11" d="M115.9,217.1c0,0.1,0,0.3-0.1,0.3s-0.2,0.2-0.3,0.2c-0.2,0-0.3,0.1-0.4,0.1s-0.2-0.1-0.2-0.2
		c0-0.1-0.1-0.2-0.4-0.2c-1.6,0-3.5,0.1-5.6,0.4c-2.1,0.2-4.3,0.5-6.4,0.9c-1.8,0.3-3.6,0.6-5.5,1c-0.2,0.1-0.5,0.1-0.7,0.2
		c-0.2,0.1-0.4,0.1-0.5,0.1s-0.3-0.1-0.4-0.3c-0.1-0.1-0.1-0.2-0.1-0.3s0.3-0.3,0.9-0.4c4.7-0.9,8.7-1.5,12.2-1.9
		c2.8-0.3,5-0.5,6.7-0.5C115.6,216.6,115.9,216.8,115.9,217.1z M107.3,208.5c0.8,0,1.5,0.5,2,1.6c0.1,0.2,0.1,0.4,0.2,0.6
		c0,0.2,0.1,0.4,0.1,0.6c0,0.8-0.3,1.6-0.9,2.4c-0.3,0.4-0.6,0.6-0.9,0.8c-0.4,0.2-0.9,0.3-1.5,0.3c-1.3,0-2.4-0.3-3.1-0.8
		c-0.8-0.6-1.2-1.3-1.2-2.3c0-0.5,0.2-1,0.5-1.4c0.2-0.3,0.6-0.6,1-0.9c0.3-0.2,0.4-0.4,0.4-0.6c0-0.2-0.1-0.4-0.2-0.7
		c-0.2-0.3-0.2-0.5-0.3-0.6s0-0.1,0.1-0.2c0.1-0.1,0.2,0,0.4,0.1s0.2,0.2,0.3,0.3c0.6,0.7,0.9,1.1,0.9,1.3s-0.2,0.4-0.6,0.6
		c-0.5,0.4-0.9,0.7-1.2,1c-0.3,0.3-0.4,0.7-0.4,1.2c0,0.1,0,0.2,0,0.4c0.1,0.5,0.5,0.9,1.1,1.2s1.3,0.5,2.3,0.5c0.5,0,1-0.2,1.3-0.5
		c0.4-0.3,0.7-0.8,0.9-1.4c0.1-0.2,0.1-0.5,0.1-0.7c0-0.7-0.2-1.3-0.6-1.8c-0.1-0.1-0.3-0.2-0.4-0.2s-0.3-0.1-0.5-0.1
		s-0.4,0-0.7,0.1c-0.2,0-0.3-0.1-0.4-0.2c-0.1-0.1-0.1-0.3,0-0.4c0.1-0.1,0.4-0.2,0.7-0.3C107,208.5,107.2,208.5,107.3,208.5z
		 M104.1,222.9c0.1,0.4,0.3,0.8,0.4,1.2s0.3,0.8,0.4,1.2c0.2,0.5,0.5,1,0.8,1.3c0.2,0.2,0.3,0.3,0.3,0.4c0.1,0.1,0.1,0.2,0.1,0.3
		s-0.1,0.2-0.2,0.3c-0.3,0.2-0.7-0.1-1.2-0.8c-0.4-0.5-0.7-1.1-1-1.7c-0.2-0.4-0.4-1.1-0.6-1.9c-0.1-0.2-0.2-0.5-0.5-0.8
		c-0.1-0.2-0.2-0.3-0.1-0.5c0.1-0.1,0.2-0.1,0.3-0.1c0.1,0,0.3,0.1,0.5,0.2C103.7,222.3,104,222.6,104.1,222.9z M111.4,221.5
		c0,0.3-0.2,0.7-0.5,1.2c-0.4,0.7-0.8,1.3-1.4,2c-0.1,0.1-0.1,0.2-0.1,0.2c0,0.1,0.1,0.1,0.2,0.1s0.3,0,0.5-0.1s0.4-0.1,0.5-0.1
		s0.2,0,0.3,0c0.2,0,0.4,0.1,0.4,0.4s-0.1,0.5-0.4,0.6s-0.7,0.2-1.4,0.2c-0.9,0-1.4-0.2-1.4-0.5c0-0.2,0.1-0.4,0.3-0.6
		c0.4-0.6,0.8-1,1-1.4c0.4-0.6,0.7-1,0.8-1.3c0.1-0.2,0.1-0.3,0.1-0.3c0-0.1-0.1-0.1-0.3-0.1c-0.1,0-0.4,0-0.8,0.1s-0.9,0.2-1.5,0.2
		c-0.6,0.1-1,0.1-1.2,0.1s-0.4-0.1-0.7-0.2c-0.1-0.1-0.2-0.2-0.2-0.2c0-0.1,0.1-0.2,0.3-0.2c0.2-0.1,0.6-0.1,1-0.1s0.9-0.1,1.3-0.2
		c0.4-0.1,0.8-0.2,1.1-0.3c0.3-0.1,0.6-0.1,0.9-0.1c0.4,0,0.6,0,0.9,0.1C111.2,221.1,111.4,221.3,111.4,221.5z"/>
	<path class="st11" d="M126.6,210.5c0-0.2,0-0.3,0.1-0.3s0.3,0.2,0.5,0.6c0.3,0.6,0.5,1,0.6,1.2c0.1,0.3,0.2,0.5,0.2,0.6
		s-0.1,0.3-0.2,0.5c-0.1,0.1-0.2,0.2-0.2,0.3l-0.8,1.2c0.6,0.2,1.2,0.5,1.5,0.7c0.4,0.2,0.8,0.4,1.2,0.7c0.2,0.3,0.3,0.5,0.3,0.6
		c0,0.2-0.1,0.3-0.2,0.3c-0.2,0-0.4-0.1-0.7-0.3c-0.3-0.3-0.7-0.6-1.2-0.9c-0.6-0.3-1-0.5-1.3-0.6c-0.6,0.7-1.2,1.2-1.7,1.6
		c-0.7,0.5-1.4,1-2.1,1.2c-0.2,0.1-0.4,0.1-0.5,0.1c-0.2,0-0.3,0-0.3-0.1s0.2-0.3,0.6-0.5c0.7-0.3,1.5-0.8,2.3-1.6
		c0.7-0.7,1.3-1.3,1.7-2c0.2-0.3,0.4-0.6,0.6-0.9c0.1-0.2,0.2-0.4,0.2-0.6c0-0.2,0-0.4-0.1-0.6l-0.3-0.8
		C126.6,210.8,126.6,210.7,126.6,210.5z M132,207.8c0-0.1,0.1-0.2,0.2-0.2c0.2,0,0.4,0.1,0.7,0.2c0.7,0.5,1.2,0.9,1.5,1.3
		c0.2,0.2,0.3,0.5,0.3,0.8v0.3v6.2c0,1.7-0.2,2.6-0.5,2.6s-0.5,0.1-0.6,0.2c-0.2,0.2-0.5,0.4-0.7,0.6c-0.4,0.3-0.7,0.5-1,0.7
		c-0.2,0.1-0.3,0.2-0.3,0.2l0.1,0.1c0.2,0,0.7-0.1,1.6-0.2h0.2c0.4,0,0.6,0.1,0.8,0.3s0.3,0.4,0.3,0.7c0,0.2,0.1,0.5,0.1,0.8
		s0,0.6,0,0.9v0.3v0.3v0.4v0.9v1.1c0,0.3,0,0.6-0.1,0.8s-0.1,0.4-0.3,0.6c-0.3,0.4-0.5,0.6-0.6,0.6s-0.2-0.1-0.2-0.3
		s0.1-0.4,0.2-0.6c0.1-0.1,0.1-0.3,0.1-0.4c0-0.1,0-0.3,0-0.6s0-0.5,0-0.9c0-0.3,0-0.7,0-1c0-0.2,0-0.7,0-1.2c0-0.6-0.1-1-0.1-1.1
		c0-0.3,0-0.5-0.1-0.6s-0.3-0.2-0.6-0.2c0,0-0.1,0-0.3,0c-0.1,0-0.4,0-0.7,0.1c-0.3,0-0.9,0.1-1.6,0.3s-1.4,0.4-2,0.6
		c-0.1,0-0.2,0-0.3,0c-0.3,0-0.5,0-0.7-0.1c-0.2,0-0.3-0.1-0.3-0.2c0-0.1,0.1-0.1,0.3-0.2c0.2-0.1,0.4-0.2,0.7-0.3
		c0.4-0.1,0.9-0.2,1.5-0.5s1.2-0.6,1.8-0.9c0.4-0.2,0.8-0.5,1.2-0.7s0.7-0.5,1-0.7c0.1-0.1,0.2-0.2,0.3-0.3s0.1-0.2,0.1-0.4
		s0-1.1,0-2.5l-0.1-4.8c0-0.3-0.1-0.7-0.2-1c-0.2-0.5-0.6-1-1.1-1.2C132.2,208.2,132,208,132,207.8z"/>
	<path class="st11" d="M161.7,211.6c0.3,0,0.5-0.1,0.6-0.1c0.2,0,0.4,0.1,0.7,0.4c0.1,0.2,0.2,0.3,0.3,0.5c0,0.1,0.1,0.2,0.1,0.4
		c0,0.1,0,0.2,0,0.5c0,0.2,0,0.5,0,0.7s0,0.4,0,0.4c0,0.1,0,0.2,0,0.4s-0.1,0.4-0.2,0.6c-0.1,0.3-0.2,0.4-0.3,0.5
		c-0.2,0-0.4,0.1-0.6,0.1c-0.7,0.6-1.4,1.3-1.9,2c-0.7,0.9-1,1.5-1.1,1.9s-0.1,0.6-0.1,0.8c0,0.3,0.1,0.4,0.3,0.4
		c0.1,0,0.3,0,0.4-0.1c0.2-0.1,0.7-0.3,1.4-0.7c1-0.5,1.7-0.8,2-1.1c0.1-0.1,0.3-0.2,0.4-0.2c0.2,0,0.3,0.1,0.3,0.2
		c0,0.2-0.1,0.4-0.3,0.5c-0.4,0.4-1.1,0.8-2,1.2c-0.7,0.4-1.4,0.6-2,0.9c-0.3,0.1-0.5,0.2-0.5,0.2c-0.1,0-0.3-0.1-0.5-0.4
		c-0.2-0.3-0.3-0.6-0.3-0.8s0-0.4,0.1-0.7c0.3-0.6,0.7-1.3,1.1-1.9c0.3-0.5,0.8-1.1,1.3-1.8c-0.6,0.2-1,0.3-1.4,0.4
		c-0.4,0.1-0.7,0.1-0.9,0.1s-0.5-0.1-0.7-0.2c-0.2-0.1-0.3-0.2-0.3-0.4s0.2-0.3,0.6-0.2c0,0,0.1,0,0.2,0c0.5,0,1.7-0.3,3.7-0.9
		c0.1-0.1,0.2-0.3,0.2-0.4s0.1-0.3,0.1-0.4c0-0.1,0-0.2,0-0.5s0-0.4,0-0.5c0-0.2,0-0.3,0-0.4c0-0.3,0-0.4-0.1-0.5s-0.2-0.1-0.5-0.1
		c-1.7,0.4-2.8,0.5-3.1,0.5c-0.1,0-0.3,0-0.6,0c-0.3-0.1-0.5-0.2-0.5-0.4s0.2-0.3,0.6-0.3L161.7,211.6z M166.7,212.2
		c0,0.4,0,0.7,0.1,1c0,0.6,0,1.7,0.1,3.3s0.1,2.7,0.1,3.3s-0.1,0.9-0.4,0.9c-0.2,0-0.4-0.3-0.4-0.8s0-1.1,0-1.7c0-0.6,0-1,0-1.2
		c-0.3,0.1-0.5,0.2-0.8,0.3s-0.6,0.2-0.8,0.2s-0.5-0.1-0.8-0.2c-0.3-0.1-0.4-0.3-0.4-0.5s0.2-0.3,0.6-0.2c0.2,0,0.3,0.1,0.5,0.1
		s0.4,0,0.7-0.1c0.6-0.2,0.9-0.3,1.1-0.3c0-1.3,0-2.3-0.1-3.1c0-0.4-0.1-0.7-0.1-0.8s-0.2-0.2-0.4-0.4c-0.2-0.1-0.3-0.2-0.3-0.4
		s0.1-0.3,0.4-0.3c0.1,0,0.2,0,0.3,0s0.2,0.1,0.3,0.1C166.4,211.8,166.7,212,166.7,212.2z M170.2,208.8c0.2,0.3,0.4,0.8,0.5,1.7
		c0.3,2.9,0.4,7.5,0.4,13.7c0,0.3,0,0.6-0.1,0.9c-0.1,0.3-0.2,0.4-0.4,0.4s-0.3-0.3-0.3-0.9c0-1.8,0-3.8,0-5.8s-0.1-3.8-0.2-5.4
		c-0.1-1.6-0.3-2.8-0.5-3.6c-0.1-0.3-0.3-0.6-0.4-0.7s-0.4-0.3-0.8-0.4c-0.3-0.2-0.5-0.3-0.5-0.5s0.2-0.3,0.5-0.3
		c0.1,0,0.3,0,0.5,0.1C169.5,208.3,170,208.5,170.2,208.8z"/>
	<path class="st11" d="M185.6,210.8c0-0.1,0-0.2,0.1-0.2s0.2,0,0.3,0.1s0.3,0.2,0.4,0.4c0.4,0.6,0.6,1,0.7,1.3
		c0.1,0.3,0.2,0.6,0.2,0.8s0,0.3-0.1,0.4c-0.1,0.1-0.2,0.2-0.3,0.3c-0.5,0.7-0.9,1.4-1.4,2.2c0.1,0.2,0.8,0.7,2,1.3
		c0.6,0.3,1,0.6,1.2,1c0.2,0.2,0.3,0.4,0.3,0.6c0,0.3-0.1,0.4-0.4,0.4c-0.2,0-0.4-0.1-0.6-0.4c-0.1-0.2-0.4-0.5-0.8-0.9
		c-0.5-0.4-1.2-0.9-2.1-1.6c-0.7,0.9-1.4,1.6-2.2,2.3c-0.9,0.8-1.8,1.4-2.7,1.7c-0.1,0-0.2,0-0.3,0c-0.2,0-0.3,0-0.3-0.1
		s0.2-0.3,0.5-0.5c0.7-0.3,1.5-0.8,2.2-1.4c0.6-0.5,1.2-1.2,1.8-2c0.4-0.4,0.7-0.8,1.1-1.3c0.3-0.4,0.6-0.9,0.8-1.4
		c0.2-0.2,0.3-0.5,0.3-0.9s-0.1-0.9-0.4-1.3C185.7,211.4,185.6,211,185.6,210.8z M192,208.6c0-0.1,0.1-0.2,0.2-0.2s0.3,0.1,0.6,0.2
		c0.3,0.2,0.6,0.5,1,0.7c0.3,0.2,0.6,0.6,0.7,1.2c0.1,0.4,0.2,0.8,0.2,1.3s0.1,1.4,0.1,2.5v1.4c0,0.6,0,2-0.1,4.2s-0.1,3.7-0.1,4.7
		s-0.1,1.5-0.4,1.5s-0.4-0.5-0.4-1.4v-8.2c0-0.9,0-1.8,0-2.9c0-1.1-0.1-1.9-0.1-2.4c-0.1-0.7-0.3-1.1-0.5-1.4
		c-0.1-0.1-0.4-0.4-0.7-0.7C192.2,209,192,208.8,192,208.6z"/>
	<path class="st11" d="M213.6,215.9c0,0.2-0.1,0.5-0.4,0.9c-0.4,0.6-0.9,1.1-1.4,1.7c-0.4,0.5-1,1-1.6,1.6c-0.2,0.2-0.4,0.4-0.6,0.6
		v0.1c0,0,0.1,0,0.3,0s0.4-0.1,0.5-0.1c1.2-0.2,2.5-0.4,3.9-0.6s2.6-0.4,3.8-0.6l-0.2-9.1c0-0.2,0-0.4-0.1-0.7c0-0.2-0.2-0.6-0.5-1
		c-0.2-0.3-0.5-0.5-0.7-0.7c-0.2-0.1-0.5-0.3-0.7-0.4c-0.1-0.1-0.2-0.2-0.2-0.3c0-0.3,0.2-0.4,0.5-0.3c0.4,0.1,0.8,0.2,1,0.3
		c0.3,0.1,0.6,0.4,0.9,0.8c0.5,0.5,0.7,0.9,0.8,1c0.1,0.2,0.1,0.5,0.1,1v0.5c0,2.2,0,4.3,0,6.3s0,3.9,0.1,5.7c0,1.8,0,3.4,0,4.6
		c0,0.4-0.1,0.6-0.4,0.6s-0.4-0.2-0.4-0.5c0-0.2,0-1.2-0.1-3s-0.1-3.1-0.1-4c-1.2,0.2-2.6,0.4-4.4,0.6c-1.4,0.2-3,0.5-4.8,0.8
		c-0.3,0.1-0.7,0.2-1.2,0.3c-0.3,0.1-0.5,0.1-0.6,0.1s-0.3-0.1-0.5-0.2c-0.2-0.2-0.3-0.3-0.3-0.4c0-0.1,0.1-0.2,0.4-0.3
		c0.7-0.3,1-0.4,1-0.4c0.4-0.2,0.9-0.5,1.2-0.8c0.6-0.4,1.2-1,1.8-1.5c0.6-0.6,1-1.2,1.5-1.8c0.2-0.3,0.3-0.5,0.3-0.6
		s-0.2-0.2-0.6-0.2c-0.3,0-0.4-0.1-0.4-0.3s0.1-0.3,0.2-0.4s0.4-0.1,0.6-0.1c0.1,0,0.2,0,0.3,0s0.2,0,0.3,0h0.1
		C213.3,215.4,213.6,215.6,213.6,215.9z M206.5,215.3c0.1,0,0.2,0.1,0.4,0.2l0.8,1.2c0.1,0.1,0.2,0.2,0.2,0.2c0.1,0,0.3-0.1,0.6-0.2
		c0.1,0,0.2-0.1,0.2-0.1s0.1,0.1,0.3,0.4c0,0,0.1,0,0.2,0.1s0.2,0.1,0.2,0.1s-0.2,0.2-0.6,0.3c-0.3,0.2-0.5,0.3-0.8,0.5
		c-0.2,0.1-0.3,0.2-0.5,0.2c-0.1,0-0.3-0.1-0.5-0.4c-0.2-0.3-0.3-0.5-0.5-0.8c-0.1-0.3-0.3-0.5-0.4-0.8v-0.1
		C206.2,215.5,206.3,215.3,206.5,215.3z M206.3,212.4c0-0.1,0-0.1,0.1-0.1c0,0,0,0,0.1,0s0.1,0,0.1,0c0.4,0.1,0.7,0.1,1,0.1
		s0.7,0,1.2-0.1s1.2-0.2,2.1-0.4c0.9-0.2,1.4-0.3,1.5-0.3s0.3,0.1,0.5,0.2c0.2,0.2,0.3,0.4,0.3,0.6c0,0.2-0.1,0.4-0.4,0.4
		c-0.7,0.1-1.4,0.2-2.1,0.3c-0.8,0.1-1.6,0.2-2.3,0.2c-0.6,0-1,0-1.2-0.1s-0.4-0.2-0.6-0.4l0,0C206.4,212.6,206.3,212.5,206.3,212.4
		z"/>
</g>
<g>
	<rect x="42.4" y="197.1" class="st4" width="195.8" height="43.1"/>
	<path class="st26" d="M58.5,212.4c0.7-0.2,1.1-0.3,1.2-0.3c0.3,0,0.8,0.2,1.4,0.7s1,0.9,1.1,1.4c0,0.8,0.1,1.7,0.1,2.5
		c0,0.6,0,1.3,0,2.2c0,0.8,0,1.4,0,1.7c0,0.5,0,1-0.1,1.5s-0.2,1-0.3,1.5c0.4,0.3,0.5,0.7,0.5,1.1c0,0.4-0.1,0.6-0.4,0.9
		c-0.3,0.2-0.5,0.3-0.9,0.2c-0.5-0.1-0.9-0.1-1.2-0.1c-0.8,0-2.1,0.1-4,0.3c-0.7,0.1-1.1,0.1-1.4,0.1c-0.3,0-0.6,0-0.9-0.1
		c-0.3-0.1-0.8-0.3-1.4-0.5c0,0.3,0,0.6,0,1.1c0,1.9-0.3,2.8-0.9,2.8c-0.3,0-0.6-0.3-0.7-1c-0.1-1.7-0.3-3.7-0.5-6s-1-4.3-2.4-6.1
		c-0.4-0.4-0.5-0.9-0.5-1.2c0-0.5,0.3-0.8,0.8-0.8c0.4,0,0.8,0.2,1.2,0.7c1.5,1.7,2.4,3.2,2.5,4.6c0.1,1.5,0.3,3.1,0.4,4.6
		c0.1,0,0.3,0.1,0.5,0.2c0.3,0,0.5,0,0.8,0c0.2,0,0.6,0,1.2,0c0.6,0,1.1,0,1.6,0c0.6-0.1,1.6-0.2,2.9-0.5c0.4-0.1,0.8-0.1,1.1-0.1
		c0-0.2,0.1-0.4,0.2-0.8c0-0.4,0-0.7,0-1.1c0-0.1-0.1-0.8-0.2-2.1c-0.1-1.3-0.2-2.6-0.2-3.8c0-0.6-0.2-1-0.5-1.2
		c-0.4-0.2-0.8-0.3-1.5-0.3c-1.2,0-2.1,0.1-2.9,0.2c-0.8,0.1-1.4,0.3-2,0.5c-0.1,0-0.3,0-0.4,0c-0.1,0-0.3,0-0.5-0.1
		c-0.5-0.2-0.8-0.5-0.8-0.9c0-0.5,0.3-0.8,1-0.8c0.1,0,0.6,0,1.5,0s1.7-0.1,2.3-0.2C57.1,212.8,57.8,212.6,58.5,212.4z M77.7,205.6
		c0.2,0.8,0.3,1.7,0.3,2.6c0,0.1,0,0.3,0,0.6s0,0.5,0,0.6c0.1,3,0.1,5.6,0.2,7.8s0.1,4.6,0.1,7.3s-0.1,5.4-0.3,8.1
		c-0.2,2.7-0.5,5.2-0.8,7.6c-0.2,1-0.4,1.5-0.6,1.5c-0.3,0-0.4-0.6-0.4-1.8L76,218.4c-0.9,0.2-1.8,0.5-2.9,0.8
		c-1,0.4-1.7,0.5-1.9,0.5c-0.4,0-0.8-0.3-1.5-0.8c0,0.2,0,1,0,2.3s0,2.2,0,2.7c0,0.9-0.1,1.8-0.2,2.6s-0.3,1.6-0.6,2.4
		c-0.2,0.7-0.4,1-0.8,1s-0.6-0.5-0.6-1.4c0-0.2-0.1-1.7-0.2-4.5c-0.1-2.9-0.2-5.6-0.2-8.2c0-1.1-0.1-1.9-0.2-2.4
		c-0.2-0.5-0.6-1.1-1.2-1.8c-0.3-0.3-0.4-0.6-0.4-0.9c0-0.5,0.3-0.7,0.8-0.7c0.4,0,0.9,0.2,1.4,0.6c1,1,1.6,1.9,1.7,2.5
		c0.1,1.4,0.1,2.8,0.2,4.2c0.4,0.4,0.9,0.6,1.3,0.6s2-0.5,4.9-1.4c-0.1-0.9-0.1-1.9-0.1-3.1s0-2.4,0-3.6c0-2-0.2-3.6-0.5-4.7
		c-0.3-1.1-1-2-1.9-2.8c-0.3-0.3-0.4-0.6-0.4-0.9c0-0.6,0.3-0.9,1-0.9c0.4,0,0.7,0.1,1.1,0.3c0.1,0.1,0.4,0.5,1,1.4
		c0.1,0.2,0.3,0.4,0.6,0.8C77.1,203.9,77.5,204.7,77.7,205.6z"/>
	<path class="st26" d="M123.6,220.2c0.6-0.1,1.1-0.2,1.5-0.2c0.1,0,0.4,0.1,0.8,0.3c0.7,0.4,1.1,0.9,1.1,1.5c0,0.2,0,0.4-0.1,0.7
		c-0.2,0.2-0.4,0.3-0.8,0.3c-0.6,0-1.4-0.1-2.2-0.1c-0.8-0.1-1.9-0.1-3.3-0.1c-0.1,0-1,0-2.8,0c-1.7,0-2.9,0-3.5,0
		c0.3,0.3,0.5,0.6,0.6,0.8s0.1,0.5,0.1,0.7s0,0.5-0.1,0.9c-0.2,0.9-0.2,1.6-0.2,2.2c0,0.1,0,0.6,0.1,1.4s0.1,1.4,0.1,1.9
		c0,0.7-0.1,1.3-0.3,1.8c-0.2,0.5-0.5,1-1,1.5c-0.3,0.3-0.5,0.4-0.6,0.4c-0.2,0-0.3-0.3-0.3-0.8c0.2-0.4,0.2-1,0.2-1.7
		c-0.1-0.7-0.1-1.6-0.2-2.4c0-0.9-0.1-1.9-0.1-2.9c0-0.1,0-0.4,0-0.8c0-0.4,0-0.7,0-0.8c0-0.4-0.1-0.7-0.3-1s-0.6-0.7-1.1-1.1
		c-2.5,0-5.6,0.3-9.5,0.8c-3.8,0.6-7,1.2-9.4,1.8c-0.4,0.1-0.9,0.3-1.6,0.5c-0.4,0.1-0.6,0.2-0.9,0.2s-0.9-0.2-1.7-0.5
		c-1.2-0.5-1.9-0.8-2.1-1c-0.3-0.2-0.4-0.5-0.4-0.8c0-0.1,0.1-0.3,0.2-0.6s0.3-0.4,0.6-0.4c0.3,0,1.2,0.2,2.6,0.7
		c0.8,0.2,1.4,0.3,1.8,0.3s1-0.1,1.9-0.4c0.9-0.3,1.7-0.5,2.6-0.6c3.3-0.6,5.9-1,7.6-1.2c2.5-0.3,5.3-0.6,8.4-0.8s6.2-0.3,9.2-0.3
		h0.2C122.1,220.4,123,220.3,123.6,220.2z M103.7,234.2c0,0.4,0.1,0.7,0.1,1.1c0.4,1.8,0.8,2.9,1.2,3.3c0.6,0.6,1.8,0.9,3.7,0.9
		c0.8,0,1.8-0.1,3-0.3c2.2-0.4,3.4-0.5,3.7-0.5c0.3,0,0.5,0,0.7,0c0.9,0.4,1.3,0.8,1.3,1.4c0,0.2,0,0.3-0.1,0.5
		c-0.2,0.5-0.7,0.7-1.4,0.8c-0.7,0-2.2,0.1-4.7,0.3c-3.2,0-5.3-0.2-6.5-0.7c-0.8-0.3-1.5-0.9-1.9-1.8c-0.5-1.2-0.9-2.1-1.1-2.9
		c-0.3-0.8-0.6-1.7-0.9-2.7c-0.1-0.2-0.1-0.4-0.1-0.7c0-0.4,0.2-0.7,0.7-0.9c0.4,0,0.7,0.1,0.9,0.2c0.2,0.1,0.4,0.4,0.7,0.8
		C103.3,233.5,103.6,233.9,103.7,234.2z M114.4,201.6c1.4,0.8,2.4,1.8,2.9,3.2c0.3,1,0.4,2,0.4,2.9c0,1.8-0.5,3.4-1.6,4.8
		c-0.9,1.2-2,2-3.1,2.3c-0.5,0.1-0.9,0.2-1.2,0.3c-0.4,0-0.7,0.1-1,0.1c-2,0-3.9-0.5-5.6-1.5c-1.9-1.2-3.1-2.7-3.6-4.6
		c-0.1-0.4-0.1-0.9-0.1-1.3c0-2,1-3.7,3-5.1c1.9-1.3,3.9-2,6.2-2C111.8,200.5,113,200.8,114.4,201.6z M105.4,204.8
		c-1.2,1-1.9,2-1.9,3.1c0,0.2,0,0.6,0.1,1.1s0.8,1.3,2,2.2c1.5,1.1,3.3,1.7,5.4,1.7c1.2-0.2,2.2-0.7,3-1.4s1.2-1.8,1.4-3.3
		c0-0.2,0-0.5,0-0.8c0-1.3-0.4-2.3-1.1-3.2c-0.8-0.9-2-1.4-3.6-1.4C108.6,203,106.8,203.7,105.4,204.8z"/>
	<path class="st26" d="M151.9,220.6c6.6-0.5,11.6-0.9,14.8-1.3c0.5,0,1.1,0,1.9,0c0.8,0,1.3,0,1.5,0c1.4,0,2.2,0.3,2.6,0.9
		c0.1,0.2,0.1,0.4,0.1,0.5c0,0.8-0.5,1.2-1.4,1.2c-0.3,0-0.6-0.1-1-0.2c-0.4-0.1-1-0.2-1.8-0.2c-0.7,0-1.4,0.1-2.1,0.1
		c-0.7,0-1.3,0-1.8,0c-1.3,0-3.8,0.2-7.7,0.6c-3.9,0.4-6.7,0.6-8.7,0.8c-3.5,0.3-6.3,0.5-8.4,0.5c-0.4,0.1-1.5,0.3-3.4,0.7
		c-0.7,0.2-1.4,0.2-1.9,0.2c-0.7,0-1.9-0.1-3.7-0.3c-1-0.1-1.4-0.5-1.4-1.2c0-0.3,0.1-0.5,0.4-0.7s0.6-0.3,1-0.3
		c0.3,0,0.7,0,1.2,0.1s1.1,0.1,1.8,0.1c0.9,0,1.8-0.1,2.9-0.3s1.9-0.4,2.5-0.4C141.1,221.3,145.3,221.1,151.9,220.6z M159.5,226.4
		c0.2,0,0.4,0,0.8,0c0.8,0,1.3,0.3,1.6,0.8s0.4,1.5,0.4,2.9c0,3.1,0,5.1-0.1,5.8c0,0.7-0.2,1.4-0.5,2.2c0.6,0.4,0.9,0.9,0.9,1.4
		c0,0.7-0.4,1-1.3,1c-0.2,0-0.5,0-1.1-0.1c-0.5-0.1-1-0.1-1.2-0.1c-0.3,0-0.6,0-1,0c-0.5,0-1.4,0.1-2.7,0.2
		c-1.3,0.1-2.2,0.2-2.8,0.2c-0.5,0-1,0-1.5-0.1s-0.9-0.3-1.2-0.5c0,0.9-0.2,1.9-0.5,2.9c-0.2,0.4-0.4,0.6-0.8,0.6
		c-0.3,0-0.6-0.1-0.8-0.4c-0.2-0.3-0.3-0.6-0.2-1.1c0-0.2,0-0.5,0.1-1c0-0.4,0-0.7,0-1.1c0-0.5,0-1.2,0-2.3s0-1.8,0-2.4
		c0-1.5-0.2-2.5-0.5-3.2c-0.4-0.7-1-1.2-1.9-1.6c-0.5-0.3-0.8-0.7-0.8-1.2c0-0.7,0.3-1,0.9-1c0.3,0,0.5,0.1,0.8,0.2
		c1,0.4,1.8,1,2.4,1.8s0.9,1.6,0.9,2.3c0.1,1.1,0.2,1.9,0.2,2.5s0,1.3,0,2v0.5c0.2,0.4,0.5,0.6,1,0.7c0.5,0.1,1.2,0.2,2.2,0.2
		c1.1,0,2.3-0.1,3.7-0.3s2.7-0.4,3.9-0.6c0-0.5,0-1.8,0-3.6c0-1.9,0-3.1,0-3.6c0-0.7-0.1-1.1-0.3-1.3s-0.8-0.2-1.8-0.2
		c-0.5,0.1-1.3,0.2-2.6,0.3c-1.2,0.1-2,0.3-2.4,0.4c-0.4,0.1-0.9,0.2-1.4,0.3c-0.5,0.2-0.8,0.2-1,0.2c-0.4,0-0.8-0.1-1.2-0.2
		c-0.6-0.3-0.9-0.7-0.9-1.2c0-0.6,0.4-0.9,1.2-0.9c0.4,0,1-0.1,1.7-0.2c0.7-0.1,1.2-0.2,1.8-0.3L159.5,226.4z M159.7,201.9
		c1.2,1.3,1.7,3.3,1.7,5.9c0,1.1-0.5,2.3-1.5,3.8c-1.3,1.9-2.9,2.9-4.8,2.9c-0.4,0-0.7,0-0.9,0c-2.1,0-4-0.7-5.7-2.2
		s-2.8-3.3-3.1-5.4c-0.2-1.6,0.7-3.3,2.8-5s4.1-2.6,6.2-2.6c0.8,0,1.5,0.2,2.1,0.5l0.2,0.1C158,200.5,159,201.1,159.7,201.9z
		 M149.3,203.4c-1.2,1.1-1.8,2.1-1.8,3.3c0,0.4,0.1,0.8,0.3,1.2c0.8,1.5,1.9,2.6,3.2,3.4c0.9,0.5,1.9,0.8,3.1,1c0.1,0,0.3,0,0.5,0
		c1.2,0,2.2-0.4,3.1-1.3c0.9-0.9,1.4-2.1,1.5-3.7c0-0.2,0-0.4,0-0.6c0-1.6-0.5-2.9-1.6-3.7c-1.1-0.9-2.4-1.3-4.1-1.3h-0.3
		C151.8,201.7,150.4,202.3,149.3,203.4z"/>
	<path class="st26" d="M190.2,205c0-0.4,0.2-0.6,0.7-0.6c0.2,0,0.4,0,0.7,0.1s0.5,0.2,0.7,0.4c0.6,0.9,1,1.6,1.2,2s0.3,0.8,0.3,1.1
		s-0.1,0.5-0.4,0.7c-0.4,0.4-0.7,0.6-0.8,0.7c-0.5,0.6-0.9,1.2-1.4,1.8c-0.4,0.6-0.8,1-1,1.3c1.7,0.7,2.9,1.3,3.6,1.8
		c1.1,0.8,2.3,2.1,3.7,4c0.2,0.4,0.3,0.6,0.3,0.9c0,0.6-0.3,0.9-0.8,0.9c-0.2,0-0.4,0-0.6-0.1c-1.2-1.3-2.4-2.6-3.6-4
		c-0.9-0.8-2.1-1.6-3.6-2.2c-2.5,3-4.9,5.3-7.2,6.8c-1.7,1.1-3.8,2.1-6.3,2.9c-0.6,0.1-1.1,0.2-1.6,0.2c-0.4,0-0.6-0.1-0.6-0.2
		c0-0.2,0.5-0.5,1.4-1c3-1.2,5.6-2.8,7.7-4.8c2.3-2.1,4.8-5.3,7.3-9.4c0.2-0.3,0.4-0.6,0.6-0.9c0.1-0.2,0.2-0.4,0.2-0.6
		c0-0.3-0.2-0.8-0.5-1.5C190.2,205.3,190.2,205.2,190.2,205z M188.5,229.2c0-0.4,0.4-0.6,1.2-0.6c0.5,0.1,1,0.1,1.4,0.1
		c0.5,0,1.1-0.1,2-0.2c1.9-0.3,3-0.4,3.2-0.5l6.9-0.7c1.5,0,2.6,0.2,3.3,0.7c0.8,0.5,1.1,1.3,1.1,2.6c0,0.4,0,0.9-0.1,1.4v0.7
		c0,0.7,0,1.4,0,2c0,0.7,0,1.3,0,1.8c0,1.2-0.1,2.2-0.2,3s-0.3,1.6-0.6,2.5c-0.4,0.7-0.8,1.1-1.1,1.1c-0.4,0-0.5-0.4-0.5-1.3
		c0.3-0.6,0.4-1.2,0.4-1.8c0-0.5,0-1,0-1.4c0-0.6,0-1.8-0.1-3.4c-0.1-1.6-0.1-2.9-0.1-3.9c0-0.2,0-0.4,0-0.7c0-0.6-0.2-1.1-0.5-1.3
		s-1-0.3-1.8-0.3c-2.9,0-5.3,0.2-7.3,0.5c-2,0.4-3.5,0.7-4.6,1.2c-0.4,0-1-0.2-1.7-0.5l-0.3-0.1
		C188.6,229.7,188.5,229.4,188.5,229.2z M202.6,199.7c0-0.3,0.2-0.5,0.5-0.5s0.7,0.1,1.2,0.4c1.6,1.5,2.6,2.6,3,3.4
		c0.4,0.8,0.6,1.7,0.6,3c0,0.5,0,1,0,1.6s0,1.1,0,1.8c0,0.9,0,2.2,0,3.9s0,2.9,0,3.6c0,1.9-0.1,3.4-0.2,4.6c-0.1,1.2-0.3,2.2-0.6,3
		s-0.6,1.2-0.8,1.2s-0.3-0.5-0.4-1.4V209c0-0.5,0-1,0-1.3c0-0.4,0-0.7,0-1c0-1-0.2-1.9-0.5-2.5s-1.1-1.8-2.4-3.4
		C202.8,200.3,202.6,199.9,202.6,199.7z"/>
</g>
<path class="st27" d="M122.5,95.5c0.6-0.5,1.7,0.5,3.6,1.1c3.5,1,6.3-0.4,6.5,0.1c0.1,0.4-1.8,1.5-3.9,1.9c-0.6,0.1-4.8,0.9-6-1.1
	C122.2,96.8,122.1,95.8,122.5,95.5z"/>
<path class="st27" d="M125.3,78.7c0,0.1,0.3,0.2,2.7,0.7c3.1,0.7,3.2,0.7,3.3,0.6c0.1-0.3-1.3-1.4-3.1-1.7
	C126.7,78.1,125.3,78.4,125.3,78.7z"/>
<path class="st28" d="M126,82.7c-0.2,0.2-1.3,1-1.4,2.5c0,1.7,1.5,2.8,1.9,3c1.1,0.6,2.9,1.1,4.3,0c1.4-1.1,1.7-3.5,0.5-4.9
	C130,81.5,127.4,81.7,126,82.7z"/>
<path class="st29" d="M93.7,120.2c0-0.3,2-0.4,3.3-0.4c3-0.1,3.8,0.2,6.2,0.1c4.3,0,4.1-1,6.4-0.5c2.4,0.5,2.8,1.6,5.2,1.7
	c0.7,0,1.6,0,2.2,0.6c0.5,0.5,0.7,1.5,0.4,2c-0.8,1.5-5.5,0-17.2-2C96.7,121,93.7,120.6,93.7,120.2z"/>
<path class="st29" d="M95.4,110.5c0.1-1.2,7,0.6,14-2.9c4.2-2.1,6.4-5.2,10.9-5c0.2,0,2.6,0.1,2.7,0.7c0.1,0.5-1.5,1.2-3.9,2.2
	c-6.9,2.9-5.3,2.5-8.3,3.6c-5,1.9-3.5,0.8-9,2.6c-0.6,0.2-2.1,0.7-3.9,0.3C97,111.7,95.4,111.1,95.4,110.5z"/>
<path class="st29" d="M152.5,124.9c0.1-0.2,1.4,0.2,2.4,0.3c3.3,0.4,6.1-1.8,9.5-4.3c10.4-7.8,14.9-9.4,15.6-13.5
	c0.1-0.7,0.2-2.1,0.7-2.2c0.6-0.1,1.9,2.1,1.6,3.9c-0.4,2.1-2.7,3-5.7,4.8c0,0-3.4,2.5-10,7.6c-6.1,4.6-7.6,6-10,5.6
	C154.4,126.8,152.4,125.2,152.5,124.9z"/>
<path class="st29" d="M123.2,121.1c0-0.6,0.5-1.8,12.2-5.5c9.3-2.9,11.7-3.1,13.7-2.9c3.6,0.3,7.6,1.4,7.6,1.8
	c0,0.1-0.4,0.2-1.5,0.3c-1.7,0.2-3.3,0.5-4.9,0.6c-10.2,0.7-16.6,4.1-16.6,4.1c-3.5,1.9-5.4,3.9-8.1,3.3
	C124.7,122.6,123.3,121.9,123.2,121.1z"/>
<path class="st29" d="M137.7,102.7c0.8-1.5,3.9-1.2,11.4-0.7c8.9,0.6,13.4,0.9,13.8,0.9c2.2-0.2,4.9-0.5,5.2,0.4
	c0.2,0.6-0.5,1.6-1.3,2.1c-2.1,1.5-4.5-0.2-9.6-0.9c-3.8-0.5-7.1-0.3-8.8-0.1c-2.6,0.2-5.2-0.1-7.7,0.4c-0.8,0.2-2.3,0.6-2.9-0.1
	C137.3,104.2,137.4,103.2,137.7,102.7z"/>
<path class="st29" d="M143.1,91.1c-1.1,0.7-1.9,2.1-1.5,2.9c0.5,0.9,2.4,0.5,8.5-0.1c3.9-0.4,5.9-0.5,7.4-0.5
	c4.2,0.1,6.2,0.1,8.5,0.8c1.5,0.4,2.8,1,3.3,0.4c0.5-0.5,0.2-1.9-0.6-2.7c-0.9-0.9-2.4-0.9-2.9-0.9c-3.1,0.1-6.2-0.4-9.3-0.4
	c-3.7-0.1-7.4,0.4-11.1,0C145.1,90.6,144.1,90.5,143.1,91.1z"/>
<path class="st29" d="M130.5,76.9c0.1-0.5,5.4-0.8,11.1,0.8c4.5,1.2,5.5,2.6,11.4,4.1c3.1,0.8,5.3,1,5.3,1.3s-2.8,0.5-5.6,0.1
	c-3.5-0.4-5.9-1.5-7.1-2C137.2,77.7,130.4,77.5,130.5,76.9z"/>
<path class="st29" d="M95.3,93.8c0.4-1,2.2-0.8,7.4-1.2c5.3-0.4,6.7-1,9.6-0.3c2,0.4,4,1.3,3.9,1.6c-0.1,0.4-2.3-0.2-5.8,0
	c-4.7,0.2-7.6,0.3-10.6,2C99,96.3,98,97,97,96.7C95.8,96.3,94.9,94.8,95.3,93.8z"/>
<path class="st30" d="M117.7,41.3c-0.1,0-1.3,0.4-1.2,0.7c0.1,0.7,9-0.7,9.3,0.5c0.1,0.6-1.7,1.5-10.9,6c-4.5,2.2-5.8,2.8-5.7,3.2
	c0.2,0.8,6.8-0.7,14.7-1.3c1.9-0.1,11.1-0.7,21.9,1.2c6,1.1,14.4,2.6,23.2,7.7c11.7,6.9,19.7,17.8,20.2,17.3
	c0.3-0.2-2.5-3.1-1.6-4.7c0.8-1.5,3.9-0.5,4.5-1.4c0.9-1.5-4.9-8.2-15.9-15.5C176.2,55,142.9,33.4,117.7,41.3z"/>
<path class="st30" d="M63.4,117.3c1.6-0.7,5.4,9.2,13.3,17c7,6.9,14.7,9.6,22.9,12.4c3,1,12.6,4.2,26,4.8c13.9,0.6,24.5-2,24.7-1.3
	c0.2,0.9-18.8,4.3-18.5,6.3c0.2,1.6,11.1,1.2,11.1,2s-11.8,3.1-25.1,2c-15.7-1.4-26.9-7.1-29.2-8.3c-21.4-11.2-31.4-29.7-31-30.1
	c0.2-0.2,3.2,3.4,4.8,2.6C64.2,123.8,62.2,117.8,63.4,117.3z"/>
</svg>
