<?xml version="1.0" encoding="utf-8"?>
<!-- Generator: Adobe Illustrator 26.3.1, SVG Export Plug-In . SVG Version: 6.00 Build 0)  -->
<svg version="1.1" xmlns="http://www.w3.org/2000/svg" xmlns:xlink="http://www.w3.org/1999/xlink" x="0px" y="0px"
	 viewBox="0 0 256 256" style="enable-background:new 0 0 256 256;" xml:space="preserve">
<style type="text/css">
	.st0{fill:#FFB8D0;}
	.st1{display:none;fill:#FFE2C5;}
	.st2{fill:#FFE2C5;}
	.st3{fill:#92E2F4;}
	.st4{fill:#231815;stroke:#FFFFFF;stroke-miterlimit:10;}
	.st5{fill:#FFFFFF;}
	.st6{fill:#FF9D94;}
	.st7{fill:#231815;}
	.st8{fill:#D42900;stroke:#D42900;stroke-miterlimit:10;}
	.st9{display:none;fill:#FF0000;}
	.st10{fill:#A59B9F;}
	.st11{fill:#FCFCFC;}
	.st12{fill:#999094;}
	.st13{fill:#CEC8CB;}
	.st14{fill:#8BCDD8;}
</style>
<g id="레이어_3_00000124151098115614423270000003532458251010233008_">
	<g id="레이어_1_00000079446874307285564030000002471228595128942267_">
		<circle class="st0" cx="128.6" cy="127.6" r="126.3"/>
	</g>
	<path class="st1" d="M62.9,173.8c-5.1,0.8-9.7,3.8-11,4.6c-1.5,0.9-7.5,5-11.9,12.9c-2.2,4-3.2,7.3-3.9,10.7
		c-1.2,5.5-2.1,8.3-0.9,11.3c0.5,1.2,1.4,2.8,7.2,6.8c6.3,4.3,10.5,6.3,10.5,6.3c19.4,9.1,21.5,8.7,29.2,13.2
		c11.5,6.7,11.6,10.5,18.3,11.1c6.4,0.6,6.8-2.8,19.5-6.2c11.5-3,21.2-2.9,24-2.8c8.1,0.2,8.3,1.5,12.6,1c8.2-1,11.7-5.9,22.5-15.2
		c3.9-3.4,21.6-14.8,31.4-25.1c9.8-10.3,10.1-13.2,10-14.9c-0.3-5.7-5.8-10.4-6.5-10.9c-1.8-1.4-3.7-2.5-5.3-3.3
		c-3-1.5-5.4-2.3-6.9-2.8c-14-4.6-15.8-5.7-18.3-4.5c-2.6,1.2-3.7,3.7-4.6,5.5c0,0-4.1,8-20.8,19.1c-16.2,10.8-48.5,7.4-69.2-6.3
		C82.1,179.8,73.4,172.1,62.9,173.8z"/>
	<path class="st2" d="M-34.6,228.1"/>
</g>
<g id="레이어_2">
	<path class="st3" d="M76.9,188.4c1.4,4.6,2.1,7,3.6,10.4c0.7,1.6,2.7,5.7,6,10.6c2.1,3.1,4,5.8,7.3,8.8c0.5,0.5,2.8,2.5,6.2,4.7
		c3.3,2,6,3.1,9.1,4.4c5.5,2.2,6.4,2,10.5,3.9c3.4,1.6,5.7,3.1,7.5,4.2c9.2,6,8.9,9,12.5,9.3c1.5,0.1,2.7-0.3,14.8-9.6
		c5.3-4,4.5-3.6,6.4-5c9.9-7.3,12.2-6.5,17-11.3c4.6-4.7,7.3-9.1,9.2-12.3c3.2-5.5,4.9-10.1,6-13.3c1.3-3.7,2.7-7.6,3.2-12.8
		c0.5-4.6,1.1-10-0.8-10.9c-2.5-1.1-6.3,6.7-16.2,14c-6.4,4.8-12.2,6.9-17.2,8.8c-13.5,5.1-24.8,5.4-28,5.5
		c-6.7,0.1-13.6-0.7-20.5-1.5c-4.5-0.5-6.7-0.8-7.9-1.1c-5-1.2-15.5-4.6-25.4-12c-1.4-1.1-3.5-2.7-4.4-2.1
		C75.2,181.4,75.1,182.6,76.9,188.4z"/>
</g>
<g id="레이어_1">
	<g id="레이어_1_00000178885570821453288050000000406674354459124900_">
		<g id="레이어_3">
			<path class="st2" d="M128.8,48.5c31.1,0.5,53.4,12.7,66.8,29.9c21.1,27.2,17.1,66.6,1,88.4c-0.4,0.6-0.8,1-1,1.3
				c-23.1,29.5-64.6,30-66.8,29.9C24.6,196.5,15.3,55.9,128.8,48.5z"/>
			<path class="st2" d="M29.7,112.7c13.8-13.7,34.7,7.2,21,21C36.9,147.4,16,126.5,29.7,112.7z"/>
			<path class="st2" d="M211.5,108.4c19.4,0.1,19.4,29.6,0,29.7C192.1,138,192.1,108.5,211.5,108.4z"/>
			<path class="st4" d="M95.7,112.1c11.7-0.2,11.7,18.3,0,18.1C84,130.3,84,111.9,95.7,112.1z"/>
			<path class="st4" d="M151.4,112.1c11.7-0.2,11.7,18.3,0,18.1C139.7,130.3,139.7,111.9,151.4,112.1z"/>
			<path class="st5" d="M154.9,117.4c3,0,3,4.6,0,4.6S151.9,117.3,154.9,117.4z"/>
			<path class="st5" d="M100,117.4c3,0,3,4.6,0,4.6S97,117.3,100,117.4z"/>
			<path class="st6" d="M88.1,132.4c26.1,0.4,26.1,38,0,38.4C62,170.4,62,132.9,88.1,132.4z"/>
			<path class="st6" d="M163.2,132.4c26.1,0.4,26.1,38,0,38.4C137.1,170.4,137.1,132.9,163.2,132.4z"/>
			<path class="st7" d="M123.3,55.2c-10.7-1-22.5,10.7-15,18.5c-0.5-12.4,20.9-22.1,26.7-6.9c-0.2,6.7-7,12-15,7.8
				c-3.3-2.4,0.3-5.7,3.3-6.3c1.7,0.2,1.9,4.5,3,4.5c6.4-6.3-5.4-12.9-10.7-4.8c-5.6,11.8,7.7,16.4,14.2,13.3
				C148,74.5,140.8,55.5,123.3,55.2z"/>
			<path class="st8" d="M116.2,139.2c2.8-5.3,15.5-5.9,18.8-0.2c3,5.2-2.2,15.2-8.3,15.7C120.1,155.2,113.4,144.5,116.2,139.2z"/>
			<path class="st5" d="M118.9,136.3c0.9,3.4,2.2,3.8,6.6,3.4c5,0,5.3,1.1,7.5-3.2C129.7,133.7,122.4,133.5,118.9,136.3z"/>
			<path class="st9" d="M162.2,183.9c2.5-9.2,18.3-12.9,22.1,0.9c2.5-36.6,48.6,6.6,2.6,32.3C180.2,216.3,153.3,202.9,162.2,183.9z"
				/>
		</g>
		<path class="st10" d="M147.2,187.1c-4.9,2.5-5.6,7.4-5.7,8.2c0,0.3-0.7,5.8,3.9,9.6c3.8,3.2,7.1,1.9,11.4,4.7
			c3.3,2.1,4.5,5.1,6.8,11.1c4.5,11.9,2.9,17.4,7.9,19.6c3.4,1.5,7.3,0.4,7.5,0.3c2.8-0.8,5.3-2.9,6.1-5.3
			c1.7-5.1-5.1-11.2-12.5-17.8c-5.2-4.7-8.5-6.6-8.6-10.2c-0.1-2.5,1.4-3.1,2.1-7c0.5-2.7,1.2-6.8-1.4-9.9
			C161.3,186.3,153,184.2,147.2,187.1z"/>
		<path class="st5" d="M148.7,188.1c-1.7,1.6,0.1,2.3,1.4,0.6c0-0.1,2.8-1,2.8-0.8c0.5,0.1,0.7,0.2,0.9,0.1
			C156.4,185.6,149.2,186.5,148.7,188.1z"/>
		<path class="st11" d="M156.1,187.1c-0.3,0.1-0.5,0.4-0.4,0.7c0,0.3,0.3,0.6,0.6,0.6c0.4,0,0.7-0.3,0.7-0.6
			C157.1,187.4,156.6,187,156.1,187.1z"/>
		<path class="st12" d="M144.9,190.7c-9.4,19,25.4,23.1,20.2,3.1c-1.9-6.5-12.1-5-17.2-2.3C144.9,194.2,145.8,192.6,144.9,190.7z"/>
		<path class="st12" d="M175.3,228.2"/>
		<path class="st12" d="M160.2,209.9c0.1-0.1,0.5,0.4,1.4,1.3c0,0,0.7,0.7,1.2,1.4c2.1,2.8,3.7,9.1,3.7,9.1c1.5,5.5,1.3,6.1,2.4,8.7
			c1.4,3.5,2.5,4.6,2.9,4.9c0.3,0.2,3.4,2.9,6.9,2.2c2.4-0.5,3.8-2.4,4.1-2.1c0.3,0.3-0.4,1.6-1.3,2.6c-1.8,1.9-4.2,2-4.9,2.1
			c-0.5,0-3.9,0.2-6.4-2.2c-1.3-1.3-1.9-3.1-2.8-6.9c-0.9-3.5-0.7-4-1.6-7.4c-0.3-1.1-0.9-3.3-2-5.9
			C161.9,213.1,159.9,210.1,160.2,209.9z"/>
		<path class="st13" d="M175.4,221.7c1.9,2.2,2.7,2.8,5.4,7.9c2.8,4.1,3,7.1-0.2,9.2c6.4-2.3,2.8-8,0.7-11.1
			C180.1,225.9,177.8,222.4,175.4,221.7z"/>
		<path class="st5" d="M226.8,180.6"/>
	</g>
	<g id="레이어_3_00000050657149144979336100000007515689631559908229_">
	</g>
	<g id="레이어_2_00000120557414812584026420000013062121809122168448_">
	</g>
	<path class="st3" d="M196.5,170.9c0.1-0.5,0.9-1.8,1.8-2.6c0,0,0.4-0.4,0.9-0.8c7.5-5.4,16-4.4,16-4.4c2.5,0.3,8.7,1,9.6,4.4
		c0.7,2.8-2.8,6.2-5.5,7.9C210.1,180.8,196.3,173.3,196.5,170.9z"/>
	<path class="st3" d="M199.5,176.9c-0.1,0.3-0.2,0.6-0.2,1.1c0,0.4,0,0.8,0,1.1c0.2,2.1,0.4,3.5,0.4,3.5c0.1,0.6,0.2,1.4,0.4,2.3
		c0.1,0.9,1.2,6.7,6.6,10c4.1,2.6,8.2,2.2,9.5,2C222,187.8,211.7,177.2,199.5,176.9z"/>
	<path class="st14" d="M200.8,167.4L200.8,167.4c0,0,0.8-0.3,1.1-0.4c0.3-0.1,1.2-0.5,2.1-0.6c0.3,0,1.3-0.2,2.5,0.1
		c1.7,0.3,3.3,1.4,3.2,1.7c-0.1,0.3-1.5-0.2-3.4-0.3c-4.1-0.2-8.6,1.5-8.6,2.8c0,1.1,3.4,2,5.2,2.3c4.9,0.9,8.3-0.9,8.4-0.6
		c0.1,0.4-6.7,3.2-10.3,1.9c-0.7-0.3-1.5-0.7-1.5-0.7c-1.3-0.8-2.8-1.5-2.8-2.5C196.6,169.4,200.8,167.4,200.8,167.4z"/>
	<path class="st14" d="M199.6,177c-0.5,0.5,0.2,2,0.3,2.1c0,0.1,0.3,0.5,0.7,1.1c0.4,0.6,0.6,0.9,0.7,1.1c0.3,0.4,0.6,0.9,1.1,1.3
		c0.4,0.4,0.8,0.7,1.1,0.9c1.7,1.2,4.5,3.1,4.6,3c0.1-0.1-4.1-3.5-6.3-6.8c-0.2-0.3-0.6-0.9-0.4-1.1c0.3-0.4,2.6,0.6,3.6,1.5
		c0.1,0.1,0.5,0.4,1.1,0.8c0.4,0.2,0.7,0.4,0.9,0.4c1.7,0.7,4.2,2.5,4.5,2.3c0.3-0.3-2.7-4.3-6.3-5.7c-0.1-0.1-1.4-0.3-3.8-0.9
		C200.4,176.9,199.9,176.7,199.6,177z"/>
	<path class="st14" d="M195.5,170.4c-0.1,0-0.2,0.6-0.2,1c0,0.3-0.1,0.6-0.1,0.6c0,0.4-0.6,5.2-2.2,8.6c-1.4,3.1-3.5,5-5.5,6.7
		c-7.1,6.2-14.9,7.6-14.7,8.1c0.1,0.3,4.2,0.1,8.7-2c7.7-3.5,14.6-11.1,14.5-18.2C196,173.8,195.7,170.4,195.5,170.4z"/>
	<path class="st14" d="M196.1,172.3c-0.1-0.1-1,1.6-1.7,2.8c-4.9,7.9-14.8,10.4-14.5,11.2c0.2,0.5,3.6-0.2,6.4-1.6
		c1.9-1,3.2-2.3,4.4-3.4c0.8-0.7,1.8-1.7,2.8-3.3C195.3,175.3,196.3,172.4,196.1,172.3z"/>
	<path class="st14" d="M76.7,183.3c-0.2,0.1,1.1,2.8,2.5,5.2c0,0,2.4,4,4.9,7c6.5,7.4,37.4,8.2,37.4,7.7c0-0.4-20.6-3.1-29.2-5.5
		c-1.2-0.3-3.3-1-5.5-2.6c-1.2-0.9-2.1-1.8-3.9-4.1C78.7,186,76.9,183.1,76.7,183.3z"/>
</g>
</svg>
