<?xml version="1.0" encoding="utf-8"?>
<!-- Generator: Adobe Illustrator 26.3.1, SVG Export Plug-In . SVG Version: 6.00 Build 0)  -->
<svg version="1.1" id="레이어_1" xmlns="http://www.w3.org/2000/svg" xmlns:xlink="http://www.w3.org/1999/xlink" x="0px"
	 y="0px" viewBox="0 0 113.4 85" style="enable-background:new 0 0 113.4 85;" xml:space="preserve">
<style type="text/css">
	.st0{display:none;}
	.st1{display:inline;fill:#F90303;}
	.st2{display:none;fill:#F90303;}
	.st3{fill:#E8EEF9;}
	.st4{fill:#FCF877;}
	.st5{fill:#230E04;}
	.st6{fill:#492212;}
	.st7{fill:#280D04;}
	.st8{fill:#F93500;}
	.st9{fill:#EDC48A;}
	.st10{fill:#EF4822;}
	.st11{fill:#722A0A;}
	.st12{fill:#C11B00;}
	.st13{fill:#FFDA00;}
	.st14{fill:#A04420;}
	.st15{fill:#994625;}
	.st16{fill:#F2874C;}
	.st17{fill:#5B2009;}
	.st18{fill:#511E09;}
	.st19{fill:#EFE4B6;}
	.st20{fill:#FCE265;}
	.st21{fill:#073304;}
	.st22{fill:#FFB000;}
	.st23{fill:#E8E1DD;}
	.st24{fill:#ECF4CB;}
	.st25{fill:#D7DDB1;}
	.st26{fill:#FCE0C0;}
	.st27{fill:#F8FFCC;}
	.st28{fill:#EFD1B4;}
	.st29{fill:#F4D9C3;}
	.st30{fill:#960C02;}
	.st31{fill:#774701;}
	.st32{fill:#071E05;}
	.st33{fill:#117207;}
	.st34{fill:#BA6349;}
	.st35{fill:#58BA4D;}
	.st36{fill:#2B5626;}
	.st37{fill:#12590B;}
	.st38{fill:#F77B00;}
	.st39{fill:#F46800;}
	.st40{fill:#F46300;}
	.st41{fill:#9B3E1E;}
	.st42{fill:none;}
	.st43{stroke:#000000;stroke-miterlimit:10;}
</style>
<g id="레이어_2_00000081618574888364921670000017060804838240219056_">
</g>
<g id="레이어_1_00000018922551021241948800000006229156198350975371_">
	<g class="st0">
		<ellipse transform="matrix(0.1309 -0.9914 0.9914 0.1309 2.5528 10.9124)" class="st1" cx="7.5" cy="4" rx="2" ry="2.5"/>
	</g>
	<circle class="st2" cx="7" cy="4" r="3"/>
	<path class="st3" d="M3.6,83.8c0-1.5,1.3-2.8,2.8-2.8c1.6,0,2.8,1.2,2.8,2.8c0,0.1,0,0.1,0,0.2h2.6v-0.1c0-1.5,1.3-2.8,2.8-2.8
		s2.8,1.2,2.8,2.8V84h3.3v-0.1c0-1.5,1.3-2.8,2.8-2.8s2.8,1.2,2.8,2.8V84h3.3v-0.1c0-1.5,1.3-2.8,2.8-2.8c1.6,0,2.8,1.2,2.8,2.8V84
		h3.3v-0.1c0-1.5,1.3-2.8,2.8-2.8s2.8,1.2,2.8,2.8V84h3.3v-0.1c0-1.5,1.3-2.8,2.8-2.8c1.6,0,2.8,1.2,2.8,2.8V84h3.3v-0.1
		c0-1.5,1.3-2.8,2.8-2.8s2.8,1.2,2.8,2.8V84h3.3v-0.1c0-1.5,1.3-2.8,2.8-2.8s2.8,1.2,2.8,2.8V84h3.3v-0.1c0-1.5,1.3-2.8,2.8-2.8
		s2.8,1.2,2.8,2.8V84H83v-0.1c0-1.5,1.3-2.8,2.8-2.8s2.8,1.2,2.8,2.8V84H92v-0.1c0-1.5,1.3-2.8,2.8-2.8s2.8,1.2,2.8,2.8V84h3.3v-0.1
		c0-1.5,1.3-2.8,2.8-2.8c1.6,0,2.8,1.2,2.8,2.8V84h3.3v-0.1c0-1.5,1.3-2.8,2.8-2.8c0.1,0,0.2,0,0.3,0v-1.3c-1.5,0-2.8-1.3-2.8-2.8
		s1.2-2.7,2.8-2.8V72c-1.5,0-2.8-1.3-2.8-2.8s1.2-2.7,2.8-2.8v-2.3c-1.5,0-2.8-1.3-2.8-2.8s1.2-2.7,2.8-2.8v-2.3
		c-1.5,0-2.8-1.3-2.8-2.8s1.2-2.7,2.8-2.8v-2.3c-1.5,0-2.8-1.3-2.8-2.8s1.2-2.7,2.8-2.8v-2.3c-1.5,0-2.8-1.3-2.8-2.8
		s1.2-2.7,2.8-2.8v-2.3c-1.5,0-2.8-1.3-2.8-2.8s1.2-2.7,2.8-2.8v-2.3c-1.5,0-2.8-1.3-2.8-2.8s1.2-2.7,2.8-2.8v-2.3
		c-1.5,0-2.8-1.3-2.8-2.8s1.2-2.7,2.8-2.8V9.5c-1.5,0-2.8-1.3-2.8-2.8s1.2-2.7,2.8-2.8v-1c-0.5,0.5-1.2,0.8-1.9,0.8
		c-1.5,0-2.7-1.2-2.8-2.6h-3.3c-0.1,1.5-1.3,2.6-2.8,2.6s-2.7-1.2-2.8-2.6H96c-0.1,1.5-1.3,2.6-2.8,2.6s-2.7-1.2-2.8-2.6h-3.3
		c-0.1,1.5-1.3,2.6-2.8,2.6s-2.7-1.2-2.8-2.6h-3.3c-0.1,1.5-1.3,2.6-2.8,2.6s-2.7-1.2-2.8-2.6h-3.3c-0.1,1.5-1.3,2.6-2.8,2.6
		s-2.7-1.2-2.8-2.6h-3.3c-0.1,1.5-1.3,2.6-2.8,2.6s-2.7-1.2-2.8-2.6h-3.3c-0.1,1.5-1.3,2.6-2.8,2.6S46,2.5,45.9,1.1h-3.3
		c-0.1,1.5-1.3,2.6-2.8,2.6S37.1,2.5,37,1.1h-3.3c-0.1,1.5-1.3,2.6-2.8,2.6s-2.7-1.2-2.8-2.6h-3.3c-0.1,1.5-1.3,2.6-2.8,2.6
		s-2.7-1.2-2.8-2.6h-3.3c-0.1,1.5-1.3,2.6-2.8,2.6s-2.7-1.2-2.8-2.6H7.6C7.5,2.5,6.3,3.6,4.8,3.6S2.1,2.5,2,1H1v4.9c0,0,0,0,0.1,0
		c1.6,0,2.8,1.2,2.8,2.8c0,1.5-1.3,2.8-2.8,2.8c0,0,0,0-0.1,0v2.3c0,0,0,0,0.1,0c1.6,0,2.8,1.2,2.8,2.8c0,1.5-1.3,2.8-2.8,2.8
		c0,0,0,0-0.1,0v2.3c0,0,0,0,0.1,0c1.6,0,2.8,1.2,2.8,2.8c0,1.5-1.3,2.8-2.8,2.8c0,0,0,0-0.1,0v2.3c0,0,0,0,0.1,0
		c1.6,0,2.8,1.2,2.8,2.8c0,1.5-1.3,2.8-2.8,2.8c0,0,0,0-0.1,0v2.3c0,0,0,0,0.1,0c1.6,0,2.8,1.2,2.8,2.8c0,1.5-1.3,2.8-2.8,2.8
		c0,0,0,0-0.1,0V45c0,0,0,0,0.1,0c1.6,0,2.8,1.2,2.8,2.8c0,1.5-1.3,2.8-2.8,2.8c0,0,0,0-0.1,0v2.3c0,0,0,0,0.1,0
		c1.6,0,2.8,1.2,2.8,2.8c0,1.5-1.3,2.8-2.8,2.8c0,0,0,0-0.1,0v2.3c0,0,0,0,0.1,0c1.6,0,2.8,1.2,2.8,2.8c0,1.5-1.3,2.8-2.8,2.8
		c0,0,0,0-0.1,0v2.3c0,0,0,0,0.1,0c1.6,0,2.8,1.2,2.8,2.8c0,1.5-1.3,2.8-2.8,2.8c0,0,0,0-0.1,0v2.3c0,0,0,0,0.1,0
		c1.6,0,2.8,1.2,2.8,2.8c0,1.5-1.3,2.8-2.8,2.8c0,0,0,0-0.1,0V84h2.6C3.6,83.9,3.6,83.9,3.6,83.8z"/>
</g>
<rect x="7.5" y="6.9" class="st4" width="99.5" height="48.2"/>
<g id="레이어_2_00000006674808769445155670000007893565635627495824_">
	<path class="st5" d="M84.1,27.5c-0.2,1.8-0.6,4.4-1.3,7.4c-0.5,2.2-1,4.2-1.8,6c-3.2,7.5-11.4,10.6-12.4,10.9
		c-3.7,1.3-6.7,1.3-11.1,1.2c-4.5-0.1-7.6-0.1-11.3-1.6c-6.7-2.7-10.3-7.9-11.5-9.9c-1.4-2.3-2.2-4.5-2.8-6.4
		c-1.2-3.3-1.7-6.2-2.1-8.3C34.2,1.7,81,4,84.1,27.5z"/>
	<ellipse class="st6" cx="57" cy="25.7" rx="27.2" ry="16.8"/>
	<path class="st7" d="M82.7,25.9c-0.2,8-14.2,14.9-25.9,14.7c-11.5-0.2-25.4-7.2-25.4-15.2s13.8-15.2,25.4-15.2
		C68.8,10.1,82.9,17.8,82.7,25.9z"/>
	<path class="st8" d="M54.2,25.6c0.2-0.4,0.9-1.5,4.8-1.9c6.3-0.7,8.1,1.8,18.2,3.9c1.9,0.4,3.6,0.7,3.9,1.7c0.5,1.7-3,4.3-4.4,5.4
		c-2.2,1.6-4.1,2.4-5.8,3.1c-0.5,0.2-2.6,1.1-5.6,1.8c-3.4,0.8-5.1,1.3-6.1,0.8c-1.9-1-1-3.2-3.2-8.7C54.7,28.1,53.5,26.9,54.2,25.6
		z"/>
	<path class="st9" d="M59,22.5c-0.2-1.6,2-3.1,2.6-3.5c2.3-1.6,4.8-1.5,9.7-1.4c2.5,0.1,3.7,0.1,4.7,0.5c2.7,1.1,5.2,3.9,5.5,7.3
		c0.1,1.1,0.4,4.1-1.3,5.3c-2.2,1.5-4.8-1.6-13.9-4.7C61.9,24.6,59.2,24.1,59,22.5z"/>
	<path class="st10" d="M51.5,14.5c1-1.7,4.4-1.4,7.8-1.1c1.1,0.1,4.2,0.4,8.4,1.9c2.7,0.9,5.5,2.2,5.4,2.7c-0.1,0.5-2.9-0.6-5.6,0.9
		c-1.2,0.6-2.1,1.6-2.4,1.9c-1.2,1.3-1.7,2.4-3.2,3.1c-0.5,0.2-0.8,0.4-1.2,0.3c-1.1-0.1-1.3-1.2-2.6-2.1c-1.1-0.8-1.6-0.5-2.4-0.8
		c-0.1,0-0.3-0.1-0.7-0.4c-1.4-0.9-3.2-2.2-3.6-4.3C51.3,15.9,51.2,15.2,51.5,14.5z"/>
	<path class="st11" d="M51.6,15.4c-0.2-0.1-0.7-0.2-1.3-0.7c-0.4-0.3-0.5-0.5-0.8-0.8c-0.6-0.4-1.1-0.5-1.6-0.6
		c-2.4-0.4-4.5,1.4-4.9,2c-0.6,0.8-0.3,1.1-0.9,2c-0.9,1.5-1.9,1.4-4,2.8c0,0-2.8,2-4.3,4.9c-0.3,0.6-0.5,1.1-0.6,1.7
		c0,0.1-0.2,1.2,0.1,2.4c0.5,2.3,2.5,3.6,3.8,4.5c1.7,1.1,2.5,1.7,3.4,1.6c3.2-0.3,3.1-6.8,7.7-8.5c0.3-0.1,2.9-0.3,4.6-0.7
		c0.2,0,0.6-0.1,1.1-0.4c0.1-0.1,0.9-0.6,1.2-1.3c0.4-0.9,0-1.8-0.2-2.5C53.9,18.2,52.9,15.9,51.6,15.4z"/>
	<path class="st12" d="M62.2,15.8c-0.6,0.1-1,0.2-1.6,0.5c-0.3,0.1-1.2,0.5-2.9,1.9c-1.3,1-1.9,1.5-1.8,1.9c0.1,0.5,1.4,0.1,2.9,1
		c1.3,0.8,2,2,1.9,2.5c0,0.1,0,0.2,0,0.5c0,0.2,0.1,0.5,0.3,0.6c0.5,0.4,2.2-1.6,4.1-2.8c0.2-0.1,0.5-0.3,0.9-0.8
		c0.1-0.1,0.5-0.6,0.7-1.1c0.3-1.1-0.4-2.4-1.2-3.1C64.2,15.6,62.5,15.8,62.2,15.8z"/>
	<path class="st13" d="M54.6,20.4c-0.4,0.1-1.9,0.7-2.8,2.2c-0.3,0.5-1,1.8-0.5,3c0.8,1.9,4.2,1.9,4.7,1.9c0.8,0,4.1-0.1,4.8-2.1
		c0.6-1.8-1-4-2.8-4.8C56.5,19.9,55.2,20.3,54.6,20.4z"/>
	<path class="st14" d="M45.3,14.1c-0.9,0.4-1.3,0.5-1.6,0.9c-0.5,1,0.8,2,0.4,3.1c-0.4,0.9-1.7,0.9-1.6,1.3c0,0.5,1.5,1.1,2.5,0.6
		s1.4-2.1,1.3-3.3c-0.1-0.8-0.4-1.1-0.1-1.5c0.4-0.7,2-0.8,2.6-0.1s0,2.2-0.5,3c-0.6,0.9-1.3,1.1-1.2,1.5s1.1,0.6,1.8,0.2
		s0.8-1.2,1-2.4c0.2-1.4,0.3-2.2-0.2-2.9c-0.6-0.9-1.8-1-2.1-1C46.6,13.5,46,13.8,45.3,14.1z"/>
	<path class="st14" d="M49.4,11.9"/>
	<path class="st15" d="M51.1,18.1c0.3,0.2,0.5,0.7,0.3,1c-0.3,0.6-1.2,0.3-1.5,0.9c-0.2,0.4,0,0.9,0.3,1c0.5,0.2,0.9-1.3,2.1-1.4
		c0.6-0.1,1,0.3,1.2,0.1c0-0.5,0-1.3-0.4-2.2c-0.6-1.4-1.7-2.1-2.1-2.4c-0.9,0.1-1.5,2.7-0.9,3.1C50.3,18.3,50.7,17.9,51.1,18.1z"/>
	<path class="st15" d="M43.8,16.3c-0.3-0.4-1.2-0.2-2.5,0.2c-0.9,0.2-1.7,0.5-1.9,1.1c-0.1,0.4,0.1,0.6,0,0.9
		c-0.3,0.7-1.8,0.5-1.9,0.9c-0.1,0.4,1.3,0.8,2.4,2.3c0.6,0.7,0.6,1.1,1,1.2c1,0.3,2.6-1.6,2.3-2.1c-0.2-0.3-0.9,0-1.3-0.5
		c-0.2-0.2-0.3-0.5-0.2-0.8c0.1-0.5,0.7-0.5,1.3-0.9C43.7,17.9,44.1,16.7,43.8,16.3z"/>
	<path class="st15" d="M48.9,20.4c-0.4-0.3-0.9,0.5-2.1,0.5c-1.1,0-1.5-0.6-2.3-0.3c-0.3,0.1-0.4,0.3-1.1,1.2
		c-1,1.2-1.6,1.8-2.1,1.9c-0.8,0.1-1.1-0.7-1.9-0.6c-0.5,0.1-1,0.5-1,0.8c0,0.7,1.7,1.7,3.2,1.4c1.7-0.3,1.6-2,3.5-2.5
		c1.6-0.5,2.7,0.5,3.6-0.3C49.3,21.9,49.3,20.7,48.9,20.4z"/>
	<path class="st15" d="M38.1,20.5c-0.8-0.3-1.6,0-2,0.2c-0.9,0.4-2,1.2-2,2.1c0,0.1,0,0.5-0.2,0.9c-0.1,0.2-0.2,0.3-0.3,0.4
		c-0.2,0.2-0.3,0.2-0.4,0.2c-0.4,0.2-0.5,1.2-0.1,1.8c0.4,0.7,1.2,0.6,2.4,0.9c2.8,0.8,4.1,3,4.7,2.6c0.2-0.1,0.2-0.4,0.2-0.5
		c0-0.7-1.1-0.9-2.2-1.8c-0.2-0.1-1.9-1.6-1.6-2.6c0.2-0.8,1.5-0.8,1.6-1.6c0-0.4-0.2-0.5-0.1-0.8c0.2-0.5,1-0.3,1.1-0.6
		C39.4,21.3,38.8,20.7,38.1,20.5z"/>
	<path class="st15" d="M38,24.6c-0.3,0.1-0.1,0.8-0.1,0.9c0.1,0.6,0.5,1,0.7,1.2c1.5,1.5,2.3,2.2,2.6,2.1c0.5-0.2,0-1.4,0.7-2
		c0.4-0.3,0.7-0.1,1.5-0.4c0.9-0.3,2-1,2-1.8c0-0.1,0-0.4-0.2-0.5c-0.3-0.2-0.9,0.2-2.8,1.3c-0.6,0.4-0.9,0.5-1.3,0.5
		c-0.5-0.1-0.7-0.5-1.2-0.4c-0.4,0.1-0.5,0.4-0.7,0.3s-0.1-0.4-0.4-0.8C38.8,24.8,38.3,24.5,38,24.6z"/>
	<path class="st15" d="M33.4,26.9c-0.5,0-0.7,0.1-0.7,0.1c-0.5,0.5,0.3,2.1,0.4,2.4c0.8,1.6,2.5,3.6,3.6,3.2
		c0.7-0.2,0.5-1.2,1.5-1.6c0.5-0.2,0.8,0,1.4-0.1c1.6-0.1,2.8-1.2,2.8-1.3c-0.1-0.1-2.2,1.5-3.5,0.7c-0.6-0.2-0.4-0.6-1.4-1.7
		c-0.4-0.4-1-1-2-1.5C34.7,26.8,34,26.9,33.4,26.9z"/>
	<path class="st15" d="M49.5,22.4c-0.3,0.2-1.1,0.7-2.2,0.8c-0.9,0-1.2-0.3-1.5,0c-0.4,0.4,0.2,1.1,0,2.2c-0.1,0.3-0.1,0.4-1.7,2.3
		c-0.7,0.9-0.9,1.1-1.1,1.5c-0.3,0.7-0.8,1.8-0.5,2.1c0.3,0.2,1.1-0.3,1.2-0.4c1-0.7,0.8-1.4,1.6-2.4c0.6-0.6,0.6-0.2,2.6-1.6
		c0.8-0.5,1.1-0.8,1.7-0.9c0.8-0.1,1.3,0.4,1.5,0.1c0.3-0.3-0.9-1.4-0.6-2.4c0.1-0.5,0.5-0.4,1-1.2c0.6-0.8,1-1.8,0.7-2
		c-0.2-0.1-0.6,0.2-1.2,0.6C50.1,21.7,50.1,22,49.5,22.4z"/>
	<path class="st15" d="M38.9,31.6c-0.6,0.1-1.2,0.5-1.4,1.1c-0.1,0.5,0.1,0.9,0.1,1c0.4,0.7,1.3,0.9,1.9,0.9c0.6,0,1-0.3,1.3-0.5
		c0.4-0.3,1.2-0.8,1.3-1.7c0-0.6-0.2-1.2-0.6-1.3c-0.4-0.1-0.6,0.6-1.3,0.8C39.7,31.9,39.5,31.5,38.9,31.6z"/>
	<path class="st16" d="M54.2,13c-1.3,0-2.8,0.9-2.8,1.9c0,0.2,0,0.3,0.6,1.2c1,1.5,1.5,2.3,1.9,2.2c0.3-0.1,0.5-0.5,0.5-0.8
		c-0.1-0.3-0.4-0.5-0.7-0.7c-0.4-0.3-0.5-0.2-0.8-0.4c-0.1-0.1-0.3-0.3-0.5-0.6c-0.2-0.6,0.1-1.2,0.1-1.2c0.6-1.1,2.6-1,2.6-1.2
		C55.1,13.1,54.7,13,54.2,13z"/>
	<path class="st17" d="M46.2,16c-0.1,0.1,0,0.3,0.1,0.8c0.2,0.8,0,1.2,0.2,1.3c0.1,0.1,0.2,0,0.9-0.2s0.8-0.2,1-0.3
		c0.2-0.2,0.4-0.6,0.3-0.9c-0.1-0.2-0.3-0.2-1.2-0.5C46.6,15.9,46.3,15.8,46.2,16z"/>
	<path class="st11" d="M41.2,17.9c-0.5,0.1-0.5,0.6-1,0.8c-0.6,0.3-1.1,0-1.2,0.1c0,0.1,1,0.2,1.7,1c0.3,0.3,0.4,0.7,0.5,0.7
		c0.2,0-0.3-1.1,0.3-1.8c0.2-0.3,0.5-0.4,0.5-0.5C42,18,41.5,17.8,41.2,17.9z"/>
	<path class="st18" d="M43,16c0,0.1,0.5,0.1,0.7,0.4c0.4,0.7-1.5,2.5-1.4,2.6c0,0,0.1,0,0.3-0.2c0.4-0.2,0.5-0.3,0.7-0.4
		c0.6-0.3,0.7-1,0.7-1c0.1,0-0.2,0.9-0.1,1c0.1,0,0.6-0.4,0.6-1c0-0.1-0.1-0.3-0.2-0.6c-0.1-0.4-0.2-0.6-0.3-0.7
		C43.6,15.9,43,16,43,16z"/>
	<path class="st19" d="M53.7,21.5c-0.2,0-0.4,0.5-0.4,0.8c0,0.2,0,0.6,0.2,0.7s0.6,0,0.7-0.1c0.1-0.2-0.4-0.3-0.4-0.7
		c0-0.2,0.2-0.3,0.1-0.5C53.9,21.6,53.8,21.5,53.7,21.5z"/>
	<path class="st19" d="M54.8,20.9c-0.2-0.1-0.5,0.1-0.5,0.4c0,0.2,0.2,0.3,0.4,0.4c0.2,0,0.5-0.2,0.4-0.4C55.1,21.1,55,21,54.8,20.9
		z"/>
	<path class="st20" d="M54.7,23.3"/>
	<path class="st21" d="M41.8,33.7c2.9-2.6,3.3-4.1,3-5c-0.1-0.5-0.5-1-0.3-1.6c0.1-0.3,0.4-0.4,1.8-0.8c1.5-0.4,2.3-0.6,3-0.5
		s1.3,0.2,2,0.5c1.3,0.6,2.3,1,3,1.2c0.4,0.1,0.6,0.2,0.8,0.3c0.9,0.4,1.9,2.4,1.9,2.4c0.5,1,0.8,1.5,1,1.8c0.9,1.1,1.8,0.6,2.7,1.7
		c0.4,0.5,0.6,1.1,0.7,1.5c0.2,0.6,0.2,1.1,0.3,1.4c0.1,0.6,0.2,1.1,0.3,1.4c0.1,0.4,0.2,0.7,0.1,0.9c-0.1,0.2-0.4,0.3-0.7,0.4
		c-0.8,0.3-1.1,0.6-1.6,0.9c-0.8,0.6-1.9,0.4-3.6,0.2c-2.7-0.3-4.1-0.4-5.1-0.7c-5.1-1.1-10.7-3.8-11.9-4.4
		C39.6,35.3,40.1,35,41.8,33.7z"/>
	<path class="st22" d="M58,20.8c-0.1,0.1,0.3,0.3,0.9,1.6c0.3,0.6,0.4,0.9,0.4,1.4c0,0.2,0,0.5-0.2,0.8c-0.1,0.1-0.3,0.6-0.8,0.7
		c-0.5,0.2-1.2-0.1-1.6-0.6c-0.3-0.2-0.6-0.4-0.7-0.3c-0.2,0.1,0.4,0.8,0.3,1.3c-0.3,1-3.7,0.5-3.8,0.8c0,0.2,2.5,1.2,5.3,0.5
		c0.8-0.2,2.1-0.5,2.6-1.6c0.4-0.8,0.1-1.7-0.1-2C59.7,21.5,58.1,20.6,58,20.8z"/>
	<path class="st16" d="M55.6,13.3c0-0.1-2.2-0.1-2.8,0.9c0,0.1-0.3,0.5-0.1,1c0.1,0.3,0.3,0.5,0.7,0.8c0.1,0.1,1.8,1.3,2,1.1
		c0.1-0.1-0.2-0.7-0.5-1c-0.4-0.4-0.7-0.4-1-0.9c-0.1-0.2-0.3-0.4-0.2-0.7c0.1-0.4,0.4-0.6,0.5-0.7c0.2-0.1,0.3-0.1,0.8-0.2
		C55,13.6,55.7,13.4,55.6,13.3z"/>
	<path class="st16" d="M54.4,14.1c-0.1,0-0.4,0.1-0.4,0.2c0,0.2,0.7,0.2,1.3,0.8c0.5,0.4,0.5,0.9,0.8,0.9c0.2,0,0.4-0.2,0.4-0.4
		c0.1-0.3-0.4-0.7-0.9-1C55.2,14.3,54.9,14,54.4,14.1z"/>
	<path class="st16" d="M58.1,13.7C57,14.3,57.5,15,56,16.3c-0.4,0.4-1.5,1.2-1.8,2.1c-0.2,0.4-0.1,0.7-0.1,0.8
		c0.1,0.3,0.4,0.7,0.4,0.7s0.5,0.3,0.7,0.1c0.1-0.1,0.1-0.2,0.1-0.5s-0.1-0.5-0.1-0.6c-0.1-0.2-0.1-0.3-0.1-0.4c0,0,0-0.2,0.2-0.4
		c0.3-0.3,0.5-0.4,0.8-0.7c0.1-0.1,0.2-0.2,0.2-0.2c0.1-0.2,0.2-0.3,0.4-0.5c0,0,0.2-0.2,0.7-0.7c0,0,0.2-0.6,0.6-1.1
		c0.6-0.8,1.8-1.4,2.5-1.3c0.1,0,0.4,0.1,0.8,0c0.1,0,0.3-0.1,0.3-0.1C61.4,13.4,59.5,12.9,58.1,13.7z"/>
	<path class="st16" d="M57.7,15.4c-0.2,1.2-2,2.2-2.3,3.2c0,0.7-0.5,2.2,0.8,1.3c-0.1-0.2-0.2-0.6-0.1-1.1c0.2-0.7,0.7-1.1,0.8-1.2
		c0.2-0.2,0.7-0.5,1-1.1c0.2-0.3,0.3-0.6,0.3-0.7c0.1-0.2,0.1-0.3,0.1-0.5c0.4-0.3,1.1-0.8,2.2-0.9c0.9-0.1,1.8,0,2.1,0
		C61.3,13.3,58.6,13.9,57.7,15.4z"/>
	<path class="st16" d="M58.4,13.4c0-0.3,0.6-0.7,1.2-0.8c0.8-0.2,1.5,0.3,2.2,0.7c2.6,1.5,5.1,1.4,5,1.8c0,0.2-0.6,0.3-0.9,0.3
		c-0.5,0.1-0.8-0.1-1.7-0.4c-1.3-0.4-1.1-0.4-1.4-0.5c-0.6-0.3-0.7-0.4-1.6-0.9c-1-0.5-1.2-0.5-1.3-0.5c-0.5,0.1-0.7,0.6-1.1,0.6
		C58.6,13.6,58.4,13.5,58.4,13.4z"/>
	<path class="st23" d="M60.8,21c-0.1,0-0.3,0-0.3,0.1s0.1,0.2,0.2,0.3c0.1,0.1,0.4,0.4,0.6,0.6c0.3,0.5-0.1,1.3,0,1.4
		c0.1,0,0.2-0.1,0.3-0.3c0.3-0.4,0.3-1.1-0.1-1.5c-0.1-0.1-0.1-0.1-0.3-0.3C61,21.1,61,21,60.8,21z"/>
	<path class="st23" d="M58.6,19.1c0,0,0,0.2,0.1,0.4c0,0.1,0.2,0.3,0.4,0.5s0.3,0.2,0.7,0.5c0.3,0.2,0.4,0.3,0.4,0.3
		c0.1,0,0.1-0.2,0-0.3c-0.1-0.1-0.2-0.2-0.5-0.3c-0.5-0.2-0.5-0.2-0.6-0.3C58.8,19.6,58.6,19.1,58.6,19.1z"/>
	<path class="st16" d="M60.8,14.8c-0.2-0.2-1.1,0.1-1.8,0.7c-0.4,0.4-0.3,0.4-0.8,1.1c-0.8,0.9-1.2,1-1.7,1.8
		c-0.2,0.4-0.4,0.8-0.3,0.9c0.1,0,0.2-0.1,0.9-0.6c0.2-0.2,0.2-0.2,0.4-0.3c0.3-0.3,0.6-0.5,0.6-0.5c0.8-0.6,0.7-1.4,1.5-2
		c0.5-0.3,1-0.3,1.2-0.7C60.8,15.1,60.9,14.9,60.8,14.8z"/>
	<path class="st16" d="M61.1,14.8c0.3-0.4,1.2-0.1,1.5,0c1,0.2,1,0.7,1.9,1c1.1,0.4,1.5-0.1,2.6,0.4c0.2,0.1,0.9,0.4,0.8,0.7
		c0,0.2-0.3,0.3-0.6,0.3c-0.3,0-0.6-0.2-0.8-0.4c-0.7-0.4-1.1,0-2.2-0.3c-1.4-0.3-1.8-1.3-2.7-1.1c-0.2,0-0.5,0.2-0.7,0
		C60.9,15.3,60.9,15,61.1,14.8z"/>
	<path class="st16" d="M65.3,15.6c0-0.2,1-0.2,1.3-0.2c0.7,0,3.4,0.1,3.8,1.3c0.1,0.2,0.1,0.5-0.1,0.6s-0.6-0.6-1.4-1
		c-0.9-0.4-2-0.3-2-0.3c-0.3,0-0.7,0.1-1.2-0.1C65.5,15.9,65.2,15.7,65.3,15.6z"/>
	<path class="st16" d="M60.6,15.7c0.6-0.1,1,0.2,1.7,0.4c1.5,0.5,2.6,0.4,3.3,1.1c0.1,0.1,0.3,0.3,0.3,0.5c0.1,0.4,0,0.8-0.2,0.8
		c-0.1,0-0.2-0.2-0.3-0.3c-0.5-0.7-1.6-0.6-3.1-1.2c-1.1-0.4-1.2-0.8-1.8-0.8c-0.8,0-1.4,0.5-1.4,0.4c-0.1-0.1,0.2-0.4,0.4-0.6
		C59.9,15.9,60.3,15.8,60.6,15.7z"/>
	<path class="st16" d="M55.5,13.9c-0.1-0.6,0.7-1.1,1.1-1.4c0.3-0.2,1-0.6,1.2-0.4c0.2,0.2,0,0.6-0.1,0.6c-0.3,0.6-0.8,0.5-1.2,1
		c-0.3,0.4-0.2,0.7-0.4,0.8C55.9,14.6,55.5,14.3,55.5,13.9z"/>
	<path class="st16" d="M56.5,14.6c-0.1-0.7,1-1.7,1.5-1.5c0.1,0,0.2,0.1,0.2,0.2c0,0.2-0.4,0.2-0.7,0.5c0,0-0.2,0.3-0.5,0.7
		c-0.2,0.3-0.2,0.4-0.3,0.4C56.6,15,56.5,14.8,56.5,14.6z"/>
	<path class="st16" d="M54.1,14.6c0.1-0.1,0.8,0.2,1.2,0.7c0.2,0.2,0.3,0.4,0.4,0.7c0,0.2,0.1,0.3,0,0.4c-0.2,0.1-0.9-0.4-1.3-1.1
		C54.2,15.1,54,14.7,54.1,14.6z"/>
	<path class="st10" d="M66.7,17.4"/>
	<path class="st16" d="M65.4,16.6c-0.1,0.2,0.9,1.1,2.1,1.5c1.8,0.6,3.8,0.1,3.8-0.3c0-0.1-0.2-0.3-0.4-0.4
		c-0.4-0.2-0.7,0.1-1.2,0.2c-0.6,0.1-1.1,0-1.9-0.3c-0.6-0.2-0.9-0.5-1.8-0.7C65.6,16.6,65.4,16.5,65.4,16.6z"/>
	<path class="st24" d="M68.7,18.3c0.2,0.3,0.9,0,1.4-0.1c0.9-0.2,1.7-0.1,3.3,0.2c1.5,0.3,2.9,0.5,4.3,1.6c1.8,1.4,2.9,3.8,2.9,5.9
		c0,0.9-0.1,2,0.1,2s0.5-0.6,0.7-1.1c0.6-1.7-0.3-3.4-0.9-4.6c-0.7-1.3-1.3-2.6-2.9-3.6c-0.9-0.6-2.7-0.8-6.3-1.2
		c-0.8-0.1-2-0.2-2.5,0.4C68.7,17.9,68.6,18.2,68.7,18.3z"/>
	<path class="st24" d="M68.4,19.4c2.3-1.1,5.1,0.1,5.5,0.3c1.9,0.8,2.9,2.1,3.6,1.7c0.2-0.1,0.3-0.3,0.3-0.5c0-0.4-0.8-0.6-1.6-0.9
		c-1.6-0.6-1.4-0.8-2.6-1.2c-1.5-0.5-2.7-0.3-5.1,0c-0.8,0.1-1.6,0.3-1.9,0.8c-0.1,0.2-0.2,0.5,0,0.6C67,20.3,67.8,19.7,68.4,19.4z"
		/>
	<path class="st25" d="M76,19.2c-0.2,0.3,2.7,1.9,3.1,4.4c0.2,1.8-1,3.5-0.6,3.7c0.2,0.1,0.5-0.2,0.7-0.4c0.2-0.3,0.3-0.6,0.3-0.8
		c0.3-1.8,0.4-2.6,0.3-3.1c-0.4-2.1-2.2-3.2-2.7-3.5C77,19.6,76.1,19.1,76,19.2z"/>
	<path class="st26" d="M77.8,20.3c0.8,0.5,0.9,1.5,1.3,2.9c0.5,1.9,0.9,1.6,1.2,3c0.2,1,0.6,3-0.5,4c-1.3,1.1-3.9,0.3-3.9,0
		c0-0.2,0.5-0.4,1-0.4c0.4,0,0.6,0.3,0.9,0.3c0.6,0.1,1.1-0.7,1.3-0.8c1.5-2.1-2.6-8.5-1.8-9.1C77.4,20.1,77.6,20.2,77.8,20.3z"/>
	<path class="st27" d="M71.1,16.9c1.3,0.2,2.2,1.2,3.2,2.2c0.3,0.4,0.7,0.8,0.8,0.9c0.2,0.2,0.7,0.8,1.1,1.4
		c0.6,0.8,1.2,1.8,1.3,2.9c0.1,1.3-0.4,2.8-0.9,2.8c-0.4,0-0.8-0.8-0.6-1.2c0.1-0.2,0.5-0.1,0.7-0.4s0-0.7-0.1-0.9c-1-2-1.4-3-2-3.6
		c-1.5-1.7-2.9-3.2-4.8-3.2c-1.8,0-3.5,1.3-3.7,0.9c-0.1-0.1,0-0.2,0-0.3c0.5-1.1,2.3-1.3,3.3-1.5C70.2,16.9,70.6,16.8,71.1,16.9z"
		/>
	<path class="st24" d="M68.4,17"/>
	<path class="st24" d="M63.1,24.5c1.2,0.2,2,0.5,2.1,0.6c1.8,0.7,4.1,1.5,5.2,1.8c1.7,0.5,2.5,0.7,3.5,0.6c1.3-0.2,2.3-0.8,2.4-0.5
		c0.1,0.2-0.4,0.7-0.9,1s-1.9,1.2-6.2-0.1c-3.8-1.1-7-3.1-6.9-3.4C62.2,24.3,62.5,24.4,63.1,24.5z"/>
	<path class="st24" d="M64,23.4c0.4-0.2,0.9-0.1,1.6,0.1c1,0.3,1.7,0.6,2.1,0.8c2.1,0.9,1.9,0.9,2.2,1c0.3,0.1,1.5,0.4,2.9,0.2
		c0.5-0.1,0.9-0.2,1.4-0.5c0.9-0.6,1.1-1.4,1.4-1.3c0.2,0.1,0.4,0.6,0.3,0.9c0,0,0,0.2-0.1,0.4c-0.5,1-2.1,1.5-2.1,1.5
		c-1.8,0.5-3.5,0.1-4.8-0.3c-1.7-0.5-1.4-0.7-3.2-1.2c-1.5-0.4-2.5-0.5-2.6-0.9C63.1,23.8,63.7,23.5,64,23.4z"/>
	<path class="st24" d="M71.9,19.2c-0.4-0.1-1-0.2-1.1,0c-0.1,0.2,1,0.4,1.9,1.4c0.1,0.1,1.3,1.3,1.3,2.7c0,0.6-0.2,1.2-0.4,1.5
		l-0.1,0.1c-0.4,0.3-0.7,0.4-0.7,0.4s0.7,0.1,1.3-0.3c0.2-0.1,0.7-0.5,0.9-1.1c0.2-0.6-0.1-1.1-0.6-2c-0.7-1.4-1.4-1.9-1.6-2
		C72.5,19.5,72.2,19.3,71.9,19.2z"/>
	<path class="st26" d="M70.2,19.5c-1-0.1-1.1,0.5-2.6,0.8c-0.4,0.1-0.8,0.1-1.1,0.5c-0.2,0.2-0.4,0.6-0.3,0.7
		c0.1,0.2,0.9-0.2,1.9-0.6c1.3-0.4,2.3-0.8,3.3-0.3c1.2,0.6,1.5,2.1,1.6,2.3c0.1,0.4,0.2,0.8-0.1,1.2c-0.5,0.8-2.1,0.5-2.1,0.7
		c0,0.1,0.6,0.4,1.2,0.3c0.1,0,1.2-0.1,1.7-0.9c0.4-0.7,0-1.5-0.4-2.3c-0.2-0.5-0.8-1.6-2.1-2.1C71,19.6,70.6,19.5,70.2,19.5z"/>
	<path class="st28" d="M69,21.2c-0.5,0-0.8,0.2-1.4,0.4c-1,0.4-1.6,0.6-1.6,1c0,0.3,0.3,0.5,0.5,0.6c0.5,0.2,1-0.1,1.3,0.1
		c0.2,0.1,0.3,0.4,0.2,0.5c-0.3,0.4-3.2-0.6-3.1-1.4c0-0.4,0.7-0.7,2.2-1.2c1.1-0.4,1.9-0.6,2.7-0.6c0.7,0,1,0.1,1.2,0.3
		c0.2,0.1,0.4,0.4,0.8,0.9c0.5,0.6,0.6,0.8,0.6,0.9c0.1,0.5-0.1,1-0.2,1c-0.1,0-0.1-0.5-0.4-1c-0.4-0.9-1.3-1.3-1.3-1.3
		C69.9,21.1,69.3,21.1,69,21.2z"/>
	<path class="st29" d="M69.7,21.4c-0.6-0.3-1.6,0.2-1.5,0.4c0,0.1,0.5-0.1,1.1,0.1c0.3,0.1,0.6,0.3,0.9,0.6c0.7,0.5,1,0.8,1,1.1
		c-0.1,0.5-1.7,0.7-1.6,0.9c0,0.1,0.3,0.1,0.4,0.1c0.3,0,0.6,0,0.7-0.1c0.8-0.3,1.3-0.4,1.4-0.6c0.2-0.5-0.5-1.1-0.8-1.3
		c-0.3-0.3-0.5-0.3-1-0.7C69.9,21.5,69.9,21.5,69.7,21.4z"/>
	<path class="st28" d="M66.7,22.3c0,0.2,0.5,0.2,1,0.7c0.3,0.2,0.5,0.4,0.6,0.7c0.1,0.5-0.3,0.8-0.2,0.9c0.1,0.1,0.8-0.2,0.8-0.6
		c0.1-0.3-0.2-0.6-0.8-1.2c-0.7-0.8-1-0.9-1.1-0.8C66.9,22,66.7,22.2,66.7,22.3z"/>
	<path class="st28" d="M67.7,22c0,0,0.1,0.2,0.3,0.4c0.6,0.6,0.9,0.6,1.1,0.9c0.4,0.5,0.1,1.3,0.2,1.3c0.1,0,0.2-0.3,0.3-0.6
		c0-0.1,0.1-0.6-0.1-1C69.1,22,67.8,21.8,67.7,22z"/>
	<path class="st28" d="M70,22.6c-0.1,0,0.1,0.4,0,0.8c-0.1,0.6-0.5,0.8-0.5,0.9c0.1,0.1,0.6-0.1,0.9-0.5c0,0,0.2-0.4,0-0.8
		C70.3,22.7,70.1,22.5,70,22.6z"/>
	<path class="st29" d="M76.3,21.2c-0.1,0.1,0.5,0.7,0.9,1.6c0.3,0.6,0.8,1.8,0.4,3.2c0,0.1-0.4,1.5-1.7,2.2
		c-0.3,0.2-0.6,0.3-0.8,0.3c-1.1,0.4-1.9,0.1-2,0.2c-0.1,0.2,1,1,2.3,0.9c1.2-0.1,1.9-1.1,2.2-1.5c0.9-1,0.9-2.1,0.9-2.4
		s0-0.5-0.1-0.9c-0.2-1-0.4-2-1.1-2.9C76.9,21.5,76.4,21.2,76.3,21.2z"/>
	<path class="st24" d="M77,24.4L77,24.4c-1.6,1.6-2.2,2-2.2,2c-1.7,1-3.5,0.5-3.5,0.7c0,0.1,1.8,0.8,3.3,0.1
		C76,26.3,77,24.4,77,24.4z"/>
	<path class="st30" d="M62.4,18.5c0.2,0.3,0.9,1.2,0.9,2.1c0,1-0.8,1.2-1.7,3.3c-0.1,0.3-0.2,0.5-0.3,0.7c1.2-0.7,2-1.4,2.7-1.9
		c1.4-1.2,2.6-2.1,2.3-2.9c-0.1-0.3-0.4-0.6-0.7-0.8c-0.3-0.3-0.6-0.3-1-0.5c-0.7-0.4-0.7-0.5-1.2-0.8c-0.9-0.3-1.9-0.6-2-0.4
		C61.3,17.5,61.9,17.8,62.4,18.5z"/>
	<path class="st31" d="M65.2,10.2c-3.3-0.6-6-0.7-6-0.6c0,0.1,3.5,0.3,7.6,1.4c0.8,0.2,1.7,0.5,2.7,0.9c1.6,0.6,2.7,1.2,3.4,1.6
		c0.3,0.2,1.4,0.7,2.3,1.3c3.2,2.1,4.7,4.5,4.9,4.4c0.2-0.1-1.2-2.7-3.3-4.3c-0.3-0.2-0.9-0.7-1.6-1.1c-1.2-0.6-0.9-0.6-2.2-1.2
		c-0.4-0.2-0.9-0.4-2.3-0.9C68,10.7,65.7,10.3,65.2,10.2z"/>
	<path class="st31" d="M33.4,32.6c0.1-0.1,1.3,1.3,3.6,3.2c0.5,0.4,1.2,1,2.2,1.6c0.3,0.2,0.8,0.4,1.7,0.9c1.6,0.9,2.4,1.3,2.8,1.5
		c0.6,0.2,1.2,0.4,2.5,0.8c1.3,0.4,2.2,0.6,3.4,0.8c1.8,0.3,3,0.3,3,0.3s-3.5,0.4-7.5-0.8c-1.8-0.6-3.2-1.3-5.1-2.3
		c-2.6-1.4-3.6-2.3-3.9-2.5C34.4,34.4,33.3,32.7,33.4,32.6z"/>
	<path class="st31" d="M54.9,42c-0.3-0.1-0.7-0.1-1.1,0c-0.1,0-0.2,0.1-0.3,0.1c0,0.3,2.5,0.4,2.5,0.4c1-0.1,1.5-0.2,1.5-0.3
		C57.3,42.1,56.5,42,54.9,42z"/>
	<path class="st6" d="M82.6,32.3c-1.1,2.4-4.2,8-10.7,11.7c-1.6,0.9-5.8,3.3-11.7,3.4c-2.4,0.1-4.4-0.3-5.8-0.6
		c0.6,0.4,1.5,0.8,2.6,1.2c0.6,0.2,2.1,0.6,4.6,0.4c2.5-0.1,4.3-0.7,6.1-1.4c2.6-0.9,6-2.1,9.3-4.9c0.9-0.7,1.5-1.4,1.9-1.9
		c-1,2-2.7,4.5-5.4,6.6c-1.8,1.3-3.4,2.1-4.3,2.4c-2,0.9-3.9,1.3-5.2,1.5c-1.4,0.2-3.4,0.5-5.8,0.5c-2.1,0-5.3,0-9.3-1.1
		c-3.9-1.1-7-3-9.2-4.7c2.1,2.2,4.1,3.5,5.5,4.3c4,2.2,7.7,2.7,9.2,2.9c2,0.3,4.4,0.3,4.9,0.3c1.4,0,2,0,2.6,0
		c0.2,0,2.7-0.2,4.7-0.6c3.7-0.9,6.5-3.1,7.4-3.7C80.8,43.4,82.4,33.4,82.6,32.3z"/>
	<path class="st32" d="M44.9,28.6c0.4-0.6,1.2-0.2,3.1-0.6c0.9-0.2,1.4-0.4,1.8-0.1c0.4,0.3,0.3,0.7,0.7,0.9
		c0.4,0.2,0.7-0.3,1.6-0.4c0.3,0,0.2,0,0.8,0.1c0.9,0.1,1.3,0,1.3,0c0,0.2-2.1,0.3-3.5,1.7c-1.1,1-1.5,2.6-1.2,2.8
		c0.2,0.2,0.9-0.4,1-0.3c0.1,0.1-0.4,0.6-1.3,1.7c-0.7,0.9-0.7,1-1,1.3c-0.9,0.7-1.9,1-2,0.8s1.1-0.6,1.5-1.7
		c0.4-1.1-0.5-1.7-0.1-2.7c0.3-0.8,1.1-0.9,1.2-1.8c0-0.2,0.1-0.6-0.1-0.8c-0.8-0.7-4.3,2.2-4.6,2c-0.1-0.1,0.6-0.6,0.9-1.7
		C44.9,29,44.7,28.9,44.9,28.6z"/>
	<path class="st32" d="M54,29.9c0.2-0.1,0.5,0.1,1,0.5c0.3,0.2,0.4,0.3,0.5,0.4s0.1,0.3,0.1,0.8c-0.1,0.4-0.2,0.7-0.6,1.5
		c-0.3,0.6-0.3,0.5-0.5,0.8c-0.4,0.8-0.4,1.1-0.7,1.7c-0.4,0.7-0.6,1.1-0.9,1.5c-0.2,0.2-1.4,1.5-2.1,1.2c-0.4-0.1-0.3-0.5-0.8-1
		c-0.6-0.6-1.1-0.7-1.1-0.8c0-0.2,0.7-0.1,1.4-0.3c1-0.3,2.3-1.1,2.3-1.9c0-0.7-1-1-0.9-1.5c0.1-0.2,0.3-0.3,0.8-0.5
		c0.9-0.4,1-0.3,1.3-0.5C54.2,31.3,53.6,30.1,54,29.9z"/>
	<path class="st32" d="M56.7,34c0.5,0.7,0.6,0.6,0.8,1.1s0.1,0.7,0.4,2.4c0.1,0.7,0.1,1,0,1.2c-0.2,0.3-0.5,0.3-1.2,0.4
		c-2.3,0.3-2.4,0.3-2.8,0.3c-0.9-0.2-1.7-0.7-1.6-0.9c0.1-0.2,1.3,0.4,2.7-0.1c0.3-0.1,0.7-0.2,0.9-0.6c0.5-0.6,0.6-1.7,0.2-2.4
		c-0.4-0.6-1-0.7-1-1.2c0-0.3,0.2-0.3,0.4-0.8c0.4-0.9,0-1.7,0.1-1.7C55.6,31.6,55.9,32.8,56.7,34z"/>
	<path class="st32" d="M45.6,33.1c-0.1-0.9-0.2-1.6-0.4-1.6c-0.3,0-0.2,1.9-1.6,3.2c-0.9,0.9-1.9,0.9-1.9,1.4c0,0.2,0.2,0.3,1.9,1.2
		c1.3,0.7,1.7,1,2.4,0.8c0.4-0.1,0.8-0.3,0.8-0.4c0-0.2-1.3,0-1.6-0.5c-0.1-0.2,0.1-0.4,0.3-1.2c0.2-0.6,0.2-1.1,0.2-1.3
		C45.7,33.9,45.6,33.5,45.6,33.1z"/>
	<path class="st33" d="M44.6,28.2c-0.3,0-0.2,0.7-0.6,1.8c-0.3,0.8-0.7,1.4-0.9,1.9c-0.8,1.3-1.4,1.7-1.3,1.8
		c0.1,0.2,1.5-0.5,2.4-1.7c0.2-0.3,0.4-0.7,0.7-1.3c0.4-1,0.4-1.3,0.4-1.6C45.1,28.6,44.8,28.2,44.6,28.2z"/>
	<path class="st33" d="M53.3,28.2c0.1,0,0.2,0.1,0.5,0.2c0.2,0.1,0.5,0.2,0.8,0.4c0,0,0.5,0.3,0.8,0.9c0.6,0.9,0.3,4.3-2.1,6.3
		c-2.7,2.3-6.8,1.6-6.9,1.5c0-0.1,0.5-0.1,1.1-0.5c0.5-0.3,0.5-0.5,1-0.7c0.2-0.1,0.2,0,0.9-0.2c0.3-0.1,0.5-0.1,1-0.3
		c1.2-0.3,1.2-0.3,1.4-0.4c0.8-0.3,1.2-0.9,1.7-1.7c0,0,1-1.6,1-3.4c0,0,0-0.5-0.2-0.9c-0.1-0.2-0.2-0.3-0.3-0.4
		c0,0-0.1-0.1-0.2-0.2c-0.2-0.1-0.2-0.1-0.4-0.1c-0.2-0.1-0.1-0.1-0.4-0.2c-0.3-0.1-0.5-0.3-0.5-0.3l0,0
		C52.5,28.2,52.9,28.2,53.3,28.2z"/>
	<path class="st6" d="M53.5,46.3c0-0.2-1.6-0.3-4.4-1.3c-0.9-0.3-1.2-0.5-3-1.1c-1.5-0.5-1.5-0.5-2.1-0.8c-2.4-0.9-3.8-1.9-3.9-1.8
		c-0.1,0.1,1.3,1.2,3,2.2c0.3,0.2,1.6,1,3.6,1.7c1.3,0.5,2.2,0.9,3.5,1.1C51.9,46.6,53.5,46.5,53.5,46.3z"/>
	<path class="st34" d="M47,24.2c-0.1,0.1-0.1,0.2-0.2,0.5c-0.1,0.4-0.3,0.5-0.2,0.6c0.1,0.2,0.8,0,0.9-0.3c0-0.1,0-0.2,0-0.4
		c0.1-0.4,0.4-0.5,0.3-0.6C47.7,23.9,47.2,23.9,47,24.2z"/>
	<path class="st34" d="M48.1,24.1c0,0.1,0,0.2,0,0.4c0,0.3-0.2,0.5-0.2,0.5c0.1,0.1,0.4-0.1,0.5-0.2s0.5-0.3,0.4-0.4
		c0-0.1-0.2-0.1-0.3-0.2c-0.1-0.2,0.5-0.4,0.4-0.5c0-0.1-0.3,0-0.6,0.1C48.3,23.8,48.1,23.9,48.1,24.1z"/>
	<path class="st34" d="M45,15.2c-0.2,0.3,0,0.5,0,1.3c0,0.8,0.1,1.9-0.5,2.5S43,19.4,43,19.6s0.7,0.4,1.4,0.2
		c0.8-0.3,1.1-1.2,1.2-1.4c0.5-1.5-0.2-2.7,0.4-3.4c0.3-0.3,0.7-0.5,0.7-0.5c0.4-0.2,0.6-0.3,0.6-0.3C47.2,14.2,45.5,14.2,45,15.2z"
		/>
	<path class="st33" d="M52.7,27c0,0,1.1,0.4,2,1.2c0.2,0.2,0.7,0.7,0.7,0.7l0,0l-0.1,0.2c-0.1,0.2,0.3,0.5,0.4,0.7
		c0.4,0.6,0,1.2,0.3,1.3s0.9-0.4,0.9-1c0-0.3-0.2-0.6-0.7-1.2s-0.7-0.8-1.1-1.1c-0.3-0.2-0.3-0.1-1.1-0.4C53.2,27.2,52.7,27,52.7,27
		z"/>
	<path class="st35" d="M54.7,29.2c0,0,0.3,1,0.1,2.2c-0.1,0.5-0.2,0.8-0.3,1c-0.6,1.7-1.8,2.7-1.8,2.8c0.1,0,0.8-0.4,1.4-1.3
		c0.5-0.9,0.7-1.9,0.8-1.9s0.1,0.4,0.2,0.4c0.1,0,0.1-0.2,0.2-0.2c0.1,0,0,0.4,0,0.4c0.1,0,0.3-0.9,0.3-0.9s-0.2,0.2-0.3,0.2
		s-0.2-0.2-0.2-0.2s0,0,0-0.1S55,31.4,55,31.4c-0.1-0.2,0-0.9-0.1-1.5C54.8,29.4,54.7,29.2,54.7,29.2z"/>
	<path class="st35" d="M51.2,35.9C51.1,36,51.1,36,50.9,36c-0.3,0.1-0.4,0.2-0.4,0.2s0.4,0,0.5,0.1c0,0.1-0.5,0.4-0.5,0.5
		s0.7-0.2,0.7-0.1c0,0.1-1.3,0.7-1.3,0.8s0.8-0.1,1.6-0.4c0.8-0.4,1.3-0.8,1.2-0.9c0,0-0.8,0.5-0.8,0.3c-0.1-0.1,0.2-0.4,0.2-0.4
		s-0.3,0.2-0.3,0.1c0,0,0.4-0.4,0.3-0.5C51.9,35.5,51.3,35.8,51.2,35.9z"/>
	<path class="st33" d="M48.2,33.3c-0.4-0.1-0.8,0.4-1.4,0.9c-1,0.8-2,1.2-2.7,1.4c-1.5,0.5-2.4,0.4-2.5,0.7c0,0.3,0.9,0.6,1.4,0.8
		s0.8,0.3,1,0.3c1.3,0.1,1.5-1.3,3.7-2.5c0.5-0.3,1-0.5,1-0.9C48.8,33.8,48.6,33.4,48.2,33.3z"/>
	<path class="st21" d="M60.8,36.2c0,0.5-0.2,1.5-0.9,2.4c-1.2,1.6-3.2,1.8-3.5,1.8"/>
	<path class="st33" d="M58,32.8c0,0,0.8,0.3,1.1,1.1c0.3,0.6,0.1,1.3-0.1,2.5c-0.1,0.5-0.2,0.8-0.3,1c-0.3,0.7-0.7,1-0.7,1
		c0.1,0.1,0.8-0.3,1.3-1c0.3-0.5,0.3-0.9,0.4-1.3c0.1-0.5,0.1-1.2-0.2-1.9C59,33.2,58,32.8,58,32.8z"/>
	<path class="st33" d="M59.3,33.2c0,0,1.1,1.2,1,2.7c0,0.2-0.1,0.4-0.2,0.9c-0.2,0.7-0.4,1.3-0.8,1.9c-0.3,0.4-0.7,0.6-0.8,0.8
		c-1.2,0.8-2.6,0.8-2.6,0.7s0.2-0.2,0.7-0.4c0.6-0.2,0.7-0.2,1.1-0.4c0.3-0.1,0.6-0.3,1-0.6c0.3-0.3,0.5-0.6,0.7-0.8
		c0.2-0.3,0.4-0.7,0.6-1.1c0-0.1,0.2-0.6,0.1-1.4C59.9,34,59.3,33.2,59.3,33.2z"/>
	<path class="st36" d="M60.4,33.8c-0.1,0,0.3,1.4-0.1,3.1c-0.5,2.1-2.2,3.5-2.1,3.5c0,0,0.3-0.3,0.8-0.8c0.4-0.4,0.5-0.4,0.7-0.7
		s0.3-0.5,0.5-1.1c0.2-0.9,0.4-1.3,0.4-1.8C60.8,34.9,60.5,33.8,60.4,33.8z"/>
	<path class="st36" d="M60.7,34c-0.1,0,0.3,1.6,0.4,2.5c0,0.1,0,0.4,0,0.7c0,0,0,0.3-0.2,0.5c-0.4,0.8-2.3,2.7-2.3,2.8
		c0,0,0.5-0.2,1-0.7c0.5-0.4,0.5-0.6,1-1.3c0.5-0.5,0.5-0.5,0.7-0.7c0.2-0.4,0.2-0.8,0.1-1.6C61.1,35,60.7,34,60.7,34z"/>
	<path class="st36" d="M61.6,38.1c0,0-0.4,0.5-1,1.2c-0.8,0.7-1.4,1.1-1.4,1.1s0.8-0.3,1.5-1C61.3,38.8,61.6,38.1,61.6,38.1z"/>
	<path class="st36" d="M55.5,33.2c-0.1,0-0.5,1.4-1.2,2.5c-1.8,2.8-5.9,3.1-5.8,3.2c0,0,0.4,0,2.4-0.5c1-0.2,1.6-0.4,2.2-0.7
		c0.5-0.3,0.9-0.5,1.2-0.8c0.5-0.3,0.7-0.5,0.9-0.8c0.3-0.5,0.4-1,0.4-1.1c0-0.2,0-0.2,0-0.7C55.4,33.6,55.6,33.2,55.5,33.2z"/>
	<path class="st35" d="M49.2,26.5c-0.1,0-0.3,0.6-0.5,0.6c-0.1,0-0.1-0.2-0.2-0.2c-0.2-0.1-0.4,0.3-0.9,0.4c0,0-0.5,0.1-0.9-0.1
		c-0.3-0.2-0.4-0.4-0.4-0.4s0.1,0.4,0.4,0.5c0.4,0.2,0.8,0.2,0.9,0.1c0.4-0.1,0.6-0.4,0.8-0.3c0.1,0.1,0.1,0.3,0.2,0.4
		c0.1,0,0.2-0.3,0.3-0.3s0.1,0.4,0.3,0.4c0.1,0,0.2-0.3,0.4-0.3c0.1,0,0.1,0.2,0.2,0.2c0.2,0.1,0.5-0.4,0.6-0.4s-0.3,0.7-0.1,0.8
		c0.1,0,0.3-0.3,0.7-0.3c0.2,0,0.3,0,0.3,0.1c0.2,0.1,0.4,0.2,0.3,0.2c0,0-0.5-0.2-0.6-0.6c0-0.2,0-0.3,0-0.4
		c-0.1,0-0.3,0.4-0.4,0.4c-0.1,0,0.1-0.5,0-0.5c-0.2-0.1-0.6,0.5-0.8,0.4c-0.1-0.1,0-0.5-0.1-0.5s-0.4,0.6-0.5,0.5
		C49.2,27,49.3,26.5,49.2,26.5z"/>
	<path class="st33" d="M47.9,29.8c-0.9-0.5-2.4,0.8-2.3,1.2c0.1,0.3,0.9,0.1,1.2,0.5c0.5,0.7-0.8,2.2-0.6,2.3s1.1-0.6,1.7-1.5
		c0.6-0.9,0.6-1.4,0.6-1.5C48.4,30.7,48.4,30,47.9,29.8z"/>
	<path class="st37" d="M52.3,29.8c-0.3-0.1-1.1,0.5-1.2,1.2c-0.1,0.4,0.1,0.5-0.1,0.8c-0.3,0.6-1.3,0.5-1.3,0.8s1.2,0.4,1.3,0.9
		c0.2,0.7-1.6,1.5-1.5,1.7s1.4,0.1,2-0.7c0.3-0.5,0-0.8,0.3-1.7s0.6-1,0.7-1.8C52.6,30.9,52.7,29.9,52.3,29.8z"/>
	<path class="st38" d="M61.2,24.7c0,0-0.1,0.2-0.3,0.4c-0.2,0.3-0.3,0.4-0.3,0.5c0,0.3,0.4,0.6,0.6,0.7c1.4,0.9,5.9,2.8,7.1,3.4
		c1.4,0.6,1.8,1,3.1,1.4c0.9,0.3,1.3,0.3,2.3,0.7c0.8,0.3,1,0.5,1.7,0.7c0.2,0.1,0.9,0.2,1.8,0.2c0.9,0,1.3-0.3,1.4-0.3
		c0.1,0,0.7-0.4,0.6-0.7c-0.1-0.4-1.5,0.1-3.3-0.2c-0.4-0.1-1.5-0.5-3.8-1.3c-0.7-0.3-1.1-0.4-1.6-0.6c-1.3-0.5-1.4-0.6-2.7-1.1
		c-1.4-0.6-1.6-0.6-2.4-1c-0.8-0.4-1.4-0.7-1.7-1c-0.1-0.1-0.3-0.2-0.4-0.3C62.3,25.5,61.6,24.5,61.2,24.7z"/>
	<path class="st38" d="M65.1,28.5c0.8,0.1,0.5,0.1,3.1,0.5c1.4,0.2,2.1,0.3,2.6,0.4c2.8,0.3,5.5,0.2,5.5,0.2c0.7,0,1.3-0.1,1.3,0
		c0,0.2-1.6,0.6-2.5,0.8c-2.7,0.6-4.7,0.2-10.2-0.9c-4.5-0.8-7-1.2-7-1.7c0-0.3,0.8-0.5,1.3-0.6c0.2,0,0.5-0.1,0.9,0
		c0.3,0.1,0.4,0.2,0.9,0.4c0.1,0,0.3,0.1,0.7,0.2c0,0,0.3,0.1,0.8,0.3C63.3,28.3,64.4,28.4,65.1,28.5z"/>
	<path class="st38" d="M54.6,27.4c0,0,0.3,0.1,1,0.2c0.5,0.1,0.7,0.2,0.8,0.2c0.6,0.3,0.9,1,1,1.2c0.5,1,1.6,1.5,3.1,2.5
		c3,2.1,2.4,3.3,5,4.9c1.7,1,3.2,1.3,3.1,1.6c-0.1,0.3-1.1,0.3-2,0.1c-1.3-0.2-2.4-0.9-3.9-2.3c-1.8-1.8-1.8-2.3-3.4-4.1
		C56.9,29.3,54.4,27.6,54.6,27.4z"/>
	<path class="st38" d="M56.8,27.8c0.1-0.2,1.1,0,1.7,0.3c0.8,0.3,1.3,0.8,1.5,0.9c0.3,0.3,1.7,1.1,4.4,2.5c3.1,1.7,4.7,2.5,5.5,2.8
		c3.3,0.9,5.9,0.1,6,0.6c0.1,0.3-1,0.9-2,1.1c-0.7,0.1-1.1,0-3.2-0.5c-3.1-0.8-3.7-1-4.5-1.5c-0.7-0.4-1.2-0.7-1.6-1
		C60.3,29.9,56.6,28.2,56.8,27.8z"/>
	<path class="st38" d="M62,31.3c-0.1,0.1,1,1.3,2.4,2.4c0.8,0.7,1.7,1.4,2.9,1.9c0.1,0,0.6,0.3,1.3,0.5c0.8,0.2,1.7,0.5,2,0.1
		c0.2-0.2,0.1-0.8-0.2-1c-0.4-0.3-0.9,0-2.2-0.1c-0.1,0-0.1,0-0.2,0c-0.7-0.1-1.2-0.6-1.4-0.7c-0.6-0.5-0.7-0.3-2.1-1.2
		C62.9,32.1,62,31.2,62,31.3z"/>
	<path class="st39" d="M60.2,26.2c0.1-0.2,1.7,0.6,2.4,0.9c1.4,0.7,2.3,1.2,2.7,1.5c0.7,0.4,3.5,2,7,2.7c1.8,0.4,3.1,0.4,3.1,0.6
		c0,0.1-0.9,0.3-1.6,0.3c-1,0-1.8-0.3-2.1-0.4c-3.8-1.2-3.5-0.9-4.7-1.5c-2.2-1.1-1.7-1.6-3.3-2.1c-0.7-0.2-1.9-0.5-3-1.4
		C60.6,26.7,60.1,26.3,60.2,26.2z"/>
	<path class="st39" d="M61,31.2c-0.1,0.1,1,1.2,1.9,2.2c0.8,0.8,0.8,0.7,2.5,2.3c0,0,2.3,2.1,3.4,2.3c0.3,0,0.5,0,0.5,0
		c0.1,0,0.3-0.1,0.3-0.1c0.1-0.2-1.4-0.9-2.6-1.6c-0.6-0.4-1.4-1.1-3-2.4C62,32,61.1,31.1,61,31.2z"/>
	<path class="st38" d="M61,34.8c0.1-0.1,0.8,0.8,2.4,2.2c1.2,1.1,1.8,1.3,2.3,1.5c0.6,0.2,1.1,0.2,1.1,0.4s-1.2,0.7-2.2,0.3
		c-0.3-0.1-0.6-0.4-1.2-1.1c-0.7-0.7-1.1-1-1.4-1.5C61.4,35.9,60.9,34.9,61,34.8z"/>
	<path class="st38" d="M61.9,37.4c0.1,0,0.4,0.7,1.2,1.4c0.2,0.2,0.5,0.4,0.9,0.6c0.7,0.3,1.2,0.2,1.2,0.2c0,0.1-0.7,0-1.8,0.3
		C63,40,62.8,40.1,62.6,40c-0.1-0.2-0.1-0.5-0.3-1.1C62.1,37.9,61.9,37.4,61.9,37.4z"/>
	<path class="st38" d="M62.4,39.1c-0.1-0.1-0.3,0.1-1.1,0.5c-1.3,0.7-1.4,0.8-1.4,0.8c0.1,0.2,1.4,0.3,2.1-0.5
		C62.3,39.7,62.5,39.2,62.4,39.1z"/>
	<path class="st38" d="M72.5,29.1c-1.1-0.5-1.8-0.6-3.2-1c-2.7-0.7-3.9-1.2-3.9-1.2c-0.1,0.2,4.3,1.9,6.6,2.9
		c0.1,0.1,1.2,0.5,2.7,0.9c0.9,0.3,2.1,0.6,2.1,0.5s-1-0.4-2.7-1.2C73.2,29.5,73.2,29.4,72.5,29.1z"/>
	<path class="st38" d="M63.6,29.6c0.1-0.1,1.2,0.2,2.2,0.5c3.4,1.1,3.4,1.4,5.5,2c0.3,0.1,4.3,1.2,6.1,1c0.1,0,0.6-0.1,0.7,0.1
		c0.1,0.2-0.5,0.5-0.8,0.7c-1.1,0.5-2.5,0-3.6-0.5c-3.2-1.2-2.9-0.5-6-1.7C65.6,30.9,63.6,29.7,63.6,29.6z"/>
	<path class="st40" d="M68.2,32.2c-1.6-0.6-2.4-0.8-3.4-1.4c-0.7-0.4-1.4-0.9-2.6-1.4c-0.7-0.3-1.6-0.5-1.7-0.4
		c0,0.1,0.4,0.4,1.2,0.8c1.8,1,2.6,1.5,3,1.7c2.6,1.3,3.9,1.9,4.6,2.2c0.4,0.1,2,0.3,5.2,0.7c0.5,0.1,1.1,0.1,1.1,0.1
		c0-0.2-2.3-0.9-3.1-1.1C70,32.7,69.9,32.8,68.2,32.2z"/>
	<path class="st34" d="M44.8,21.3c0,0-0.4,0.2-1,0.8l0,0c-0.9,0.8-1.4,1.5-2,1.8c-1,0.5-2,0-2.1,0.2c0,0.1,0.6,0.4,1.3,0.4
		c0.8,0,1.3-0.3,1.6-0.5c0.4-0.3,0.7-0.6,1.1-1.1C44.3,22.2,44.9,21.4,44.8,21.3z"/>
	<path class="st34" d="M46.4,21.7c0.8-0.3,0.8-0.3,1.2-0.4c0.6-0.3,0.8-0.5,0.9-0.4c0.2,0.1,0.1,0.6-0.2,1c-0.3,0.3-0.7,0.4-1,0.5
		c-0.9,0.2-1.8-0.1-1.8-0.3C45.6,22,45.7,22,46.4,21.7z"/>
	<path class="st34" d="M36.8,20.7c-0.6,0.1-0.6,0.4-1.4,0.8c-0.6,0.3-0.8,0.2-0.9,0.5c-0.2,0.3,0,0.9,0.4,1c0.3,0.1,0.6,0,0.7-0.1
		c0.4-0.2,0.5-0.7,0.7-0.7s0.2,0.3,0.5,0.5c0.2,0.2,0.5,0.4,0.7,0.3s0.1-0.6,0.1-0.6c-0.1-0.5-0.5-0.7-0.5-0.8
		c0.1-0.1,0.5,0.2,0.8,0.1s0.4-0.6,0.3-0.8C37.9,20.6,37.2,20.6,36.8,20.7z"/>
	<path class="st34" d="M51.4,16.3c-0.4,0.1-0.8,0.8-0.7,0.9s0.4-0.1,0.7,0.1c0.3,0.1,0.4,0.4,0.5,0.5s0.1,0.2,0.2,0.5
		c0.2,0.7,0,1,0.2,1.1s0.5,0,0.7-0.2C53.5,18.4,52.2,16.2,51.4,16.3z"/>
	<path class="st34" d="M34,24.9c-0.4,0-0.7,0.3-0.7,0.5c0,0.3,0.5,0.4,0.9,0.6c2.2,0.9,3,1.4,3.1,1.3s-0.8-0.4-2-1.6
		C34.8,25.3,34.5,24.9,34,24.9z"/>
	<path class="st34" d="M38.3,28.1c0.1-0.2,0.8,0,1.2,0.3c0.3,0.3,0.6,0.7,0.5,0.8c-0.1,0.2-0.8-0.1-1.2-0.5
		C38.6,28.7,38.2,28.3,38.3,28.1z"/>
	<path class="st34" d="M34.3,27.9c0.4,0,0.6,0.6,0.7,0.8c0.2,0.5,0,0.8,0.3,1.3c0.1,0.3,0.2,0.6,0.5,0.7c0.4,0.1,0.7-0.4,1.4-0.4
		c0.5,0,0.9,0.2,0.9,0.4s-0.5,0.1-1.1,0.5c-0.5,0.3-0.5,0.6-0.8,0.7c-0.6,0.2-1.5-0.5-1.7-1.2c-0.1-0.4,0-0.4-0.2-0.9
		c-0.2-0.6-0.5-0.8-0.5-1.1C33.7,28.2,34,27.9,34.3,27.9z"/>
	<path class="st41" d="M35.8,27.7c-0.3,0.1-0.3,0.8-0.3,1.1c0,0.3,0,0.6,0.2,0.9c0.1,0.1,0.2,0.3,0.4,0.3c0.3,0.1,0.4-0.1,0.9-0.2
		s0.6,0,0.7-0.1C37.9,29.3,36.3,27.4,35.8,27.7z"/>
</g>
<g>
	<rect x="33.1" y="56.2" class="st42" width="49.3" height="24.4"/>
	<path class="st43" d="M36.6,64.2c0-0.2,0.1-0.3,0.4-0.3c0.1,0,0.2,0,0.3,0c0.4,0.2,1,0.3,1.7,0.3c0.7,0,1.4-0.1,2.1-0.2
		c0.7-0.1,2.1-0.4,4.1-0.9c0.1,0,0.1,0,0.2,0c0.4,0,0.6,0.1,0.6,0.4c0,0.3-0.2,0.5-0.7,0.6c-0.1,0-1.4,0.3-3.9,0.8
		c-1.2,0.3-2.1,0.4-2.7,0.4c-0.7,0-1.3-0.1-1.8-0.4L37,64.8C36.7,64.6,36.6,64.4,36.6,64.2z M44.7,67.1c0.7,0.6,1,1.4,1,2.2
		c0,0.2,0,0.5-0.1,0.8c-0.2,0.7-0.6,1.2-1.1,1.7s-1.3,0.7-2.1,0.7c-0.5,0-1-0.1-1.6-0.3c-0.6-0.2-1.2-0.6-1.7-1
		c-0.2-0.2-0.4-0.5-0.5-0.8c-0.1-0.3-0.2-0.6-0.2-0.9c0-0.8,0.3-1.4,0.9-2c0.7-0.7,1.9-1.1,3.4-1.2C43.4,66.2,44.1,66.5,44.7,67.1z
		 M40.2,67.9c-0.6,0.4-0.9,0.9-0.9,1.4c0,0.4,0.2,0.8,0.5,1.2c0.3,0.3,0.6,0.5,1,0.7c0.4,0.2,0.9,0.3,1.4,0.3c0.6,0,1.1-0.1,1.5-0.4
		s0.7-0.8,0.9-1.4c0-0.1,0-0.2,0-0.4c0-0.6-0.2-1.1-0.6-1.5c-0.4-0.4-0.9-0.6-1.6-0.7C41.6,67.2,40.8,67.5,40.2,67.9z M39.5,59
		c0-0.2,0.1-0.3,0.3-0.3c0.1,0,0.2,0,0.4,0.1c0.3,0.2,0.8,0.4,1.4,0.8c0.9,0.5,1.7,0.8,2.2,0.9c0.4,0.1,0.6,0.2,0.6,0.6
		c0,0.4-0.2,0.5-0.6,0.5c-0.5,0-1.1-0.2-1.9-0.7c-0.8-0.4-1.5-0.9-2.1-1.4C39.6,59.3,39.5,59.2,39.5,59z M40.9,75.3
		c0-0.2,0.1-0.3,0.4-0.3c0,0,0.1,0,0.1,0c0.1,0,0.1,0,0.2,0c0.6,0.2,0.9,0.5,1,0.6c0.1,0.4,0.1,1,0.3,1.5c0.1,0.6,0.3,0.9,0.7,1.1
		c0.1,0,0.5,0.1,1,0.1c0.6,0,1.3,0,2.1-0.1c0.8-0.1,1.4-0.2,1.8-0.3c0.2,0,0.4-0.1,0.6-0.1c0.4,0,0.6,0.2,0.6,0.5
		c0,0.3-0.2,0.5-0.6,0.6c-0.6,0.1-1.4,0.3-2.2,0.3c-0.8,0.1-1.7,0.1-2.6,0.1c-0.7,0-1.2-0.1-1.6-0.4c-0.3-0.3-0.6-0.7-0.7-1.3
		c-0.1-0.4-0.2-0.9-0.3-1.3c-0.1-0.2-0.3-0.4-0.6-0.7C41,75.6,40.9,75.4,40.9,75.3z M47.4,57.2c0-0.2,0.1-0.3,0.3-0.3
		c0.2,0,0.4,0.1,0.7,0.2c0.7,0.8,1.1,1.4,1.3,1.8c0.2,0.4,0.3,1.1,0.3,1.8c0,0.3,0,0.6,0,0.9c0,0.3,0,0.7,0,1c0,1.4,0,2.8,0,4.2
		c0,1.4,0,2.2,0,2.6l4.4-0.2c0.2,0,0.4,0,0.5,0.1c0.1,0.1,0.2,0.2,0.2,0.3c0,0.3-0.2,0.5-0.6,0.5h-0.3c-0.4,0-0.7,0-1,0
		c-0.3,0-0.6,0-0.9,0h-0.3h-0.3h-0.3H51h-0.4H50l0,2.4c-0.1,0.6-0.2,0.9-0.5,0.9c-0.2,0-0.3-0.2-0.4-0.6c0-0.4-0.1-2.3-0.2-5.9
		c0-1.3-0.1-2.9-0.1-4.7v-1.2c0-0.9-0.1-1.5-0.2-2c-0.1-0.4-0.5-0.9-1-1.5C47.5,57.5,47.4,57.4,47.4,57.2z"/>
	<path class="st43" d="M64.6,60.2c0-0.2,0.1-0.3,0.4-0.3c0.1,0,0.2,0,0.3,0.1c0.1,0,0.2,0.1,0.4,0.2c0.3,0.4,0.5,0.8,0.6,1
		c0.1,0.2,0.1,0.4,0.1,0.6c0,0.1-0.1,0.2-0.2,0.4c-0.2,0.2-0.3,0.3-0.4,0.4c-0.2,0.3-0.5,0.6-0.7,0.9c-0.2,0.3-0.4,0.5-0.5,0.6
		c0.8,0.3,1.5,0.6,1.8,0.9c0.5,0.4,1.2,1,1.9,2c0.1,0.2,0.1,0.3,0.1,0.4c0,0.3-0.1,0.4-0.4,0.4c-0.1,0-0.2,0-0.3-0.1
		c-0.6-0.7-1.2-1.3-1.8-2c-0.4-0.4-1.1-0.8-1.8-1.1c-1.3,1.5-2.5,2.7-3.6,3.4c-0.8,0.6-1.9,1-3.1,1.5c-0.3,0.1-0.6,0.1-0.8,0.1
		c-0.2,0-0.3,0-0.3-0.1c0-0.1,0.2-0.3,0.7-0.5c1.5-0.6,2.8-1.4,3.9-2.4c1.2-1.1,2.4-2.6,3.7-4.7c0.1-0.1,0.2-0.3,0.3-0.5
		c0.1-0.1,0.1-0.2,0.1-0.3c0-0.2-0.1-0.4-0.3-0.8C64.7,60.3,64.6,60.3,64.6,60.2z M63.8,72.3c0-0.2,0.2-0.3,0.6-0.3
		c0.3,0,0.5,0.1,0.7,0.1c0.2,0,0.6,0,1-0.1c1-0.1,1.5-0.2,1.6-0.2l3.4-0.3c0.7,0,1.3,0.1,1.7,0.4c0.4,0.2,0.6,0.7,0.6,1.3
		c0,0.2,0,0.4-0.1,0.7v0.3c0,0.4,0,0.7,0,1c0,0.3,0,0.6,0,0.9c0,0.6,0,1.1-0.1,1.5c-0.1,0.4-0.2,0.8-0.3,1.2
		c-0.2,0.4-0.4,0.5-0.5,0.5c-0.2,0-0.3-0.2-0.3-0.6c0.1-0.3,0.2-0.6,0.2-0.9c0-0.3,0-0.5,0-0.7c0-0.3,0-0.9-0.1-1.7
		c0-0.8-0.1-1.5-0.1-2c0-0.1,0-0.2,0-0.3c0-0.3-0.1-0.5-0.3-0.6c-0.2-0.1-0.5-0.2-0.9-0.2c-1.5,0-2.7,0.1-3.6,0.3
		c-1,0.2-1.7,0.4-2.3,0.6c-0.2,0-0.5-0.1-0.8-0.3l-0.2,0C63.9,72.5,63.8,72.4,63.8,72.3z M70.9,57.5c0-0.2,0.1-0.2,0.3-0.2
		c0.2,0,0.4,0.1,0.6,0.2c0.8,0.8,1.3,1.3,1.5,1.7s0.3,0.9,0.3,1.5c0,0.3,0,0.5,0,0.8c0,0.3,0,0.6,0,0.9c0,0.4,0,1.1,0,1.9
		c0,0.8,0,1.4,0,1.8c0,0.9,0,1.7-0.1,2.3c-0.1,0.6-0.2,1.1-0.3,1.5c-0.2,0.4-0.3,0.6-0.4,0.6c-0.1,0-0.2-0.2-0.2-0.7l0-7.6
		c0-0.3,0-0.5,0-0.7c0-0.2,0-0.4,0-0.5c0-0.5-0.1-0.9-0.2-1.2s-0.6-0.9-1.2-1.7C70.9,57.8,70.9,57.6,70.9,57.5z"/>
</g>
</svg>
