<?xml version="1.0" encoding="utf-8"?>
<!-- Generator: Adobe Illustrator 26.3.1, SVG Export Plug-In . SVG Version: 6.00 Build 0)  -->
<svg version="1.1" id="레이어_1" xmlns="http://www.w3.org/2000/svg" xmlns:xlink="http://www.w3.org/1999/xlink" x="0px"
	 y="0px" viewBox="0 0 113.4 85" style="enable-background:new 0 0 113.4 85;" xml:space="preserve">
<style type="text/css">
	.st0{display:none;}
	.st1{display:inline;fill:#F90303;}
	.st2{display:none;fill:#F90303;}
	.st3{fill:#848484;}
	.st4{fill:#DFE7EF;}
	.st5{fill:#FCF877;}
	.st6{display:inline;fill:#E2AB6F;}
	.st7{display:inline;fill:#F4E6D9;}
	.st8{display:inline;fill:#D3291C;}
	.st9{display:inline;fill:#F4F2DC;}
	.st10{display:inline;fill:#E2DCBC;}
	.st11{display:inline;fill:#D3CEBA;}
	.st12{display:inline;fill:#EF4343;}
	.st13{display:inline;fill:#A5211B;}
	.st14{display:inline;fill:#B72720;}
	.st15{display:inline;fill:#D89552;}
	.st16{display:inline;fill:#B7763B;}
	.st17{display:inline;fill:#B5211A;}
	.st18{display:inline;fill:#98BBD8;}
	.st19{display:inline;fill:#935624;}
	.st20{display:none;fill:#F9A5A5;}
	.st21{fill:#230E04;}
	.st22{fill:#492212;}
	.st23{fill:#280D04;}
	.st24{fill:#F93500;}
	.st25{fill:#EDC48A;}
	.st26{fill:#EF4822;}
	.st27{fill:#722A0A;}
	.st28{fill:#C11B00;}
	.st29{fill:#FFDA00;}
	.st30{fill:#A04420;}
	.st31{fill:#994625;}
	.st32{fill:#F2874C;}
	.st33{fill:#5B2009;}
	.st34{fill:#511E09;}
	.st35{fill:#EFE4B6;}
	.st36{fill:#FCE265;}
	.st37{fill:#073304;}
	.st38{fill:#FFB000;}
	.st39{fill:#E8E1DD;}
	.st40{fill:#ECF4CB;}
	.st41{fill:#D7DDB1;}
	.st42{fill:#FCE0C0;}
	.st43{fill:#F8FFCC;}
	.st44{fill:#EFD1B4;}
	.st45{fill:#F4D9C3;}
	.st46{fill:#960C02;}
	.st47{fill:#774701;}
	.st48{fill:#071E05;}
	.st49{fill:#117207;}
	.st50{fill:#BA6349;}
	.st51{fill:#58BA4D;}
	.st52{fill:#2B5626;}
	.st53{fill:#12590B;}
	.st54{fill:#F77B00;}
	.st55{fill:#F46800;}
	.st56{fill:#F46300;}
	.st57{fill:#9B3E1E;}
	.st58{fill:none;}
	.st59{stroke:#000000;stroke-miterlimit:10;}
</style>
<g id="레이어_2_00000098199513596845998940000003141797128322258333_">
</g>
<g id="레이어_1_00000025441762096741309610000016039404830869381532_">
	<g class="st0">
		<ellipse transform="matrix(0.1309 -0.9914 0.9914 0.1309 2.462 10.7354)" class="st1" cx="7.4" cy="4" rx="2" ry="2.5"/>
	</g>
	<circle class="st2" cx="6.7" cy="4" r="3"/>
	<g>
		<path class="st3" d="M3.3,83.8c0-1.5,1.3-2.8,2.8-2.8c1.6,0,2.8,1.2,2.8,2.8c0,0.1,0,0.1,0,0.2h2.6v-0.1c0-1.5,1.3-2.8,2.8-2.8
			s2.8,1.2,2.8,2.8V84h3.3v-0.1c0-1.5,1.3-2.8,2.8-2.8s2.8,1.2,2.8,2.8V84h3.3v-0.1c0-1.5,1.3-2.8,2.8-2.8c1.6,0,2.8,1.2,2.8,2.8V84
			h3.3v-0.1c0-1.5,1.3-2.8,2.8-2.8s2.8,1.2,2.8,2.8V84h3.3v-0.1c0-1.5,1.3-2.8,2.8-2.8c1.6,0,2.8,1.2,2.8,2.8V84H56v-0.1
			c0-1.5,1.3-2.8,2.8-2.8s2.8,1.2,2.8,2.8V84h3.3v-0.1c0-1.5,1.3-2.8,2.8-2.8s2.8,1.2,2.8,2.8V84h3.3v-0.1c0-1.5,1.3-2.8,2.8-2.8
			s2.8,1.2,2.8,2.8V84h3.3v-0.1c0-1.5,1.3-2.8,2.8-2.8s2.8,1.2,2.8,2.8V84h3.4v-0.1c0-1.5,1.3-2.8,2.8-2.8s2.8,1.2,2.8,2.8V84h3.3
			v-0.1c0-1.5,1.3-2.8,2.8-2.8c1.6,0,2.8,1.2,2.8,2.8V84h3.3v-0.1c0-1.5,1.3-2.8,2.8-2.8c0.1,0,0.2,0,0.3,0v-1.3
			c-1.5,0-2.8-1.3-2.8-2.8s1.2-2.7,2.8-2.8V72c-1.5,0-2.8-1.3-2.8-2.8s1.2-2.7,2.8-2.8v-2.3c-1.5,0-2.8-1.3-2.8-2.8s1.2-2.7,2.8-2.8
			v-2.3c-1.5,0-2.8-1.3-2.8-2.8s1.2-2.7,2.8-2.8v-2.3c-1.5,0-2.8-1.3-2.8-2.8s1.2-2.7,2.8-2.8v-2.3c-1.5,0-2.8-1.3-2.8-2.8
			s1.2-2.7,2.8-2.8v-2.3c-1.5,0-2.8-1.3-2.8-2.8s1.2-2.7,2.8-2.8v-2.3c-1.5,0-2.8-1.3-2.8-2.8s1.2-2.7,2.8-2.8v-2.3
			c-1.5,0-2.8-1.3-2.8-2.8s1.2-2.7,2.8-2.8V9.5c-1.5,0-2.8-1.3-2.8-2.8s1.2-2.7,2.8-2.8v-1c-0.5,0.5-1.2,0.8-1.9,0.8
			c-1.5,0-2.7-1.2-2.8-2.6h-3.3c-0.1,1.5-1.3,2.6-2.8,2.6S99.1,2.5,99,1.1h-3.3c-0.1,1.5-1.3,2.6-2.8,2.6s-2.7-1.2-2.8-2.6h-3.3
			c-0.1,1.5-1.3,2.6-2.8,2.6s-2.7-1.2-2.8-2.6h-3.3c-0.1,1.5-1.3,2.6-2.8,2.6s-2.7-1.2-2.8-2.6H69c-0.1,1.5-1.3,2.6-2.8,2.6
			s-2.7-1.2-2.8-2.6h-3.3c-0.1,1.5-1.3,2.6-2.8,2.6s-2.7-1.2-2.8-2.6h-3.3c-0.1,1.5-1.3,2.6-2.8,2.6s-2.7-1.2-2.8-2.6h-3.3
			c-0.1,1.5-1.3,2.6-2.8,2.6s-2.7-1.2-2.8-2.6h-3.3c-0.1,1.5-1.3,2.6-2.8,2.6s-2.7-1.2-2.8-2.6h-3.3c-0.1,1.5-1.3,2.6-2.8,2.6
			S19,2.5,18.9,1.1h-3.3c-0.1,1.5-1.3,2.6-2.8,2.6S10.1,2.5,10,1.1H7.3C7.2,2.5,6,3.6,4.5,3.6S1.8,2.5,1.7,1h-1v4.9c0,0,0,0,0.1,0
			c1.6,0,2.8,1.2,2.8,2.8c0,1.5-1.3,2.8-2.8,2.8c0,0,0,0-0.1,0v2.3c0,0,0,0,0.1,0c1.6,0,2.8,1.2,2.8,2.8c0,1.5-1.3,2.8-2.8,2.8
			c0,0,0,0-0.1,0v2.3c0,0,0,0,0.1,0c1.6,0,2.8,1.2,2.8,2.8c0,1.5-1.3,2.8-2.8,2.8c0,0,0,0-0.1,0v2.3c0,0,0,0,0.1,0
			c1.6,0,2.8,1.2,2.8,2.8c0,1.5-1.3,2.8-2.8,2.8c0,0,0,0-0.1,0v2.3c0,0,0,0,0.1,0c1.6,0,2.8,1.2,2.8,2.8c0,1.5-1.3,2.8-2.8,2.8
			c0,0,0,0-0.1,0V45c0,0,0,0,0.1,0c1.6,0,2.8,1.2,2.8,2.8c0,1.5-1.3,2.8-2.8,2.8c0,0,0,0-0.1,0v2.3c0,0,0,0,0.1,0
			c1.6,0,2.8,1.2,2.8,2.8c0,1.5-1.3,2.8-2.8,2.8c0,0,0,0-0.1,0v2.3c0,0,0,0,0.1,0c1.6,0,2.8,1.2,2.8,2.8c0,1.5-1.3,2.8-2.8,2.8
			c0,0,0,0-0.1,0v2.3c0,0,0,0,0.1,0c1.6,0,2.8,1.2,2.8,2.8c0,1.5-1.3,2.8-2.8,2.8c0,0,0,0-0.1,0v2.3c0,0,0,0,0.1,0
			c1.6,0,2.8,1.2,2.8,2.8c0,1.5-1.3,2.8-2.8,2.8c0,0,0,0-0.1,0V84h2.6C3.3,83.9,3.3,83.9,3.3,83.8z"/>
		<path class="st4" d="M3.3,83.4c0-1.5,1.3-2.8,2.8-2.8c1.6,0,2.8,1.2,2.8,2.8c0,0.1,0,0.1,0,0.2h2.6v-0.1c0-1.5,1.3-2.8,2.8-2.8
			s2.8,1.2,2.8,2.8v0.1h3.3v-0.1c0-1.5,1.3-2.8,2.8-2.8s2.8,1.2,2.8,2.8v0.1h3.3v-0.1c0-1.5,1.3-2.8,2.8-2.8c1.6,0,2.8,1.2,2.8,2.8
			v0.1h3.3v-0.1c0-1.5,1.3-2.8,2.8-2.8s2.8,1.2,2.8,2.8v0.1h3.3v-0.1c0-1.5,1.3-2.8,2.8-2.8c1.6,0,2.8,1.2,2.8,2.8v0.1H56v-0.1
			c0-1.5,1.3-2.8,2.8-2.8s2.8,1.2,2.8,2.8v0.1h3.3v-0.1c0-1.5,1.3-2.8,2.8-2.8s2.8,1.2,2.8,2.8v0.1h3.3v-0.1c0-1.5,1.3-2.8,2.8-2.8
			s2.8,1.2,2.8,2.8v0.1h3.3v-0.1c0-1.5,1.3-2.8,2.8-2.8s2.8,1.2,2.8,2.8v0.1h3.4v-0.1c0-1.5,1.3-2.8,2.8-2.8s2.8,1.2,2.8,2.8v0.1
			h3.3v-0.1c0-1.5,1.3-2.8,2.8-2.8c1.6,0,2.8,1.2,2.8,2.8v0.1h3.3v-0.1c0-1.5,1.3-2.8,2.8-2.8c0.1,0,0.2,0,0.3,0v-1.3
			c-1.5,0-2.8-1.3-2.8-2.8s1.2-2.7,2.8-2.8v-2.2c-1.5,0-2.8-1.3-2.8-2.8s1.2-2.7,2.8-2.8v-2.3c-1.5,0-2.8-1.3-2.8-2.8
			s1.2-2.7,2.8-2.8v-2.3c-1.5,0-2.8-1.3-2.8-2.8s1.2-2.7,2.8-2.8v-2.3c-1.5,0-2.8-1.3-2.8-2.8s1.2-2.7,2.8-2.8V40
			c-1.5,0-2.8-1.3-2.8-2.8s1.2-2.7,2.8-2.8v-2.3c-1.5,0-2.8-1.3-2.8-2.8s1.2-2.7,2.8-2.8v-2.3c-1.5,0-2.8-1.3-2.8-2.8
			s1.2-2.7,2.8-2.8v-2.3c-1.5,0-2.8-1.3-2.8-2.8s1.2-2.7,2.8-2.8V9.1c-1.5,0-2.8-1.3-2.8-2.8s1.2-2.7,2.8-2.8v-1
			c-0.5,0.5-1.2,0.8-1.9,0.8c-1.5,0-2.7-1.2-2.8-2.6h-3.3c-0.1,1.5-1.3,2.6-2.8,2.6S99.1,2.1,99,0.7h-3.3c-0.1,1.5-1.3,2.6-2.8,2.6
			s-2.7-1.2-2.8-2.6h-3.3c-0.1,1.5-1.3,2.6-2.8,2.6s-2.7-1.2-2.8-2.6h-3.3c-0.1,1.5-1.3,2.6-2.8,2.6s-2.7-1.2-2.8-2.6H69
			c-0.1,1.5-1.3,2.6-2.8,2.6s-2.7-1.2-2.8-2.6h-3.3c-0.1,1.5-1.3,2.6-2.8,2.6s-2.7-1.2-2.8-2.6h-3.3c-0.1,1.5-1.3,2.6-2.8,2.6
			s-2.7-1.2-2.8-2.6h-3.3c-0.1,1.5-1.3,2.6-2.8,2.6s-2.7-1.2-2.8-2.6h-3.3c-0.1,1.5-1.3,2.6-2.8,2.6s-2.7-1.2-2.8-2.6h-3.3
			c-0.1,1.5-1.3,2.6-2.8,2.6S19,2.1,18.9,0.7h-3.3c-0.1,1.5-1.3,2.6-2.8,2.6S10.1,2.1,10,0.7H7.3C7.2,2.1,6,3.2,4.5,3.2
			S1.8,2.1,1.7,0.6h-1v4.9c0,0,0,0,0.1,0c1.6,0,2.8,1.2,2.8,2.8c0,1.5-1.3,2.8-2.8,2.8c0,0,0,0-0.1,0v2.3c0,0,0,0,0.1,0
			c1.6,0,2.8,1.2,2.8,2.8c0,1.5-1.3,2.8-2.8,2.8c0,0,0,0-0.1,0v2.3c0,0,0,0,0.1,0c1.6,0,2.8,1.2,2.8,2.8c0,1.5-1.3,2.8-2.8,2.8
			c0,0,0,0-0.1,0v2.3c0,0,0,0,0.1,0c1.6,0,2.8,1.2,2.8,2.8c0,1.5-1.3,2.8-2.8,2.8c0,0,0,0-0.1,0v2.3c0,0,0,0,0.1,0
			c1.6,0,2.8,1.2,2.8,2.8c0,1.5-1.3,2.8-2.8,2.8c0,0,0,0-0.1,0v1.9c0,0,0,0,0.1,0c1.6,0,2.8,1.2,2.8,2.8c0,1.5-1.3,2.8-2.8,2.8
			c0,0,0,0-0.1,0v2.3c0,0,0,0,0.1,0c1.6,0,2.8,1.2,2.8,2.8c0,1.5-1.3,2.8-2.8,2.8c0,0,0,0-0.1,0v2.3c0,0,0,0,0.1,0
			c1.6,0,2.8,1.2,2.8,2.8c0,1.5-1.3,2.8-2.8,2.8c0,0,0,0-0.1,0v2.3c0,0,0,0,0.1,0c1.6,0,2.8,1.2,2.8,2.8c0,1.5-1.3,2.8-2.8,2.8
			c0,0,0,0-0.1,0v2.3c0,0,0,0,0.1,0c1.6,0,2.8,1.2,2.8,2.8c0,1.5-1.3,2.8-2.8,2.8c0,0,0,0-0.1,0v1.8h2.6C3.3,83.5,3.3,83.5,3.3,83.4
			z"/>
		<rect x="7.4" y="8.1" class="st5" width="99.5" height="48.2"/>
		<g class="st0">
			<path class="st6" d="M34.3,34.6c-0.2,0.4,0.1,0.4,0.1,3.7c0,2.5-0.2,2.8,0,3.7c0.1,0.6,0.4,1.5,2.3,3.8c1.6,1.9,2.5,3,3.9,4.1
				c2.8,2.1,5.7,2.7,9.4,3.4c1.4,0.3,3.2,0.6,5.6,0.6c3.1,0,5.4-0.5,8.7-1.2c2.6-0.6,3.9-0.8,5.5-1.6c2.5-1.1,4.4-2.4,5.6-3.4
				c0.3-0.3,0.8-0.7,1.2-1.2c0.8-1.1,1-2.2,1.2-3.6c0.5-3.4,0.7-5.1,0.1-5.8C76.6,35.6,73.8,37,73,37C60.6,36,36.1,30.3,34.3,34.6z"
				/>
			<path class="st7" d="M38.2,29.1c-1.3,0.3-3.5,1-4,2.5c-0.6,2,1.9,4.3,2.3,4.7c3.4,3.2,6.5,1.8,9.5,5.1c1.1,1.2,0.9,1.6,2.1,2.7
				c2.3,2.1,5,2.5,5.9,2.7c1.1,0.2,4.2,0.5,13.9-4.8c8.1-4.4,8.4-5.9,8.3-6.6c-0.2-1.4-2-2.3-3.2-2.8C60.6,27,46.6,27.1,38.2,29.1z"
				/>
			<path class="st8" d="M74,29.8c-1.3,0.5-3.5,1.4-3.6,3c-0.1,1.8,1.7,3.1,3.2,3.4c2,0.4,3.6-1,3.8-1.2c0.4-0.4,1.2-1.1,1.2-2.3
				c0.1-1.5-0.9-2.9-2.3-3.3C75.6,29.2,74.9,29.5,74,29.8z"/>
			<path class="st8" d="M68.7,34.5c-1.9,0.8-1.7,3.2-4.4,4.4c-1.2,0.5-1.9,0.3-2,0.8c-0.3,0.9,2.4,3.5,5.5,3.5c2.1,0,3.6-1.2,4.7-2
				c1.3-1,2.9-2.3,2.7-3.7C75,35.4,71,33.4,68.7,34.5z"/>
			<path class="st8" d="M34.4,26c-1.3,0.2-2.8,1.2-3,2.5c-0.1,0.7,0.1,1.5,0.5,2.6c0.3,0.8,0.4,1.2,0.7,1.5c0.9,1,2.7,1.4,4.2,0.9
				c1.4-0.5,2.5-1.9,2.6-3.4C39.5,27.6,36.7,25.7,34.4,26z"/>
			<path class="st6" d="M34.3,23.3c-0.8,3.3,1.2,6.3,2,7.5c0,0,0.1,0.2,0.3,0.4c1.9,2.4,9,6.3,19.9,6.2c0,0,8.1-0.1,15.6-3.7
				c0.8-0.4,2.3-1.2,3.5-2.8c0.4-0.5,2.2-2.9,1.7-5.4c-0.4-1.9-1.8-3.2-3.5-4.3c-4.5-3-10.2-4.1-17.1-4.8
				c-11.5-1.1-14.6,0.2-16.1,0.9C38.7,18.1,35.1,19.8,34.3,23.3z"/>
			<path class="st8" d="M53.6,37.6c-1.4,0-4.4-0.1-5.3,1.7c-0.8,1.6,0.5,3.8,1.6,4.9c2,2,4.9,1.7,6.8,1.6c1.6-0.1,3.2-0.3,3.9-1.5
				c0.9-1.6-0.4-3.7-0.5-3.9C58.4,37.7,54.7,37.6,53.6,37.6z"/>
			<path class="st9" d="M43.4,16.1c-3.3,1.3-7.2,2.7-7.7,5.5c-0.7,4,5.7,8.2,6.9,9c1.3,0.8,3.2,0.6,4.6,2.2c0.7,0.7,1.1,1.6,2,1.6
				c0.7,0,0.8-0.6,1.7-1c0.7-0.3,1.2-0.2,4.4,0.2c2.1,0.3,2,0.3,2.3,0.4c2.2,0.2,3.9,0,4.3,0c3.4-0.4,5.8-1.8,7.2-2.6
				c1.8-1.1,3-2.1,3.8-2.8c2.3-2.1,3.6-3.1,3.6-4.1c0.2-4.4-11.1-9.3-20.7-10.1C53.6,14.3,48.8,14.1,43.4,16.1z"/>
			<path class="st10" d="M47.6,11.5c0.3,4.3-0.2,5.3-0.7,5.5c-0.7,0.2-1.3-1.2-3.1-2c-1.3-0.5-2.7-0.4-3.6-0.2
				c-0.9,0.4-3.1,1.3-3.8,3.4c-1.2,3.2,1.9,6.7,3.3,8.2c3.8,4.3,9,5.4,11.5,5.8c2.7-1.3,5.4-0.7,7.5,1c3.6,2.1,14.7-5.7,16.4-9.6
				c0.3-0.6,1.1-2,0.9-3.9c-0.1-0.8-0.2-2.3-1.4-3.1c-1.2-0.9-3.1-0.7-4.7,0.4c0.4-0.4,1.1-1.2,1.1-2.3c-0.1-1.4-1.4-2.3-2.6-3.1
				c-0.9-0.6-1.3-0.9-1.9-0.9c-1.2-0.1-1.8,0.8-3.5,1.8c-0.7,0.4-1.8,1-3.2,1.5c-0.2,0-0.8,0.1-1.4-0.3c-0.5-0.3-0.9-0.7-0.9-1
				C55.6,10.3,50.7,9.1,47.6,11.5z"/>
			<path class="st9" d="M69.9,17c-0.3,0.1-0.2,0.9-0.3,1.6c-0.4,3-4,3.6-5.7,6.9c-1.2,2.3-1.2,5.2-0.5,5.5c0.6,0.3,1.5-1.4,5.4-5.1
				c1-0.9,1.8-1.9,3.6-3.7c1.1-1.2,1.8-2,1.7-3C74,18,73,17,72.6,17.2c-0.3,0.1,0.1,1.1-0.3,2.4c-0.4,1.1-1.1,1.7-1.6,2
				c-3.1,2.7-4.8,6.1-5.3,5.8c-0.3-0.2,0.1-1.9,1.1-3.2c0.5-0.7,0.8-0.8,2.6-2.4c1.9-1.7,2.1-2.1,2.2-2.6
				C71.4,18.1,70.3,16.9,69.9,17z"/>
			<path class="st9" d="M74.5,21c-0.3,0.8-0.8,1.7-1.5,2.7c-0.3,0.5-1.1,1.6-2.4,2.7c-1.1,1-2.2,1.7-3.1,2.2"/>
			<path class="st9" d="M62.3,29.8c0.1-0.3-3.3-2.1-6.8-3.4c-4-1.5-6.5-1.9-7.3-3.8c-0.1-0.4-0.5-1.4-1.4-1.9
				c-0.5-0.3-1.2-0.4-1.4-0.1s0.3,0.8,0.7,1.3c1.9,2.3,3.1,3.8,5.8,5.1c0.7,0.3,1.4,0.6,2.8,1C57.6,28.9,62.2,30.2,62.3,29.8z"/>
			<path class="st9" d="M45,21.9c0.6,0.3,1,0.7,1.2,0.8c1.6,1.4,1.7,2.8,3,4c0.8,0.7,1.6,1.1,2.6,1.6c3.2,1.4,4.5,0.7,7.8,2
				c0.5,0.2,1.2,0.6,2.3,0.8c1.6,0.3,2.5,0.1,2.6,0.3c0.1,0.3-2.2,1.4-4.5,1.1c-1.5-0.2-2.2-0.9-3.5-1.7c-4.6-2.8-6.3-0.9-9.6-3.5
				c-1.2-0.9-1.5-1.6-2.4-2.5c-0.5-0.5-1-0.9-1.5-1.3c-1-0.8-1.4-1-1.4-1.4c0.1-0.5,1-0.7,1.6-0.8C43.8,21.3,44.5,21.6,45,21.9z"/>
			<path class="st9" d="M54.5,31c0-0.4-4.3,0.2-8-2.6c-3-2.2-4-3.7-4-3.7c-0.3-0.4-0.7-0.9-1.1-1.6c-0.5-0.7-0.5-0.8-0.7-0.9
				c-1-0.9-3.7-0.3-3.9,0.5c-0.1,0.7,1.5,1.1,4.2,3c3.5,2.5,3.3,3.8,5.6,4.8C50.5,32.3,54.5,31.4,54.5,31z"/>
			<path class="st9" d="M58.9,15.4c-0.1-0.5,1.1-1.2,1.9-1.8c1.8-1.1,2.4-1,3.9-2.1c0.8-0.6,0.8-0.8,1.2-0.9
				c1.3-0.1,3.6,3.3,2.6,5.7c-0.8,1.9-3.5,2.6-3.6,2.3c-0.2-0.2,1.8-1.1,2.3-3c0.5-2-0.8-4-0.9-3.9c-0.2,0,0.8,1.9,0.1,3.9
				c-0.5,1.3-1.7,2.9-3,2.8c-0.8,0-1.6-0.6-1.6-1.2s1.3-0.7,2.2-1.9c1-1.2,1.1-2.9,0.9-3c-0.3-0.1-0.7,2.1-2.6,3
				C60.8,16,59.1,15.8,58.9,15.4z"/>
			<path class="st9" d="M45.2,16.5c-1.4-0.8-5-2-5-1.7c-0.1,0.4,8.7,3.3,6.1,6c-1.4-0.4-9.9-9.1-4.4-1.8c1.2,1.2,2.3,1.5,2.3,1.8
				c-0.1,0.4-1.4,0.7-2.3,0.2c-1.4-0.7-2.7-6.3-2.8-5.7c-0.3,0.6-0.6,1.6-0.5,2.8c0,1.5,0.4,2.7,0.7,3.3c-0.7,0.3-1.1,0.2-1.3,0.1
				c-1-0.5-1.3-2.6-0.4-5.3c-0.2,0-0.9,1.3-0.9,2.8c0.1,1.6,0,2-0.1,2c-0.2,0-1.1-2-0.5-3.7c0.2-0.5,0.4-0.6,1.6-2.3
				c0.3-0.5,0.6-0.9,0.8-1.2C44.6,15.8,47.6,16.7,45.2,16.5z"/>
			<path class="st9" d="M50,9.5c-1.3,1-2.6,2-4,3"/>
			<path class="st9" d="M49.7,17.5c2.8,1.1,4.3,1.6,4.7,1.6c3,0.3,6.8-1,7.1-2.9c0.2-1.1-0.8-2-2.4-3.5C57,10.7,55,8.8,52.2,9
				c-0.2,0-3.6,0.4-5.1,3.1c-0.2,0.3-1.2,2.2-0.4,3.6C47,16.4,47.5,16.6,49.7,17.5z"/>
			<path class="st8" d="M49.2,23.5c-0.6-1.1-0.7-2.1-0.8-2.8c-0.3-3.4,1.5-5.9,3.4-8.4c0.9-1.2,1.6-1.8,2.5-2
				c1.1-0.2,2.1,0.4,2.3,0.5c0.7,0.5,0.8,0.9,1.5,1.8c1.2,1.5,1.7,1.3,2.9,2.7c0.8,1,1.3,1.9,1.6,2.8c0.6,1.4,1.1,2.4,0.9,3.6
				c-0.3,2.4-2.5,3.9-2.9,4.1C57.2,28.1,51.3,27,49.2,23.5z"/>
			<path class="st9" d="M49.7,24.9c0-1,1.1-2,2.2-2.3c1-0.2,1.3,0.4,2.2,0.1c1.2-0.4,1.2-2,2.1-2c0.4,0,0.6,0.4,1.2,0.4
				c0.5,0,0.6-0.3,1-0.2c0.7,0,0.8,0.8,1.6,1.4s1.4,0.1,2.8,0.6c1,0.4,2.2,0.9,2.3,1.6c0.2,1.3-2.9,2.7-3.3,2.9
				c-0.3,0.1-1.1,0.5-2.3,0.7c-2.3,0.4-4.2,0-4.8-0.2C53.9,27.8,49.7,26.7,49.7,24.9z"/>
			<path class="st10" d="M56.8,21.3c-0.6-0.1-0.7,2.8-2.8,4.3c-0.7,0.5-1.4,0.7-1.4,1.1c0,0.6,1.4,1.1,2,1.2c0.5,0.2,2.6,0.8,3.1,0
				c0.2-0.3,0-0.5-0.1-1.5c-0.2-1.7,0.1-2.1-0.2-3.6C57.3,22.1,57.1,21.3,56.8,21.3z"/>
			<path class="st11" d="M56.8,21.7c0.4-0.3,1.2,0.8,4.3,2.8c1,0.6,1.6,1,1.6,1.5c0,0.2-0.1,0.5-1.9,1.2c-1.7,0.7-2.6,1.1-3,0.7
				c-0.4-0.3-0.1-1-0.1-2.3C57.6,23.3,56.4,22,56.8,21.7z"/>
			<path class="st12" d="M53.7,11c0.2,0,0.2,0.4,0.5,0.8c0.2,0.3,0.6,0.5,0.8,0.6c-0.2,0.3-0.3,0.9-0.2,1.6c0,0.1,0,0.2,0.1,0.3
				c0,0.1-0.2,0.3-0.2,0.3c-0.6,0.5-0.7,0.7-0.6,0.8c0.1,0.1,0.4-0.1,0.8,0c0.1,0,0.1,0.1,0.7,0.7c0.3,0.3,0.6,0.5,0.7,0.9
				c0,0.1,0,0.1,0,0.1c0.1,0.4-0.1,0.8-0.2,1c-0.5,1-1.7,1.1-1.6,1.5c0,0.2,0.2,0.2,0.3,0.4c0.1,0.3,0,0.6-0.2,0.9
				c-0.4,0.7-0.9,1.1-1.1,1.2c-0.8,0.5-2.1,0.8-2.4,0.4c-0.3-0.3,0.3-0.8,0.1-1.4c-0.3-0.8-1.4-0.8-1.6-1.6c-0.1-0.5,0.1-1,0.2-1.2
				c0.2-0.6,0.6-0.7,0.5-1.1c0-0.4-0.3-0.4-0.4-0.7c-0.1-0.3,0.1-0.4,0.6-1.4c0.2-0.4,0.2-0.5,0.4-0.9c0.1-0.2,0.2-0.4,0.4-0.6
				c0.3-0.3,0.5-0.3,0.7-0.5s0.2-0.3,0.6-0.8C53.2,11.4,53.5,11,53.7,11z"/>
			<path class="st8" d="M52.3,13.2c-0.3,0-0.7,0.5-0.6,1c0.1,0.2,0.4,0.4,0.6,0.3c0.2-0.1,0.3-0.5,0.3-0.6
				C52.6,13.6,52.5,13.2,52.3,13.2z"/>
			<path class="st8" d="M53.8,13.5c-0.1,0-0.1,0-0.4,0.5c-0.1,0.2-0.1,0.2-0.2,0.2c-0.1,0.3,0.1,0.8,0.3,0.8s0.3-0.1,0.4-0.2
				c0.1-0.1,0.3-0.3,0.3-0.5S54.1,14,54,13.9C54,13.6,53.9,13.5,53.8,13.5z"/>
			<path class="st8" d="M52.9,14.7c-0.2,0-0.4,0.3-0.4,0.6s0.1,0.6,0.3,0.7c0.1,0,0.2-0.1,0.3-0.2c0.2-0.2,0.3-0.3,0.3-0.4
				c0-0.1,0-0.1-0.3-0.4C52.9,14.7,52.9,14.7,52.9,14.7z"/>
			<path class="st8" d="M51.5,14.3c-0.2,0-0.4,0.2-0.5,0.5c-0.1,0.2-0.1,0.6,0.1,0.7c0.2,0.1,0.5-0.1,0.6-0.3
				C51.9,14.8,51.7,14.3,51.5,14.3z"/>
			<path class="st8" d="M54.4,15.6c-0.2,0-0.5,0.2-0.5,0.5c0,0.1-0.1,0.2,0,0.4c0,0.1,0.1,0.3,0.3,0.3c0.2,0.1,0.3-0.1,0.4-0.1
				c0,0,0.3-0.2,0.3-0.5c0-0.1,0-0.1-0.1-0.2C54.5,15.7,54.5,15.6,54.4,15.6z"/>
			<path class="st8" d="M51.9,15.6c-0.2-0.1-0.4,0.2-0.5,0.4c0,0.1,0,0.2,0,0.4c0,0.2,0,0.3,0.1,0.3s0.1,0,0.4-0.2
				c0.2-0.2,0.3-0.2,0.3-0.2c0-0.1,0-0.2-0.1-0.4C52.1,15.7,52,15.6,51.9,15.6z"/>
			<path class="st8" d="M53.1,16.2c-0.1,0-0.1,0.1-0.4,0.3c-0.3,0.2-0.3,0.2-0.3,0.3c0,0.1,0.1,0.1,0.2,0.4c0.1,0.2,0.1,0.2,0.1,0.3
				c0.1,0,0.2,0,0.3-0.1c0.2-0.1,0.3-0.2,0.3-0.3c0,0,0-0.1,0-0.4C53.3,16.4,53.2,16.3,53.1,16.2z"/>
			<path class="st8" d="M50.7,15.6c-0.2,0-0.4,0.3-0.4,0.5c0,0.3,0.1,0.6,0.3,0.6c0,0,0,0,0.2-0.1c0.3-0.2,0.3-0.2,0.3-0.3
				s0-0.2-0.1-0.4C50.9,15.7,50.8,15.6,50.7,15.6z"/>
			<path class="st8" d="M53,12.7c-0.3,0.5-0.3,1.2-0.1,1.2c0.2,0.1,0.5-0.4,0.6-0.8c0.1-0.3,0.1-0.7-0.1-0.8
				C53.3,12.3,53.1,12.5,53,12.7z"/>
			<path class="st8" d="M51.1,17c-0.2,0-0.3,0.3-0.4,0.5c0,0.2,0,0.6,0.1,0.6c0.2,0.1,0.5-0.2,0.6-0.5C51.4,17.3,51.3,17,51.1,17z"
				/>
			<path class="st8" d="M52.1,17.5c-0.2,0-0.5,0.3-0.5,0.6c0,0.3,0.1,0.7,0.3,0.7s0.4-0.2,0.5-0.5C52.5,18,52.3,17.6,52.1,17.5z"/>
			<path class="st8" d="M53.8,17.3c0,0-0.1,0-0.3,0.3c-0.3,0.3-0.3,0.4-0.3,0.4c0,0.1,0,0.1,0.1,0.3c0.1,0.2,0.1,0.3,0.1,0.3
				s0.1,0,0.3-0.1c0.2-0.2,0.4-0.3,0.4-0.4s0-0.2-0.1-0.5C53.9,17.5,53.9,17.3,53.8,17.3z"/>
			<path class="st8" d="M55.1,17.2c0,0-0.1,0-0.3,0.2c-0.3,0.2-0.3,0.2-0.3,0.3c0,0.1,0,0.1,0.1,0.4s0,0.5,0.1,0.5s0.1,0,0.3-0.1
				s0.4-0.2,0.4-0.4c0-0.1,0-0.1-0.1-0.4C55.1,17.4,55.2,17.2,55.1,17.2z"/>
			<path class="st8" d="M52.7,18.4c-0.1,0-0.1,0.1-0.3,0.5c-0.1,0.2-0.1,0.3-0.1,0.4s0,0.2,0.1,0.3c0,0,0.1,0.2,0.3,0.2
				c0.1,0,0.2-0.1,0.4-0.3c0.2-0.2,0.3-0.3,0.3-0.4s0-0.1-0.3-0.4C52.8,18.4,52.8,18.4,52.7,18.4z"/>
			<path class="st8" d="M53.7,19.4c-0.1,0-0.1,0.1-0.3,0.3c-0.2,0.2-0.2,0.2-0.3,0.3c0,0.1,0.1,0.2,0.2,0.4c0.1,0.3,0.1,0.4,0.2,0.5
				c0.1,0,0.2-0.1,0.5-0.2c0.3-0.2,0.4-0.3,0.4-0.4s-0.1-0.2-0.2-0.4C54,19.6,53.8,19.4,53.7,19.4z"/>
			<path class="st13" d="M55.1,10.7c-0.1,0.2,1,0.8,1.1,2.1c0.1,1.1-0.6,1.7-0.2,2.2c0.3,0.4,0.8,0,1.4,0.4c0.7,0.5,0.3,1.2,0.9,2
				c0.6,0.7,1.3,0.5,1.6,1.2c0.1,0.1,0.3,0.6,0.1,1c-0.3,0.7-1.1,0.7-1.3,1.2c-0.1,0.6,0.8,1.6,1.9,1.8c0.5,0.1,0.8-0.1,1.6,0.1
				c0.7,0.2,0.8,0.4,0.9,0.3c0.6-0.3,0.3-3.6-1.5-6c-0.9-1.2-1.3-1.1-2.5-2.7c-0.7-0.9-1-1.5-1.9-2.4C56.2,11.1,55.2,10.5,55.1,10.7
				z"/>
			<path class="st13" d="M57.7,20.3"/>
			<path class="st8" d="M43.1,36c-0.5-0.9-1.2-0.7-3.2-1.9c-1.4-0.9-1.6-1.3-2.3-1.2c-1,0.1-1.9,1.2-2.2,2c-0.9,2.3,0.3,5.8,3,7.2
				c3.5,1.8,7.8-0.8,7.8-1.8c0-0.6-1.7-0.5-2.5-1.9C43.1,37.4,43.6,36.9,43.1,36z"/>
			<path class="st13" d="M52.1,38.4c0,0.3,1.9,0,3.2,1.2c1.3,1.3,0.6,3.1,1.6,3.6c0.9,0.5,2.7-0.4,3-1.5c0.4-1.4-1.7-2.9-3-3.4
				C54.6,37.4,52.1,38.1,52.1,38.4z"/>
			<path class="st13" d="M76,31.6"/>
			<path class="st14" d="M75.9,31.2c-0.6-0.2-1,0.9-2.8,2c-1.5,1-2.8,1.2-2.7,1.5c0,0.2,0.7,0.1,1.9,0.3c2,0.3,2.5,0.8,3.1,0.5
				c0.7-0.4,0.9-1.5,0.9-2C76.4,32.9,76.4,31.5,75.9,31.2z"/>
			<path class="st15" d="M65.1,43.8c-0.9,0.9-1.8,1-3.3,1.4c-2.4,0.7-4.7,1.7-4.6,2c0.1,0.3,2.1-0.3,2.4,0.3
				c0.3,0.7-1.5,2.9-3.9,3.6c-2.7,0.8-5.1-0.7-5.5,0c-0.2,0.4,0.3,1.1,0.9,1.6c1.1,0.9,2.6,0.9,7.3,0.2c2.4-0.3,3.6-0.5,4.1-0.6
				c4.6-1,10.6-2.3,13.4-6.7c0.1-0.2,0.8-1.3,1.2-2.9c0.7-2.8,0.4-6.1-0.5-6.3c-0.8-0.2-1.1,2.3-4,4.7c-1.4,1.1-2.5,2.1-3.9,1.9
				c-0.8-0.1-1.6-0.5-2.4-0.1C65.7,43.1,65.5,43.4,65.1,43.8z"/>
			<path class="st15" d="M76.7,24.2c-1-0.4-2,3.6-6.6,6.6c-1.7,1.1-5.7,3.7-9.6,3.4c-0.4,0-1.7-0.2-3.3,0.4c-1.2,0.5-2.6,1.5-2.4,2
				c0.3,0.8,4.3,0.2,5.8-0.1c3.9-0.6,6.5-1.6,10.5-3.2c3.1-1.2,3.7-1.7,4.3-2.4C77.6,28.5,77.6,24.5,76.7,24.2z"/>
			<path class="st16" d="M66.8,46.7c-1,0.3-2.1,0.7-3.1,0.9c-0.8,0.2-1.5,0.3-2.1,0.9c-0.5,0.5-0.6,0.9-0.8,1.3c-1,2-3,2.4-2.9,2.7
				c0.2,0.6,6.1-0.8,12.4-3.4c2.2-0.9,3.2-1.4,4.2-2.5c2.6-2.8,2.9-7.3,2-7.7c-0.4-0.2-0.9,0.6-3.7,3.2
				C69.9,44.9,68.4,46.2,66.8,46.7z"/>
			<path class="st17" d="M37.6,32.9c-0.1,0.1,2.6,1.4,2.6,3.2c0,1.1-0.9,1.3-1,2.5c-0.1,1.3,1,2.6,2.2,3.2c2.5,1.2,5.6-0.9,5.4-1.6
				c-0.1-0.5-1.8,0-2.8-1.2c-0.8-1-0.1-1.8-0.9-3c-0.5-0.7-0.9-0.5-2.8-1.6C38.8,33.6,37.7,32.8,37.6,32.9z"/>
			<path class="st15" d="M45.8,42.6c-0.9-0.2-1,0.4-2.6,0.7c-2.4,0.4-3.6-0.5-4.2,0.2c-0.3,0.4,0,0.7,0,2.7c0,1.4-0.2,1.4-0.1,1.9
				c0.6,1.8,4.3,2,4.7,2c1,0.1,2.2-0.2,4.6-0.7c3.8-0.8,4.1-1.1,4.1-1.3c0.1-0.6-1.4-0.7-3.3-2.3C47.1,44.2,47.1,42.9,45.8,42.6z"/>
			<path class="st7" d="M45.1,41.6c-1.5,0.4-2.9,0.7-2.9,1.1c0,0.3,1.5,0,2.4,1c0.4,0.5,0.3,0.8,0.8,1.1c0.6,0.3,1.6,0.3,2.1-0.4
				c0.6-0.7,0.4-1.5,0.3-1.6c-0.2-1-1.2-1.3-1.3-1.3C46.1,41.4,45.8,41.4,45.1,41.6z"/>
			<path class="st7" d="M66.6,43.2c-0.4,0.2-0.6,0.9-0.4,1.2c0.3,0.5,1.6,0.2,1.7-0.2C68,43.8,67.2,42.9,66.6,43.2z"/>
			<path class="st7" d="M54.4,20.2"/>
			<path class="st18" d="M72.8,48.3c-7.1,4.2-14.5,5.1-14.5,5.1c-9.3,1.1-16.7-3.2-16.7-3c-0.1,0.2,6.5,3.7,15.8,4.5
				c6.3,0.6,11.2-0.3,16.1-1.2c1.1-0.2,3.8-0.7,7-2.1c2.2-1,6.9-3,6.7-4.9C87,45,83,44,81.8,43.7c-1.8-0.4-2.7-0.6-3.7-0.2
				c-1.6,0.7-1.7,2.3-4.2,4.1C73.5,47.9,73.2,48.1,72.8,48.3z"/>
			<path class="st19" d="M76.6,44.2c0.1-0.3,0.2-1,0.1-1.1C76.5,43,76.2,44,75,45.3c-0.8,0.9-1.9,2-4.1,3c-1,0.5-1.6,0.7-3.8,1.6
				c-2.3,0.9-3.4,1.4-3.8,1.6c-2.1,0.8-9.6,3.2-17.3,0.8c-4.9-1.6-8.1-4.5-8.2-4.3c-0.1,0.1,1.8,1.6,3.8,2.8c0.7,0.4,2,1.2,3.7,1.8
				c3.4,1.2,6.4,1.3,8.5,1.2c0.9,0,2.8-0.1,5.1-0.5c0.9-0.2,3-0.5,6.8-2C71,49.2,75.6,48.3,76.6,44.2z"/>
			<path class="st9" d="M68.5,17.6c-0.1-0.1-0.3,0.1-1.6,1.6c-1.2,1.3-1.5,1.6-1.6,2.1c-0.3,0.8-0.3,1.8-0.1,1.9
				c0.2,0.1,0.4-0.2,1.7-2c0.8-1,0.9-1.2,1.2-1.6C68.5,18.8,68.8,17.8,68.5,17.6z"/>
			<path class="st13" d="M70.2,35c-1.2-1-4.1,2.9-8.1,2.7c-1-0.1-2.1-0.4-2.5,0.2c-0.3,0.5,0.1,1.3,0.2,1.6
				c1.3,2.5,6.4,4.9,10.8,3.2c2.9-1.1,5.1-3.9,4.7-4.6c-0.1-0.2-0.4-0.2-0.9-0.4c-1.1-0.3-1.4,0-2.1-0.2s-1.1-0.7-1.3-0.9
				C70.3,35.7,70.5,35.3,70.2,35z"/>
			<path class="st7" d="M38.9,43.1c-0.2,0.3-0.2,0.7,0,0.9c0.4,0.4,1.8-0.4,1.8-0.8C40.7,42.9,39.4,42.5,38.9,43.1z"/>
		</g>
	</g>
</g>
<rect x="7" y="6.5" class="st20" width="99.5" height="48.2"/>
<g id="레이어_2_00000006674808769445155670000007893565635627495824_">
	<path class="st21" d="M84.1,29.1c-0.2,1.8-0.6,4.4-1.3,7.4c-0.5,2.2-1,4.2-1.8,6C77.8,50,69.6,53.1,68.6,53.4
		c-3.7,1.3-6.7,1.3-11.1,1.2c-4.5-0.1-7.6-0.1-11.3-1.6c-6.7-2.7-10.3-7.9-11.5-9.9c-1.4-2.3-2.2-4.5-2.8-6.4
		c-1.2-3.3-1.7-6.2-2.1-8.3C34.2,3.3,81,5.6,84.1,29.1z"/>
	<ellipse class="st22" cx="57" cy="27.3" rx="27.2" ry="16.8"/>
	<path class="st23" d="M82.7,27.5c-0.2,8-14.2,14.9-25.9,14.7C45.3,42,31.4,35,31.4,27s13.8-15.2,25.4-15.2
		C68.8,11.7,82.9,19.4,82.7,27.5z"/>
	<path class="st24" d="M54.2,27.2c0.2-0.4,0.9-1.5,4.8-1.9c6.3-0.7,8.1,1.8,18.2,3.9c1.9,0.4,3.6,0.7,3.9,1.7c0.5,1.7-3,4.3-4.4,5.4
		c-2.2,1.6-4.1,2.4-5.8,3.1c-0.5,0.2-2.6,1.1-5.6,1.8c-3.4,0.8-5.1,1.3-6.1,0.8c-1.9-1-1-3.2-3.2-8.7C54.7,29.7,53.5,28.5,54.2,27.2
		z"/>
	<path class="st25" d="M59,24.1c-0.2-1.6,2-3.1,2.6-3.5c2.3-1.6,4.8-1.5,9.7-1.4c2.5,0.1,3.7,0.1,4.7,0.5c2.7,1.1,5.2,3.9,5.5,7.3
		c0.1,1.1,0.4,4.1-1.3,5.3c-2.2,1.5-4.8-1.6-13.9-4.7C61.9,26.2,59.2,25.7,59,24.1z"/>
	<path class="st26" d="M51.5,16.1c1-1.7,4.4-1.4,7.8-1.1c1.1,0.1,4.2,0.4,8.4,1.9c2.7,0.9,5.5,2.2,5.4,2.7s-2.9-0.6-5.6,0.9
		c-1.2,0.6-2.1,1.6-2.4,1.9c-1.2,1.3-1.7,2.4-3.2,3.1c-0.5,0.2-0.8,0.4-1.2,0.3c-1.1-0.1-1.3-1.2-2.6-2.1c-1.1-0.8-1.6-0.5-2.4-0.8
		c-0.1,0-0.3-0.1-0.7-0.4c-1.4-0.9-3.2-2.2-3.6-4.3C51.3,17.5,51.2,16.8,51.5,16.1z"/>
	<path class="st27" d="M51.6,17c-0.2-0.1-0.7-0.2-1.3-0.7c-0.4-0.3-0.5-0.5-0.8-0.8c-0.6-0.4-1.1-0.5-1.6-0.6
		c-2.4-0.4-4.5,1.4-4.9,2c-0.6,0.8-0.3,1.1-0.9,2c-0.9,1.5-1.9,1.4-4,2.8c0,0-2.8,2-4.3,4.9c-0.3,0.6-0.5,1.1-0.6,1.7
		c0,0.1-0.2,1.2,0.1,2.4c0.5,2.3,2.5,3.6,3.8,4.5c1.7,1.1,2.5,1.7,3.4,1.6c3.2-0.3,3.1-6.8,7.7-8.5c0.3-0.1,2.9-0.3,4.6-0.7
		c0.2,0,0.6-0.1,1.1-0.4c0.1-0.1,0.9-0.6,1.2-1.3c0.4-0.9,0-1.8-0.2-2.5C53.9,19.8,52.9,17.5,51.6,17z"/>
	<path class="st28" d="M62.2,17.4c-0.6,0.1-1,0.2-1.6,0.5c-0.3,0.1-1.2,0.5-2.9,1.9c-1.3,1-1.9,1.5-1.8,1.9c0.1,0.5,1.4,0.1,2.9,1
		c1.3,0.8,2,2,1.9,2.5c0,0.1,0,0.2,0,0.5c0,0.2,0.1,0.5,0.3,0.6c0.5,0.4,2.2-1.6,4.1-2.8c0.2-0.1,0.5-0.3,0.9-0.8
		c0.1-0.1,0.5-0.6,0.7-1.1c0.3-1.1-0.4-2.4-1.2-3.1C64.2,17.2,62.5,17.4,62.2,17.4z"/>
	<path class="st29" d="M54.6,22c-0.4,0.1-1.9,0.7-2.8,2.2c-0.3,0.5-1,1.8-0.5,3c0.8,1.9,4.2,1.9,4.7,1.9c0.8,0,4.1-0.1,4.8-2.1
		c0.6-1.8-1-4-2.8-4.8C56.5,21.5,55.2,21.9,54.6,22z"/>
	<path class="st30" d="M45.3,15.7c-0.9,0.4-1.3,0.5-1.6,0.9c-0.5,1,0.8,2,0.4,3.1c-0.4,0.9-1.7,0.9-1.6,1.3c0,0.5,1.5,1.1,2.5,0.6
		s1.4-2.1,1.3-3.3c-0.1-0.8-0.4-1.1-0.1-1.5c0.4-0.7,2-0.8,2.6-0.1c0.6,0.7,0,2.2-0.5,3c-0.6,0.9-1.3,1.1-1.2,1.5s1.1,0.6,1.8,0.2
		s0.8-1.2,1-2.4c0.2-1.4,0.3-2.2-0.2-2.9c-0.6-0.9-1.8-1-2.1-1C46.6,15.1,46,15.4,45.3,15.7z"/>
	<path class="st30" d="M49.4,13.5"/>
	<path class="st31" d="M51.1,19.7c0.3,0.2,0.5,0.7,0.3,1c-0.3,0.6-1.2,0.3-1.5,0.9c-0.2,0.4,0,0.9,0.3,1c0.5,0.2,0.9-1.3,2.1-1.4
		c0.6-0.1,1,0.3,1.2,0.1c0-0.5,0-1.3-0.4-2.2c-0.6-1.4-1.7-2.1-2.1-2.4c-0.9,0.1-1.5,2.7-0.9,3.1C50.3,19.9,50.7,19.5,51.1,19.7z"/>
	<path class="st31" d="M43.8,17.9c-0.3-0.4-1.2-0.2-2.5,0.2c-0.9,0.2-1.7,0.5-1.9,1.1c-0.1,0.4,0.1,0.6,0,0.9
		c-0.3,0.7-1.8,0.5-1.9,0.9c-0.1,0.4,1.3,0.8,2.4,2.3c0.6,0.7,0.6,1.1,1,1.2c1,0.3,2.6-1.6,2.3-2.1c-0.2-0.3-0.9,0-1.3-0.5
		c-0.2-0.2-0.3-0.5-0.2-0.8c0.1-0.5,0.7-0.5,1.3-0.9C43.7,19.5,44.1,18.3,43.8,17.9z"/>
	<path class="st31" d="M48.9,22c-0.4-0.3-0.9,0.5-2.1,0.5c-1.1,0-1.5-0.6-2.3-0.3c-0.3,0.1-0.4,0.3-1.1,1.2c-1,1.2-1.6,1.8-2.1,1.9
		c-0.8,0.1-1.1-0.7-1.9-0.6c-0.5,0.1-1,0.5-1,0.8c0,0.7,1.7,1.7,3.2,1.4c1.7-0.3,1.6-2,3.5-2.5c1.6-0.5,2.7,0.5,3.6-0.3
		C49.3,23.5,49.3,22.3,48.9,22z"/>
	<path class="st31" d="M38.1,22.1c-0.8-0.3-1.6,0-2,0.2c-0.9,0.4-2,1.2-2,2.1c0,0.1,0,0.5-0.2,0.9c-0.1,0.2-0.2,0.3-0.3,0.4
		c-0.2,0.2-0.3,0.2-0.4,0.2c-0.4,0.2-0.5,1.2-0.1,1.8c0.4,0.7,1.2,0.6,2.4,0.9c2.8,0.8,4.1,3,4.7,2.6c0.2-0.1,0.2-0.4,0.2-0.5
		c0-0.7-1.1-0.9-2.2-1.8c-0.2-0.1-1.9-1.6-1.6-2.6c0.2-0.8,1.5-0.8,1.6-1.6c0-0.4-0.2-0.5-0.1-0.8c0.2-0.5,1-0.3,1.1-0.6
		C39.4,22.9,38.8,22.3,38.1,22.1z"/>
	<path class="st31" d="M38,26.2c-0.3,0.1-0.1,0.8-0.1,0.9c0.1,0.6,0.5,1,0.7,1.2c1.5,1.5,2.3,2.2,2.6,2.1c0.5-0.2,0-1.4,0.7-2
		c0.4-0.3,0.7-0.1,1.5-0.4c0.9-0.3,2-1,2-1.8c0-0.1,0-0.4-0.2-0.5c-0.3-0.2-0.9,0.2-2.8,1.3c-0.6,0.4-0.9,0.5-1.3,0.5
		c-0.5-0.1-0.7-0.5-1.2-0.4c-0.4,0.1-0.5,0.4-0.7,0.3s-0.1-0.4-0.4-0.8C38.8,26.4,38.3,26.1,38,26.2z"/>
	<path class="st31" d="M33.4,28.5c-0.5,0-0.7,0.1-0.7,0.1c-0.5,0.5,0.3,2.1,0.4,2.4c0.8,1.6,2.5,3.6,3.6,3.2
		c0.7-0.2,0.5-1.2,1.5-1.6c0.5-0.2,0.8,0,1.4-0.1c1.6-0.1,2.8-1.2,2.8-1.3c-0.1-0.1-2.2,1.5-3.5,0.7c-0.6-0.2-0.4-0.6-1.4-1.7
		c-0.4-0.4-1-1-2-1.5C34.7,28.4,34,28.5,33.4,28.5z"/>
	<path class="st31" d="M49.5,24c-0.3,0.2-1.1,0.7-2.2,0.8c-0.9,0-1.2-0.3-1.5,0c-0.4,0.4,0.2,1.1,0,2.2c-0.1,0.3-0.1,0.4-1.7,2.3
		c-0.7,0.9-0.9,1.1-1.1,1.5c-0.3,0.7-0.8,1.8-0.5,2.1c0.3,0.2,1.1-0.3,1.2-0.4c1-0.7,0.8-1.4,1.6-2.4c0.6-0.6,0.6-0.2,2.6-1.6
		c0.8-0.5,1.1-0.8,1.7-0.9c0.8-0.1,1.3,0.4,1.5,0.1c0.3-0.3-0.9-1.4-0.6-2.4c0.1-0.5,0.5-0.4,1-1.2c0.6-0.8,1-1.8,0.7-2
		C52,22,51.6,22.3,51,22.7C50.1,23.3,50.1,23.6,49.5,24z"/>
	<path class="st31" d="M38.9,33.2c-0.6,0.1-1.2,0.5-1.4,1.1c-0.1,0.5,0.1,0.9,0.1,1c0.4,0.7,1.3,0.9,1.9,0.9c0.6,0,1-0.3,1.3-0.5
		c0.4-0.3,1.2-0.8,1.3-1.7c0-0.6-0.2-1.2-0.6-1.3c-0.4-0.1-0.6,0.6-1.3,0.8C39.7,33.5,39.5,33.1,38.9,33.2z"/>
	<path class="st32" d="M54.2,14.6c-1.3,0-2.8,0.9-2.8,1.9c0,0.2,0,0.3,0.6,1.2c1,1.5,1.5,2.3,1.9,2.2c0.3-0.1,0.5-0.5,0.5-0.8
		c-0.1-0.3-0.4-0.5-0.7-0.7c-0.4-0.3-0.5-0.2-0.8-0.4c-0.1-0.1-0.3-0.3-0.5-0.6c-0.2-0.6,0.1-1.2,0.1-1.2c0.6-1.1,2.6-1,2.6-1.2
		C55.1,14.7,54.7,14.6,54.2,14.6z"/>
	<path class="st33" d="M46.2,17.6c-0.1,0.1,0,0.3,0.1,0.8c0.2,0.8,0,1.2,0.2,1.3c0.1,0.1,0.2,0,0.9-0.2s0.8-0.2,1-0.3
		c0.2-0.2,0.4-0.6,0.3-0.9c-0.1-0.2-0.3-0.2-1.2-0.5S46.3,17.4,46.2,17.6z"/>
	<path class="st27" d="M41.2,19.5c-0.5,0.1-0.5,0.6-1,0.8c-0.6,0.3-1.1,0-1.2,0.1c0,0.1,1,0.2,1.7,1c0.3,0.3,0.4,0.7,0.5,0.7
		c0.2,0-0.3-1.1,0.3-1.8c0.2-0.3,0.5-0.4,0.5-0.5C42,19.6,41.5,19.4,41.2,19.5z"/>
	<path class="st34" d="M43,17.6c0,0.1,0.5,0.1,0.7,0.4c0.4,0.7-1.5,2.5-1.4,2.6c0,0,0.1,0,0.3-0.2c0.4-0.2,0.5-0.3,0.7-0.4
		c0.6-0.3,0.7-1,0.7-1c0.1,0-0.2,0.9-0.1,1c0.1,0,0.6-0.4,0.6-1c0-0.1-0.1-0.3-0.2-0.6c-0.1-0.4-0.2-0.6-0.3-0.7
		C43.6,17.5,43,17.6,43,17.6z"/>
	<path class="st35" d="M53.7,23.1c-0.2,0-0.4,0.5-0.4,0.8c0,0.2,0,0.6,0.2,0.7s0.6,0,0.7-0.1c0.1-0.2-0.4-0.3-0.4-0.7
		c0-0.2,0.2-0.3,0.1-0.5C53.9,23.2,53.8,23.1,53.7,23.1z"/>
	<path class="st35" d="M54.8,22.5c-0.2-0.1-0.5,0.1-0.5,0.4c0,0.2,0.2,0.3,0.4,0.4c0.2,0,0.5-0.2,0.4-0.4
		C55.1,22.7,55,22.6,54.8,22.5z"/>
	<path class="st36" d="M54.7,24.9"/>
	<path class="st37" d="M41.8,35.3c2.9-2.6,3.3-4.1,3-5c-0.1-0.5-0.5-1-0.3-1.6c0.1-0.3,0.4-0.4,1.8-0.8c1.5-0.4,2.3-0.6,3-0.5
		s1.3,0.2,2,0.5c1.3,0.6,2.3,1,3,1.2c0.4,0.1,0.6,0.2,0.8,0.3c0.9,0.4,1.9,2.4,1.9,2.4c0.5,1,0.8,1.5,1,1.8c0.9,1.1,1.8,0.6,2.7,1.7
		c0.4,0.5,0.6,1.1,0.7,1.5c0.2,0.6,0.2,1.1,0.3,1.4c0.1,0.6,0.2,1.1,0.3,1.4c0.1,0.4,0.2,0.7,0.1,0.9c-0.1,0.2-0.4,0.3-0.7,0.4
		c-0.8,0.3-1.1,0.6-1.6,0.9c-0.8,0.6-1.9,0.4-3.6,0.2c-2.7-0.3-4.1-0.4-5.1-0.7c-5.1-1.1-10.7-3.8-11.9-4.4
		C39.6,36.9,40.1,36.6,41.8,35.3z"/>
	<path class="st38" d="M58,22.4c-0.1,0.1,0.3,0.3,0.9,1.6c0.3,0.6,0.4,0.9,0.4,1.4c0,0.2,0,0.5-0.2,0.8c-0.1,0.1-0.3,0.6-0.8,0.7
		c-0.5,0.2-1.2-0.1-1.6-0.6c-0.3-0.2-0.6-0.4-0.7-0.3c-0.2,0.1,0.4,0.8,0.3,1.3c-0.3,1-3.7,0.5-3.8,0.8c0,0.2,2.5,1.2,5.3,0.5
		c0.8-0.2,2.1-0.5,2.6-1.6c0.4-0.8,0.1-1.7-0.1-2C59.7,23.1,58.1,22.2,58,22.4z"/>
	<path class="st32" d="M55.6,14.9c0-0.1-2.2-0.1-2.8,0.9c0,0.1-0.3,0.5-0.1,1c0.1,0.3,0.3,0.5,0.7,0.8c0.1,0.1,1.8,1.3,2,1.1
		c0.1-0.1-0.2-0.7-0.5-1c-0.4-0.4-0.7-0.4-1-0.9c-0.1-0.2-0.3-0.4-0.2-0.7c0.1-0.4,0.4-0.6,0.5-0.7c0.2-0.1,0.3-0.1,0.8-0.2
		C55,15.2,55.7,15,55.6,14.9z"/>
	<path class="st32" d="M54.4,15.7c-0.1,0-0.4,0.1-0.4,0.2c0,0.2,0.7,0.2,1.3,0.8c0.5,0.4,0.5,0.9,0.8,0.9c0.2,0,0.4-0.2,0.4-0.4
		c0.1-0.3-0.4-0.7-0.9-1C55.2,15.9,54.9,15.6,54.4,15.7z"/>
	<path class="st32" d="M58.1,15.3c-1.1,0.6-0.6,1.3-2.1,2.6c-0.4,0.4-1.5,1.2-1.8,2.1c-0.2,0.4-0.1,0.7-0.1,0.8
		c0.1,0.3,0.4,0.7,0.4,0.7s0.5,0.3,0.7,0.1c0.1-0.1,0.1-0.2,0.1-0.5s-0.1-0.5-0.1-0.6c-0.1-0.2-0.1-0.3-0.1-0.4c0,0,0-0.2,0.2-0.4
		c0.3-0.3,0.5-0.4,0.8-0.7c0.1-0.1,0.2-0.2,0.2-0.2c0.1-0.2,0.2-0.3,0.4-0.5c0,0,0.2-0.2,0.7-0.7c0,0,0.2-0.6,0.6-1.1
		c0.6-0.8,1.8-1.4,2.5-1.3c0.1,0,0.4,0.1,0.8,0c0.1,0,0.3-0.1,0.3-0.1C61.4,15,59.5,14.5,58.1,15.3z"/>
	<path class="st32" d="M57.7,17c-0.2,1.2-2,2.2-2.3,3.2c0,0.7-0.5,2.2,0.8,1.3c-0.1-0.2-0.2-0.6-0.1-1.1c0.2-0.7,0.7-1.1,0.8-1.2
		c0.2-0.2,0.7-0.5,1-1.1c0.2-0.3,0.3-0.6,0.3-0.7c0.1-0.2,0.1-0.3,0.1-0.5c0.4-0.3,1.1-0.8,2.2-0.9c0.9-0.1,1.8,0,2.1,0
		C61.3,14.9,58.6,15.5,57.7,17z"/>
	<path class="st32" d="M58.4,15c0-0.3,0.6-0.7,1.2-0.8c0.8-0.2,1.5,0.3,2.2,0.7c2.6,1.5,5.1,1.4,5,1.8c0,0.2-0.6,0.3-0.9,0.3
		c-0.5,0.1-0.8-0.1-1.7-0.4c-1.3-0.4-1.1-0.4-1.4-0.5c-0.6-0.3-0.7-0.4-1.6-0.9c-1-0.5-1.2-0.5-1.3-0.5c-0.5,0.1-0.7,0.6-1.1,0.6
		C58.6,15.2,58.4,15.1,58.4,15z"/>
	<path class="st39" d="M60.8,22.6c-0.1,0-0.3,0-0.3,0.1s0.1,0.2,0.2,0.3c0.1,0.1,0.4,0.4,0.6,0.6c0.3,0.5-0.1,1.3,0,1.4
		c0.1,0,0.2-0.1,0.3-0.3c0.3-0.4,0.3-1.1-0.1-1.5c-0.1-0.1-0.1-0.1-0.3-0.3C61,22.7,61,22.6,60.8,22.6z"/>
	<path class="st39" d="M58.6,20.7c0,0,0,0.2,0.1,0.4c0,0.1,0.2,0.3,0.4,0.5s0.3,0.2,0.7,0.5c0.3,0.2,0.4,0.3,0.4,0.3
		c0.1,0,0.1-0.2,0-0.3c-0.1-0.1-0.2-0.2-0.5-0.3c-0.5-0.2-0.5-0.2-0.6-0.3C58.8,21.2,58.6,20.7,58.6,20.7z"/>
	<path class="st32" d="M60.8,16.4c-0.2-0.2-1.1,0.1-1.8,0.7c-0.4,0.4-0.3,0.4-0.8,1.1c-0.8,0.9-1.2,1-1.7,1.8
		c-0.2,0.4-0.4,0.8-0.3,0.9c0.1,0,0.2-0.1,0.9-0.6c0.2-0.2,0.2-0.2,0.4-0.3c0.3-0.3,0.6-0.5,0.6-0.5c0.8-0.6,0.7-1.4,1.5-2
		c0.5-0.3,1-0.3,1.2-0.7C60.8,16.7,60.9,16.5,60.8,16.4z"/>
	<path class="st32" d="M61.1,16.4c0.3-0.4,1.2-0.1,1.5,0c1,0.2,1,0.7,1.9,1c1.1,0.4,1.5-0.1,2.6,0.4c0.2,0.1,0.9,0.4,0.8,0.7
		c0,0.2-0.3,0.3-0.6,0.3c-0.3,0-0.6-0.2-0.8-0.4c-0.7-0.4-1.1,0-2.2-0.3c-1.4-0.3-1.8-1.3-2.7-1.1c-0.2,0-0.5,0.2-0.7,0
		C60.9,16.9,60.9,16.6,61.1,16.4z"/>
	<path class="st32" d="M65.3,17.2c0-0.2,1-0.2,1.3-0.2c0.7,0,3.4,0.1,3.8,1.3c0.1,0.2,0.1,0.5-0.1,0.6s-0.6-0.6-1.4-1
		c-0.9-0.4-2-0.3-2-0.3c-0.3,0-0.7,0.1-1.2-0.1C65.5,17.5,65.2,17.3,65.3,17.2z"/>
	<path class="st32" d="M60.6,17.3c0.6-0.1,1,0.2,1.7,0.4c1.5,0.5,2.6,0.4,3.3,1.1c0.1,0.1,0.3,0.3,0.3,0.5c0.1,0.4,0,0.8-0.2,0.8
		c-0.1,0-0.2-0.2-0.3-0.3c-0.5-0.7-1.6-0.6-3.1-1.2c-1.1-0.4-1.2-0.8-1.8-0.8c-0.8,0-1.4,0.5-1.4,0.4c-0.1-0.1,0.2-0.4,0.4-0.6
		C59.9,17.5,60.3,17.4,60.6,17.3z"/>
	<path class="st32" d="M55.5,15.5c-0.1-0.6,0.7-1.1,1.1-1.4c0.3-0.2,1-0.6,1.2-0.4c0.2,0.2,0,0.6-0.1,0.6c-0.3,0.6-0.8,0.5-1.2,1
		c-0.3,0.4-0.2,0.7-0.4,0.8C55.9,16.2,55.5,15.9,55.5,15.5z"/>
	<path class="st32" d="M56.5,16.2c-0.1-0.7,1-1.7,1.5-1.5c0.1,0,0.2,0.1,0.2,0.2c0,0.2-0.4,0.2-0.7,0.5c0,0-0.2,0.3-0.5,0.7
		c-0.2,0.3-0.2,0.4-0.3,0.4C56.6,16.6,56.5,16.4,56.5,16.2z"/>
	<path class="st32" d="M54.1,16.2c0.1-0.1,0.8,0.2,1.2,0.7c0.2,0.2,0.3,0.4,0.4,0.7c0,0.2,0.1,0.3,0,0.4c-0.2,0.1-0.9-0.4-1.3-1.1
		C54.2,16.7,54,16.3,54.1,16.2z"/>
	<path class="st26" d="M66.7,19"/>
	<path class="st32" d="M65.4,18.2c-0.1,0.2,0.9,1.1,2.1,1.5c1.8,0.6,3.8,0.1,3.8-0.3c0-0.1-0.2-0.3-0.4-0.4
		c-0.4-0.2-0.7,0.1-1.2,0.2c-0.6,0.1-1.1,0-1.9-0.3c-0.6-0.2-0.9-0.5-1.8-0.7C65.6,18.2,65.4,18.1,65.4,18.2z"/>
	<path class="st40" d="M68.7,19.9c0.2,0.3,0.9,0,1.4-0.1c0.9-0.2,1.7-0.1,3.3,0.2c1.5,0.3,2.9,0.5,4.3,1.6c1.8,1.4,2.9,3.8,2.9,5.9
		c0,0.9-0.1,2,0.1,2s0.5-0.6,0.7-1.1c0.6-1.7-0.3-3.4-0.9-4.6c-0.7-1.3-1.3-2.6-2.9-3.6c-0.9-0.6-2.7-0.8-6.3-1.2
		c-0.8-0.1-2-0.2-2.5,0.4C68.7,19.5,68.6,19.8,68.7,19.9z"/>
	<path class="st40" d="M68.4,21c2.3-1.1,5.1,0.1,5.5,0.3c1.9,0.8,2.9,2.1,3.6,1.7c0.2-0.1,0.3-0.3,0.3-0.5c0-0.4-0.8-0.6-1.6-0.9
		c-1.6-0.6-1.4-0.8-2.6-1.2c-1.5-0.5-2.7-0.3-5.1,0c-0.8,0.1-1.6,0.3-1.9,0.8c-0.1,0.2-0.2,0.5,0,0.6C67,21.9,67.8,21.3,68.4,21z"/>
	<path class="st41" d="M76,20.8c-0.2,0.3,2.7,1.9,3.1,4.4c0.2,1.8-1,3.5-0.6,3.7c0.2,0.1,0.5-0.2,0.7-0.4c0.2-0.3,0.3-0.6,0.3-0.8
		c0.3-1.8,0.4-2.6,0.3-3.1c-0.4-2.1-2.2-3.2-2.7-3.5C77,21.2,76.1,20.7,76,20.8z"/>
	<path class="st42" d="M77.8,21.9c0.8,0.5,0.9,1.5,1.3,2.9c0.5,1.9,0.9,1.6,1.2,3c0.2,1,0.6,3-0.5,4c-1.3,1.1-3.9,0.3-3.9,0
		c0-0.2,0.5-0.4,1-0.4c0.4,0,0.6,0.3,0.9,0.3c0.6,0.1,1.1-0.7,1.3-0.8c1.5-2.1-2.6-8.5-1.8-9.1C77.4,21.7,77.6,21.8,77.8,21.9z"/>
	<path class="st43" d="M71.1,18.5c1.3,0.2,2.2,1.2,3.2,2.2c0.3,0.4,0.7,0.8,0.8,0.9c0.2,0.2,0.7,0.8,1.1,1.4
		c0.6,0.8,1.2,1.8,1.3,2.9c0.1,1.3-0.4,2.8-0.9,2.8c-0.4,0-0.8-0.8-0.6-1.2c0.1-0.2,0.5-0.1,0.7-0.4s0-0.7-0.1-0.9c-1-2-1.4-3-2-3.6
		c-1.5-1.7-2.9-3.2-4.8-3.2c-1.8,0-3.5,1.3-3.7,0.9c-0.1-0.1,0-0.2,0-0.3c0.5-1.1,2.3-1.3,3.3-1.5C70.2,18.5,70.6,18.4,71.1,18.5z"
		/>
	<path class="st40" d="M68.4,18.6"/>
	<path class="st40" d="M63.1,26.1c1.2,0.2,2,0.5,2.1,0.6c1.8,0.7,4.1,1.5,5.2,1.8c1.7,0.5,2.5,0.7,3.5,0.6c1.3-0.2,2.3-0.8,2.4-0.5
		c0.1,0.2-0.4,0.7-0.9,1s-1.9,1.2-6.2-0.1c-3.8-1.1-7-3.1-6.9-3.4C62.2,25.9,62.5,26,63.1,26.1z"/>
	<path class="st40" d="M64,25c0.4-0.2,0.9-0.1,1.6,0.1c1,0.3,1.7,0.6,2.1,0.8c2.1,0.9,1.9,0.9,2.2,1c0.3,0.1,1.5,0.4,2.9,0.2
		c0.5-0.1,0.9-0.2,1.4-0.5c0.9-0.6,1.1-1.4,1.4-1.3c0.2,0.1,0.4,0.6,0.3,0.9c0,0,0,0.2-0.1,0.4c-0.5,1-2.1,1.5-2.1,1.5
		c-1.8,0.5-3.5,0.1-4.8-0.3c-1.7-0.5-1.4-0.7-3.2-1.2c-1.5-0.4-2.5-0.5-2.6-0.9C63.1,25.4,63.7,25.1,64,25z"/>
	<path class="st40" d="M71.9,20.8c-0.4-0.1-1-0.2-1.1,0s1,0.4,1.9,1.4c0.1,0.1,1.3,1.3,1.3,2.7c0,0.6-0.2,1.2-0.4,1.5l-0.1,0.1
		c-0.4,0.3-0.7,0.4-0.7,0.4s0.7,0.1,1.3-0.3c0.2-0.1,0.7-0.5,0.9-1.1c0.2-0.6-0.1-1.1-0.6-2c-0.7-1.4-1.4-1.9-1.6-2
		C72.5,21.1,72.2,20.9,71.9,20.8z"/>
	<path class="st42" d="M70.2,21.1c-1-0.1-1.1,0.5-2.6,0.8c-0.4,0.1-0.8,0.1-1.1,0.5c-0.2,0.2-0.4,0.6-0.3,0.7
		c0.1,0.2,0.9-0.2,1.9-0.6c1.3-0.4,2.3-0.8,3.3-0.3c1.2,0.6,1.5,2.1,1.6,2.3c0.1,0.4,0.2,0.8-0.1,1.2c-0.5,0.8-2.1,0.5-2.1,0.7
		c0,0.1,0.6,0.4,1.2,0.3c0.1,0,1.2-0.1,1.7-0.9c0.4-0.7,0-1.5-0.4-2.3c-0.2-0.5-0.8-1.6-2.1-2.1C71,21.2,70.6,21.1,70.2,21.1z"/>
	<path class="st44" d="M69,22.8c-0.5,0-0.8,0.2-1.4,0.4c-1,0.4-1.6,0.6-1.6,1c0,0.3,0.3,0.5,0.5,0.6c0.5,0.2,1-0.1,1.3,0.1
		c0.2,0.1,0.3,0.4,0.2,0.5c-0.3,0.4-3.2-0.6-3.1-1.4c0-0.4,0.7-0.7,2.2-1.2c1.1-0.4,1.9-0.6,2.7-0.6c0.7,0,1,0.1,1.2,0.3
		c0.2,0.1,0.4,0.4,0.8,0.9c0.5,0.6,0.6,0.8,0.6,0.9c0.1,0.5-0.1,1-0.2,1s-0.1-0.5-0.4-1c-0.4-0.9-1.3-1.3-1.3-1.3
		C69.9,22.7,69.3,22.7,69,22.8z"/>
	<path class="st45" d="M69.7,23c-0.6-0.3-1.6,0.2-1.5,0.4c0,0.1,0.5-0.1,1.1,0.1c0.3,0.1,0.6,0.3,0.9,0.6c0.7,0.5,1,0.8,1,1.1
		c-0.1,0.5-1.7,0.7-1.6,0.9c0,0.1,0.3,0.1,0.4,0.1c0.3,0,0.6,0,0.7-0.1c0.8-0.3,1.3-0.4,1.4-0.6c0.2-0.5-0.5-1.1-0.8-1.3
		c-0.3-0.3-0.5-0.3-1-0.7C69.9,23.1,69.9,23.1,69.7,23z"/>
	<path class="st44" d="M66.7,23.9c0,0.2,0.5,0.2,1,0.7c0.3,0.2,0.5,0.4,0.6,0.7c0.1,0.5-0.3,0.8-0.2,0.9c0.1,0.1,0.8-0.2,0.8-0.6
		c0.1-0.3-0.2-0.6-0.8-1.2c-0.7-0.8-1-0.9-1.1-0.8C66.9,23.6,66.7,23.8,66.7,23.9z"/>
	<path class="st44" d="M67.7,23.6c0,0,0.1,0.2,0.3,0.4c0.6,0.6,0.9,0.6,1.1,0.9c0.4,0.5,0.1,1.3,0.2,1.3s0.2-0.3,0.3-0.6
		c0-0.1,0.1-0.6-0.1-1C69.1,23.6,67.8,23.4,67.7,23.6z"/>
	<path class="st44" d="M70,24.2c-0.1,0,0.1,0.4,0,0.8c-0.1,0.6-0.5,0.8-0.5,0.9c0.1,0.1,0.6-0.1,0.9-0.5c0,0,0.2-0.4,0-0.8
		C70.3,24.3,70.1,24.1,70,24.2z"/>
	<path class="st45" d="M76.3,22.8c-0.1,0.1,0.5,0.7,0.9,1.6c0.3,0.6,0.8,1.8,0.4,3.2c0,0.1-0.4,1.5-1.7,2.2
		c-0.3,0.2-0.6,0.3-0.8,0.3c-1.1,0.4-1.9,0.1-2,0.2c-0.1,0.2,1,1,2.3,0.9c1.2-0.1,1.9-1.1,2.2-1.5c0.9-1,0.9-2.1,0.9-2.4
		s0-0.5-0.1-0.9c-0.2-1-0.4-2-1.1-2.9C76.9,23.1,76.4,22.8,76.3,22.8z"/>
	<path class="st40" d="M77,26L77,26c-1.6,1.6-2.2,2-2.2,2c-1.7,1-3.5,0.5-3.5,0.7c0,0.1,1.8,0.8,3.3,0.1C76,27.9,77,26,77,26z"/>
	<path class="st46" d="M62.4,20.1c0.2,0.3,0.9,1.2,0.9,2.1c0,1-0.8,1.2-1.7,3.3c-0.1,0.3-0.2,0.5-0.3,0.7c1.2-0.7,2-1.4,2.7-1.9
		c1.4-1.2,2.6-2.1,2.3-2.9c-0.1-0.3-0.4-0.6-0.7-0.8c-0.3-0.3-0.6-0.3-1-0.5c-0.7-0.4-0.7-0.5-1.2-0.8c-0.9-0.3-1.9-0.6-2-0.4
		C61.3,19.1,61.9,19.4,62.4,20.1z"/>
	<path class="st47" d="M65.2,11.8c-3.3-0.6-6-0.7-6-0.6c0,0.1,3.5,0.3,7.6,1.4c0.8,0.2,1.7,0.5,2.7,0.9c1.6,0.6,2.7,1.2,3.4,1.6
		c0.3,0.2,1.4,0.7,2.3,1.3c3.2,2.1,4.7,4.5,4.9,4.4c0.2-0.1-1.2-2.7-3.3-4.3c-0.3-0.2-0.9-0.7-1.6-1.1c-1.2-0.6-0.9-0.6-2.2-1.2
		c-0.4-0.2-0.9-0.4-2.3-0.9C68,12.3,65.7,11.9,65.2,11.8z"/>
	<path class="st47" d="M33.4,34.2c0.1-0.1,1.3,1.3,3.6,3.2c0.5,0.4,1.2,1,2.2,1.6c0.3,0.2,0.8,0.4,1.7,0.9c1.6,0.9,2.4,1.3,2.8,1.5
		c0.6,0.2,1.2,0.4,2.5,0.8c1.3,0.4,2.2,0.6,3.4,0.8c1.8,0.3,3,0.3,3,0.3s-3.5,0.4-7.5-0.8c-1.8-0.6-3.2-1.3-5.1-2.3
		c-2.6-1.4-3.6-2.3-3.9-2.5C34.4,36,33.3,34.3,33.4,34.2z"/>
	<path class="st47" d="M54.9,43.6c-0.3-0.1-0.7-0.1-1.1,0c-0.1,0-0.2,0.1-0.3,0.1c0,0.3,2.5,0.4,2.5,0.4c1-0.1,1.5-0.2,1.5-0.3
		C57.3,43.7,56.5,43.6,54.9,43.6z"/>
	<path class="st22" d="M82.6,33.9c-1.1,2.4-4.2,8-10.7,11.7c-1.6,0.9-5.8,3.3-11.7,3.4c-2.4,0.1-4.4-0.3-5.8-0.6
		c0.6,0.4,1.5,0.8,2.6,1.2c0.6,0.2,2.1,0.6,4.6,0.4c2.5-0.1,4.3-0.7,6.1-1.4c2.6-0.9,6-2.1,9.3-4.9c0.9-0.7,1.5-1.4,1.9-1.9
		c-1,2-2.7,4.5-5.4,6.6c-1.8,1.3-3.4,2.1-4.3,2.4c-2,0.9-3.9,1.3-5.2,1.5c-1.4,0.2-3.4,0.5-5.8,0.5c-2.1,0-5.3,0-9.3-1.1
		c-3.9-1.1-7-3-9.2-4.7c2.1,2.2,4.1,3.5,5.5,4.3c4,2.2,7.7,2.7,9.2,2.9c2,0.3,4.4,0.3,4.9,0.3c1.4,0,2,0,2.6,0
		c0.2,0,2.7-0.2,4.7-0.6c3.7-0.9,6.5-3.1,7.4-3.7C80.8,45,82.4,35,82.6,33.9z"/>
	<path class="st48" d="M44.9,30.2c0.4-0.6,1.2-0.2,3.1-0.6c0.9-0.2,1.4-0.4,1.8-0.1c0.4,0.3,0.3,0.7,0.7,0.9
		c0.4,0.2,0.7-0.3,1.6-0.4c0.3,0,0.2,0,0.8,0.1c0.9,0.1,1.3,0,1.3,0c0,0.2-2.1,0.3-3.5,1.7c-1.1,1-1.5,2.6-1.2,2.8
		c0.2,0.2,0.9-0.4,1-0.3c0.1,0.1-0.4,0.6-1.3,1.7c-0.7,0.9-0.7,1-1,1.3c-0.9,0.7-1.9,1-2,0.8s1.1-0.6,1.5-1.7
		c0.4-1.1-0.5-1.7-0.1-2.7c0.3-0.8,1.1-0.9,1.2-1.8c0-0.2,0.1-0.6-0.1-0.8c-0.8-0.7-4.3,2.2-4.6,2C44,33,44.7,32.5,45,31.4
		C44.9,30.6,44.7,30.5,44.9,30.2z"/>
	<path class="st48" d="M54,31.5c0.2-0.1,0.5,0.1,1,0.5c0.3,0.2,0.4,0.3,0.5,0.4c0.1,0.1,0.1,0.3,0.1,0.8c-0.1,0.4-0.2,0.7-0.6,1.5
		c-0.3,0.6-0.3,0.5-0.5,0.8c-0.4,0.8-0.4,1.1-0.7,1.7c-0.4,0.7-0.6,1.1-0.9,1.5c-0.2,0.2-1.4,1.5-2.1,1.2c-0.4-0.1-0.3-0.5-0.8-1
		c-0.6-0.6-1.1-0.7-1.1-0.8c0-0.2,0.7-0.1,1.4-0.3c1-0.3,2.3-1.1,2.3-1.9c0-0.7-1-1-0.9-1.5c0.1-0.2,0.3-0.3,0.8-0.5
		c0.9-0.4,1-0.3,1.3-0.5C54.2,32.9,53.6,31.7,54,31.5z"/>
	<path class="st48" d="M56.7,35.6c0.5,0.7,0.6,0.6,0.8,1.1s0.1,0.7,0.4,2.4c0.1,0.7,0.1,1,0,1.2c-0.2,0.3-0.5,0.3-1.2,0.4
		C54.4,41,54.3,41,53.9,41c-0.9-0.2-1.7-0.7-1.6-0.9c0.1-0.2,1.3,0.4,2.7-0.1c0.3-0.1,0.7-0.2,0.9-0.6c0.5-0.6,0.6-1.7,0.2-2.4
		c-0.4-0.6-1-0.7-1-1.2c0-0.3,0.2-0.3,0.4-0.8c0.4-0.9,0-1.7,0.1-1.7C55.6,33.2,55.9,34.4,56.7,35.6z"/>
	<path class="st48" d="M45.6,34.7c-0.1-0.9-0.2-1.6-0.4-1.6c-0.3,0-0.2,1.9-1.6,3.2c-0.9,0.9-1.9,0.9-1.9,1.4c0,0.2,0.2,0.3,1.9,1.2
		c1.3,0.7,1.7,1,2.4,0.8c0.4-0.1,0.8-0.3,0.8-0.4c0-0.2-1.3,0-1.6-0.5c-0.1-0.2,0.1-0.4,0.3-1.2c0.2-0.6,0.2-1.1,0.2-1.3
		C45.7,35.5,45.6,35.1,45.6,34.7z"/>
	<path class="st49" d="M44.6,29.8c-0.3,0-0.2,0.7-0.6,1.8c-0.3,0.8-0.7,1.4-0.9,1.9c-0.8,1.3-1.4,1.7-1.3,1.8
		c0.1,0.2,1.5-0.5,2.4-1.7c0.2-0.3,0.4-0.7,0.7-1.3c0.4-1,0.4-1.3,0.4-1.6C45.1,30.2,44.8,29.8,44.6,29.8z"/>
	<path class="st49" d="M53.3,29.8c0.1,0,0.2,0.1,0.5,0.2c0.2,0.1,0.5,0.2,0.8,0.4c0,0,0.5,0.3,0.8,0.9c0.6,0.9,0.3,4.3-2.1,6.3
		c-2.7,2.3-6.8,1.6-6.9,1.5c0-0.1,0.5-0.1,1.1-0.5c0.5-0.3,0.5-0.5,1-0.7c0.2-0.1,0.2,0,0.9-0.2c0.3-0.1,0.5-0.1,1-0.3
		c1.2-0.3,1.2-0.3,1.4-0.4c0.8-0.3,1.2-0.9,1.7-1.7c0,0,1-1.6,1-3.4c0,0,0-0.5-0.2-0.9c-0.1-0.2-0.2-0.3-0.3-0.4
		c0,0-0.1-0.1-0.2-0.2c-0.2-0.1-0.2-0.1-0.4-0.1c-0.2-0.1-0.1-0.1-0.4-0.2c-0.3-0.1-0.5-0.3-0.5-0.3l0,0
		C52.5,29.8,52.9,29.8,53.3,29.8z"/>
	<path class="st22" d="M53.5,47.9c0-0.2-1.6-0.3-4.4-1.3c-0.9-0.3-1.2-0.5-3-1.1C44.6,45,44.6,45,44,44.7c-2.4-0.9-3.8-1.9-3.9-1.8
		c-0.1,0.1,1.3,1.2,3,2.2c0.3,0.2,1.6,1,3.6,1.7c1.3,0.5,2.2,0.9,3.5,1.1C51.9,48.2,53.5,48.1,53.5,47.9z"/>
	<path class="st50" d="M47,25.8c-0.1,0.1-0.1,0.2-0.2,0.5c-0.1,0.4-0.3,0.5-0.2,0.6c0.1,0.2,0.8,0,0.9-0.3c0-0.1,0-0.2,0-0.4
		c0.1-0.4,0.4-0.5,0.3-0.6C47.7,25.5,47.2,25.5,47,25.8z"/>
	<path class="st50" d="M48.1,25.7c0,0.1,0,0.2,0,0.4c0,0.3-0.2,0.5-0.2,0.5c0.1,0.1,0.4-0.1,0.5-0.2s0.5-0.3,0.4-0.4
		c0-0.1-0.2-0.1-0.3-0.2c-0.1-0.2,0.5-0.4,0.4-0.5c0-0.1-0.3,0-0.6,0.1C48.3,25.4,48.1,25.5,48.1,25.7z"/>
	<path class="st50" d="M45,16.8c-0.2,0.3,0,0.5,0,1.3c0,0.8,0.1,1.9-0.5,2.5S43,21,43,21.2s0.7,0.4,1.4,0.2c0.8-0.3,1.1-1.2,1.2-1.4
		c0.5-1.5-0.2-2.7,0.4-3.4c0.3-0.3,0.7-0.5,0.7-0.5c0.4-0.2,0.6-0.3,0.6-0.3C47.2,15.8,45.5,15.8,45,16.8z"/>
	<path class="st49" d="M52.7,28.6c0,0,1.1,0.4,2,1.2c0.2,0.2,0.7,0.7,0.7,0.7l0,0l-0.1,0.2c-0.1,0.2,0.3,0.5,0.4,0.7
		c0.4,0.6,0,1.2,0.3,1.3s0.9-0.4,0.9-1c0-0.3-0.2-0.6-0.7-1.2s-0.7-0.8-1.1-1.1c-0.3-0.2-0.3-0.1-1.1-0.4
		C53.2,28.8,52.7,28.6,52.7,28.6z"/>
	<path class="st51" d="M54.7,30.8c0,0,0.3,1,0.1,2.2c-0.1,0.5-0.2,0.8-0.3,1c-0.6,1.7-1.8,2.7-1.8,2.8c0.1,0,0.8-0.4,1.4-1.3
		c0.5-0.9,0.7-1.9,0.8-1.9S55,34,55.1,34c0.1,0,0.1-0.2,0.2-0.2c0.1,0,0,0.4,0,0.4c0.1,0,0.3-0.9,0.3-0.9s-0.2,0.2-0.3,0.2
		s-0.2-0.2-0.2-0.2s0,0,0-0.1c0-0.1-0.1-0.2-0.1-0.2c-0.1-0.2,0-0.9-0.1-1.5C54.8,31,54.7,30.8,54.7,30.8z"/>
	<path class="st51" d="M51.2,37.5c-0.1,0.1-0.1,0.1-0.3,0.1c-0.3,0.1-0.4,0.2-0.4,0.2s0.4,0,0.5,0.1c0,0.1-0.5,0.4-0.5,0.5
		s0.7-0.2,0.7-0.1c0,0.1-1.3,0.7-1.3,0.8s0.8-0.1,1.6-0.4c0.8-0.4,1.3-0.8,1.2-0.9c0,0-0.8,0.5-0.8,0.3c-0.1-0.1,0.2-0.4,0.2-0.4
		s-0.3,0.2-0.3,0.1c0,0,0.4-0.4,0.3-0.5C51.9,37.1,51.3,37.4,51.2,37.5z"/>
	<path class="st49" d="M48.2,34.9c-0.4-0.1-0.8,0.4-1.4,0.9c-1,0.8-2,1.2-2.7,1.4c-1.5,0.5-2.4,0.4-2.5,0.7c0,0.3,0.9,0.6,1.4,0.8
		s0.8,0.3,1,0.3c1.3,0.1,1.5-1.3,3.7-2.5c0.5-0.3,1-0.5,1-0.9C48.8,35.4,48.6,35,48.2,34.9z"/>
	<path class="st37" d="M60.8,37.8c0,0.5-0.2,1.5-0.9,2.4c-1.2,1.6-3.2,1.8-3.5,1.8"/>
	<path class="st49" d="M58,34.4c0,0,0.8,0.3,1.1,1.1c0.3,0.6,0.1,1.3-0.1,2.5c-0.1,0.5-0.2,0.8-0.3,1c-0.3,0.7-0.7,1-0.7,1
		c0.1,0.1,0.8-0.3,1.3-1c0.3-0.5,0.3-0.9,0.4-1.3c0.1-0.5,0.1-1.2-0.2-1.9C59,34.8,58,34.4,58,34.4z"/>
	<path class="st49" d="M59.3,34.8c0,0,1.1,1.2,1,2.7c0,0.2-0.1,0.4-0.2,0.9c-0.2,0.7-0.4,1.3-0.8,1.9c-0.3,0.4-0.7,0.6-0.8,0.8
		c-1.2,0.8-2.6,0.8-2.6,0.7s0.2-0.2,0.7-0.4c0.6-0.2,0.7-0.2,1.1-0.4c0.3-0.1,0.6-0.3,1-0.6c0.3-0.3,0.5-0.6,0.7-0.8
		c0.2-0.3,0.4-0.7,0.6-1.1c0-0.1,0.2-0.6,0.1-1.4C59.9,35.6,59.3,34.8,59.3,34.8z"/>
	<path class="st52" d="M60.4,35.4c-0.1,0,0.3,1.4-0.1,3.1c-0.5,2.1-2.2,3.5-2.1,3.5c0,0,0.3-0.3,0.8-0.8c0.4-0.4,0.5-0.4,0.7-0.7
		s0.3-0.5,0.5-1.1c0.2-0.9,0.4-1.3,0.4-1.8C60.8,36.5,60.5,35.4,60.4,35.4z"/>
	<path class="st52" d="M60.7,35.6c-0.1,0,0.3,1.6,0.4,2.5c0,0.1,0,0.4,0,0.7c0,0,0,0.3-0.2,0.5c-0.4,0.8-2.3,2.7-2.3,2.8
		c0,0,0.5-0.2,1-0.7c0.5-0.4,0.5-0.6,1-1.3c0.5-0.5,0.5-0.5,0.7-0.7c0.2-0.4,0.2-0.8,0.1-1.6C61.1,36.6,60.7,35.6,60.7,35.6z"/>
	<path class="st52" d="M61.6,39.7c0,0-0.4,0.5-1,1.2c-0.8,0.7-1.4,1.1-1.4,1.1s0.8-0.3,1.5-1C61.3,40.4,61.6,39.7,61.6,39.7z"/>
	<path class="st52" d="M55.5,34.8c-0.1,0-0.5,1.4-1.2,2.5c-1.8,2.8-5.9,3.1-5.8,3.2c0,0,0.4,0,2.4-0.5c1-0.2,1.6-0.4,2.2-0.7
		c0.5-0.3,0.9-0.5,1.2-0.8c0.5-0.3,0.7-0.5,0.9-0.8c0.3-0.5,0.4-1,0.4-1.1c0-0.2,0-0.2,0-0.7C55.4,35.2,55.6,34.8,55.5,34.8z"/>
	<path class="st51" d="M49.2,28.1c-0.1,0-0.3,0.6-0.5,0.6c-0.1,0-0.1-0.2-0.2-0.2c-0.2-0.1-0.4,0.3-0.9,0.4c0,0-0.5,0.1-0.9-0.1
		c-0.3-0.2-0.4-0.4-0.4-0.4s0.1,0.4,0.4,0.5c0.4,0.2,0.8,0.2,0.9,0.1c0.4-0.1,0.6-0.4,0.8-0.3c0.1,0.1,0.1,0.3,0.2,0.4
		c0.1,0,0.2-0.3,0.3-0.3s0.1,0.4,0.3,0.4c0.1,0,0.2-0.3,0.4-0.3c0.1,0,0.1,0.2,0.2,0.2c0.2,0.1,0.5-0.4,0.6-0.4s-0.3,0.7-0.1,0.8
		c0.1,0,0.3-0.3,0.7-0.3c0.2,0,0.3,0,0.3,0.1c0.2,0.1,0.4,0.2,0.3,0.2c0,0-0.5-0.2-0.6-0.6c0-0.2,0-0.3,0-0.4
		c-0.1,0-0.3,0.4-0.4,0.4c-0.1,0,0.1-0.5,0-0.5c-0.2-0.1-0.6,0.5-0.8,0.4c-0.1-0.1,0-0.5-0.1-0.5s-0.4,0.6-0.5,0.5
		C49.2,28.6,49.3,28.1,49.2,28.1z"/>
	<path class="st49" d="M47.9,31.4c-0.9-0.5-2.4,0.8-2.3,1.2c0.1,0.3,0.9,0.1,1.2,0.5c0.5,0.7-0.8,2.2-0.6,2.3s1.1-0.6,1.7-1.5
		c0.6-0.9,0.6-1.4,0.6-1.5C48.4,32.3,48.4,31.6,47.9,31.4z"/>
	<path class="st53" d="M52.3,31.4c-0.3-0.1-1.1,0.5-1.2,1.2C51,33,51.2,33.1,51,33.4c-0.3,0.6-1.3,0.5-1.3,0.8s1.2,0.4,1.3,0.9
		c0.2,0.7-1.6,1.5-1.5,1.7s1.4,0.1,2-0.7c0.3-0.5,0-0.8,0.3-1.7s0.6-1,0.7-1.8C52.6,32.5,52.7,31.5,52.3,31.4z"/>
	<path class="st54" d="M61.2,26.3c0,0-0.1,0.2-0.3,0.4c-0.2,0.3-0.3,0.4-0.3,0.5c0,0.3,0.4,0.6,0.6,0.7c1.4,0.9,5.9,2.8,7.1,3.4
		c1.4,0.6,1.8,1,3.1,1.4c0.9,0.3,1.3,0.3,2.3,0.7c0.8,0.3,1,0.5,1.7,0.7c0.2,0.1,0.9,0.2,1.8,0.2s1.3-0.3,1.4-0.3s0.7-0.4,0.6-0.7
		c-0.1-0.4-1.5,0.1-3.3-0.2c-0.4-0.1-1.5-0.5-3.8-1.3c-0.7-0.3-1.1-0.4-1.6-0.6c-1.3-0.5-1.4-0.6-2.7-1.1c-1.4-0.6-1.6-0.6-2.4-1
		s-1.4-0.7-1.7-1c-0.1-0.1-0.3-0.2-0.4-0.3C62.3,27.1,61.6,26.1,61.2,26.3z"/>
	<path class="st54" d="M65.1,30.1c0.8,0.1,0.5,0.1,3.1,0.5c1.4,0.2,2.1,0.3,2.6,0.4c2.8,0.3,5.5,0.2,5.5,0.2c0.7,0,1.3-0.1,1.3,0
		c0,0.2-1.6,0.6-2.5,0.8c-2.7,0.6-4.7,0.2-10.2-0.9c-4.5-0.8-7-1.2-7-1.7c0-0.3,0.8-0.5,1.3-0.6c0.2,0,0.5-0.1,0.9,0
		c0.3,0.1,0.4,0.2,0.9,0.4c0.1,0,0.3,0.1,0.7,0.2c0,0,0.3,0.1,0.8,0.3C63.3,29.9,64.4,30,65.1,30.1z"/>
	<path class="st54" d="M54.6,29c0,0,0.3,0.1,1,0.2c0.5,0.1,0.7,0.2,0.8,0.2c0.6,0.3,0.9,1,1,1.2c0.5,1,1.6,1.5,3.1,2.5
		c3,2.1,2.4,3.3,5,4.9c1.7,1,3.2,1.3,3.1,1.6s-1.1,0.3-2,0.1c-1.3-0.2-2.4-0.9-3.9-2.3c-1.8-1.8-1.8-2.3-3.4-4.1
		C56.9,30.9,54.4,29.2,54.6,29z"/>
	<path class="st54" d="M56.8,29.4c0.1-0.2,1.1,0,1.7,0.3c0.8,0.3,1.3,0.8,1.5,0.9c0.3,0.3,1.7,1.1,4.4,2.5c3.1,1.7,4.7,2.5,5.5,2.8
		c3.3,0.9,5.9,0.1,6,0.6c0.1,0.3-1,0.9-2,1.1c-0.7,0.1-1.1,0-3.2-0.5c-3.1-0.8-3.7-1-4.5-1.5c-0.7-0.4-1.2-0.7-1.6-1
		C60.3,31.5,56.6,29.8,56.8,29.4z"/>
	<path class="st54" d="M62,32.9c-0.1,0.1,1,1.3,2.4,2.4c0.8,0.7,1.7,1.4,2.9,1.9c0.1,0,0.6,0.3,1.3,0.5c0.8,0.2,1.7,0.5,2,0.1
		c0.2-0.2,0.1-0.8-0.2-1c-0.4-0.3-0.9,0-2.2-0.1c-0.1,0-0.1,0-0.2,0c-0.7-0.1-1.2-0.6-1.4-0.7c-0.6-0.5-0.7-0.3-2.1-1.2
		C62.9,33.7,62,32.8,62,32.9z"/>
	<path class="st55" d="M60.2,27.8c0.1-0.2,1.7,0.6,2.4,0.9c1.4,0.7,2.3,1.2,2.7,1.5c0.7,0.4,3.5,2,7,2.7c1.8,0.4,3.1,0.4,3.1,0.6
		c0,0.1-0.9,0.3-1.6,0.3c-1,0-1.8-0.3-2.1-0.4c-3.8-1.2-3.5-0.9-4.7-1.5c-2.2-1.1-1.7-1.6-3.3-2.1c-0.7-0.2-1.9-0.5-3-1.4
		C60.6,28.3,60.1,27.9,60.2,27.8z"/>
	<path class="st55" d="M61,32.8c-0.1,0.1,1,1.2,1.9,2.2c0.8,0.8,0.8,0.7,2.5,2.3c0,0,2.3,2.1,3.4,2.3c0.3,0,0.5,0,0.5,0
		c0.1,0,0.3-0.1,0.3-0.1c0.1-0.2-1.4-0.9-2.6-1.6c-0.6-0.4-1.4-1.1-3-2.4C62,33.6,61.1,32.7,61,32.8z"/>
	<path class="st54" d="M61,36.4c0.1-0.1,0.8,0.8,2.4,2.2c1.2,1.1,1.8,1.3,2.3,1.5c0.6,0.2,1.1,0.2,1.1,0.4s-1.2,0.7-2.2,0.3
		c-0.3-0.1-0.6-0.4-1.2-1.1c-0.7-0.7-1.1-1-1.4-1.5C61.4,37.5,60.9,36.5,61,36.4z"/>
	<path class="st54" d="M61.9,39c0.1,0,0.4,0.7,1.2,1.4c0.2,0.2,0.5,0.4,0.9,0.6c0.7,0.3,1.2,0.2,1.2,0.2c0,0.1-0.7,0-1.8,0.3
		c-0.4,0.1-0.6,0.2-0.8,0.1c-0.1-0.2-0.1-0.5-0.3-1.1C62.1,39.5,61.9,39,61.9,39z"/>
	<path class="st54" d="M62.4,40.7c-0.1-0.1-0.3,0.1-1.1,0.5C60,41.9,59.9,42,59.9,42c0.1,0.2,1.4,0.3,2.1-0.5
		C62.3,41.3,62.5,40.8,62.4,40.7z"/>
	<path class="st54" d="M72.5,30.7c-1.1-0.5-1.8-0.6-3.2-1c-2.7-0.7-3.9-1.2-3.9-1.2c-0.1,0.2,4.3,1.9,6.6,2.9
		c0.1,0.1,1.2,0.5,2.7,0.9c0.9,0.3,2.1,0.6,2.1,0.5c0-0.1-1-0.4-2.7-1.2C73.2,31.1,73.2,31,72.5,30.7z"/>
	<path class="st54" d="M63.6,31.2c0.1-0.1,1.2,0.2,2.2,0.5c3.4,1.1,3.4,1.4,5.5,2c0.3,0.1,4.3,1.2,6.1,1c0.1,0,0.6-0.1,0.7,0.1
		c0.1,0.2-0.5,0.5-0.8,0.7c-1.1,0.5-2.5,0-3.6-0.5c-3.2-1.2-2.9-0.5-6-1.7C65.6,32.5,63.6,31.3,63.6,31.2z"/>
	<path class="st56" d="M68.2,33.8c-1.6-0.6-2.4-0.8-3.4-1.4c-0.7-0.4-1.4-0.9-2.6-1.4c-0.7-0.3-1.6-0.5-1.7-0.4
		c0,0.1,0.4,0.4,1.2,0.8c1.8,1,2.6,1.5,3,1.7c2.6,1.3,3.9,1.9,4.6,2.2c0.4,0.1,2,0.3,5.2,0.7c0.5,0.1,1.1,0.1,1.1,0.1
		c0-0.2-2.3-0.9-3.1-1.1C70,34.3,69.9,34.4,68.2,33.8z"/>
	<path class="st50" d="M44.8,22.9c0,0-0.4,0.2-1,0.8l0,0c-0.9,0.8-1.4,1.5-2,1.8c-1,0.5-2,0-2.1,0.2c0,0.1,0.6,0.4,1.3,0.4
		c0.8,0,1.3-0.3,1.6-0.5c0.4-0.3,0.7-0.6,1.1-1.1C44.3,23.8,44.9,23,44.8,22.9z"/>
	<path class="st50" d="M46.4,23.3c0.8-0.3,0.8-0.3,1.2-0.4c0.6-0.3,0.8-0.5,0.9-0.4c0.2,0.1,0.1,0.6-0.2,1c-0.3,0.3-0.7,0.4-1,0.5
		c-0.9,0.2-1.8-0.1-1.8-0.3C45.6,23.6,45.7,23.6,46.4,23.3z"/>
	<path class="st50" d="M36.8,22.3c-0.6,0.1-0.6,0.4-1.4,0.8c-0.6,0.3-0.8,0.2-0.9,0.5c-0.2,0.3,0,0.9,0.4,1c0.3,0.1,0.6,0,0.7-0.1
		c0.4-0.2,0.5-0.7,0.7-0.7s0.2,0.3,0.5,0.5c0.2,0.2,0.5,0.4,0.7,0.3s0.1-0.6,0.1-0.6c-0.1-0.5-0.5-0.7-0.5-0.8
		c0.1-0.1,0.5,0.2,0.8,0.1s0.4-0.6,0.3-0.8C37.9,22.2,37.2,22.2,36.8,22.3z"/>
	<path class="st50" d="M51.4,17.9c-0.4,0.1-0.8,0.8-0.7,0.9s0.4-0.1,0.7,0.1c0.3,0.1,0.4,0.4,0.5,0.5s0.1,0.2,0.2,0.5
		c0.2,0.7,0,1,0.2,1.1s0.5,0,0.7-0.2C53.5,20,52.2,17.8,51.4,17.9z"/>
	<path class="st50" d="M34,26.5c-0.4,0-0.7,0.3-0.7,0.5c0,0.3,0.5,0.4,0.9,0.6c2.2,0.9,3,1.4,3.1,1.3s-0.8-0.4-2-1.6
		C34.8,26.9,34.5,26.5,34,26.5z"/>
	<path class="st50" d="M38.3,29.7c0.1-0.2,0.8,0,1.2,0.3c0.3,0.3,0.6,0.7,0.5,0.8c-0.1,0.2-0.8-0.1-1.2-0.5
		C38.6,30.3,38.2,29.9,38.3,29.7z"/>
	<path class="st50" d="M34.3,29.5c0.4,0,0.6,0.6,0.7,0.8c0.2,0.5,0,0.8,0.3,1.3c0.1,0.3,0.2,0.6,0.5,0.7c0.4,0.1,0.7-0.4,1.4-0.4
		c0.5,0,0.9,0.2,0.9,0.4c0,0.2-0.5,0.1-1.1,0.5c-0.5,0.3-0.5,0.6-0.8,0.7c-0.6,0.2-1.5-0.5-1.7-1.2c-0.1-0.4,0-0.4-0.2-0.9
		c-0.2-0.6-0.5-0.8-0.5-1.1C33.7,29.8,34,29.5,34.3,29.5z"/>
	<path class="st57" d="M35.8,29.3c-0.3,0.1-0.3,0.8-0.3,1.1c0,0.3,0,0.6,0.2,0.9c0.1,0.1,0.2,0.3,0.4,0.3c0.3,0.1,0.4-0.1,0.9-0.2
		s0.6,0,0.7-0.1C37.9,30.9,36.3,29,35.8,29.3z"/>
</g>
<g>
	<rect x="34.4" y="57.1" class="st58" width="58.2" height="27.9"/>
	<path class="st59" d="M37.9,65.1c0-0.2,0.1-0.3,0.4-0.3c0.1,0,0.2,0,0.3,0c0.4,0.2,1,0.3,1.7,0.3c0.7,0,1.4-0.1,2.1-0.2
		s2.1-0.4,4.1-0.9c0.1,0,0.1,0,0.2,0c0.4,0,0.6,0.1,0.6,0.4c0,0.3-0.2,0.5-0.7,0.6c-0.1,0-1.4,0.3-3.9,0.8c-1.2,0.3-2.1,0.4-2.7,0.4
		c-0.7,0-1.3-0.1-1.8-0.4l-0.1-0.1C38,65.5,37.9,65.3,37.9,65.1z M46,68c0.7,0.6,1,1.4,1,2.2c0,0.2,0,0.5-0.1,0.8
		c-0.2,0.7-0.6,1.2-1.1,1.7s-1.3,0.7-2.1,0.7c-0.5,0-1-0.1-1.6-0.3c-0.6-0.2-1.2-0.6-1.7-1c-0.2-0.2-0.4-0.5-0.5-0.8
		c-0.1-0.3-0.2-0.6-0.2-0.9c0-0.8,0.3-1.4,0.9-2c0.7-0.7,1.9-1.1,3.4-1.2C44.7,67.1,45.4,67.4,46,68z M41.5,68.8
		c-0.6,0.4-0.9,0.9-0.9,1.4c0,0.4,0.2,0.8,0.5,1.2c0.3,0.3,0.6,0.5,1,0.7c0.4,0.2,0.9,0.3,1.4,0.3c0.6,0,1.1-0.1,1.5-0.4
		s0.7-0.8,0.9-1.4c0-0.1,0-0.2,0-0.4c0-0.6-0.2-1.1-0.6-1.5c-0.4-0.4-0.9-0.6-1.6-0.7C42.9,68.1,42.2,68.4,41.5,68.8z M40.8,59.9
		c0-0.2,0.1-0.3,0.3-0.3c0.1,0,0.2,0,0.4,0.1c0.3,0.2,0.8,0.4,1.4,0.8c0.9,0.5,1.7,0.8,2.2,0.9c0.4,0.1,0.6,0.2,0.6,0.6
		c0,0.4-0.2,0.5-0.6,0.5c-0.5,0-1.1-0.2-1.9-0.7c-0.8-0.4-1.5-0.9-2.1-1.4C40.9,60.2,40.8,60.1,40.8,59.9z M42.3,76.2
		c0-0.2,0.1-0.3,0.4-0.3c0,0,0.1,0,0.1,0c0.1,0,0.1,0,0.2,0c0.6,0.2,0.9,0.5,1,0.6c0.1,0.4,0.1,1,0.3,1.5c0.1,0.6,0.3,0.9,0.7,1.1
		c0.1,0,0.5,0.1,1,0.1c0.6,0,1.3,0,2.1-0.1c0.8-0.1,1.4-0.2,1.8-0.3c0.2,0,0.4-0.1,0.6-0.1c0.4,0,0.6,0.2,0.6,0.5
		c0,0.3-0.2,0.5-0.6,0.6c-0.6,0.1-1.4,0.3-2.2,0.3c-0.8,0.1-1.7,0.1-2.6,0.1c-0.7,0-1.2-0.1-1.6-0.4c-0.3-0.3-0.6-0.7-0.7-1.3
		c-0.1-0.4-0.2-0.9-0.3-1.3c-0.1-0.2-0.3-0.4-0.6-0.7C42.3,76.5,42.3,76.3,42.3,76.2z M48.8,58.1c0-0.2,0.1-0.3,0.3-0.3
		c0.2,0,0.4,0.1,0.7,0.2c0.7,0.8,1.1,1.4,1.3,1.8c0.2,0.4,0.3,1.1,0.3,1.8c0,0.3,0,0.6,0,0.9c0,0.3,0,0.7,0,1c0,1.4,0,2.8,0,4.2
		c0,1.4,0,2.2,0,2.6l4.4-0.2c0.2,0,0.4,0,0.5,0.1c0.1,0.1,0.2,0.2,0.2,0.3c0,0.3-0.2,0.5-0.6,0.5h-0.3c-0.4,0-0.7,0-1,0
		c-0.3,0-0.6,0-0.9,0h-0.3h-0.3h-0.3h-0.4h-0.4h-0.5l0,2.4c-0.1,0.6-0.2,0.9-0.5,0.9c-0.2,0-0.3-0.2-0.4-0.6c0-0.4-0.1-2.3-0.2-5.9
		c0-1.3-0.1-2.9-0.1-4.7v-1.2c0-0.9-0.1-1.5-0.2-2c-0.1-0.4-0.5-0.9-1-1.5C48.8,58.4,48.8,58.3,48.8,58.1z"/>
	<path class="st59" d="M66,61.1c0-0.2,0.1-0.3,0.4-0.3c0.1,0,0.2,0,0.3,0.1s0.2,0.1,0.4,0.2c0.3,0.4,0.5,0.8,0.6,1
		c0.1,0.2,0.1,0.4,0.1,0.6c0,0.1-0.1,0.2-0.2,0.4c-0.2,0.2-0.3,0.3-0.4,0.4c-0.2,0.3-0.5,0.6-0.7,0.9c-0.2,0.3-0.4,0.5-0.5,0.6
		c0.8,0.3,1.5,0.6,1.8,0.9c0.5,0.4,1.2,1,1.9,2c0.1,0.2,0.1,0.3,0.1,0.4c0,0.3-0.1,0.4-0.4,0.4c-0.1,0-0.2,0-0.3-0.1
		c-0.6-0.7-1.2-1.3-1.8-2c-0.4-0.4-1.1-0.8-1.8-1.1c-1.3,1.5-2.5,2.7-3.6,3.4c-0.8,0.6-1.9,1-3.1,1.5c-0.3,0.1-0.6,0.1-0.8,0.1
		c-0.2,0-0.3,0-0.3-0.1c0-0.1,0.2-0.3,0.7-0.5c1.5-0.6,2.8-1.4,3.9-2.4c1.2-1.1,2.4-2.6,3.7-4.7c0.1-0.1,0.2-0.3,0.3-0.5
		c0.1-0.1,0.1-0.2,0.1-0.3c0-0.2-0.1-0.4-0.3-0.8C66,61.3,66,61.2,66,61.1z M65.1,73.2c0-0.2,0.2-0.3,0.6-0.3c0.3,0,0.5,0.1,0.7,0.1
		c0.2,0,0.6,0,1-0.1c1-0.1,1.5-0.2,1.6-0.2l3.4-0.3c0.7,0,1.3,0.1,1.7,0.4c0.4,0.2,0.6,0.7,0.6,1.3c0,0.2,0,0.4-0.1,0.7V75
		c0,0.4,0,0.7,0,1c0,0.3,0,0.6,0,0.9c0,0.6,0,1.1-0.1,1.5c-0.1,0.4-0.2,0.8-0.3,1.2c-0.2,0.4-0.4,0.5-0.5,0.5
		c-0.2,0-0.3-0.2-0.3-0.6c0.1-0.3,0.2-0.6,0.2-0.9c0-0.3,0-0.5,0-0.7c0-0.3,0-0.9-0.1-1.7c0-0.8-0.1-1.5-0.1-2c0-0.1,0-0.2,0-0.3
		c0-0.3-0.1-0.5-0.3-0.6c-0.2-0.1-0.5-0.2-0.9-0.2c-1.5,0-2.7,0.1-3.6,0.3c-1,0.2-1.7,0.4-2.3,0.6c-0.2,0-0.5-0.1-0.8-0.3l-0.2,0
		C65.2,73.4,65.1,73.3,65.1,73.2z M72.2,58.4c0-0.2,0.1-0.2,0.3-0.2c0.2,0,0.4,0.1,0.6,0.2c0.8,0.8,1.3,1.3,1.5,1.7s0.3,0.9,0.3,1.5
		c0,0.3,0,0.5,0,0.8c0,0.3,0,0.6,0,0.9c0,0.4,0,1.1,0,1.9c0,0.8,0,1.4,0,1.8c0,0.9,0,1.7-0.1,2.3c-0.1,0.6-0.2,1.1-0.3,1.5
		c-0.2,0.4-0.3,0.6-0.4,0.6c-0.1,0-0.2-0.2-0.2-0.7l0-7.6c0-0.3,0-0.5,0-0.7s0-0.4,0-0.5c0-0.5-0.1-0.9-0.2-1.2
		c-0.2-0.3-0.6-0.9-1.2-1.7C72.3,58.7,72.2,58.5,72.2,58.4z"/>
</g>
</svg>
